<!-- Generator: Adobe Illustrator 22.0.0, SVG Export Plug-In  -->
<svg version="1.1"
	 xmlns="http://www.w3.org/2000/svg" xmlns:xlink="http://www.w3.org/1999/xlink" xmlns:a="http://ns.adobe.com/AdobeSVGViewerExtensions/3.0/"
	 x="0px" y="0px" width="727px" height="510px" viewBox="0 0 727 510" style="enable-background:new 0 0 727 510;"
	 xml:space="preserve">
<style type="text/css">
	.st0{fill:#191919;}
	.st1{fill:#FFFFFF;}
	.st2{fill:#1C1B1B;}
	.st3{fill:#DBDBDB;}
	.st4{fill:#111111;}
	.st5{fill:#F7F7F7;}
	.st6{opacity:0.57;fill:#F9F9F4;}
	.st7{fill:#472304;}
	.st8{fill:#683303;}
	.st9{fill:#351902;}
	.st10{fill:#D30523;}
	.st11{fill:#141414;}
	.st12{fill:#F1F1F1;}
	.st13{fill:#070775;}
	.st14{opacity:0.85;fill:#F9F9F4;}
	.st15{fill:#070707;}
	.st16{fill:#140A03;}
	.st17{fill:#2D2D2D;}
	.st18{fill:#353535;}
	.st19{fill:#212121;}
	.st20{fill:#0F0F0F;}
	.st21{fill:#0A0A0A;}
	.st22{fill:#141413;}
	.st23{fill:#EDEDED;}
	.st24{fill:#0593E2;}
	.st25{fill:#232323;}
	.st26{fill:#F4F4F4;}
	.st27{fill:#777777;}
	.st28{fill:#E5E5E3;}
	.st29{fill:#3A3A3A;stroke:#161616;stroke-width:2;stroke-miterlimit:10;}
	.st30{fill:#1C1C1C;}
	.st31{fill:none;stroke:#000000;stroke-width:3;stroke-linecap:round;stroke-linejoin:round;stroke-miterlimit:10;}
	.st32{fill:#1E1E1E;stroke:#000000;stroke-width:2;stroke-miterlimit:10;}
	.st33{fill:#7F7F7F;}
	.st34{fill:#5B5B5B;}
	.st35{fill:#4C4C4C;}
	.st36{fill:#1E1E1E;}
	.st37{fill:none;stroke:#000000;stroke-width:3;stroke-miterlimit:10;}
	.st38{fill:#5B5B5B;stroke:#111111;stroke-width:3;stroke-miterlimit:10;}
	.st39{fill:none;stroke:#111111;stroke-width:3;stroke-miterlimit:10;}
	.st40{fill:#7F7F7F;stroke:#050505;stroke-width:3;stroke-miterlimit:10;}
</style>
<defs>
</defs>
<g>
	<path d="M577,27H325c-0.5,0-1-0.4-1-0.9c0-0.5,0.3-1,0.9-1.1l14.9-2c0,0,0.1,0,0.1,0h230.2c0.1,0,0.2,0,0.3,0l6.9,2
		c0.5,0.1,0.8,0.6,0.7,1.1C577.9,26.6,577.5,27,577,27z M339.9,25h230H339.9z"/>
	<rect x="325" y="26.6" class="st0" width="252.9" height="144.1"/>
	<path d="M576.9,27.6v142.1H326V27.6H576.9 M578.9,25.6H324v146.1h254.9V25.6L578.9,25.6z"/>
	<rect x="333.5" y="34.2" class="st1" width="237.3" height="128.9"/>
	<path d="M569.8,35.2v126.9H334.5V35.2H569.8 M571.8,33.2H332.5v130.9h239.3V33.2L571.8,33.2z"/>
	<rect x="574.4" y="21.4" transform="matrix(0.3095 -0.9509 0.9509 0.3095 373.3598 564.5197)" width="2" height="7.6"/>
	<rect x="332.1" y="23" width="239.7" height="2"/>
	<ellipse class="st2" cx="452" cy="195.5" rx="28" ry="4.5"/>
	<path d="M452,201c-1.2,0-29-0.1-29-5.5s27.8-5.5,29-5.5s29,0.1,29,5.5S453.2,201,452,201z M425,195.5c1,1.3,10.5,3.5,27,3.5
		s26-2.2,27-3.5c-1-1.3-10.5-3.5-27-3.5S426,194.2,425,195.5z"/>
	<path d="M452.5,211c-10.6,0-20.5-0.5-28-1.3c-12.5-1.4-12.5-3.2-12.5-4.2s0-2.8,12.5-4.2c7.5-0.9,17.5-1.3,28-1.3s20.5,0.5,28,1.3
		c12.5,1.4,12.5,3.2,12.5,4.2s0,2.8-12.5,4.2C473,210.5,463.1,211,452.5,211z M414.2,205.5c2.2,1.5,16.3,3.5,38.3,3.5
		s36.1-2,38.3-3.5c-2.2-1.5-16.3-3.5-38.3-3.5S416.4,204,414.2,205.5z"/>
	<path d="M491.1,206.4c-3.9-9.2-11.1-10.5-11.1-10.5l0.3-2c0.3,0.1,8.3,1.4,12.7,11.7L491.1,206.4z"/>
	<path class="st2" d="M492,207c0,0-4-11-12-11c-6,2-26,5-26,5l-3,10l15-1L492,207z"/>
	<path d="M449.6,212.1l3.6-12l0.6-0.1c0.2,0,20-3,25.8-5l0.2-0.1h0.2c8.6,0,12.8,11.2,12.9,11.7l0.4,1.2l-27.3,3.1L449.6,212.1z
		 M454.8,201.9l-2.4,8l13.6-0.9l24.6-2.8c-1.2-2.7-4.8-9-10.4-9.2C474.5,198.8,458.2,201.4,454.8,201.9z"/>
	<path class="st3" d="M336.9,49c-1.1,0-1.9-0.9-1.9-1.9v-6.2c0-1.1,0.9-1.9,1.9-1.9h223.2c1.1,0,1.9,0.9,1.9,1.9v6.2
		c0,1.1-0.9,1.9-1.9,1.9H336.9z"/>
	<path class="st4" d="M560.1,40c0.5,0,0.9,0.4,0.9,0.9v6.2c0,0.5-0.4,0.9-0.9,0.9H336.9c-0.5,0-0.9-0.4-0.9-0.9v-6.2
		c0-0.5,0.4-0.9,0.9-0.9H560.1 M560.1,38H336.9c-1.6,0-2.9,1.3-2.9,2.9v6.2c0,1.6,1.3,2.9,2.9,2.9h223.2c1.6,0,2.9-1.3,2.9-2.9v-6.2
		C563,39.3,561.7,38,560.1,38L560.1,38z"/>
	<rect x="335" y="49" class="st3" width="227" height="105"/>
	<path class="st4" d="M561,50v103H336V50H561 M563,48H334v107h229V48L563,48z"/>
	<rect x="335" y="49" class="st5" width="194" height="105"/>
	<path class="st4" d="M528,50v103H336V50H528 M530,48H334v107h196V48L530,48z"/>
	<circle class="st3" cx="547" cy="44" r="2.5"/>
	<path class="st4" d="M547,42c1.1,0,2,0.9,2,2s-0.9,2-2,2s-2-0.9-2-2S545.9,42,547,42 M547,41c-1.7,0-3,1.3-3,3s1.3,3,3,3s3-1.3,3-3
		S548.7,41,547,41L547,41z"/>
	<circle class="st3" cx="555" cy="44" r="2.5"/>
	<path class="st4" d="M555,42c1.1,0,2,0.9,2,2s-0.9,2-2,2s-2-0.9-2-2S553.9,42,555,42 M555,41c-1.7,0-3,1.3-3,3s1.3,3,3,3s3-1.3,3-3
		S556.7,41,555,41L555,41z"/>
	<path class="st4" d="M519,72H354c-0.6,0-1-0.4-1-1s0.4-1,1-1h165c0.6,0,1,0.4,1,1S519.6,72,519,72z"/>
	<path class="st4" d="M519,80H354c-0.6,0-1-0.4-1-1s0.4-1,1-1h165c0.6,0,1,0.4,1,1S519.6,80,519,80z"/>
	<path class="st4" d="M519,89H354c-0.6,0-1-0.4-1-1s0.4-1,1-1h165c0.6,0,1,0.4,1,1S519.6,89,519,89z"/>
	<path class="st4" d="M519,98H354c-0.6,0-1-0.4-1-1s0.4-1,1-1h165c0.6,0,1,0.4,1,1S519.6,98,519,98z"/>
	<path class="st4" d="M519,107H354c-0.6,0-1-0.4-1-1s0.4-1,1-1h165c0.6,0,1,0.4,1,1S519.6,107,519,107z"/>
	<path class="st4" d="M519,116H354c-0.6,0-1-0.4-1-1s0.4-1,1-1h165c0.6,0,1,0.4,1,1S519.6,116,519,116z"/>
	<path class="st4" d="M519,125H354c-0.6,0-1-0.4-1-1s0.4-1,1-1h165c0.6,0,1,0.4,1,1S519.6,125,519,125z"/>
	<path class="st4" d="M519,134H354c-0.6,0-1-0.4-1-1s0.4-1,1-1h165c0.6,0,1,0.4,1,1S519.6,134,519,134z"/>
	<path class="st4" d="M519,143H354c-0.6,0-1-0.4-1-1s0.4-1,1-1h165c0.6,0,1,0.4,1,1S519.6,143,519,143z"/>
	<polygon class="st6" points="448,162 570,78 570,162 	"/>
	<path class="st6" d="M521,35l-90,44l-11-1c0,0,9-12-2-21s-15-6-15-6l4-16H521z"/>
	<path d="M448.9,230.5h-7.5c-0.8,0-1.5-0.7-1.5-1.5s0.7-1.5,1.5-1.5h6.2c0.9-6.1,4.9-32.2,5.8-39.2c0.8-6.6-10.8-10.3-11-10.4
		c-0.8-0.2-1.2-1.1-1-1.9s1.1-1.2,1.9-1c0.6,0.2,14.2,4.5,13,13.6c-1,7.9-5.9,40.2-6,40.5C450.3,230,449.6,230.5,448.9,230.5z"/>
</g>
<g id="Calque_133_-_copie">
	<path class="st2" d="M451.9,195L451.9,195c-3.9,0-7-3.1-7-7v-17h14v17C458.9,191.9,455.7,195,451.9,195z"/>
</g>
<g id="Calque_132_-_copie">
	<path d="M451.9,196c-4.4,0-8-3.6-8-8v-18h16v18C459.9,192.4,456.3,196,451.9,196z M445.9,172v16c0,3.3,2.7,6,6,6s6-2.7,6-6v-16
		H445.9z"/>
</g>
<g>
	<polygon class="st7" points="710,463 713,468 713,229 710,229 	"/>
	<polygon class="st7" points="672,405 675,411 675,229 672,229 	"/>
	<rect x="1" y="217" class="st8" width="725" height="12"/>
	<polyline class="st7" points="14,468 18,462 18,229 14,229 14,468 	"/>
	<polyline class="st7" points="48,410 52,405.5 52,229 48,229 48,410 	"/>
	<rect x="713" y="229" class="st8" width="13" height="239"/>
	<rect x="1" y="229" class="st8" width="13" height="239"/>
	<rect x="35" y="229" class="st8" width="13" height="181"/>
	<rect x="675" y="229" class="st8" width="13" height="181"/>
	<path d="M726,230H1c-0.6,0-1-0.4-1-1v-12c0-0.6,0.4-1,1-1h725c0.6,0,1,0.4,1,1v12C727,229.6,726.6,230,726,230z M2,228h723v-10H2
		V228z"/>
	<path d="M14,469H1c-0.6,0-1-0.4-1-1V229c0-0.6,0.4-1,1-1h13c0.6,0,1,0.4,1,1v239C15,468.6,14.6,469,14,469z M2,467h11V230H2V467z"
		/>
	<path d="M726,469h-13c-0.6,0-1-0.4-1-1V229c0-0.6,0.4-1,1-1h13c0.6,0,1,0.4,1,1v239C727,468.6,726.6,469,726,469z M714,467h11V230
		h-11V467z"/>
	<path d="M48,412H35c-0.6,0-1-0.4-1-1V229c0-0.6,0.4-1,1-1h13c0.6,0,1,0.4,1,1v182C49,411.6,48.6,412,48,412z M36,410h11V230H36V410
		z"/>
	<path d="M688,412h-13c-0.6,0-1-0.4-1-1V229c0-0.6,0.4-1,1-1h13c0.6,0,1,0.4,1,1v182C689,411.6,688.6,412,688,412z M676,410h11V230
		h-11V410z"/>
	<path d="M14,469c-0.1,0-0.2,0-0.3,0c-0.4-0.1-0.7-0.5-0.7-1V229c0-0.6,0.4-1,1-1h4c0.6,0,1,0.4,1,1v233c0,0.2-0.1,0.4-0.2,0.6l-4,6
		C14.6,468.8,14.3,469,14,469z M15,230v234.7l2-3V230H15z"/>
	<path d="M48,412c-0.1,0-0.2,0-0.3,0c-0.4-0.1-0.7-0.5-0.7-1V229c0-0.6,0.4-1,1-1h4c0.6,0,1,0.4,1,1v176c0,0.2-0.1,0.4-0.2,0.6l-4,6
		C48.6,411.8,48.3,412,48,412z M49,230v177.7l2-3V230H49z"/>
	<path d="M675,412c-0.4,0-0.7-0.2-0.9-0.6l-3-6c-0.1-0.1-0.1-0.3-0.1-0.4V229c0-0.6,0.4-1,1-1h3c0.6,0,1,0.4,1,1v182
		c0,0.5-0.3,0.9-0.8,1C675.2,412,675.1,412,675,412z M673,404.8l1,2V230h-1V404.8z"/>
	<path d="M713,469c-0.3,0-0.7-0.2-0.9-0.5l-3-5c-0.1-0.2-0.1-0.3-0.1-0.5V229c0-0.6,0.4-1,1-1s1,0.4,1,1v233.7l2.9,4.8
		c0.3,0.5,0.1,1.1-0.3,1.4C713.4,469,713.2,469,713,469z"/>
	<polygon class="st9" points="726,217 1,217 42,203 683,203 	"/>
</g>
<g id="Calque_43_-_copie">
	<path d="M1,218c-0.4,0-0.8-0.3-1-0.7c-0.2-0.5,0.1-1.1,0.7-1.3l41-13c0.1,0,0.2,0,0.3,0l636-2c0,0,0,0,0,0c0.1,0,0.2,0,0.3,0l48,15
		c0.5,0.2,0.8,0.7,0.7,1.3c-0.2,0.5-0.7,0.8-1.3,0.7l-47.9-15l-635.7,2L1.3,218C1.2,218,1.1,218,1,218z"/>
</g>
<g id="Calque_46_-_copie">
	<path class="st10" d="M235,139c-0.5,0-1-0.4-1-0.9c0-0.6,0.4-1,0.9-1.1l17-1c0.5,0,1,0.4,1.1,0.9c0,0.6-0.4,1-0.9,1.1L235,139
		C235,139,235,139,235,139z"/>
	<path class="st10" d="M235,143c-0.5,0-1-0.4-1-0.9c0-0.6,0.4-1,0.9-1.1l19-1c0.6,0,1,0.4,1.1,0.9s-0.4,1-0.9,1.1L235,143
		C235,143,235,143,235,143z"/>
	<path class="st10" d="M235,147c-0.5,0-1-0.4-1-0.9c0-0.6,0.4-1,0.9-1.1l17-1c0.5,0,1,0.4,1.1,0.9c0,0.6-0.4,1-0.9,1.1L235,147
		C235,147,235,147,235,147z"/>
	<path class="st10" d="M235,151c-0.5,0-1-0.4-1-0.9c0-0.6,0.4-1,0.9-1.1l14-1c0.6,0,1,0.4,1.1,0.9c0,0.6-0.4,1-0.9,1.1L235,151
		C235,151,235,151,235,151z"/>
	<path class="st10" d="M235,155c-0.5,0-1-0.4-1-0.9c0-0.6,0.4-1,0.9-1.1l28-2c0.6,0,1,0.4,1.1,0.9c0,0.6-0.4,1-0.9,1.1L235,155
		C235,155,235,155,235,155z"/>
	<path class="st10" d="M235,159c-0.5,0-1-0.4-1-0.9c0-0.6,0.4-1,0.9-1.1l28-2c0.6,0,1,0.4,1.1,0.9c0,0.6-0.4,1-0.9,1.1L235,159
		C235,159,235,159,235,159z"/>
	<path class="st10" d="M235,163c-0.5,0-1-0.4-1-0.9c0-0.6,0.4-1,0.9-1.1l28-2c0.6,0,1,0.4,1.1,0.9c0,0.6-0.4,1-0.9,1.1L235,163
		C235,163,235,163,235,163z"/>
	<path class="st10" d="M235,167c-0.5,0-1-0.4-1-0.9c0-0.6,0.4-1,0.9-1.1l28-2c0.6,0,1,0.4,1.1,0.9c0,0.6-0.4,1-0.9,1.1L235,167
		C235,167,235,167,235,167z"/>
	<path class="st10" d="M235,171c-0.5,0-1-0.4-1-0.9c0-0.6,0.4-1,0.9-1.1l28-2c0.6,0,1,0.4,1.1,0.9c0,0.6-0.4,1-0.9,1.1L235,171
		C235,171,235,171,235,171z"/>
</g>
<g>
	<path class="st1" d="M271.5,201.5l-198,6c-8.8,0-16-7.2-16-16v-130c0-8.8,7.2-16,16-16l198-6c8.8,0,16,7.2,16,16v130
		C287.5,194.3,280.3,201.5,271.5,201.5z"/>
	<path d="M73.5,208.5c-9.4,0-17-7.6-17-17v-130c0-9.4,7.6-17,17-17l198-6c9.4,0,17,7.6,17,17v130c0,9.4-7.6,17-17,17L73.5,208.5z
		 M271.5,40.5l-198,6c-8.3,0-15,6.7-15,15v130c0,8.3,6.7,15,15,15l198-6c0,0,0,0,0,0c8.3,0,15-6.7,15-15v-130
		C286.5,47.2,279.8,40.5,271.5,40.5z"/>
	<path class="st1" d="M275.5,205.5l-198,6c-8.8,0-16-7.2-16-16v-130c0-8.8,7.2-16,16-16l198-6c8.8,0,16,7.2,16,16v130
		C291.5,198.3,284.3,205.5,275.5,205.5z"/>
	<path d="M77.5,212.5c-9.4,0-17-7.6-17-17v-130c0-9.4,7.6-17,17-17l198-6c9.4,0,17,7.6,17,17v130c0,9.4-7.6,17-17,17L77.5,212.5z
		 M275.5,44.5l-198,6c-8.3,0-15,6.7-15,15v130c0,8.3,6.7,15,15,15l198-6c0,0,0,0,0,0c8.3,0,15-6.7,15-15v-130
		C290.5,51.2,283.8,44.5,275.5,44.5z"/>
	<path class="st1" d="M268.1,194.9L84.9,200c-8.2,0-14.8-6.1-14.8-13.7V74.9c0-7.6,6.6-13.7,14.8-13.7L268.1,56
		c8.2,0,14.8,6.1,14.8,13.7v111.4C282.9,188.7,276.2,194.9,268.1,194.9z"/>
	<path d="M85,201c-8.7,0-15.8-6.6-15.8-14.7V74.9c0-8.1,7.1-14.7,15.8-14.7L268,55c8.7,0,15.8,6.6,15.8,14.7v111.4
		c0,8.1-7.1,14.7-15.8,14.7L85,201z M268.1,57L85,62.1c-7.6,0-13.8,5.7-13.8,12.7v111.4c0,7,6.2,12.7,13.8,12.7l183.1-5.1
		c0,0,0,0,0,0c7.6,0,13.8-5.7,13.8-12.7V69.7C281.9,62.7,275.7,57,268.1,57z"/>
	<path class="st11" d="M62,149V63c0,0,3-13,13-13s200-7,200-7s18,1,17,18s0,24,0,24l-9,9V69c0,0-2-13-15-13S83,61,83,61s-12,2-13,13
		s1,75,1,75H62z"/>
	<path class="st3" d="M84.2,80C83,80,82,79,82,77.8v-4.7c0-1.2,1-2.2,2.2-2.2l186.7-6c1.2,0,2.1,1,2.1,2.2v4.7c0,1.2-1,2.2-2.2,2.2
		L84.2,80z"/>
	<path class="st4" d="M270.9,66c0.6,0,1.1,0.5,1.1,1.2v4.7c0,0.6-0.5,1.2-1.2,1.2c0,0,0,0-0.1,0L84.1,79c-0.6,0-1.1-0.5-1.1-1.2
		v-4.7c0-0.6,0.5-1.2,1.2-1.2c0,0,0,0,0.1,0L270.9,66 M270.8,64L84.2,70c-1.7,0-3.2,1.4-3.2,3.2v4.7c0,1.7,1.4,3.2,3.2,3.2l186.7-6
		c1.7,0,3.2-1.4,3.2-3.2v-4.7C274,65.4,272.6,64,270.8,64L270.8,64z"/>
	<polygon class="st1" points="82,80 272,74 272,189 82,195 	"/>
	<path class="st4" d="M271,75.1v113l-188,5.9v-113L271,75.1 M273,73L81,79v117l192-6V73L273,73z"/>
	<polygon class="st12" points="271.5,85 273.5,188.7 228.5,190.5 228,86.7 	"/>
	<path class="st4" d="M228.5,191.5c-0.3,0-0.5-0.1-0.7-0.3c-0.2-0.2-0.3-0.4-0.3-0.7L227,86.7c0-0.5,0.4-1,1-1l43.5-1.7
		c0.3,0,0.5,0.1,0.7,0.3c0.2,0.2,0.3,0.4,0.3,0.7l2,103.7c0,0.5-0.4,1-1,1L228.5,191.5C228.5,191.5,228.5,191.5,228.5,191.5z
		 M229,87.6l0.5,101.8l43-1.7l-2-101.7L229,87.6z"/>
	<polygon class="st12" points="82,89.7 271,85 271,75 82,80 	"/>
	<path class="st4" d="M82,90.7c-0.3,0-0.5-0.1-0.7-0.3c-0.2-0.2-0.3-0.4-0.3-0.7V80c0-0.5,0.4-1,1-1l189-5c0.3,0,0.5,0.1,0.7,0.3
		c0.2,0.2,0.3,0.4,0.3,0.7v10c0,0.5-0.4,1-1,1L82,90.7C82,90.7,82,90.7,82,90.7z M83,81v7.7L270,84v-8L83,81z"/>
	<polygon class="st1" points="271,172 232,175 232,90 269,88 	"/>
	<path class="st4" d="M232,176c-0.3,0-0.5-0.1-0.7-0.3c-0.2-0.2-0.3-0.5-0.3-0.7V90c0-0.5,0.4-1,0.9-1l37-2c0.3,0,0.5,0.1,0.7,0.3
		c0.2,0.2,0.3,0.4,0.3,0.7l2,84c0,0.5-0.4,1-0.9,1L232,176C232.1,176,232,176,232,176z M233,90.9v83l37-2.8l-2-82L233,90.9z"/>
	<path class="st12" d="M91.3,87.6L231.9,84c1.7,0,3.1-1.1,3.1-2.4l0-0.8c0-1.4-1.5-2.4-3.3-2.4L91.1,82.8c-1.7,0.1-3.1,1.1-3.1,2.4
		l0,0C88,86.6,89.5,87.7,91.3,87.6z"/>
	<path class="st4" d="M91.2,88.6c-1.2,0-2.4-0.4-3.2-1.2c-0.6-0.6-1-1.4-1-2.2c0-1.9,1.8-3.4,4.1-3.5l140.6-4.4
		c1.3-0.1,2.5,0.4,3.4,1.2c0.6,0.6,1,1.4,1,2.2l0,0.8c0,1.9-1.8,3.4-4.1,3.5L91.3,88.6h0C91.3,88.6,91.3,88.6,91.2,88.6z M91.3,87.6
		L91.3,87.6L91.3,87.6z M231.8,79.4c0,0-0.1,0-0.1,0L91.1,83.8c-1.2,0-2.1,0.7-2.1,1.4c0,0.3,0.2,0.6,0.4,0.8
		c0.4,0.4,1.2,0.7,1.9,0.6L231.9,83c1.2,0,2.1-0.7,2.1-1.4l0-0.8c0-0.3-0.2-0.6-0.4-0.8C233.2,79.6,232.5,79.4,231.8,79.4z"/>
	<path class="st10" d="M235,95c-0.5,0-1-0.4-1-0.9c0-0.6,0.4-1,0.9-1.1l28-2c0.6,0,1,0.4,1.1,0.9c0,0.6-0.4,1-0.9,1.1L235,95
		C235,95,235,95,235,95z"/>
	<path class="st10" d="M235,99c-0.5,0-1-0.4-1-0.9c0-0.6,0.4-1,0.9-1.1l18-1c0.6,0,1,0.4,1.1,0.9c0,0.6-0.4,1-0.9,1.1L235,99
		C235,99,235,99,235,99z"/>
	<path class="st10" d="M235,103c-0.5,0-1-0.4-1-0.9c0-0.6,0.4-1,0.9-1.1l14-1c0.6,0,1,0.4,1.1,0.9c0,0.6-0.4,1-0.9,1.1L235,103
		C235,103,235,103,235,103z"/>
	<path class="st10" d="M235,107c-0.5,0-1-0.4-1-0.9c0-0.6,0.4-1,0.9-1.1l28-2c0.6,0,1,0.4,1.1,0.9c0,0.6-0.4,1-0.9,1.1L235,107
		C235,107,235,107,235,107z"/>
	<path class="st10" d="M235,111c-0.5,0-1-0.4-1-0.9c0-0.6,0.4-1,0.9-1.1l28-2c0.6,0,1,0.4,1.1,0.9c0,0.6-0.4,1-0.9,1.1L235,111
		C235,111,235,111,235,111z"/>
	<path class="st10" d="M235,115c-0.5,0-1-0.4-1-0.9c0-0.6,0.4-1,0.9-1.1l28-2c0.6,0,1,0.4,1.1,0.9c0,0.6-0.4,1-0.9,1.1L235,115
		C235,115,235,115,235,115z"/>
	<path class="st10" d="M235,119c-0.5,0-1-0.4-1-0.9c0-0.6,0.4-1,0.9-1.1l28-2c0.6,0,1,0.4,1.1,0.9c0,0.6-0.4,1-0.9,1.1L235,119
		C235,119,235,119,235,119z"/>
	<path class="st10" d="M235,123c-0.5,0-1-0.4-1-0.9c0-0.6,0.4-1,0.9-1.1l19-1c0.6,0,1,0.4,1.1,0.9s-0.4,1-0.9,1.1L235,123
		C235,123,235,123,235,123z"/>
	<path class="st10" d="M235,127c-0.5,0-1-0.4-1-0.9c0-0.6,0.4-1,0.9-1.1l28-2c0.6,0,1,0.4,1.1,0.9c0,0.6-0.4,1-0.9,1.1L235,127
		C235,127,235,127,235,127z"/>
	<path class="st10" d="M235,131c-0.5,0-1-0.4-1-0.9c0-0.6,0.4-1,0.9-1.1l28-2c0.6,0,1,0.4,1.1,0.9c0,0.6-0.4,1-0.9,1.1L235,131
		C235,131,235,131,235,131z"/>
	<path class="st10" d="M235,135c-0.5,0-1-0.4-1-0.9c0-0.6,0.4-1,0.9-1.1l28-2c0.6,0,1,0.4,1.1,0.9c0,0.6-0.4,1-0.9,1.1L235,135
		C235,135,235,135,235,135z"/>
	<path class="st13" d="M93,85.5c-0.3,0-0.5-0.2-0.5-0.5c0-0.3,0.2-0.5,0.5-0.5l96-3c0.3,0,0.5,0.2,0.5,0.5c0,0.3-0.2,0.5-0.5,0.5
		L93,85.5C93,85.5,93,85.5,93,85.5z"/>
	<circle class="st3" cx="261.5" cy="69.5" r="2"/>
	<path class="st4" d="M261.5,68c0.8,0,1.5,0.7,1.5,1.5s-0.7,1.5-1.5,1.5s-1.5-0.7-1.5-1.5S260.7,68,261.5,68 M261.5,67
		c-1.4,0-2.5,1.1-2.5,2.5s1.1,2.5,2.5,2.5s2.5-1.1,2.5-2.5S262.9,67,261.5,67L261.5,67z"/>
	<circle class="st3" cx="267.5" cy="69.5" r="2"/>
	<path class="st14" d="M274,58c0,0-92,132-179,140c47,0,165-3,165-3l10-6v-7l13-7l-2-90C281,85,285,60,274,58z"/>
	<path class="st4" d="M267.5,68c0.8,0,1.5,0.7,1.5,1.5s-0.7,1.5-1.5,1.5s-1.5-0.7-1.5-1.5S266.7,68,267.5,68 M267.5,67
		c-1.4,0-2.5,1.1-2.5,2.5s1.1,2.5,2.5,2.5s2.5-1.1,2.5-2.5S268.9,67,267.5,67L267.5,67z"/>
	<path class="st15" d="M62,149V63c0,0,1-14,13-13s200-7,200-7l8,2l-8-6L70,46l-8,4l-4,8v91H62z"/>
</g>
<g id="Calque_102_-_copie">
	<polygon class="st16" points="95,200 270,195 273,206 85,211 	"/>
</g>
<g id="Calque_33_-_copie">
	<path class="st17" d="M244.4,217.3c-0.2,0-0.4-0.1-0.5-0.3c-0.1-0.2,0-0.4,0.2-0.6l21.8-16.4c0.1-0.1,0.2-0.1,0.3-0.1h187
		c0.1,0,0.1,0,0.2,0l34.1,13.6c0.2,0.1,0.3,0.3,0.3,0.6c0,0.2-0.2,0.4-0.5,0.4L244.4,217.3C244.4,217.3,244.4,217.3,244.4,217.3z
		 M266.4,200.9l-20.5,15.4l238.9-2.7l-31.7-12.7H266.4z"/>
	<path class="st17" d="M244.4,207.8c-0.2,0-0.4-0.1-0.5-0.3c-0.1-0.2,0-0.4,0.2-0.6l21.8-16.4c0.1-0.1,0.2-0.1,0.3-0.1h187
		c0.1,0,0.1,0,0.2,0l34.1,13.6c0.2,0.1,0.3,0.3,0.3,0.6c0,0.2-0.2,0.4-0.5,0.4L244.4,207.8C244.4,207.8,244.4,207.8,244.4,207.8z
		 M266.4,191.4l-20.5,15.4l238.9-2.7l-31.7-12.7H266.4z"/>
	<polygon class="st11" points="243.7,206.6 243.7,217.5 487.3,213.4 487.3,203.9 	"/>
	<polygon class="st18" points="243,207.3 267.6,190.9 454.9,190.9 487.3,204.5 	"/>
	<g id="Calque_34_-_copie">
		<polygon class="st19" points="488,214.8 488,203.9 243,207.3 243.7,217.5 		"/>
		<path d="M243.7,218c-0.3,0-0.5-0.2-0.5-0.5l-0.7-10.2c0-0.1,0-0.3,0.1-0.4c0.1-0.1,0.2-0.2,0.4-0.2l245-3.4c0.1,0,0.3,0.1,0.4,0.1
			s0.1,0.2,0.1,0.4v10.9c0,0.3-0.2,0.5-0.5,0.5L243.7,218C243.7,218,243.7,218,243.7,218z M243.5,207.8l0.6,9.2l243.4-2.7v-9.9
			L243.5,207.8z M488,214.8L488,214.8L488,214.8z"/>
		<path d="M243.7,207.1c-0.2,0-0.4-0.1-0.5-0.3c-0.1-0.2,0-0.4,0.2-0.6l23.2-16.4c0.1-0.1,0.2-0.1,0.3-0.1c0,0,0,0,0,0l186.3,0.7
			c0.1,0,0.1,0,0.2,0l34.8,13c0.2,0.1,0.4,0.3,0.3,0.6s-0.2,0.4-0.5,0.4L243.7,207.1C243.7,207.1,243.7,207.1,243.7,207.1z
			 M267,190.7l-21.8,15.4l240-2.7l-32.2-12L267,190.7z"/>
	</g>
	<polyline class="st19" points="451.8,193.6 451.8,188.2 442.3,188.2 442.3,190.3 	"/>
	<path d="M451.8,194.1c-0.3,0-0.5-0.2-0.5-0.5v-5h-8.6v1.7c0,0.3-0.2,0.5-0.5,0.5s-0.5-0.2-0.5-0.5v-2.2c0-0.3,0.2-0.5,0.5-0.5h9.6
		c0.3,0,0.5,0.2,0.5,0.5v5.5C452.3,193.9,452.1,194.1,451.8,194.1z"/>
	<polyline class="st19" points="455.9,196.3 455.9,190.9 446.4,190.9 446.4,193.1 	"/>
	<path d="M455.9,196.8c-0.3,0-0.5-0.2-0.5-0.5v-5h-8.6v1.7c0,0.3-0.2,0.5-0.5,0.5s-0.5-0.2-0.5-0.5v-2.2c0-0.3,0.2-0.5,0.5-0.5h9.6
		c0.3,0,0.5,0.2,0.5,0.5v5.5C456.4,196.6,456.2,196.8,455.9,196.8z"/>
	<polyline class="st19" points="461.4,199.1 461.4,193.6 451.8,193.6 451.8,195.8 	"/>
	<path d="M461.4,199.6c-0.3,0-0.5-0.2-0.5-0.5v-5h-8.6v1.7c0,0.3-0.2,0.5-0.5,0.5s-0.5-0.2-0.5-0.5v-2.2c0-0.3,0.2-0.5,0.5-0.5h9.6
		c0.3,0,0.5,0.2,0.5,0.5v5.5C461.9,199.4,461.7,199.6,461.4,199.6z"/>
	<polyline class="st19" points="466.8,201.8 466.8,196.3 457.3,196.3 457.3,198.5 	"/>
	<path d="M466.8,202.3c-0.3,0-0.5-0.2-0.5-0.5v-5h-8.6v1.7c0,0.3-0.2,0.5-0.5,0.5s-0.5-0.2-0.5-0.5v-2.2c0-0.3,0.2-0.5,0.5-0.5h9.6
		c0.3,0,0.5,0.2,0.5,0.5v5.5C467.3,202.1,467.1,202.3,466.8,202.3z"/>
	<polyline class="st19" points="440.9,193.6 440.9,188.2 431.4,188.2 431.4,190.3 	"/>
	<path d="M440.9,194.1c-0.3,0-0.5-0.2-0.5-0.5v-5h-8.6v1.7c0,0.3-0.2,0.5-0.5,0.5s-0.5-0.2-0.5-0.5v-2.2c0-0.3,0.2-0.5,0.5-0.5h9.6
		c0.3,0,0.5,0.2,0.5,0.5v5.5C441.4,193.9,441.2,194.1,440.9,194.1z"/>
	<polyline class="st19" points="445,196.3 445,190.9 435.5,190.9 435.5,193.1 	"/>
	<path d="M445,196.8c-0.3,0-0.5-0.2-0.5-0.5v-5H436v1.7c0,0.3-0.2,0.5-0.5,0.5s-0.5-0.2-0.5-0.5v-2.2c0-0.3,0.2-0.5,0.5-0.5h9.6
		c0.3,0,0.5,0.2,0.5,0.5v5.5C445.5,196.6,445.3,196.8,445,196.8z"/>
	<polyline class="st19" points="450.5,199.1 450.5,193.6 440.9,193.6 440.9,195.8 	"/>
	<path d="M450.5,199.6c-0.3,0-0.5-0.2-0.5-0.5v-5h-8.6v1.7c0,0.3-0.2,0.5-0.5,0.5s-0.5-0.2-0.5-0.5v-2.2c0-0.3,0.2-0.5,0.5-0.5h9.6
		c0.3,0,0.5,0.2,0.5,0.5v5.5C451,199.4,450.7,199.6,450.5,199.6z"/>
	<polyline class="st19" points="455.9,201.8 455.9,196.3 446.4,196.3 446.4,198.5 	"/>
	<path d="M455.9,202.3c-0.3,0-0.5-0.2-0.5-0.5v-5h-8.6v1.7c0,0.3-0.2,0.5-0.5,0.5s-0.5-0.2-0.5-0.5v-2.2c0-0.3,0.2-0.5,0.5-0.5h9.6
		c0.3,0,0.5,0.2,0.5,0.5v5.5C456.4,202.1,456.2,202.3,455.9,202.3z"/>
	<polyline class="st19" points="430,193.6 430,188.2 420.4,188.2 420.4,190.3 	"/>
	<path d="M430,194.1c-0.3,0-0.5-0.2-0.5-0.5v-5h-8.6v1.7c0,0.3-0.2,0.5-0.5,0.5s-0.5-0.2-0.5-0.5v-2.2c0-0.3,0.2-0.5,0.5-0.5h9.6
		c0.3,0,0.5,0.2,0.5,0.5v5.5C430.5,193.9,430.3,194.1,430,194.1z"/>
	<polyline class="st19" points="434.1,196.3 434.1,190.9 424.5,190.9 424.5,193.1 	"/>
	<path d="M434.1,196.8c-0.3,0-0.5-0.2-0.5-0.5v-5H425v1.7c0,0.3-0.2,0.5-0.5,0.5s-0.5-0.2-0.5-0.5v-2.2c0-0.3,0.2-0.5,0.5-0.5h9.6
		c0.3,0,0.5,0.2,0.5,0.5v5.5C434.6,196.6,434.4,196.8,434.1,196.8z"/>
	<polyline class="st19" points="439.5,199.1 439.5,193.6 430,193.6 430,195.8 	"/>
	<path d="M439.5,199.6c-0.3,0-0.5-0.2-0.5-0.5v-5h-8.6v1.7c0,0.3-0.2,0.5-0.5,0.5s-0.5-0.2-0.5-0.5v-2.2c0-0.3,0.2-0.5,0.5-0.5h9.6
		c0.3,0,0.5,0.2,0.5,0.5v5.5C440,199.4,439.8,199.6,439.5,199.6z"/>
	<polyline class="st19" points="445,201.8 445,196.3 435.5,196.3 435.5,198.5 	"/>
	<path d="M445,202.3c-0.3,0-0.5-0.2-0.5-0.5v-5H436v1.7c0,0.3-0.2,0.5-0.5,0.5s-0.5-0.2-0.5-0.5v-2.2c0-0.3,0.2-0.5,0.5-0.5h9.6
		c0.3,0,0.5,0.2,0.5,0.5v5.5C445.5,202.1,445.3,202.3,445,202.3z"/>
	<polyline class="st19" points="419.1,193.6 419.1,188.2 409.5,188.2 409.5,190.3 	"/>
	<path d="M419.1,194.1c-0.3,0-0.5-0.2-0.5-0.5v-5H410v1.7c0,0.3-0.2,0.5-0.5,0.5s-0.5-0.2-0.5-0.5v-2.2c0-0.3,0.2-0.5,0.5-0.5h9.6
		c0.3,0,0.5,0.2,0.5,0.5v5.5C419.6,193.9,419.3,194.1,419.1,194.1z"/>
	<polyline class="st19" points="423.2,196.3 423.2,190.9 413.6,190.9 413.6,193.1 	"/>
	<path d="M423.2,196.8c-0.3,0-0.5-0.2-0.5-0.5v-5h-8.6v1.7c0,0.3-0.2,0.5-0.5,0.5s-0.5-0.2-0.5-0.5v-2.2c0-0.3,0.2-0.5,0.5-0.5h9.6
		c0.3,0,0.5,0.2,0.5,0.5v5.5C423.7,196.6,423.4,196.8,423.2,196.8z"/>
	<polyline class="st19" points="428.6,199.1 428.6,193.6 419.1,193.6 419.1,195.8 	"/>
	<path d="M428.6,199.6c-0.3,0-0.5-0.2-0.5-0.5v-5h-8.6v1.7c0,0.3-0.2,0.5-0.5,0.5s-0.5-0.2-0.5-0.5v-2.2c0-0.3,0.2-0.5,0.5-0.5h9.6
		c0.3,0,0.5,0.2,0.5,0.5v5.5C429.1,199.4,428.9,199.6,428.6,199.6z"/>
	<polyline class="st19" points="434.1,201.8 434.1,196.3 424.5,196.3 424.5,198.5 	"/>
	<path d="M434.1,202.3c-0.3,0-0.5-0.2-0.5-0.5v-5H425v1.7c0,0.3-0.2,0.5-0.5,0.5s-0.5-0.2-0.5-0.5v-2.2c0-0.3,0.2-0.5,0.5-0.5h9.6
		c0.3,0,0.5,0.2,0.5,0.5v5.5C434.6,202.1,434.4,202.3,434.1,202.3z"/>
	<polyline class="st19" points="408.2,193.6 408.2,188.2 398.6,188.2 398.6,190.3 	"/>
	<path d="M408.2,194.1c-0.3,0-0.5-0.2-0.5-0.5v-5h-8.6v1.7c0,0.3-0.2,0.5-0.5,0.5s-0.5-0.2-0.5-0.5v-2.2c0-0.3,0.2-0.5,0.5-0.5h9.6
		c0.3,0,0.5,0.2,0.5,0.5v5.5C408.7,193.9,408.4,194.1,408.2,194.1z"/>
	<polyline class="st19" points="412.2,196.3 412.2,190.9 402.7,190.9 402.7,193.1 	"/>
	<path d="M412.2,196.8c-0.3,0-0.5-0.2-0.5-0.5v-5h-8.6v1.7c0,0.3-0.2,0.5-0.5,0.5s-0.5-0.2-0.5-0.5v-2.2c0-0.3,0.2-0.5,0.5-0.5h9.6
		c0.3,0,0.5,0.2,0.5,0.5v5.5C412.7,196.6,412.5,196.8,412.2,196.8z"/>
	<polyline class="st19" points="417.7,199.1 417.7,193.6 408.2,193.6 408.2,195.8 	"/>
	<path d="M417.7,199.6c-0.3,0-0.5-0.2-0.5-0.5v-5h-8.6v1.7c0,0.3-0.2,0.5-0.5,0.5s-0.5-0.2-0.5-0.5v-2.2c0-0.3,0.2-0.5,0.5-0.5h9.6
		c0.3,0,0.5,0.2,0.5,0.5v5.5C418.2,199.4,418,199.6,417.7,199.6z"/>
	<polyline class="st19" points="423.2,201.8 423.2,196.3 413.6,196.3 413.6,198.5 	"/>
	<path d="M423.2,202.3c-0.3,0-0.5-0.2-0.5-0.5v-5h-8.6v1.7c0,0.3-0.2,0.5-0.5,0.5s-0.5-0.2-0.5-0.5v-2.2c0-0.3,0.2-0.5,0.5-0.5h9.6
		c0.3,0,0.5,0.2,0.5,0.5v5.5C423.7,202.1,423.4,202.3,423.2,202.3z"/>
	<polyline class="st19" points="397.2,193.6 397.2,188.2 387.7,188.2 387.7,190.3 	"/>
	<path d="M397.2,194.1c-0.3,0-0.5-0.2-0.5-0.5v-5h-8.6v1.7c0,0.3-0.2,0.5-0.5,0.5s-0.5-0.2-0.5-0.5v-2.2c0-0.3,0.2-0.5,0.5-0.5h9.6
		c0.3,0,0.5,0.2,0.5,0.5v5.5C397.7,193.9,397.5,194.1,397.2,194.1z"/>
	<polyline class="st19" points="401.3,196.3 401.3,190.9 391.8,190.9 391.8,193.1 	"/>
	<path d="M401.3,196.8c-0.3,0-0.5-0.2-0.5-0.5v-5h-8.6v1.7c0,0.3-0.2,0.5-0.5,0.5s-0.5-0.2-0.5-0.5v-2.2c0-0.3,0.2-0.5,0.5-0.5h9.6
		c0.3,0,0.5,0.2,0.5,0.5v5.5C401.8,196.6,401.6,196.8,401.3,196.8z"/>
	<polyline class="st19" points="406.8,199.1 406.8,193.6 397.2,193.6 397.2,195.8 	"/>
	<path d="M406.8,199.6c-0.3,0-0.5-0.2-0.5-0.5v-5h-8.6v1.7c0,0.3-0.2,0.5-0.5,0.5s-0.5-0.2-0.5-0.5v-2.2c0-0.3,0.2-0.5,0.5-0.5h9.6
		c0.3,0,0.5,0.2,0.5,0.5v5.5C407.3,199.4,407.1,199.6,406.8,199.6z"/>
	<polyline class="st19" points="412.2,201.8 412.2,196.3 402.7,196.3 402.7,198.5 	"/>
	<path d="M412.2,202.3c-0.3,0-0.5-0.2-0.5-0.5v-5h-8.6v1.7c0,0.3-0.2,0.5-0.5,0.5s-0.5-0.2-0.5-0.5v-2.2c0-0.3,0.2-0.5,0.5-0.5h9.6
		c0.3,0,0.5,0.2,0.5,0.5v5.5C412.7,202.1,412.5,202.3,412.2,202.3z"/>
	<polyline class="st19" points="386.3,193.6 386.3,188.2 376.8,188.2 376.8,190.3 	"/>
	<path d="M386.3,194.1c-0.3,0-0.5-0.2-0.5-0.5v-5h-8.6v1.7c0,0.3-0.2,0.5-0.5,0.5s-0.5-0.2-0.5-0.5v-2.2c0-0.3,0.2-0.5,0.5-0.5h9.6
		c0.3,0,0.5,0.2,0.5,0.5v5.5C386.8,193.9,386.6,194.1,386.3,194.1z"/>
	<polyline class="st19" points="390.4,196.3 390.4,190.9 380.9,190.9 380.9,193.1 	"/>
	<path d="M390.4,196.8c-0.3,0-0.5-0.2-0.5-0.5v-5h-8.6v1.7c0,0.3-0.2,0.5-0.5,0.5s-0.5-0.2-0.5-0.5v-2.2c0-0.3,0.2-0.5,0.5-0.5h9.6
		c0.3,0,0.5,0.2,0.5,0.5v5.5C390.9,196.6,390.7,196.8,390.4,196.8z"/>
	<polyline class="st19" points="395.9,199.1 395.9,193.6 386.3,193.6 386.3,195.8 	"/>
	<path d="M395.9,199.6c-0.3,0-0.5-0.2-0.5-0.5v-5h-8.6v1.7c0,0.3-0.2,0.5-0.5,0.5s-0.5-0.2-0.5-0.5v-2.2c0-0.3,0.2-0.5,0.5-0.5h9.6
		c0.3,0,0.5,0.2,0.5,0.5v5.5C396.4,199.4,396.1,199.6,395.9,199.6z"/>
	<polyline class="st19" points="401.3,201.8 401.3,196.3 391.8,196.3 391.8,198.5 	"/>
	<path d="M401.3,202.3c-0.3,0-0.5-0.2-0.5-0.5v-5h-8.6v1.7c0,0.3-0.2,0.5-0.5,0.5s-0.5-0.2-0.5-0.5v-2.2c0-0.3,0.2-0.5,0.5-0.5h9.6
		c0.3,0,0.5,0.2,0.5,0.5v5.5C401.8,202.1,401.6,202.3,401.3,202.3z"/>
	<polyline class="st19" points="376.8,193.6 376.8,188.2 367.2,188.2 367.2,190.3 	"/>
	<path d="M376.8,194.1c-0.3,0-0.5-0.2-0.5-0.5v-5h-8.6v1.7c0,0.3-0.2,0.5-0.5,0.5s-0.5-0.2-0.5-0.5v-2.2c0-0.3,0.2-0.5,0.5-0.5h9.6
		c0.3,0,0.5,0.2,0.5,0.5v5.5C377.3,193.9,377,194.1,376.8,194.1z"/>
	<polyline class="st19" points="380.9,196.3 380.9,190.9 371.3,190.9 371.3,193.1 	"/>
	<path d="M380.9,196.8c-0.3,0-0.5-0.2-0.5-0.5v-5h-8.6v1.7c0,0.3-0.2,0.5-0.5,0.5s-0.5-0.2-0.5-0.5v-2.2c0-0.3,0.2-0.5,0.5-0.5h9.6
		c0.3,0,0.5,0.2,0.5,0.5v5.5C381.4,196.6,381.1,196.8,380.9,196.8z"/>
	<polyline class="st19" points="386.3,199.1 386.3,193.6 376.8,193.6 376.8,195.8 	"/>
	<path d="M386.3,199.6c-0.3,0-0.5-0.2-0.5-0.5v-5h-8.6v1.7c0,0.3-0.2,0.5-0.5,0.5s-0.5-0.2-0.5-0.5v-2.2c0-0.3,0.2-0.5,0.5-0.5h9.6
		c0.3,0,0.5,0.2,0.5,0.5v5.5C386.8,199.4,386.6,199.6,386.3,199.6z"/>
	<polyline class="st19" points="391.8,201.8 391.8,196.3 382.2,196.3 382.2,198.5 	"/>
	<path d="M391.8,202.3c-0.3,0-0.5-0.2-0.5-0.5v-5h-8.6v1.7c0,0.3-0.2,0.5-0.5,0.5s-0.5-0.2-0.5-0.5v-2.2c0-0.3,0.2-0.5,0.5-0.5h9.6
		c0.3,0,0.5,0.2,0.5,0.5v5.5C392.3,202.1,392.1,202.3,391.8,202.3z"/>
	<polyline class="st19" points="273,193.6 273,188.2 282.6,188.2 282.6,190.3 	"/>
	<path d="M273,194.1c-0.3,0-0.5-0.2-0.5-0.5v-5.5c0-0.3,0.2-0.5,0.5-0.5h9.6c0.3,0,0.5,0.2,0.5,0.5v2.2c0,0.3-0.2,0.5-0.5,0.5
		s-0.5-0.2-0.5-0.5v-1.7h-8.6v5C273.5,193.9,273.3,194.1,273,194.1z"/>
	<polyline class="st19" points="268.9,196.3 268.9,190.9 278.5,190.9 278.5,193.1 	"/>
	<path d="M268.9,196.8c-0.3,0-0.5-0.2-0.5-0.5v-5.5c0-0.3,0.2-0.5,0.5-0.5h9.6c0.3,0,0.5,0.2,0.5,0.5v2.2c0,0.3-0.2,0.5-0.5,0.5
		s-0.5-0.2-0.5-0.5v-1.7h-8.6v5C269.4,196.6,269.2,196.8,268.9,196.8z"/>
	<polyline class="st19" points="263.5,199.1 263.5,193.6 273,193.6 273,195.8 	"/>
	<path d="M263.5,199.6c-0.3,0-0.5-0.2-0.5-0.5v-5.5c0-0.3,0.2-0.5,0.5-0.5h9.6c0.3,0,0.5,0.2,0.5,0.5v2.2c0,0.3-0.2,0.5-0.5,0.5
		s-0.5-0.2-0.5-0.5v-1.7H264v5C264,199.4,263.8,199.6,263.5,199.6z"/>
	<polyline class="st19" points="258,201.8 258,196.3 267.6,196.3 267.6,198.5 	"/>
	<path d="M258,202.3c-0.3,0-0.5-0.2-0.5-0.5v-5.5c0-0.3,0.2-0.5,0.5-0.5h9.6c0.3,0,0.5,0.2,0.5,0.5v2.2c0,0.3-0.2,0.5-0.5,0.5
		s-0.5-0.2-0.5-0.5v-1.7h-8.6v5C258.5,202.1,258.3,202.3,258,202.3z"/>
	<polyline class="st19" points="283.9,193.6 283.9,188.2 293.5,188.2 293.5,190.3 	"/>
	<path d="M283.9,194.1c-0.3,0-0.5-0.2-0.5-0.5v-5.5c0-0.3,0.2-0.5,0.5-0.5h9.6c0.3,0,0.5,0.2,0.5,0.5v2.2c0,0.3-0.2,0.5-0.5,0.5
		s-0.5-0.2-0.5-0.5v-1.7h-8.6v5C284.4,193.9,284.2,194.1,283.9,194.1z"/>
	<polyline class="st19" points="279.9,196.3 279.9,190.9 289.4,190.9 289.4,193.1 	"/>
	<path d="M279.9,196.8c-0.3,0-0.5-0.2-0.5-0.5v-5.5c0-0.3,0.2-0.5,0.5-0.5h9.6c0.3,0,0.5,0.2,0.5,0.5v2.2c0,0.3-0.2,0.5-0.5,0.5
		s-0.5-0.2-0.5-0.5v-1.7h-8.6v5C280.4,196.6,280.1,196.8,279.9,196.8z"/>
	<polyline class="st19" points="274.4,199.1 274.4,193.6 283.9,193.6 283.9,195.8 	"/>
	<path d="M274.4,199.6c-0.3,0-0.5-0.2-0.5-0.5v-5.5c0-0.3,0.2-0.5,0.5-0.5h9.6c0.3,0,0.5,0.2,0.5,0.5v2.2c0,0.3-0.2,0.5-0.5,0.5
		s-0.5-0.2-0.5-0.5v-1.7h-8.6v5C274.9,199.4,274.7,199.6,274.4,199.6z"/>
	<polyline class="st19" points="268.9,201.8 268.9,196.3 278.5,196.3 278.5,198.5 	"/>
	<path d="M268.9,202.3c-0.3,0-0.5-0.2-0.5-0.5v-5.5c0-0.3,0.2-0.5,0.5-0.5h9.6c0.3,0,0.5,0.2,0.5,0.5v2.2c0,0.3-0.2,0.5-0.5,0.5
		s-0.5-0.2-0.5-0.5v-1.7h-8.6v5C269.4,202.1,269.2,202.3,268.9,202.3z"/>
	<polyline class="st19" points="294.9,193.6 294.9,188.2 304.4,188.2 304.4,190.3 	"/>
	<path d="M294.9,194.1c-0.3,0-0.5-0.2-0.5-0.5v-5.5c0-0.3,0.2-0.5,0.5-0.5h9.6c0.3,0,0.5,0.2,0.5,0.5v2.2c0,0.3-0.2,0.5-0.5,0.5
		s-0.5-0.2-0.5-0.5v-1.7h-8.6v5C295.4,193.9,295.1,194.1,294.9,194.1z"/>
	<polyline class="st19" points="290.8,196.3 290.8,190.9 300.3,190.9 300.3,193.1 	"/>
	<path d="M290.8,196.8c-0.3,0-0.5-0.2-0.5-0.5v-5.5c0-0.3,0.2-0.5,0.5-0.5h9.6c0.3,0,0.5,0.2,0.5,0.5v2.2c0,0.3-0.2,0.5-0.5,0.5
		s-0.5-0.2-0.5-0.5v-1.7h-8.6v5C291.3,196.6,291,196.8,290.8,196.8z"/>
	<polyline class="st19" points="285.3,199.1 285.3,193.6 294.9,193.6 294.9,195.8 	"/>
	<path d="M285.3,199.6c-0.3,0-0.5-0.2-0.5-0.5v-5.5c0-0.3,0.2-0.5,0.5-0.5h9.6c0.3,0,0.5,0.2,0.5,0.5v2.2c0,0.3-0.2,0.5-0.5,0.5
		s-0.5-0.2-0.5-0.5v-1.7h-8.6v5C285.8,199.4,285.6,199.6,285.3,199.6z"/>
	<polyline class="st19" points="279.9,201.8 279.9,196.3 289.4,196.3 289.4,198.5 	"/>
	<path d="M279.9,202.3c-0.3,0-0.5-0.2-0.5-0.5v-5.5c0-0.3,0.2-0.5,0.5-0.5h9.6c0.3,0,0.5,0.2,0.5,0.5v2.2c0,0.3-0.2,0.5-0.5,0.5
		s-0.5-0.2-0.5-0.5v-1.7h-8.6v5C280.4,202.1,280.1,202.3,279.9,202.3z"/>
	<polyline class="st19" points="305.8,193.6 305.8,188.2 315.3,188.2 315.3,190.3 	"/>
	<path d="M305.8,194.1c-0.3,0-0.5-0.2-0.5-0.5v-5.5c0-0.3,0.2-0.5,0.5-0.5h9.6c0.3,0,0.5,0.2,0.5,0.5v2.2c0,0.3-0.2,0.5-0.5,0.5
		s-0.5-0.2-0.5-0.5v-1.7h-8.6v5C306.3,193.9,306.1,194.1,305.8,194.1z"/>
	<polyline class="st19" points="301.7,196.3 301.7,190.9 311.2,190.9 311.2,193.1 	"/>
	<path d="M301.7,196.8c-0.3,0-0.5-0.2-0.5-0.5v-5.5c0-0.3,0.2-0.5,0.5-0.5h9.6c0.3,0,0.5,0.2,0.5,0.5v2.2c0,0.3-0.2,0.5-0.5,0.5
		s-0.5-0.2-0.5-0.5v-1.7h-8.6v5C302.2,196.6,302,196.8,301.7,196.8z"/>
	<polyline class="st19" points="296.2,199.1 296.2,193.6 305.8,193.6 305.8,195.8 	"/>
	<path d="M296.2,199.6c-0.3,0-0.5-0.2-0.5-0.5v-5.5c0-0.3,0.2-0.5,0.5-0.5h9.6c0.3,0,0.5,0.2,0.5,0.5v2.2c0,0.3-0.2,0.5-0.5,0.5
		s-0.5-0.2-0.5-0.5v-1.7h-8.6v5C296.7,199.4,296.5,199.6,296.2,199.6z"/>
	<polyline class="st19" points="290.8,201.8 290.8,196.3 300.3,196.3 300.3,198.5 	"/>
	<path d="M290.8,202.3c-0.3,0-0.5-0.2-0.5-0.5v-5.5c0-0.3,0.2-0.5,0.5-0.5h9.6c0.3,0,0.5,0.2,0.5,0.5v2.2c0,0.3-0.2,0.5-0.5,0.5
		s-0.5-0.2-0.5-0.5v-1.7h-8.6v5C291.3,202.1,291,202.3,290.8,202.3z"/>
	<polyline class="st19" points="316.7,193.6 316.7,188.2 326.3,188.2 326.3,190.3 	"/>
	<path d="M316.7,194.1c-0.3,0-0.5-0.2-0.5-0.5v-5.5c0-0.3,0.2-0.5,0.5-0.5h9.6c0.3,0,0.5,0.2,0.5,0.5v2.2c0,0.3-0.2,0.5-0.5,0.5
		s-0.5-0.2-0.5-0.5v-1.7h-8.6v5C317.2,193.9,317,194.1,316.7,194.1z"/>
	<polyline class="st19" points="312.6,196.3 312.6,190.9 322.2,190.9 322.2,193.1 	"/>
	<path d="M312.6,196.8c-0.3,0-0.5-0.2-0.5-0.5v-5.5c0-0.3,0.2-0.5,0.5-0.5h9.6c0.3,0,0.5,0.2,0.5,0.5v2.2c0,0.3-0.2,0.5-0.5,0.5
		s-0.5-0.2-0.5-0.5v-1.7h-8.6v5C313.1,196.6,312.9,196.8,312.6,196.8z"/>
	<polyline class="st19" points="307.2,199.1 307.2,193.6 316.7,193.6 316.7,195.8 	"/>
	<path d="M307.2,199.6c-0.3,0-0.5-0.2-0.5-0.5v-5.5c0-0.3,0.2-0.5,0.5-0.5h9.6c0.3,0,0.5,0.2,0.5,0.5v2.2c0,0.3-0.2,0.5-0.5,0.5
		s-0.5-0.2-0.5-0.5v-1.7h-8.6v5C307.7,199.4,307.4,199.6,307.2,199.6z"/>
	<polyline class="st19" points="301.7,201.8 301.7,196.3 311.2,196.3 311.2,198.5 	"/>
	<path d="M301.7,202.3c-0.3,0-0.5-0.2-0.5-0.5v-5.5c0-0.3,0.2-0.5,0.5-0.5h9.6c0.3,0,0.5,0.2,0.5,0.5v2.2c0,0.3-0.2,0.5-0.5,0.5
		s-0.5-0.2-0.5-0.5v-1.7h-8.6v5C302.2,202.1,302,202.3,301.7,202.3z"/>
	<polyline class="st19" points="327.6,193.6 327.6,188.2 337.2,188.2 337.2,190.3 	"/>
	<path d="M327.6,194.1c-0.3,0-0.5-0.2-0.5-0.5v-5.5c0-0.3,0.2-0.5,0.5-0.5h9.6c0.3,0,0.5,0.2,0.5,0.5v2.2c0,0.3-0.2,0.5-0.5,0.5
		s-0.5-0.2-0.5-0.5v-1.7h-8.6v5C328.1,193.9,327.9,194.1,327.6,194.1z"/>
	<polyline class="st19" points="323.5,196.3 323.5,190.9 333.1,190.9 333.1,193.1 	"/>
	<path d="M323.5,196.8c-0.3,0-0.5-0.2-0.5-0.5v-5.5c0-0.3,0.2-0.5,0.5-0.5h9.6c0.3,0,0.5,0.2,0.5,0.5v2.2c0,0.3-0.2,0.5-0.5,0.5
		s-0.5-0.2-0.5-0.5v-1.7H324v5C324,196.6,323.8,196.8,323.5,196.8z"/>
	<polyline class="st19" points="318.1,199.1 318.1,193.6 327.6,193.6 327.6,195.8 	"/>
	<path d="M318.1,199.6c-0.3,0-0.5-0.2-0.5-0.5v-5.5c0-0.3,0.2-0.5,0.5-0.5h9.6c0.3,0,0.5,0.2,0.5,0.5v2.2c0,0.3-0.2,0.5-0.5,0.5
		s-0.5-0.2-0.5-0.5v-1.7h-8.6v5C318.6,199.4,318.3,199.6,318.1,199.6z"/>
	<polyline class="st19" points="312.6,201.8 312.6,196.3 322.2,196.3 322.2,198.5 	"/>
	<path d="M312.6,202.3c-0.3,0-0.5-0.2-0.5-0.5v-5.5c0-0.3,0.2-0.5,0.5-0.5h9.6c0.3,0,0.5,0.2,0.5,0.5v2.2c0,0.3-0.2,0.5-0.5,0.5
		s-0.5-0.2-0.5-0.5v-1.7h-8.6v5C313.1,202.1,312.9,202.3,312.6,202.3z"/>
	<polyline class="st19" points="338.5,193.6 338.5,188.2 348.1,188.2 348.1,190.3 	"/>
	<path d="M338.5,194.1c-0.3,0-0.5-0.2-0.5-0.5v-5.5c0-0.3,0.2-0.5,0.5-0.5h9.6c0.3,0,0.5,0.2,0.5,0.5v2.2c0,0.3-0.2,0.5-0.5,0.5
		s-0.5-0.2-0.5-0.5v-1.7H339v5C339,193.9,338.8,194.1,338.5,194.1z"/>
	<polyline class="st19" points="334.4,196.3 334.4,190.9 344,190.9 344,193.1 	"/>
	<path d="M334.4,196.8c-0.3,0-0.5-0.2-0.5-0.5v-5.5c0-0.3,0.2-0.5,0.5-0.5h9.6c0.3,0,0.5,0.2,0.5,0.5v2.2c0,0.3-0.2,0.5-0.5,0.5
		s-0.5-0.2-0.5-0.5v-1.7h-8.6v5C334.9,196.6,334.7,196.8,334.4,196.8z"/>
	<polyline class="st19" points="329,199.1 329,193.6 338.5,193.6 338.5,195.8 	"/>
	<path d="M329,199.6c-0.3,0-0.5-0.2-0.5-0.5v-5.5c0-0.3,0.2-0.5,0.5-0.5h9.6c0.3,0,0.5,0.2,0.5,0.5v2.2c0,0.3-0.2,0.5-0.5,0.5
		s-0.5-0.2-0.5-0.5v-1.7h-8.6v5C329.5,199.4,329.3,199.6,329,199.6z"/>
	<polyline class="st19" points="323.5,201.8 323.5,196.3 333.1,196.3 333.1,198.5 	"/>
	<path d="M323.5,202.3c-0.3,0-0.5-0.2-0.5-0.5v-5.5c0-0.3,0.2-0.5,0.5-0.5h9.6c0.3,0,0.5,0.2,0.5,0.5v2.2c0,0.3-0.2,0.5-0.5,0.5
		s-0.5-0.2-0.5-0.5v-1.7H324v5C324,202.1,323.8,202.3,323.5,202.3z"/>
	<polyline class="st19" points="348.1,193.6 348.1,188.2 357.7,188.2 357.7,190.3 	"/>
	<path d="M348.1,194.1c-0.3,0-0.5-0.2-0.5-0.5v-5.5c0-0.3,0.2-0.5,0.5-0.5h9.6c0.3,0,0.5,0.2,0.5,0.5v2.2c0,0.3-0.2,0.5-0.5,0.5
		s-0.5-0.2-0.5-0.5v-1.7h-8.6v5C348.6,193.9,348.4,194.1,348.1,194.1z"/>
	<polyline class="st19" points="344,196.3 344,190.9 353.6,190.9 353.6,193.1 	"/>
	<path d="M344,196.8c-0.3,0-0.5-0.2-0.5-0.5v-5.5c0-0.3,0.2-0.5,0.5-0.5h9.6c0.3,0,0.5,0.2,0.5,0.5v2.2c0,0.3-0.2,0.5-0.5,0.5
		s-0.5-0.2-0.5-0.5v-1.7h-8.6v5C344.5,196.6,344.3,196.8,344,196.8z"/>
	<polyline class="st19" points="338.5,199.1 338.5,193.6 348.1,193.6 348.1,195.8 	"/>
	<path d="M338.5,199.6c-0.3,0-0.5-0.2-0.5-0.5v-5.5c0-0.3,0.2-0.5,0.5-0.5h9.6c0.3,0,0.5,0.2,0.5,0.5v2.2c0,0.3-0.2,0.5-0.5,0.5
		s-0.5-0.2-0.5-0.5v-1.7H339v5C339,199.4,338.8,199.6,338.5,199.6z"/>
	<polyline class="st19" points="333.1,201.8 333.1,196.3 342.6,196.3 342.6,198.5 	"/>
	<path d="M333.1,202.3c-0.3,0-0.5-0.2-0.5-0.5v-5.5c0-0.3,0.2-0.5,0.5-0.5h9.6c0.3,0,0.5,0.2,0.5,0.5v2.2c0,0.3-0.2,0.5-0.5,0.5
		s-0.5-0.2-0.5-0.5v-1.7h-8.6v5C333.6,202.1,333.4,202.3,333.1,202.3z"/>
</g>
<g id="Calque_36_-_copie">
	<rect x="510" y="212" class="st20" width="25.5" height="3.5"/>
	<path d="M535.5,216H510c-0.3,0-0.5-0.2-0.5-0.5V212c0-0.3,0.2-0.5,0.5-0.5h25.5c0.3,0,0.5,0.2,0.5,0.5v3.5
		C536,215.8,535.8,216,535.5,216z M510.5,215H535v-2.5h-24.5V215z"/>
</g>
<g id="Calque_35_-_copie">
	<path class="st19" d="M509.5,215.5h26c0,0,1.5-8.5-10.7-11.5s-17.3-2.5-17.3-2.5S505.5,208.5,509.5,215.5z"/>
	<path d="M535.5,216h-26c-0.2,0-0.3-0.1-0.4-0.3c-4.1-7.1-2.1-14.1-2-14.4c0.1-0.2,0.2-0.3,0.4-0.4c0.2,0,5.4-0.5,17.5,2.5
		c12.5,3.1,11.1,12,11,12.1C536,215.8,535.7,216,535.5,216z M509.8,215h25.3c0.1-1.7-0.2-8-10.3-10.5c-10.2-2.5-15.5-2.6-16.8-2.5
		C507.6,203.4,506.6,209.2,509.8,215z"/>
	<path class="st19" d="M510.5,212.5h25c0,0-2.5-14.2-12.3-17.4s-14.7,3.8-14.7,3.8S503.5,205.5,510.5,212.5z"/>
	<path d="M535.5,213h-25c-0.1,0-0.3-0.1-0.4-0.1c-7.2-7.2-2.1-14.2-2-14.3c0-0.1,5.3-7.3,15.3-4c9.9,3.3,12.5,17.2,12.6,17.8
		c0,0.1,0,0.3-0.1,0.4C535.8,212.9,535.6,213,535.5,213z M510.7,212h24.2c-0.6-2.7-3.6-13.7-11.8-16.5c-9.3-3.1-14.1,3.6-14.2,3.6
		C508.7,199.5,504.3,205.5,510.7,212z"/>
	<path class="st19" d="M516.5,194.5c0,0,4,3,4,7"/>
	<path d="M520.5,202c-0.3,0-0.5-0.2-0.5-0.5c0-3.7-3.8-6.6-3.8-6.6c-0.2-0.2-0.3-0.5-0.1-0.7c0.2-0.2,0.5-0.3,0.7-0.1
		c0.2,0.1,4.2,3.2,4.2,7.4C521,201.8,520.8,202,520.5,202z"/>
</g>
<g>
	<polygon class="st0" points="719,10 695,1 596,1 620,10 	"/>
	<polygon class="st0" points="620,10 620,213 596,204 596,1 	"/>
	<path d="M719,214h-99c-0.6,0-1-0.4-1-1V10c0-0.6,0.4-1,1-1h99c0.6,0,1,0.4,1,1v203C720,213.6,719.6,214,719,214z M621,212h97V11
		h-97V212z"/>
	<path d="M695,205h-99c-0.6,0-1-0.4-1-1V1c0-0.6,0.4-1,1-1h99c0.6,0,1,0.4,1,1v203C696,204.6,695.6,205,695,205z M597,203h97V2h-97
		V203z"/>
	<path d="M620,11c-0.1,0-0.2,0-0.4-0.1l-24-9c-0.5-0.2-0.8-0.8-0.6-1.3c0.2-0.5,0.8-0.8,1.3-0.6l24,9c0.5,0.2,0.8,0.8,0.6,1.3
		C620.8,10.8,620.4,11,620,11z"/>
	<path d="M719,11c-0.1,0-0.2,0-0.4-0.1l-24-9c-0.5-0.2-0.8-0.8-0.6-1.3c0.2-0.5,0.8-0.8,1.3-0.6l24,9c0.5,0.2,0.8,0.8,0.6,1.3
		C719.8,10.8,719.4,11,719,11z"/>
	<polygon class="st21" points="596,1 596,204 620,213 620,10 	"/>
	<rect x="620" y="10" width="99" height="203"/>
	<path class="st22" d="M620,12c0,0-16.5,3.5-20.5,90.5S596,204,596,204l1-201L620,12z"/>
	<path class="st23" d="M702.5,41h-67c-5.2,0-9.5-4.3-9.5-9.5v-2c0-5.2,4.3-9.5,9.5-9.5h67c5.2,0,9.5,4.3,9.5,9.5v2
		C712,36.7,707.7,41,702.5,41z M635.5,22c-4.1,0-7.5,3.4-7.5,7.5v2c0,4.1,3.4,7.5,7.5,7.5h67c4.1,0,7.5-3.4,7.5-7.5v-2
		c0-4.1-3.4-7.5-7.5-7.5H635.5z"/>
	<path class="st23" d="M702.5,69h-67c-5.2,0-9.5-4.3-9.5-9.5v-2c0-5.2,4.3-9.5,9.5-9.5h67c5.2,0,9.5,4.3,9.5,9.5v2
		C712,64.7,707.7,69,702.5,69z M635.5,50c-4.1,0-7.5,3.4-7.5,7.5v2c0,4.1,3.4,7.5,7.5,7.5h67c4.1,0,7.5-3.4,7.5-7.5v-2
		c0-4.1-3.4-7.5-7.5-7.5H635.5z"/>
	<path class="st23" d="M710,144h-81c-0.6,0-1-0.4-1-1V81c0-0.6,0.4-1,1-1h81c0.6,0,1,0.4,1,1v62C711,143.6,710.6,144,710,144z
		 M630,142h79V82h-79V142z"/>
	<path class="st24" d="M669.9,190.2c-0.4,0-0.7-0.2-0.9-0.5l-10.7-18.5c-0.2-0.3-0.2-0.7,0-1s0.5-0.5,0.9-0.5h21.4
		c0.4,0,0.7,0.2,0.9,0.5s0.2,0.7,0,1l-10.7,18.5C670.6,190,670.2,190.2,669.9,190.2z M660.9,171.7l8.9,15.5l8.9-15.5H660.9z"/>
	<polygon class="st25" points="719,10 695,1 596,1 622,10 	"/>
</g>
<g id="Calque_113_-_copie">
	<path d="M620,214c-0.1,0-0.2,0-0.4-0.1l-24-9c-0.5-0.2-0.8-0.8-0.6-1.3c0.2-0.5,0.8-0.8,1.3-0.6l24,9c0.5,0.2,0.8,0.8,0.6,1.3
		C620.8,213.8,620.4,214,620,214z"/>
</g>
<g id="Calque_112_-_copie">
	<path d="M719,214c-0.1,0-0.2,0-0.4-0.1l-24-9c-0.5-0.2-0.8-0.8-0.6-1.3c0.2-0.5,0.8-0.8,1.3-0.6l24,9c0.5,0.2,0.8,0.8,0.6,1.3
		C719.8,213.8,719.4,214,719,214z"/>
</g>
<g id="Calque_153_-_copie">
	<g id="Calque_41_-_copie">
		<g id="Calque_104_-_copie">
			<g>
				<path class="st26" d="M95,152v46c0,0-5,15-21,15h-6h7h-6c-16,0-21-15-21-15v-46"/>
				<path d="M75,214h-7c-0.1,0-0.2,0-0.2,0c-15.6-0.8-20.7-15.5-20.7-15.7c0-0.1-0.1-0.2-0.1-0.3v-46c0-0.6,0.4-1,1-1s1,0.4,1,1
					v45.8c0.6,1.6,5.6,14.2,20,14.2h5c14.4,0,19.4-12.6,20-14.2V152c0-0.6,0.4-1,1-1s1,0.4,1,1v46c0,0.1,0,0.2-0.1,0.3
					c-0.1,0.2-5.1,14.9-20.7,15.7C75.2,214,75.1,214,75,214z"/>
				<ellipse class="st27" cx="71.5" cy="153" rx="23.5" ry="4"/>
				<path d="M71.5,158c-2.5,0-24.5-0.1-24.5-5s22-5,24.5-5s24.5,0.1,24.5,5S74,158,71.5,158z M49.1,153c1,1.1,8.4,3,22.4,3
					s21.5-1.9,22.4-3c-1-1.1-8.4-3-22.4-3S50,151.9,49.1,153z M94,153.1L94,153.1L94,153.1z"/>
				<path class="st28" d="M94,155c0,0-6,40-15,44s-30-1-30-1s4,15.4,25,14c15-1,20-14,20-14V155z"/>
			</g>
		</g>
	</g>
</g>
<g id="Calque_45_-_copie">
	<path class="st29" d="M340,305l58-19c0,0,9,0,11,3s6,19,3,28l-56,20C356,337,362,314,340,305z"/>
	<polygon class="st30" points="398,286 347,303 355,289 361,286 	"/>
</g>
<path class="st29" d="M306,472h-5c-2.8,0-5-2.2-5-5v-14c0-2.8,2.2-5,5-5h5c2.8,0,5,2.2,5,5v14C311,469.8,308.8,472,306,472z"/>
<g id="Calque_51_-_copie">
	<path class="st29" d="M342,305"/>
</g>
<path class="st31" d="M398.5,286.5h-41l-22,19l63-18c0,0,20-9,14,29c-12,5-56,21-56,21"/>
<g id="Calque_50_-_copie">
	<path class="st32" d="M339,83c0,0,24,8,26,27c0,0-1,52-5,172c-5,13-13,26-24.5,23.5c-15.7-3.4,0,0,0,0l10.3-5.7
		c0,0,5.7-5.1,7.2-7.2c1.8-2.6,5.3-11.7,5.3-11.7l4.7-166.7c0,0-0.4-22.7-24.9-28.8"/>
	<path class="st32" d="M244,73c0,0-24,4-27.5,27.5c0.5,20.5,0.6,34.5,0.6,34.5L244,73"/>
</g>
<g id="Calque_42_-_copie">
	<path class="st33" d="M224,325c0,0,0.4-15,10.2-23.5c9.8-8.5,73.3,2.1,73.3,2.1L342,305l14,12v15l-2.5,5.5"/>
</g>
<g id="Calque_48_-_copie">
	<path class="st34" d="M258.5,481.5c0,0,0-33,10-32s25,4,25,4l-24,13l-6,15H258.5z"/>
	<path class="st34" d="M328.5,446.5l14,5l8-1l-15-15C335.5,435.5,335.5,442.5,328.5,446.5z"/>
	<polygon class="st34" points="229.5,446.5 251.5,435.5 251.5,443.5 240.5,447.5 	"/>
</g>
<g id="Calque_47_-_copie">
	<path class="st35" d="M216.5,102.5l4,167.7c0,0-1.4,23.3,30.3,28.3S336,306,336,306s21-10.5,22.3-25c1.2-14.5,4.7-166.7,4.7-166.7
		s-2.4-22.7-24.9-28.8c-22.6-6.1-98.1-8.2-98.1-8.2S217.5,84.5,216.5,102.5z"/>
	<path class="st35" d="M255,50l73.5,7.1c0,0,16.5,10.9,9.5,28.9l-93.7-9.7C244.3,76.3,240,60,255,50z"/>
</g>
<g id="Calque_52_-_copie">
	<path class="st36" d="M383,191l24.5-5c0,0,5.5,1,5.5,5s-2,5.7-2,5.7L399,201l-21,9L383,191"/>
</g>
<g id="Calque_44_-_copie">
	<path class="st33" d="M256,329c0,0-3,28,34.5,32.5S335,337,335,337L256,329"/>
</g>
<path class="st37" d="M338.1,85.6c0,0,0.5-1,1-2.6c3.8-12.7-3.5-26.5-16.8-27.3c-18.3-1.1-41-3.8-53-5.3
	c-21.1-2.7-26.3,11.1-25.3,23.1c0.1,0.9,0.2,1.9,0.3,2.9C272.2,79,338.1,85.6,338.1,85.6z"/>
<path class="st37" d="M328.7,305.5l-77.9-7c-16.9,0-30.6-14.8-30.6-33l-3.7-156c0-18.2,13.7-33,30.6-33l85.3,8
	c16.9,0,30.6,14.8,30.6,33l-3.7,155C359.3,290.7,345.6,305.5,328.7,305.5z"/>
<path class="st37" d="M356.5,337.5l-132-12l1-7c0-11.6,9.4-21,21-21l89,8c11.6,0,21,9.4,21,21V337.5z"/>
<path class="st37" d="M257,329.5c0,0-7.5,27,33.5,32s44.5-25,44.5-25L257,329.5z"/>
<path class="st35" d="M363,177c0,0,17-1,20,9c-5,19-9,44-9,44h-11V177"/>
<path class="st37" d="M362.5,177c0,0,14.9-1.5,20.9,8.5l-9,44l-11.9,0.5V177z"/>
<path class="st31" d="M406,199l-4.5,1.5c-3.6,0.5-7.1,2.5-10.4,4.1l-12.6,6l4-20l19.9-3.8c5.8-1.2,11.1-1.7,11.1,4.1v0
	C413.5,195.3,410.4,198.1,406,199z"/>
<ellipse class="st38" cx="293" cy="440" rx="41.5" ry="11.5"/>
<path class="st29" d="M263,509h-5c-2.8,0-5-2.2-5-5v-17c0-2.8,2.2-5,5-5h5c2.8,0,5,2.2,5,5v17C268,506.8,265.8,509,263,509z"/>
<path class="st39" d="M265,447.6c0,0-6,11.4-7,34.4"/>
<path class="st39" d="M293.5,451.5c3.8,1.2-23.5,7.5-30.5,30.5"/>
<path class="st39" d="M272.5,430.5c0,0-32,1-46,20"/>
<path class="st39" d="M253.5,443.5c0,0-13,1-17,7"/>
<path class="st29" d="M235,475h-5c-2.8,0-5-2.2-5-5v-17c0-2.8,2.2-5,5-5h5c2.8,0,5,2.2,5,5v17C240,472.8,237.8,475,235,475z"/>
<path class="st39" d="M307.5,429.5c0,0,33-1,46,24"/>
<path class="st39" d="M328.5,446.5c0,0,11,1,15,7"/>
<path class="st29" d="M345,478h5c2.8,0,5-2.2,5-5v-17c0-2.8-2.2-5-5-5h-5c-2.8,0-5,2.2-5,5v17C340,475.8,342.2,478,345,478z"/>
<path class="st40" d="M285.5,360.5v77.9c0,3.5,2.6,6.4,6,6.9h0c4.2,0.6,8-2.7,8-6.9v-75.9L285.5,360.5z"/>
</svg>
