<!-- Generator: Adobe Illustrator 22.0.0, SVG Export Plug-In  -->
<svg version="1.1"
	 xmlns="http://www.w3.org/2000/svg" xmlns:xlink="http://www.w3.org/1999/xlink" xmlns:a="http://ns.adobe.com/AdobeSVGViewerExtensions/3.0/"
	 x="0px" y="0px" width="690.9px" height="345.6px" viewBox="0 0 690.9 345.6" style="enable-background:new 0 0 690.9 345.6;"
	 xml:space="preserve">
<style type="text/css">
	.st0{opacity:0.13;fill:#212121;}
	.st1{fill:#FFFFFF;}
	.st2{fill:#E2B700;}
	.st3{fill:#F7D0D0;}
	.st4{fill:#FCEE21;}
	.st5{fill:#EDBCBC;}
	.st6{fill:#AF2308;}
	.st7{fill:#3A00BA;}
	.st8{fill:#250384;}
	.st9{fill:#E8CF1A;}
	.st10{fill:#931706;}
	.st11{fill:#212121;}
	.st12{fill:#29009B;}
	.st13{fill:#262626;}
	.st14{fill:none;stroke:#212121;stroke-width:2;stroke-linecap:round;stroke-linejoin:round;stroke-miterlimit:10;}
	.st15{fill:none;stroke:#212121;stroke-miterlimit:10;}
	.st16{fill:none;stroke:#212121;stroke-width:2;stroke-miterlimit:10;}
	.st17{fill:#1C1B1B;}
	.st18{fill:#191919;}
	.st19{fill:#DBDBDB;}
	.st20{fill:#111111;}
	.st21{fill:#F7F7F7;}
	.st22{opacity:0.57;fill:#F9F9F4;}
	.st23{fill:#2D2D2D;}
	.st24{fill:#141414;}
	.st25{fill:#353535;}
	.st26{fill:#0F0F0F;}
	.st27{fill:#0A0A0A;}
	.st28{fill:#141413;}
	.st29{fill:#EDEDED;}
	.st30{fill:#0593E2;}
	.st31{fill:#232323;}
	.st32{fill:#F4F4F4;}
	.st33{fill:#777777;}
	.st34{fill:#E5E5E3;}
	.st35{opacity:0.28;fill:#E5E5E3;}
</style>
<defs>
</defs>
<path class="st0" d="M5.9,342.6l449-3c0,0-104-28-226-26S-30.1,336.6,5.9,342.6z"/>
<rect x="115.9" y="30.6" class="st1" width="27" height="39"/>
<g id="ecran1_-_copie">
	<g id="Calque_46_-_copie">
	</g>
	<g id="Calque_102_-_copie">
	</g>
	<polygon class="st2" points="147.9,17.6 147.9,30.6 145.9,43.6 151.9,53.6 158.9,59.6 155.9,67.6 154.9,69.6 154.9,72.6 
		142.9,111.6 129.9,99.6 124.9,97.6 111.5,115.9 119.9,132.6 124.9,132.6 137.9,140.6 158.9,142.6 186.9,132.6 179.9,126.6 
		174.9,99.6 166.9,69.6 163.9,48.6 160.9,32.6 154.9,22.6 	"/>
	<path class="st3" d="M149.9,50.6c-2-3-3-13-3-13l2-12l-3-12l-17,3l-12,4l-8,10l-5,20l-3,17v14l3,19l8,16l13-18l14,4l11-23l8-21
		C157.9,58.6,151.9,53.6,149.9,50.6z M137.1,48.8c-0.1,0.8-0.5,1.4-1,1.8c-0.7,1.8-3.4,2.5-4.5,0.5c-0.9-1.7-2.5-2.9-3.4-4.6
		c-0.8-1.5-1.3-3.2-1.3-4.9c-0.1-3.6,2.7-4.8,5.5-6.3c1.6-0.9,3.8,0.2,3.8,2.2C136.1,41.2,137.5,44.9,137.1,48.8z"/>
	<polygon class="st3" points="130.9,147.6 144.9,155.6 162.9,173.6 156.9,142.6 151.9,121.6 138.9,116.6 131.9,108.6 129.4,100.1 
		137.9,102.6 140.9,101.6 154.9,69.6 157.4,76.7 161.7,75.2 163.9,77.6 166.9,88.6 188.9,166.6 191.9,185.6 189.9,197.6 
		162.9,195.6 145.9,174.6 140.9,170.6 140.9,163.6 	"/>
	<polygon class="st3" points="127.9,211.6 136.9,178.6 140.9,170.6 158.4,189.6 162.9,195.6 189.9,197.6 211.9,192.6 227.9,194.6 
		237.9,201.6 241.9,208.6 228.9,199.6 222.9,200.6 187.9,218.6 160.9,232.6 147.9,235.6 137.9,227.6 	"/>
	<polygon class="st4" points="23.9,167.6 24.9,152.6 33.9,136.6 39.9,124.6 46.9,89.6 51.9,54.6 60.9,32.6 71.9,17.6 90.9,4.6 
		118.9,0.6 136.9,5.6 145.9,13.6 118.9,19.6 109.9,29.6 100.9,65.6 100.9,87.6 105.9,103.6 116.9,125.6 123.9,139.6 100.9,122.6 
		89.9,121.6 68.9,125.6 48.9,136.6 35.9,145.6 27.9,154.6 	"/>
	<g id="Calque_40_-_copie">
		<path class="st5" d="M173.9,114.6c0,0-13.5,29.6-15,41.6s0,0,0,0l-6.2-32.8l-6.2-3.9l-9.2-4.8l-7.8-9.6l-0.1-4l11.1,2l14.5-34.5
			l2.5,8.1l5.5-1.1l2.5,5.5l1,8l12.3,44.5"/>
	</g>
	<path class="st6" d="M29.4,152.8l-13.6,44.8l-4,38l3,19l2,27l17,2l11-9l15-10l23-8l-4.7-14.5c-0.9-1.6-1.3-3.5-1.3-5.3v-4.8
		c0-4,1.8-7.8,4.9-10.4l1.1-0.9l7-2l8-6l5-13l2-10v-5l16,20l7,12l3-16l4-16l6-15l-6-17l-9-11l-12.8-10l-15.2-10l-15.5,0.5l-10.5,2.5
		l-9,3.3l-10.2,5.7l-16.8,12L29.4,152.8z"/>
	<path class="st7" d="M78.9,257.6l12,3l23-3l24-13l15-9l36-19l36-16h5l16,13l8,10l18,18l28,23l23,14l18,10l15,9l-6,11v16l-26.3-2.8
		c-1.1-0.1-13.6-3.8-14.7-4.2l-20-9l-26-16l-21-18l-15-16l-37,22l-41,33l-19,15l-24,10l-26,3L63.9,338l-15.1-7.4l-8-9l-7-36l9-11
		l28-14L78.9,257.6z"/>
	<g id="Calque_53_-_copie">
	</g>
	<polygon class="st8" points="82.9,257.6 82.9,253.6 95.9,254.6 123.9,247.6 148.9,234.6 152.9,235.6 129.4,249.5 102.9,260.6 
		82.4,259.1 	"/>
	<g id="Calque_31_-_copie">
		<path class="st9" d="M145.9,13.6c0,0-38,1-58,23s-22,76-30,84s-20,25-20,25s-9,3-14,22l2-17c2.1-6.5,4.4-12.1,8-14l2-5l8-27l7-44
			l10-28c0,0,7-13,16-20s27-11,27-11l26,1L145.9,13.6z"/>
	</g>
	<g id="Calque_32_-_copie">
		<path class="st5" d="M119.9,102.6c0,0-10-16-8-38s23-33,30-30s5,3,5,3l2.3-10.3l-3.3-13.7l-30.2,8.5l-9.1,17.7l-3.8,18.3
			l-1.8,19.5l0,16l9.3,19.5l1.4,2.8L119.9,102.6z"/>
	</g>
	<g id="Calque_37_-_copie">
		<path class="st10" d="M96.9,121.6c0,0-56,30-59,83s22,60,22,60l-17.4,12l-24.6,11.3l-2-18.7l-1-17.7l-3-13.3l1.8-26.5l8.5-36.6
			l7.7-21.5l17.1-16l24.9-13L96.9,121.6z"/>
		<path class="st11" d="M133.8,34.9c0,0-6.9,2.7-3.9,8.7s7,9,7,9l1.5-7.5c0,0-3.5,0.5-4.5-3.5C133.1,38.5,136.7,34.2,133.8,34.9"/>
	</g>
	<g id="Calque_38_-_copie">
		<polyline class="st12" points="228.9,200.6 194.9,214.1 149.2,237.9 118.7,255 86.9,260.6 		"/>
		<path class="st12" d="M228.9,200.6"/>
		<path class="st12" d="M228.9,200.6"/>
		<polyline class="st12" points="207.9,207.6 170.3,227.8 141.4,242.9 		"/>
		<path class="st12" d="M207.9,207.6"/>
	</g>
	<polygon class="st8" points="245.9,213.6 253.9,223.6 284.9,252.6 325,280.3 308.9,266.6 279.9,241.6 253.9,218.6 243.9,210.6 	"/>
	<g id="Calque_49_-_copie">
		<path class="st5" d="M178.6,198.6c0,0-11.3,24-2,25c9.3,1,0,0,0,0s-22.7,20-33.7,8s-16-15-12-31s8-34,15-26
			S161.4,200.6,178.6,198.6"/>
	</g>
	<g id="Calque_39_-_copie">
		<path class="st12" d="M225.4,260.6c0,0-14.2-37.7,9.6-55.8s0,0,0,0l-6.1-4.2l-32,12l-41.5,23L117.1,255L96,260.1l-19.4-1.7
			l-23.7,9.2l-8,7l13.2,61.6l16.9,4.4C113.6,346.6,140.9,314.6,225.4,260.6z"/>
	</g>
	<polygon class="st13" points="348.9,292.6 373.9,292.6 392.9,294.6 412.9,297.6 412.9,308.6 405.9,318.6 372.9,324.6 348.9,324.6 
		348.9,310.6 355.9,297.6 	"/>
	<path class="st13" d="M340.9,289.6l26-6l37-3l9,1c3.6,0.8,7,1,7.6,7.2l0.4,0.8l-3,8l-5,6.2l-63-4.2L340.9,289.6z"/>
	<path class="st14" d="M79.4,169.1c33,11,48,48,48,48s0,0,3-17s11-31,11-31s-3.6-25.5-37.9-44.4c-3.2-1.7-6.7-2.6-10.3-2.6h-9.8
		c-25,0-54,31-54,31s-25.5,67.8-15,98c1,28,6,60,6,60s11-44,63-54c-5-16-10-27,0-37c7,3,23-9,21-36"/>
	<path class="st14" d="M124,139.8c0,0-13.6-24.7-19.6-40.7s-3-40,0-48s1-26,17-32s26-5,26-5s-10.1-17.6-47-12c-46,7-51,68-51,68
		s-5,54-16,66s-9.7,33.5-9.7,33.5"/>
	<path class="st14" d="M147.4,14.1c17.5,16.5,12.8,24,18,46l11.6,55.2c1.7,6.1,3.6,13.3,9.4,16.8c0,0-3.8,4.6-6.9,4.3"/>
	<path class="st14" d="M156.4,142.1c-11.4,1-23.8-1.8-32-10c0,0-3.6-1.3-4.3,0.4"/>
	<path class="st14" d="M146.4,15.1c0,0,4,11,1,23s11,21,11,21s-16,44-19,44s-15-5-15-5s-10,13-10,15"/>
	<path class="st14" d="M139.4,36.1c0,0-4-7-20,9"/>
	<path class="st14" d="M136.4,34.6c0,0-1,3.5,1,7.5s-1,10-1,10l-10,1"/>
	<path class="st14" d="M126.4,39.8c0,0-1.3,3.1,5.8,12.7"/>
	<path class="st14" d="M136.4,28.1c0,0-6-4-17,6"/>
	<path class="st14" d="M138.4,77.1c0,0,4,5,9,5"/>
	<path class="st14" d="M141.4,170.9c0,0,23,23.3,31,38.3"/>
	<path class="st14" d="M128.3,211.9c0,0,11.1,26.2,25.1,23.2s68-38,75-35s16,11,16,11s-7-14-18-17s-21,0-21,0s-26,7.9-43,0.4"/>
	<path class="st14" d="M129.4,100.1c0,0,0,16,23,22c0,0,8,45,11,53c0,0-9.6-16.9-32.8-28"/>
	<path class="st15" d="M169.4,93.1"/>
	<path class="st14" d="M189.8,197.2c4.4-7.9,0.6-27.1-5.4-45.1s-19-65-19-65s-0.5-2.5-2-9c-1.6-6.8-6-1-6-1c-0.2,5,1.5,8.5,2.5,11.5
		c1.5,4.5,0,2,1,6"/>
	<path class="st14" d="M24.9,299.9c0,0,16.5,45.2,66.5,41.2s60-44,137-82l9-5"/>
	<path class="st14" d="M79.4,258c0,0,2.4,1.4,7.4,2.1c10.3,1.3,31.7-0.8,66.6-24.9"/>
	<path class="st14" d="M228.4,260.1c0,0,50,64,121,65c0-11-2-17,7-27c0,0-87-44-112-88"/>
	<path class="st14" d="M82.4,254.1c0,0,22.9,7,66.4-19"/>
	<path class="st14" d="M244.4,210.1c0,0,76.1,69.7,102.5,82.8"/>
	<path class="st14" d="M350.4,293.1c1,2,37-2,63,5c0,0,0,19-11,22s-52,5-52,5"/>
	<path class="st14" d="M340.8,289.5c0,0,73.5-16.4,78.5-5.4s-6,17.5-6,17.5"/>
	<path class="st14" d="M139.4,103.1c0,0,2,4,6,6"/>
	<path class="st15" d="M164.4,89.1"/>
	<line class="st16" x1="159.4" y1="88.1" x2="155.4" y2="67.1"/>
	<path class="st14" d="M150.2,81.1c0,0,2.2,11,3.2,13"/>
	<line class="st14" x1="145" y1="93.1" x2="146.4" y2="97.1"/>
</g>
<g id="Calque_132_-_copie">
	<path d="M422.7,323.6c-4.4,0-8-3.6-8-8v-18h16v18C430.7,320,427.1,323.6,422.7,323.6z M416.7,299.6v16c0,3.3,2.7,6,6,6s6-2.7,6-6
		v-16H416.7z"/>
</g>
<g id="Calque_133_-_copie">
	<path class="st17" d="M422.7,322.6L422.7,322.6c-3.9,0-7-3.1-7-7v-17h14v17C429.7,319.5,426.6,322.6,422.7,322.6z"/>
</g>
<g>
	<path d="M547.9,154.6h-252c-0.5,0-1-0.4-1-0.9c0-0.5,0.3-1,0.9-1.1l14.9-2c0,0,0.1,0,0.1,0h230.2c0.1,0,0.2,0,0.3,0l6.9,2
		c0.5,0.1,0.8,0.6,0.7,1.1C548.8,154.2,548.3,154.6,547.9,154.6z M310.8,152.6h230H310.8z"/>
	<rect x="295.9" y="154.2" class="st18" width="252.9" height="144.1"/>
	<path d="M547.8,155.2v142.1H296.9V155.2H547.8 M549.8,153.2H294.9v146.1h254.9V153.2L549.8,153.2z"/>
	<rect x="304.3" y="161.8" class="st1" width="237.3" height="128.9"/>
	<path d="M540.6,162.8v126.9H305.3V162.8H540.6 M542.6,160.8H303.3v130.9h239.3V160.8L542.6,160.8z"/>
	<rect x="545.2" y="149" transform="matrix(0.3095 -0.9509 0.9509 0.3095 231.8935 624.9105)" width="2" height="7.6"/>
	<rect x="303" y="150.6" width="239.7" height="2"/>
	<ellipse class="st17" cx="422.9" cy="323.1" rx="28" ry="4.5"/>
	<path d="M422.9,328.6c-1.2,0-29-0.1-29-5.5s27.8-5.5,29-5.5s29,0.1,29,5.5S424,328.6,422.9,328.6z M395.9,323.1
		c1,1.3,10.5,3.5,27,3.5s26-2.2,27-3.5c-1-1.3-10.5-3.5-27-3.5S396.9,321.8,395.9,323.1z"/>
	<path d="M423.4,338.6c-10.6,0-20.5-0.5-28-1.3c-12.5-1.4-12.5-3.2-12.5-4.2s0-2.8,12.5-4.2c7.5-0.9,17.5-1.3,28-1.3
		s20.5,0.5,28,1.3c12.5,1.4,12.5,3.2,12.5,4.2s0,2.8-12.5,4.2C443.9,338.1,433.9,338.6,423.4,338.6z M385,333.1
		c2.2,1.5,16.3,3.5,38.3,3.5s36.1-2,38.3-3.5c-2.2-1.5-16.3-3.5-38.3-3.5S387.3,331.6,385,333.1z"/>
	<path d="M461.9,334c-3.9-9.2-11.1-10.5-11.1-10.5l0.3-2c0.3,0.1,8.3,1.4,12.7,11.7L461.9,334z"/>
	<path class="st17" d="M462.9,334.6c0,0-4-11-12-11c-6,2-26,5-26,5l-3,10l15-1L462.9,334.6z"/>
	<path d="M420.5,339.7l3.6-12l0.6-0.1c0.2,0,20-3,25.8-5l0.2-0.1h0.2c8.6,0,12.8,11.2,12.9,11.7l0.4,1.2l-27.3,3.1L420.5,339.7z
		 M425.6,329.5l-2.4,8l13.6-0.9l24.6-2.8c-1.2-2.7-4.8-9-10.4-9.2C445.4,326.4,429.1,329,425.6,329.5z"/>
	<path class="st19" d="M307.8,176.6c-1.1,0-1.9-0.9-1.9-1.9v-6.2c0-1.1,0.9-1.9,1.9-1.9h223.2c1.1,0,1.9,0.9,1.9,1.9v6.2
		c0,1.1-0.9,1.9-1.9,1.9H307.8z"/>
	<path class="st20" d="M530.9,167.6c0.5,0,0.9,0.4,0.9,0.9v6.2c0,0.5-0.4,0.9-0.9,0.9H307.8c-0.5,0-0.9-0.4-0.9-0.9v-6.2
		c0-0.5,0.4-0.9,0.9-0.9H530.9 M530.9,165.6H307.8c-1.6,0-2.9,1.3-2.9,2.9v6.2c0,1.6,1.3,2.9,2.9,2.9h223.2c1.6,0,2.9-1.3,2.9-2.9
		v-6.2C533.9,166.9,532.5,165.6,530.9,165.6L530.9,165.6z"/>
	<rect x="305.9" y="176.6" class="st19" width="227" height="105"/>
	<path class="st20" d="M531.9,177.6v103h-225v-103H531.9 M533.9,175.6h-229v107h229V175.6L533.9,175.6z"/>
	<rect x="305.9" y="176.6" class="st21" width="194" height="105"/>
	<path class="st20" d="M498.9,177.6v103h-192v-103H498.9 M500.9,175.6h-196v107h196V175.6L500.9,175.6z"/>
	<circle class="st19" cx="517.9" cy="171.6" r="2.5"/>
	<path class="st20" d="M517.9,169.6c1.1,0,2,0.9,2,2s-0.9,2-2,2s-2-0.9-2-2S516.7,169.6,517.9,169.6 M517.9,168.6c-1.7,0-3,1.3-3,3
		s1.3,3,3,3s3-1.3,3-3S519.5,168.6,517.9,168.6L517.9,168.6z"/>
	<circle class="st19" cx="525.9" cy="171.6" r="2.5"/>
	<path class="st20" d="M525.9,169.6c1.1,0,2,0.9,2,2s-0.9,2-2,2s-2-0.9-2-2S524.7,169.6,525.9,169.6 M525.9,168.6c-1.7,0-3,1.3-3,3
		s1.3,3,3,3s3-1.3,3-3S527.5,168.6,525.9,168.6L525.9,168.6z"/>
	<polygon class="st22" points="418.9,289.6 540.9,205.6 540.9,289.6 	"/>
	<path class="st22" d="M491.9,162.6l-90,44l-11-1c0,0,9-12-2-21s-15-6-15-6l4-16H491.9z"/>
</g>
<g>
	<path d="M334.1,200.8l-7.6,18.8h-3.2l-7.6-18.8h2.8c0.3,0,0.6,0.1,0.7,0.2c0.2,0.1,0.3,0.3,0.4,0.6l4.4,11.5
		c0.1,0.4,0.3,0.8,0.4,1.2s0.3,0.9,0.4,1.4c0.1-0.5,0.2-1,0.3-1.4c0.1-0.4,0.3-0.9,0.4-1.2l4.4-11.5c0.1-0.2,0.2-0.4,0.4-0.5
		s0.5-0.2,0.7-0.2H334.1z"/>
	<path d="M339.3,206c1,0,1.9,0.2,2.7,0.5c0.8,0.3,1.5,0.8,2.1,1.4c0.6,0.6,1,1.3,1.3,2.2c0.3,0.8,0.5,1.8,0.5,2.8
		c0,1.1-0.2,2-0.5,2.9c-0.3,0.8-0.8,1.6-1.3,2.2c-0.6,0.6-1.3,1.1-2.1,1.4c-0.8,0.3-1.7,0.5-2.7,0.5c-1,0-1.9-0.2-2.7-0.5
		c-0.8-0.3-1.5-0.8-2.1-1.4c-0.6-0.6-1-1.3-1.3-2.2c-0.3-0.8-0.5-1.8-0.5-2.9c0-1,0.2-2,0.5-2.8c0.3-0.8,0.8-1.6,1.3-2.2
		c0.6-0.6,1.3-1,2.1-1.4C337.4,206.2,338.3,206,339.3,206z M339.3,217.3c1.1,0,1.9-0.4,2.5-1.1c0.5-0.7,0.8-1.8,0.8-3.3
		s-0.3-2.5-0.8-3.3c-0.5-0.8-1.4-1.1-2.5-1.1c-1.1,0-2,0.4-2.5,1.1c-0.5,0.8-0.8,1.9-0.8,3.3s0.3,2.5,0.8,3.3
		S338.2,217.3,339.3,217.3z"/>
	<path d="M359.9,206.3v13.3h-2c-0.4,0-0.7-0.2-0.8-0.6l-0.2-1.1c-0.5,0.6-1.1,1-1.8,1.3s-1.4,0.5-2.3,0.5c-0.7,0-1.4-0.1-1.9-0.4
		s-1-0.6-1.4-1s-0.7-1-0.9-1.6s-0.3-1.3-0.3-2v-8.5h3.2v8.5c0,0.8,0.2,1.4,0.6,1.9c0.4,0.4,0.9,0.7,1.7,0.7c0.6,0,1.1-0.1,1.6-0.4
		s0.9-0.6,1.4-1v-9.6H359.9z"/>
	<path d="M366.3,200.3v19.3h-3.2v-19.3H366.3z"/>
	<path d="M372,213.3c0.1,0.7,0.2,1.3,0.4,1.8c0.2,0.5,0.4,0.9,0.8,1.2c0.3,0.3,0.7,0.6,1.1,0.7c0.4,0.2,0.9,0.2,1.4,0.2
		s1-0.1,1.3-0.2c0.4-0.1,0.7-0.3,1-0.4s0.5-0.3,0.7-0.4c0.2-0.1,0.4-0.2,0.6-0.2c0.3,0,0.5,0.1,0.6,0.3l0.9,1.2
		c-0.4,0.4-0.8,0.8-1.2,1s-0.9,0.5-1.4,0.7s-1,0.3-1.5,0.4c-0.5,0.1-1,0.1-1.4,0.1c-0.9,0-1.8-0.2-2.6-0.5s-1.5-0.8-2.1-1.4
		s-1.1-1.3-1.4-2.2c-0.3-0.9-0.5-1.9-0.5-3.1c0-0.9,0.1-1.8,0.4-2.6c0.3-0.8,0.7-1.5,1.3-2.1c0.6-0.6,1.2-1.1,2-1.4s1.7-0.5,2.7-0.5
		c0.8,0,1.6,0.1,2.3,0.4c0.7,0.3,1.3,0.7,1.8,1.2c0.5,0.5,0.9,1.1,1.2,1.9s0.4,1.6,0.4,2.6c0,0.5-0.1,0.8-0.2,1s-0.3,0.3-0.6,0.3
		H372z M378.1,211.4c0-0.4-0.1-0.8-0.2-1.2c-0.1-0.4-0.3-0.7-0.5-1c-0.2-0.3-0.5-0.5-0.9-0.7c-0.4-0.2-0.8-0.2-1.3-0.2
		c-0.9,0-1.7,0.3-2.2,0.8c-0.5,0.5-0.9,1.3-1,2.2H378.1z"/>
	<path d="M393,207.6c0,0.2,0,0.4-0.1,0.7c-0.1,0.2-0.2,0.4-0.3,0.5l-6.3,8.3h6.6v2.5h-10.3v-1.3c0-0.1,0-0.3,0.1-0.5
		c0.1-0.2,0.2-0.4,0.3-0.6l6.4-8.4h-6.4v-2.5H393V207.6z"/>
	<path d="M395.1,210.4h6.7v2.7h-6.7V210.4z"/>
	<path d="M417,206.3l-5.3,13.3h-2.9l-5.3-13.3h2.7c0.2,0,0.4,0.1,0.6,0.2c0.2,0.1,0.3,0.3,0.3,0.4l2.6,7.1c0.1,0.4,0.3,0.8,0.4,1.2
		c0.1,0.4,0.2,0.8,0.3,1.2c0.1-0.4,0.2-0.8,0.3-1.2c0.1-0.4,0.2-0.8,0.4-1.2l2.6-7.1c0.1-0.2,0.2-0.3,0.3-0.4
		c0.2-0.1,0.3-0.2,0.6-0.2H417z"/>
	<path d="M424.1,206c1,0,1.9,0.2,2.7,0.5c0.8,0.3,1.5,0.8,2.1,1.4c0.6,0.6,1,1.3,1.3,2.2c0.3,0.8,0.5,1.8,0.5,2.8
		c0,1.1-0.2,2-0.5,2.9c-0.3,0.8-0.8,1.6-1.3,2.2c-0.6,0.6-1.3,1.1-2.1,1.4c-0.8,0.3-1.7,0.5-2.7,0.5c-1,0-1.9-0.2-2.7-0.5
		c-0.8-0.3-1.5-0.8-2.1-1.4c-0.6-0.6-1-1.3-1.3-2.2c-0.3-0.8-0.5-1.8-0.5-2.9c0-1,0.2-2,0.5-2.8c0.3-0.8,0.8-1.6,1.3-2.2
		c0.6-0.6,1.3-1,2.1-1.4C422.2,206.2,423.1,206,424.1,206z M424.1,217.3c1.1,0,1.9-0.4,2.5-1.1c0.5-0.7,0.8-1.8,0.8-3.3
		s-0.3-2.5-0.8-3.3c-0.5-0.8-1.4-1.1-2.5-1.1c-1.1,0-2,0.4-2.5,1.1c-0.5,0.8-0.8,1.9-0.8,3.3s0.3,2.5,0.8,3.3S423,217.3,424.1,217.3
		z"/>
	<path d="M444.7,206.3v13.3h-2c-0.4,0-0.7-0.2-0.8-0.6l-0.2-1.1c-0.5,0.6-1.1,1-1.8,1.3s-1.4,0.5-2.3,0.5c-0.7,0-1.4-0.1-1.9-0.4
		s-1-0.6-1.4-1s-0.7-1-0.9-1.6s-0.3-1.3-0.3-2v-8.5h3.2v8.5c0,0.8,0.2,1.4,0.6,1.9c0.4,0.4,0.9,0.7,1.7,0.7c0.6,0,1.1-0.1,1.6-0.4
		s0.9-0.6,1.4-1v-9.6H444.7z"/>
	<path d="M456,208.9c-0.1,0.1-0.2,0.2-0.3,0.3c-0.1,0.1-0.2,0.1-0.4,0.1c-0.2,0-0.3,0-0.5-0.1c-0.2-0.1-0.4-0.2-0.6-0.3
		c-0.2-0.1-0.5-0.2-0.8-0.3c-0.3-0.1-0.7-0.1-1.1-0.1c-0.6,0-1.1,0.1-1.5,0.4c-0.4,0.3-0.5,0.6-0.5,1.1c0,0.3,0.1,0.5,0.3,0.7
		c0.2,0.2,0.4,0.4,0.7,0.5c0.3,0.1,0.7,0.3,1,0.4c0.4,0.1,0.8,0.2,1.2,0.4c0.4,0.1,0.8,0.3,1.2,0.5c0.4,0.2,0.7,0.4,1,0.7
		c0.3,0.3,0.6,0.6,0.7,1s0.3,0.8,0.3,1.4c0,0.6-0.1,1.2-0.3,1.8c-0.2,0.5-0.6,1-1,1.4s-1,0.7-1.7,0.9s-1.4,0.3-2.3,0.3
		c-0.5,0-0.9,0-1.3-0.1s-0.9-0.2-1.3-0.3c-0.4-0.1-0.8-0.3-1.1-0.5c-0.3-0.2-0.6-0.4-0.9-0.7l0.7-1.2c0.1-0.1,0.2-0.3,0.3-0.3
		c0.1-0.1,0.3-0.1,0.5-0.1s0.4,0.1,0.6,0.2c0.2,0.1,0.4,0.2,0.6,0.4c0.2,0.1,0.5,0.3,0.8,0.4s0.7,0.2,1.2,0.2c0.4,0,0.7,0,1-0.1
		c0.3-0.1,0.5-0.2,0.7-0.4c0.2-0.1,0.3-0.3,0.4-0.5c0.1-0.2,0.1-0.4,0.1-0.6c0-0.3-0.1-0.6-0.3-0.8c-0.2-0.2-0.4-0.4-0.7-0.5
		s-0.7-0.3-1.1-0.4c-0.4-0.1-0.8-0.2-1.2-0.4c-0.4-0.1-0.8-0.3-1.2-0.5c-0.4-0.2-0.7-0.4-1.1-0.7s-0.6-0.6-0.7-1.1
		c-0.2-0.4-0.3-0.9-0.3-1.5c0-0.5,0.1-1.1,0.3-1.6c0.2-0.5,0.5-0.9,1-1.3c0.4-0.4,0.9-0.7,1.6-0.9c0.6-0.2,1.4-0.3,2.2-0.3
		c0.9,0,1.8,0.2,2.5,0.5s1.4,0.7,1.9,1.2L456,208.9z"/>
	<path d="M317.4,250.8v-13.3h2c0.4,0,0.7,0.2,0.8,0.6l0.2,1c0.2-0.3,0.5-0.5,0.7-0.7c0.3-0.2,0.5-0.4,0.8-0.6
		c0.3-0.2,0.6-0.3,0.9-0.4c0.3-0.1,0.7-0.1,1.1-0.1c0.8,0,1.5,0.2,2.1,0.7c0.5,0.5,0.9,1.1,1.2,1.8c0.2-0.4,0.5-0.8,0.8-1.1
		s0.7-0.6,1-0.8s0.8-0.3,1.2-0.4c0.4-0.1,0.8-0.1,1.3-0.1c0.7,0,1.4,0.1,2,0.3c0.6,0.2,1.1,0.6,1.4,1c0.4,0.4,0.7,1,0.9,1.6
		c0.2,0.6,0.3,1.3,0.3,2.1v8.5H333v-8.5c0-0.8-0.2-1.5-0.6-1.9c-0.4-0.4-0.9-0.6-1.6-0.6c-0.3,0-0.6,0.1-0.9,0.2
		c-0.3,0.1-0.5,0.3-0.7,0.5s-0.4,0.5-0.5,0.8c-0.1,0.3-0.2,0.7-0.2,1.1v8.5h-3.2v-8.5c0-0.9-0.2-1.5-0.5-2c-0.4-0.4-0.9-0.6-1.6-0.6
		c-0.5,0-0.9,0.1-1.3,0.3c-0.4,0.2-0.8,0.5-1.1,0.9v9.8H317.4z"/>
	<path d="M341.7,244.5c0.1,0.7,0.2,1.3,0.4,1.8c0.2,0.5,0.4,0.9,0.8,1.2c0.3,0.3,0.7,0.6,1.1,0.7c0.4,0.2,0.9,0.2,1.4,0.2
		s1-0.1,1.3-0.2c0.4-0.1,0.7-0.3,1-0.4s0.5-0.3,0.7-0.4c0.2-0.1,0.4-0.2,0.6-0.2c0.3,0,0.5,0.1,0.6,0.3l0.9,1.2
		c-0.4,0.4-0.8,0.8-1.2,1s-0.9,0.5-1.4,0.7s-1,0.3-1.5,0.4c-0.5,0.1-1,0.1-1.4,0.1c-0.9,0-1.8-0.2-2.6-0.5s-1.5-0.8-2.1-1.4
		s-1.1-1.3-1.4-2.2c-0.3-0.9-0.5-1.9-0.5-3.1c0-0.9,0.1-1.8,0.4-2.6c0.3-0.8,0.7-1.5,1.3-2.1c0.6-0.6,1.2-1.1,2-1.4s1.7-0.5,2.7-0.5
		c0.8,0,1.6,0.1,2.3,0.4c0.7,0.3,1.3,0.7,1.8,1.2c0.5,0.5,0.9,1.1,1.2,1.9s0.4,1.6,0.4,2.6c0,0.5-0.1,0.8-0.2,1s-0.3,0.3-0.6,0.3
		H341.7z M347.8,242.6c0-0.4-0.1-0.8-0.2-1.2c-0.1-0.4-0.3-0.7-0.5-1c-0.2-0.3-0.5-0.5-0.9-0.7c-0.4-0.2-0.8-0.2-1.3-0.2
		c-0.9,0-1.7,0.3-2.2,0.8c-0.5,0.5-0.9,1.3-1,2.2H347.8z"/>
	<path d="M369,240.3c-0.1,0.1-0.2,0.2-0.3,0.3c-0.1,0.1-0.2,0.1-0.4,0.1c-0.2,0-0.3,0-0.5-0.1c-0.2-0.1-0.3-0.2-0.6-0.3
		c-0.2-0.1-0.5-0.2-0.8-0.3c-0.3-0.1-0.7-0.1-1.1-0.1c-0.6,0-1.1,0.1-1.5,0.3c-0.4,0.2-0.8,0.5-1.1,0.9s-0.5,0.8-0.6,1.4
		c-0.1,0.5-0.2,1.2-0.2,1.8c0,0.7,0.1,1.3,0.2,1.9c0.2,0.6,0.4,1,0.7,1.4s0.6,0.7,1,0.9s0.9,0.3,1.4,0.3s0.9-0.1,1.2-0.2
		c0.3-0.1,0.6-0.3,0.8-0.4c0.2-0.2,0.4-0.3,0.6-0.4c0.2-0.1,0.3-0.2,0.5-0.2c0.3,0,0.5,0.1,0.6,0.3l0.9,1.2c-0.4,0.4-0.7,0.8-1.2,1
		s-0.8,0.5-1.3,0.7s-0.9,0.3-1.4,0.4c-0.5,0.1-0.9,0.1-1.4,0.1c-0.8,0-1.6-0.2-2.3-0.5s-1.4-0.8-1.9-1.3c-0.5-0.6-1-1.3-1.3-2.2
		c-0.3-0.9-0.5-1.8-0.5-2.9c0-1,0.1-1.9,0.4-2.7s0.7-1.6,1.2-2.2c0.5-0.6,1.2-1.1,2-1.4s1.7-0.5,2.8-0.5c1,0,1.9,0.2,2.6,0.5
		s1.4,0.8,2,1.4L369,240.3z"/>
	<path d="M377.6,237.2c1,0,1.9,0.2,2.7,0.5c0.8,0.3,1.5,0.8,2.1,1.4c0.6,0.6,1,1.3,1.3,2.2c0.3,0.8,0.5,1.8,0.5,2.8
		c0,1.1-0.2,2-0.5,2.9c-0.3,0.8-0.8,1.6-1.3,2.2c-0.6,0.6-1.3,1.1-2.1,1.4c-0.8,0.3-1.7,0.5-2.7,0.5c-1,0-1.9-0.2-2.7-0.5
		c-0.8-0.3-1.5-0.8-2.1-1.4c-0.6-0.6-1-1.3-1.3-2.2c-0.3-0.8-0.5-1.8-0.5-2.9c0-1,0.2-2,0.5-2.8c0.3-0.8,0.8-1.6,1.3-2.2
		c0.6-0.6,1.3-1,2.1-1.4C375.7,237.4,376.6,237.2,377.6,237.2z M377.6,248.5c1.1,0,1.9-0.4,2.5-1.1c0.5-0.7,0.8-1.8,0.8-3.3
		s-0.3-2.5-0.8-3.3c-0.5-0.8-1.4-1.1-2.5-1.1c-1.1,0-2,0.4-2.5,1.1c-0.5,0.8-0.8,1.9-0.8,3.3s0.3,2.5,0.8,3.3
		S376.5,248.5,377.6,248.5z"/>
	<path d="M389.7,239.1c0.3-0.3,0.6-0.5,0.9-0.7c0.3-0.2,0.6-0.4,0.9-0.6c0.3-0.2,0.7-0.3,1.1-0.4c0.4-0.1,0.8-0.1,1.2-0.1
		c0.7,0,1.4,0.1,1.9,0.4c0.6,0.2,1,0.6,1.4,1c0.4,0.4,0.7,1,0.9,1.6s0.3,1.3,0.3,2v8.5h-3.2v-8.5c0-0.8-0.2-1.4-0.6-1.9
		s-0.9-0.7-1.7-0.7c-0.6,0-1.1,0.1-1.6,0.4s-0.9,0.6-1.4,1v9.6h-3.2v-13.3h2c0.4,0,0.7,0.2,0.8,0.6L389.7,239.1z"/>
	<path d="M405.6,251c-1.2,0-2.1-0.3-2.7-1s-0.9-1.6-0.9-2.7v-7.4h-1.4c-0.2,0-0.3-0.1-0.4-0.2c-0.1-0.1-0.2-0.3-0.2-0.5v-1.3
		l2.1-0.4l0.7-3.6c0-0.2,0.1-0.3,0.2-0.4c0.1-0.1,0.3-0.1,0.5-0.1h1.7v4.2h3.6v2.3h-3.6v7.2c0,0.4,0.1,0.7,0.3,1s0.5,0.4,0.8,0.4
		c0.2,0,0.4,0,0.5-0.1c0.1,0,0.3-0.1,0.4-0.1c0.1-0.1,0.2-0.1,0.3-0.1c0.1,0,0.2-0.1,0.2-0.1c0.1,0,0.2,0,0.2,0.1
		c0.1,0,0.1,0.1,0.2,0.2l1,1.6c-0.5,0.4-1,0.7-1.6,0.9C406.9,250.9,406.2,251,405.6,251z"/>
	<path d="M410.5,239.3c1.5-1.4,3.4-2.1,5.5-2.1c0.8,0,1.5,0.1,2.1,0.4c0.6,0.3,1.1,0.6,1.6,1.1c0.4,0.5,0.7,1,1,1.6
		c0.2,0.6,0.3,1.3,0.3,2.1v8.4h-1.5c-0.3,0-0.5,0-0.7-0.1c-0.2-0.1-0.3-0.3-0.4-0.6l-0.3-1c-0.3,0.3-0.7,0.6-1,0.8
		c-0.3,0.2-0.7,0.4-1,0.6c-0.3,0.2-0.7,0.3-1.1,0.4c-0.4,0.1-0.8,0.1-1.3,0.1c-0.6,0-1.1-0.1-1.6-0.2s-0.9-0.4-1.2-0.7
		c-0.3-0.3-0.6-0.7-0.8-1.1c-0.2-0.5-0.3-1-0.3-1.6c0-0.3,0.1-0.7,0.2-1c0.1-0.3,0.3-0.7,0.6-1c0.3-0.3,0.6-0.6,1-0.9
		c0.4-0.3,0.9-0.5,1.5-0.7c0.6-0.2,1.3-0.4,2.1-0.5c0.8-0.1,1.7-0.2,2.7-0.2v-0.8c0-0.9-0.2-1.6-0.6-2c-0.4-0.4-0.9-0.6-1.7-0.6
		c-0.5,0-1,0.1-1.3,0.2c-0.3,0.1-0.6,0.3-0.9,0.4c-0.3,0.2-0.5,0.3-0.7,0.4c-0.2,0.1-0.4,0.2-0.7,0.2c-0.2,0-0.4-0.1-0.6-0.2
		c-0.2-0.1-0.3-0.3-0.4-0.4L410.5,239.3z M417.8,245.1c-0.9,0-1.7,0.1-2.3,0.2c-0.6,0.1-1.1,0.3-1.5,0.4c-0.4,0.2-0.7,0.4-0.8,0.6
		c-0.2,0.2-0.2,0.5-0.2,0.8c0,0.6,0.2,1,0.5,1.2c0.3,0.2,0.8,0.4,1.3,0.4c0.7,0,1.2-0.1,1.7-0.4s1-0.6,1.4-1.1V245.1z"/>
	<path d="M433.6,240.3c-0.1,0.1-0.2,0.2-0.3,0.3c-0.1,0.1-0.2,0.1-0.4,0.1c-0.2,0-0.3,0-0.5-0.1c-0.2-0.1-0.3-0.2-0.6-0.3
		c-0.2-0.1-0.5-0.2-0.8-0.3c-0.3-0.1-0.7-0.1-1.1-0.1c-0.6,0-1.1,0.1-1.5,0.3c-0.4,0.2-0.8,0.5-1.1,0.9s-0.5,0.8-0.6,1.4
		c-0.1,0.5-0.2,1.2-0.2,1.8c0,0.7,0.1,1.3,0.2,1.9c0.2,0.6,0.4,1,0.7,1.4s0.6,0.7,1,0.9s0.9,0.3,1.4,0.3s0.9-0.1,1.2-0.2
		c0.3-0.1,0.6-0.3,0.8-0.4c0.2-0.2,0.4-0.3,0.6-0.4c0.2-0.1,0.3-0.2,0.5-0.2c0.3,0,0.5,0.1,0.6,0.3l0.9,1.2c-0.4,0.4-0.7,0.8-1.2,1
		s-0.8,0.5-1.3,0.7s-0.9,0.3-1.4,0.4c-0.5,0.1-0.9,0.1-1.4,0.1c-0.8,0-1.6-0.2-2.3-0.5s-1.4-0.8-1.9-1.3c-0.5-0.6-1-1.3-1.3-2.2
		c-0.3-0.9-0.5-1.8-0.5-2.9c0-1,0.1-1.9,0.4-2.7s0.7-1.6,1.2-2.2c0.5-0.6,1.2-1.1,2-1.4s1.7-0.5,2.8-0.5c1,0,1.9,0.2,2.6,0.5
		s1.4,0.8,2,1.4L433.6,240.3z"/>
	<path d="M441,251c-1.2,0-2.1-0.3-2.7-1s-0.9-1.6-0.9-2.7v-7.4H436c-0.2,0-0.3-0.1-0.4-0.2c-0.1-0.1-0.2-0.3-0.2-0.5v-1.3l2.1-0.4
		l0.7-3.6c0-0.2,0.1-0.3,0.2-0.4c0.1-0.1,0.3-0.1,0.5-0.1h1.7v4.2h3.6v2.3h-3.6v7.2c0,0.4,0.1,0.7,0.3,1s0.5,0.4,0.8,0.4
		c0.2,0,0.4,0,0.5-0.1c0.1,0,0.3-0.1,0.4-0.1c0.1-0.1,0.2-0.1,0.3-0.1c0.1,0,0.2-0.1,0.2-0.1c0.1,0,0.2,0,0.2,0.1
		c0.1,0,0.1,0.1,0.2,0.2l1,1.6c-0.5,0.4-1,0.7-1.6,0.9C442.3,250.9,441.6,251,441,251z"/>
	<path d="M448.6,244.5c0.1,0.7,0.2,1.3,0.4,1.8c0.2,0.5,0.4,0.9,0.8,1.2c0.3,0.3,0.7,0.6,1.1,0.7c0.4,0.2,0.9,0.2,1.4,0.2
		s1-0.1,1.3-0.2c0.4-0.1,0.7-0.3,1-0.4s0.5-0.3,0.7-0.4c0.2-0.1,0.4-0.2,0.6-0.2c0.3,0,0.5,0.1,0.6,0.3l0.9,1.2
		c-0.4,0.4-0.8,0.8-1.2,1s-0.9,0.5-1.4,0.7s-1,0.3-1.5,0.4c-0.5,0.1-1,0.1-1.4,0.1c-0.9,0-1.8-0.2-2.6-0.5s-1.5-0.8-2.1-1.4
		s-1.1-1.3-1.4-2.2c-0.3-0.9-0.5-1.9-0.5-3.1c0-0.9,0.1-1.8,0.4-2.6c0.3-0.8,0.7-1.5,1.3-2.1c0.6-0.6,1.2-1.1,2-1.4s1.7-0.5,2.7-0.5
		c0.8,0,1.6,0.1,2.3,0.4c0.7,0.3,1.3,0.7,1.8,1.2c0.5,0.5,0.9,1.1,1.2,1.9s0.4,1.6,0.4,2.6c0,0.5-0.1,0.8-0.2,1s-0.3,0.3-0.6,0.3
		H448.6z M454.7,242.6c0-0.4-0.1-0.8-0.2-1.2c-0.1-0.4-0.3-0.7-0.5-1c-0.2-0.3-0.5-0.5-0.9-0.7c-0.4-0.2-0.8-0.2-1.3-0.2
		c-0.9,0-1.7,0.3-2.2,0.8c-0.5,0.5-0.9,1.3-1,2.2H454.7z"/>
	<path d="M463,239.8c0.4-0.8,0.9-1.4,1.5-1.9c0.6-0.5,1.2-0.7,2-0.7c0.6,0,1.1,0.1,1.5,0.4l-0.2,2.4c0,0.2-0.1,0.3-0.2,0.3
		c-0.1,0.1-0.2,0.1-0.3,0.1c-0.1,0-0.3,0-0.6-0.1c-0.3,0-0.5-0.1-0.7-0.1c-0.4,0-0.7,0.1-0.9,0.2s-0.5,0.3-0.7,0.4
		c-0.2,0.2-0.4,0.4-0.6,0.7s-0.3,0.6-0.5,0.9v8.2H460v-13.3h1.9c0.3,0,0.6,0.1,0.7,0.2c0.1,0.1,0.2,0.3,0.3,0.6L463,239.8z"/>
	<path d="M474.8,233.7c0.3-0.3,0.6-0.5,1-0.7s0.7-0.4,1.1-0.6s0.8-0.3,1.3-0.4s1-0.1,1.5-0.1c0.8,0,1.4,0.1,2.1,0.3s1.2,0.5,1.6,0.9
		c0.4,0.4,0.8,0.9,1,1.4c0.2,0.5,0.4,1.2,0.4,1.8c0,0.7-0.1,1.2-0.3,1.7c-0.2,0.5-0.4,0.9-0.7,1.3c-0.3,0.4-0.6,0.7-0.9,0.9
		c-0.3,0.3-0.7,0.5-1,0.7c-0.3,0.2-0.6,0.5-0.8,0.7c-0.2,0.2-0.4,0.5-0.4,0.7l-0.3,1.9h-2.2L478,242c-0.1-0.4,0-0.8,0.2-1.1
		s0.4-0.6,0.7-0.8c0.3-0.3,0.6-0.5,0.9-0.7c0.3-0.2,0.7-0.5,1-0.8s0.6-0.6,0.8-0.9c0.2-0.4,0.3-0.8,0.3-1.3c0-0.3-0.1-0.6-0.2-0.8
		s-0.3-0.5-0.5-0.6c-0.2-0.2-0.5-0.3-0.7-0.4c-0.3-0.1-0.6-0.1-0.9-0.1c-0.5,0-0.9,0.1-1.3,0.2s-0.6,0.2-0.9,0.4
		c-0.2,0.1-0.4,0.3-0.6,0.4c-0.2,0.1-0.3,0.2-0.4,0.2c-0.3,0-0.5-0.1-0.7-0.4L474.8,233.7z M477.2,249c0-0.3,0-0.5,0.1-0.8
		c0.1-0.2,0.2-0.5,0.4-0.6c0.2-0.2,0.4-0.3,0.6-0.4s0.5-0.2,0.8-0.2s0.5,0.1,0.8,0.2c0.2,0.1,0.4,0.2,0.6,0.4
		c0.2,0.2,0.3,0.4,0.4,0.6c0.1,0.2,0.2,0.5,0.2,0.8c0,0.3-0.1,0.5-0.2,0.8c-0.1,0.2-0.2,0.4-0.4,0.6c-0.2,0.2-0.4,0.3-0.6,0.4
		c-0.2,0.1-0.5,0.1-0.8,0.1s-0.5-0.1-0.8-0.1c-0.2-0.1-0.5-0.2-0.6-0.4s-0.3-0.4-0.4-0.6C477.3,249.6,477.2,249.3,477.2,249z"/>
</g>
<g id="Calque_33_-_copie">
	<path class="st23" d="M215.2,344.9c-0.2,0-0.4-0.1-0.5-0.3c-0.1-0.2,0-0.4,0.2-0.6l21.8-16.4c0.1-0.1,0.2-0.1,0.3-0.1h187
		c0.1,0,0.1,0,0.2,0l34.1,13.6c0.2,0.1,0.3,0.3,0.3,0.6c0,0.2-0.2,0.4-0.5,0.4L215.2,344.9C215.2,344.9,215.2,344.9,215.2,344.9z
		 M237.2,328.5l-20.5,15.4l238.9-2.7l-31.7-12.7H237.2z"/>
	<path class="st23" d="M215.2,335.4c-0.2,0-0.4-0.1-0.5-0.3c-0.1-0.2,0-0.4,0.2-0.6l21.8-16.4c0.1-0.1,0.2-0.1,0.3-0.1h187
		c0.1,0,0.1,0,0.2,0l34.1,13.6c0.2,0.1,0.3,0.3,0.3,0.6c0,0.2-0.2,0.4-0.5,0.4L215.2,335.4C215.2,335.4,215.2,335.4,215.2,335.4z
		 M237.2,319l-20.5,15.4l238.9-2.7L423.9,319H237.2z"/>
	<polygon class="st24" points="214.5,334.2 214.5,345.1 458.2,341 458.2,331.5 	"/>
	<polyline class="st11" points="329.6,326.2 329.6,320.8 320.1,320.8 320.1,322.9 	"/>
	<polygon class="st25" points="213.9,334.9 238.4,318.5 425.8,318.5 458.2,332.1 	"/>
	<g id="Calque_34_-_copie">
		<polygon class="st11" points="458.9,342.4 458.9,331.5 213.9,334.9 214.5,345.1 		"/>
		<path d="M214.5,345.6c-0.3,0-0.5-0.2-0.5-0.5l-0.7-10.2c0-0.1,0-0.3,0.1-0.4c0.1-0.1,0.2-0.2,0.4-0.2l245-3.4
			c0.1,0,0.3,0.1,0.4,0.1s0.1,0.2,0.1,0.4v10.9c0,0.3-0.2,0.5-0.5,0.5L214.5,345.6C214.5,345.6,214.5,345.6,214.5,345.6z
			 M214.4,335.4l0.6,9.2l243.4-2.7V332L214.4,335.4z M458.9,342.4L458.9,342.4L458.9,342.4z"/>
		<path d="M214.5,334.7c-0.2,0-0.4-0.1-0.5-0.3c-0.1-0.2,0-0.4,0.2-0.6l23.2-16.4c0.1-0.1,0.2-0.1,0.3-0.1c0,0,0,0,0,0L424,318
			c0.1,0,0.1,0,0.2,0l34.8,13c0.2,0.1,0.4,0.3,0.3,0.6s-0.2,0.4-0.5,0.4L214.5,334.7C214.5,334.7,214.5,334.7,214.5,334.7z
			 M237.9,318.3l-21.8,15.4l240-2.7L424,319L237.9,318.3z"/>
	</g>
	<polyline class="st11" points="422.7,321.2 422.7,315.8 413.1,315.8 413.1,317.9 	"/>
	<path d="M422.7,321.7c-0.3,0-0.5-0.2-0.5-0.5v-5h-8.6v1.7c0,0.3-0.2,0.5-0.5,0.5s-0.5-0.2-0.5-0.5v-2.2c0-0.3,0.2-0.5,0.5-0.5h9.6
		c0.3,0,0.5,0.2,0.5,0.5v5.5C423.2,321.5,423,321.7,422.7,321.7z"/>
	<polyline class="st11" points="426.8,323.9 426.8,318.5 417.2,318.5 417.2,320.7 	"/>
	<path d="M426.8,324.4c-0.3,0-0.5-0.2-0.5-0.5v-5h-8.6v1.7c0,0.3-0.2,0.5-0.5,0.5s-0.5-0.2-0.5-0.5v-2.2c0-0.3,0.2-0.5,0.5-0.5h9.6
		c0.3,0,0.5,0.2,0.5,0.5v5.5C427.3,324.2,427.1,324.4,426.8,324.4z"/>
	<polyline class="st11" points="432.2,326.7 432.2,321.2 422.7,321.2 422.7,323.4 	"/>
	<path d="M432.2,327.2c-0.3,0-0.5-0.2-0.5-0.5v-5h-8.6v1.7c0,0.3-0.2,0.5-0.5,0.5s-0.5-0.2-0.5-0.5v-2.2c0-0.3,0.2-0.5,0.5-0.5h9.6
		c0.3,0,0.5,0.2,0.5,0.5v5.5C432.7,327,432.5,327.2,432.2,327.2z"/>
	<polyline class="st11" points="437.7,329.4 437.7,323.9 428.1,323.9 428.1,326.1 	"/>
	<path d="M437.7,329.9c-0.3,0-0.5-0.2-0.5-0.5v-5h-8.6v1.7c0,0.3-0.2,0.5-0.5,0.5s-0.5-0.2-0.5-0.5v-2.2c0-0.3,0.2-0.5,0.5-0.5h9.6
		c0.3,0,0.5,0.2,0.5,0.5v5.5C438.2,329.7,438,329.9,437.7,329.9z"/>
	<polyline class="st11" points="411.8,321.2 411.8,315.8 402.2,315.8 402.2,317.9 	"/>
	<path d="M411.8,321.7c-0.3,0-0.5-0.2-0.5-0.5v-5h-8.6v1.7c0,0.3-0.2,0.5-0.5,0.5s-0.5-0.2-0.5-0.5v-2.2c0-0.3,0.2-0.5,0.5-0.5h9.6
		c0.3,0,0.5,0.2,0.5,0.5v5.5C412.3,321.5,412,321.7,411.8,321.7z"/>
	<polyline class="st11" points="415.9,323.9 415.9,318.5 406.3,318.5 406.3,320.7 	"/>
	<path d="M415.9,324.4c-0.3,0-0.5-0.2-0.5-0.5v-5h-8.6v1.7c0,0.3-0.2,0.5-0.5,0.5s-0.5-0.2-0.5-0.5v-2.2c0-0.3,0.2-0.5,0.5-0.5h9.6
		c0.3,0,0.5,0.2,0.5,0.5v5.5C416.4,324.2,416.1,324.4,415.9,324.4z"/>
	<polyline class="st11" points="421.3,326.7 421.3,321.2 411.8,321.2 411.8,323.4 	"/>
	<path d="M421.3,327.2c-0.3,0-0.5-0.2-0.5-0.5v-5h-8.6v1.7c0,0.3-0.2,0.5-0.5,0.5s-0.5-0.2-0.5-0.5v-2.2c0-0.3,0.2-0.5,0.5-0.5h9.6
		c0.3,0,0.5,0.2,0.5,0.5v5.5C421.8,327,421.6,327.2,421.3,327.2z"/>
	<polyline class="st11" points="426.8,329.4 426.8,323.9 417.2,323.9 417.2,326.1 	"/>
	<path d="M426.8,329.9c-0.3,0-0.5-0.2-0.5-0.5v-5h-8.6v1.7c0,0.3-0.2,0.5-0.5,0.5s-0.5-0.2-0.5-0.5v-2.2c0-0.3,0.2-0.5,0.5-0.5h9.6
		c0.3,0,0.5,0.2,0.5,0.5v5.5C427.3,329.7,427.1,329.9,426.8,329.9z"/>
	<polyline class="st11" points="400.8,321.2 400.8,315.8 391.3,315.8 391.3,317.9 	"/>
	<path d="M400.8,321.7c-0.3,0-0.5-0.2-0.5-0.5v-5h-8.6v1.7c0,0.3-0.2,0.5-0.5,0.5c-0.3,0-0.5-0.2-0.5-0.5v-2.2
		c0-0.3,0.2-0.5,0.5-0.5h9.6c0.3,0,0.5,0.2,0.5,0.5v5.5C401.3,321.5,401.1,321.7,400.8,321.7z"/>
	<polyline class="st11" points="404.9,323.9 404.9,318.5 395.4,318.5 395.4,320.7 	"/>
	<path d="M404.9,324.4c-0.3,0-0.5-0.2-0.5-0.5v-5h-8.6v1.7c0,0.3-0.2,0.5-0.5,0.5s-0.5-0.2-0.5-0.5v-2.2c0-0.3,0.2-0.5,0.5-0.5h9.6
		c0.3,0,0.5,0.2,0.5,0.5v5.5C405.4,324.2,405.2,324.4,404.9,324.4z"/>
	<polyline class="st11" points="410.4,326.7 410.4,321.2 400.8,321.2 400.8,323.4 	"/>
	<path d="M410.4,327.2c-0.3,0-0.5-0.2-0.5-0.5v-5h-8.6v1.7c0,0.3-0.2,0.5-0.5,0.5s-0.5-0.2-0.5-0.5v-2.2c0-0.3,0.2-0.5,0.5-0.5h9.6
		c0.3,0,0.5,0.2,0.5,0.5v5.5C410.9,327,410.7,327.2,410.4,327.2z"/>
	<polyline class="st11" points="415.9,329.4 415.9,323.9 406.3,323.9 406.3,326.1 	"/>
	<path d="M415.9,329.9c-0.3,0-0.5-0.2-0.5-0.5v-5h-8.6v1.7c0,0.3-0.2,0.5-0.5,0.5s-0.5-0.2-0.5-0.5v-2.2c0-0.3,0.2-0.5,0.5-0.5h9.6
		c0.3,0,0.5,0.2,0.5,0.5v5.5C416.4,329.7,416.1,329.9,415.9,329.9z"/>
	<polyline class="st11" points="389.9,321.2 389.9,315.8 380.4,315.8 380.4,317.9 	"/>
	<path d="M389.9,321.7c-0.3,0-0.5-0.2-0.5-0.5v-5h-8.6v1.7c0,0.3-0.2,0.5-0.5,0.5s-0.5-0.2-0.5-0.5v-2.2c0-0.3,0.2-0.5,0.5-0.5h9.6
		c0.3,0,0.5,0.2,0.5,0.5v5.5C390.4,321.5,390.2,321.7,389.9,321.7z"/>
	<polyline class="st11" points="394,323.9 394,318.5 384.5,318.5 384.5,320.7 	"/>
	<path d="M394,324.4c-0.3,0-0.5-0.2-0.5-0.5v-5H385v1.7c0,0.3-0.2,0.5-0.5,0.5s-0.5-0.2-0.5-0.5v-2.2c0-0.3,0.2-0.5,0.5-0.5h9.6
		c0.3,0,0.5,0.2,0.5,0.5v5.5C394.5,324.2,394.3,324.4,394,324.4z"/>
	<polyline class="st11" points="399.5,326.7 399.5,321.2 389.9,321.2 389.9,323.4 	"/>
	<path d="M399.5,327.2c-0.3,0-0.5-0.2-0.5-0.5v-5h-8.6v1.7c0,0.3-0.2,0.5-0.5,0.5s-0.5-0.2-0.5-0.5v-2.2c0-0.3,0.2-0.5,0.5-0.5h9.6
		c0.3,0,0.5,0.2,0.5,0.5v5.5C400,327,399.8,327.2,399.5,327.2z"/>
	<polyline class="st11" points="404.9,329.4 404.9,323.9 395.4,323.9 395.4,326.1 	"/>
	<path d="M404.9,329.9c-0.3,0-0.5-0.2-0.5-0.5v-5h-8.6v1.7c0,0.3-0.2,0.5-0.5,0.5s-0.5-0.2-0.5-0.5v-2.2c0-0.3,0.2-0.5,0.5-0.5h9.6
		c0.3,0,0.5,0.2,0.5,0.5v5.5C405.4,329.7,405.2,329.9,404.9,329.9z"/>
	<polyline class="st11" points="379,321.2 379,315.8 369.4,315.8 369.4,317.9 	"/>
	<path d="M379,321.7c-0.3,0-0.5-0.2-0.5-0.5v-5h-8.6v1.7c0,0.3-0.2,0.5-0.5,0.5s-0.5-0.2-0.5-0.5v-2.2c0-0.3,0.2-0.5,0.5-0.5h9.6
		c0.3,0,0.5,0.2,0.5,0.5v5.5C379.5,321.5,379.3,321.7,379,321.7z"/>
	<polyline class="st11" points="383.1,323.9 383.1,318.5 373.5,318.5 373.5,320.7 	"/>
	<path d="M383.1,324.4c-0.3,0-0.5-0.2-0.5-0.5v-5H374v1.7c0,0.3-0.2,0.5-0.5,0.5s-0.5-0.2-0.5-0.5v-2.2c0-0.3,0.2-0.5,0.5-0.5h9.6
		c0.3,0,0.5,0.2,0.5,0.5v5.5C383.6,324.2,383.4,324.4,383.1,324.4z"/>
	<polyline class="st11" points="388.6,326.7 388.6,321.2 379,321.2 379,323.4 	"/>
	<path d="M388.6,327.2c-0.3,0-0.5-0.2-0.5-0.5v-5h-8.6v1.7c0,0.3-0.2,0.5-0.5,0.5s-0.5-0.2-0.5-0.5v-2.2c0-0.3,0.2-0.5,0.5-0.5h9.6
		c0.3,0,0.5,0.2,0.5,0.5v5.5C389.1,327,388.8,327.2,388.6,327.2z"/>
	<polyline class="st11" points="394,329.4 394,323.9 384.5,323.9 384.5,326.1 	"/>
	<path d="M394,329.9c-0.3,0-0.5-0.2-0.5-0.5v-5H385v1.7c0,0.3-0.2,0.5-0.5,0.5s-0.5-0.2-0.5-0.5v-2.2c0-0.3,0.2-0.5,0.5-0.5h9.6
		c0.3,0,0.5,0.2,0.5,0.5v5.5C394.5,329.7,394.3,329.9,394,329.9z"/>
	<polyline class="st11" points="368.1,321.2 368.1,315.8 358.5,315.8 358.5,317.9 	"/>
	<path d="M368.1,321.7c-0.3,0-0.5-0.2-0.5-0.5v-5H359v1.7c0,0.3-0.2,0.5-0.5,0.5s-0.5-0.2-0.5-0.5v-2.2c0-0.3,0.2-0.5,0.5-0.5h9.6
		c0.3,0,0.5,0.2,0.5,0.5v5.5C368.6,321.5,368.4,321.7,368.1,321.7z"/>
	<polyline class="st11" points="372.2,323.9 372.2,318.5 362.6,318.5 362.6,320.7 	"/>
	<path d="M372.2,324.4c-0.3,0-0.5-0.2-0.5-0.5v-5h-8.6v1.7c0,0.3-0.2,0.5-0.5,0.5s-0.5-0.2-0.5-0.5v-2.2c0-0.3,0.2-0.5,0.5-0.5h9.6
		c0.3,0,0.5,0.2,0.5,0.5v5.5C372.7,324.2,372.5,324.4,372.2,324.4z"/>
	<polyline class="st11" points="377.6,326.7 377.6,321.2 368.1,321.2 368.1,323.4 	"/>
	<path d="M377.6,327.2c-0.3,0-0.5-0.2-0.5-0.5v-5h-8.6v1.7c0,0.3-0.2,0.5-0.5,0.5s-0.5-0.2-0.5-0.5v-2.2c0-0.3,0.2-0.5,0.5-0.5h9.6
		c0.3,0,0.5,0.2,0.5,0.5v5.5C378.1,327,377.9,327.2,377.6,327.2z"/>
	<polyline class="st11" points="383.1,329.4 383.1,323.9 373.5,323.9 373.5,326.1 	"/>
	<path d="M383.1,329.9c-0.3,0-0.5-0.2-0.5-0.5v-5H374v1.7c0,0.3-0.2,0.5-0.5,0.5s-0.5-0.2-0.5-0.5v-2.2c0-0.3,0.2-0.5,0.5-0.5h9.6
		c0.3,0,0.5,0.2,0.5,0.5v5.5C383.6,329.7,383.4,329.9,383.1,329.9z"/>
	<polyline class="st11" points="357.2,321.2 357.2,315.8 347.6,315.8 347.6,317.9 	"/>
	<path d="M357.2,321.7c-0.3,0-0.5-0.2-0.5-0.5v-5h-8.6v1.7c0,0.3-0.2,0.5-0.5,0.5s-0.5-0.2-0.5-0.5v-2.2c0-0.3,0.2-0.5,0.5-0.5h9.6
		c0.3,0,0.5,0.2,0.5,0.5v5.5C357.7,321.5,357.4,321.7,357.2,321.7z"/>
	<polyline class="st11" points="361.3,323.9 361.3,318.5 351.7,318.5 351.7,320.7 	"/>
	<path d="M361.3,324.4c-0.3,0-0.5-0.2-0.5-0.5v-5h-8.6v1.7c0,0.3-0.2,0.5-0.5,0.5s-0.5-0.2-0.5-0.5v-2.2c0-0.3,0.2-0.5,0.5-0.5h9.6
		c0.3,0,0.5,0.2,0.5,0.5v5.5C361.8,324.2,361.5,324.4,361.3,324.4z"/>
	<polyline class="st11" points="366.7,326.7 366.7,321.2 357.2,321.2 357.2,323.4 	"/>
	<path d="M366.7,327.2c-0.3,0-0.5-0.2-0.5-0.5v-5h-8.6v1.7c0,0.3-0.2,0.5-0.5,0.5s-0.5-0.2-0.5-0.5v-2.2c0-0.3,0.2-0.5,0.5-0.5h9.6
		c0.3,0,0.5,0.2,0.5,0.5v5.5C367.2,327,367,327.2,366.7,327.2z"/>
	<polyline class="st11" points="372.2,329.4 372.2,323.9 362.6,323.9 362.6,326.1 	"/>
	<path d="M372.2,329.9c-0.3,0-0.5-0.2-0.5-0.5v-5h-8.6v1.7c0,0.3-0.2,0.5-0.5,0.5s-0.5-0.2-0.5-0.5v-2.2c0-0.3,0.2-0.5,0.5-0.5h9.6
		c0.3,0,0.5,0.2,0.5,0.5v5.5C372.7,329.7,372.5,329.9,372.2,329.9z"/>
	<polyline class="st11" points="347.6,321.2 347.6,315.8 338.1,315.8 338.1,317.9 	"/>
	<path d="M347.6,321.7c-0.3,0-0.5-0.2-0.5-0.5v-5h-8.6v1.7c0,0.3-0.2,0.5-0.5,0.5s-0.5-0.2-0.5-0.5v-2.2c0-0.3,0.2-0.5,0.5-0.5h9.6
		c0.3,0,0.5,0.2,0.5,0.5v5.5C348.1,321.5,347.9,321.7,347.6,321.7z"/>
	<polyline class="st11" points="337.6,321.2 337.6,315.8 328.1,315.8 328.1,317.9 	"/>
	<path d="M337.6,321.7c-0.3,0-0.5-0.2-0.5-0.5v-5h-8.6v1.7c0,0.3-0.2,0.5-0.5,0.5s-0.5-0.2-0.5-0.5v-2.2c0-0.3,0.2-0.5,0.5-0.5h9.6
		c0.3,0,0.5,0.2,0.5,0.5v5.5C338.1,321.5,337.9,321.7,337.6,321.7z"/>
	<polyline class="st11" points="351.7,323.9 351.7,318.5 342.2,318.5 342.2,320.7 	"/>
	<path d="M351.7,324.4c-0.3,0-0.5-0.2-0.5-0.5v-5h-8.6v1.7c0,0.3-0.2,0.5-0.5,0.5s-0.5-0.2-0.5-0.5v-2.2c0-0.3,0.2-0.5,0.5-0.5h9.6
		c0.3,0,0.5,0.2,0.5,0.5v5.5C352.2,324.2,352,324.4,351.7,324.4z"/>
	<polyline class="st11" points="357.2,326.7 357.2,321.2 347.6,321.2 347.6,323.4 	"/>
	<path d="M357.2,327.2c-0.3,0-0.5-0.2-0.5-0.5v-5h-8.6v1.7c0,0.3-0.2,0.5-0.5,0.5s-0.5-0.2-0.5-0.5v-2.2c0-0.3,0.2-0.5,0.5-0.5h9.6
		c0.3,0,0.5,0.2,0.5,0.5v5.5C357.7,327,357.4,327.2,357.2,327.2z"/>
	<polyline class="st11" points="362.6,329.4 362.6,323.9 353.1,323.9 353.1,326.1 	"/>
	<path d="M362.6,329.9c-0.3,0-0.5-0.2-0.5-0.5v-5h-8.6v1.7c0,0.3-0.2,0.5-0.5,0.5s-0.5-0.2-0.5-0.5v-2.2c0-0.3,0.2-0.5,0.5-0.5h9.6
		c0.3,0,0.5,0.2,0.5,0.5v5.5C363.1,329.7,362.9,329.9,362.6,329.9z"/>
	<polyline class="st11" points="243.9,321.2 243.9,315.8 253.4,315.8 253.4,317.9 	"/>
	<path d="M243.9,321.7c-0.3,0-0.5-0.2-0.5-0.5v-5.5c0-0.3,0.2-0.5,0.5-0.5h9.6c0.3,0,0.5,0.2,0.5,0.5v2.2c0,0.3-0.2,0.5-0.5,0.5
		s-0.5-0.2-0.5-0.5v-1.7h-8.6v5C244.4,321.5,244.2,321.7,243.9,321.7z"/>
	<polyline class="st11" points="239.8,323.9 239.8,318.5 249.3,318.5 249.3,320.7 	"/>
	<path d="M239.8,324.4c-0.3,0-0.5-0.2-0.5-0.5v-5.5c0-0.3,0.2-0.5,0.5-0.5h9.6c0.3,0,0.5,0.2,0.5,0.5v2.2c0,0.3-0.2,0.5-0.5,0.5
		s-0.5-0.2-0.5-0.5V319h-8.6v5C240.3,324.2,240.1,324.4,239.8,324.4z"/>
	<polyline class="st11" points="234.3,326.7 234.3,321.2 243.9,321.2 243.9,323.4 	"/>
	<path d="M234.3,327.2c-0.3,0-0.5-0.2-0.5-0.5v-5.5c0-0.3,0.2-0.5,0.5-0.5h9.6c0.3,0,0.5,0.2,0.5,0.5v2.2c0,0.3-0.2,0.5-0.5,0.5
		s-0.5-0.2-0.5-0.5v-1.7h-8.6v5C234.8,327,234.6,327.2,234.3,327.2z"/>
	<polyline class="st11" points="228.9,329.4 228.9,323.9 238.4,323.9 238.4,326.1 	"/>
	<path d="M228.9,329.9c-0.3,0-0.5-0.2-0.5-0.5v-5.5c0-0.3,0.2-0.5,0.5-0.5h9.6c0.3,0,0.5,0.2,0.5,0.5v2.2c0,0.3-0.2,0.5-0.5,0.5
		s-0.5-0.2-0.5-0.5v-1.7h-8.6v5C229.4,329.7,229.1,329.9,228.9,329.9z"/>
	<polyline class="st11" points="254.8,321.2 254.8,315.8 264.4,315.8 264.4,317.9 	"/>
	<path d="M254.8,321.7c-0.3,0-0.5-0.2-0.5-0.5v-5.5c0-0.3,0.2-0.5,0.5-0.5h9.6c0.3,0,0.5,0.2,0.5,0.5v2.2c0,0.3-0.2,0.5-0.5,0.5
		s-0.5-0.2-0.5-0.5v-1.7h-8.6v5C255.3,321.5,255.1,321.7,254.8,321.7z"/>
	<polyline class="st11" points="250.7,323.9 250.7,318.5 260.3,318.5 260.3,320.7 	"/>
	<path d="M250.7,324.4c-0.3,0-0.5-0.2-0.5-0.5v-5.5c0-0.3,0.2-0.5,0.5-0.5h9.6c0.3,0,0.5,0.2,0.5,0.5v2.2c0,0.3-0.2,0.5-0.5,0.5
		s-0.5-0.2-0.5-0.5V319h-8.6v5C251.2,324.2,251,324.4,250.7,324.4z"/>
	<polyline class="st11" points="245.2,326.7 245.2,321.2 254.8,321.2 254.8,323.4 	"/>
	<path d="M245.2,327.2c-0.3,0-0.5-0.2-0.5-0.5v-5.5c0-0.3,0.2-0.5,0.5-0.5h9.6c0.3,0,0.5,0.2,0.5,0.5v2.2c0,0.3-0.2,0.5-0.5,0.5
		s-0.5-0.2-0.5-0.5v-1.7h-8.6v5C245.7,327,245.5,327.2,245.2,327.2z"/>
	<polyline class="st11" points="239.8,329.4 239.8,323.9 249.3,323.9 249.3,326.1 	"/>
	<path d="M239.8,329.9c-0.3,0-0.5-0.2-0.5-0.5v-5.5c0-0.3,0.2-0.5,0.5-0.5h9.6c0.3,0,0.5,0.2,0.5,0.5v2.2c0,0.3-0.2,0.5-0.5,0.5
		s-0.5-0.2-0.5-0.5v-1.7h-8.6v5C240.3,329.7,240.1,329.9,239.8,329.9z"/>
	<polyline class="st11" points="265.7,321.2 265.7,315.8 275.3,315.8 275.3,317.9 	"/>
	<path d="M265.7,321.7c-0.3,0-0.5-0.2-0.5-0.5v-5.5c0-0.3,0.2-0.5,0.5-0.5h9.6c0.3,0,0.5,0.2,0.5,0.5v2.2c0,0.3-0.2,0.5-0.5,0.5
		s-0.5-0.2-0.5-0.5v-1.7h-8.6v5C266.2,321.5,266,321.7,265.7,321.7z"/>
	<polyline class="st11" points="261.6,323.9 261.6,318.5 271.2,318.5 271.2,320.7 	"/>
	<path d="M261.6,324.4c-0.3,0-0.5-0.2-0.5-0.5v-5.5c0-0.3,0.2-0.5,0.5-0.5h9.6c0.3,0,0.5,0.2,0.5,0.5v2.2c0,0.3-0.2,0.5-0.5,0.5
		s-0.5-0.2-0.5-0.5V319h-8.6v5C262.1,324.2,261.9,324.4,261.6,324.4z"/>
	<polyline class="st11" points="256.2,326.7 256.2,321.2 265.7,321.2 265.7,323.4 	"/>
	<path d="M256.2,327.2c-0.3,0-0.5-0.2-0.5-0.5v-5.5c0-0.3,0.2-0.5,0.5-0.5h9.6c0.3,0,0.5,0.2,0.5,0.5v2.2c0,0.3-0.2,0.5-0.5,0.5
		s-0.5-0.2-0.5-0.5v-1.7h-8.6v5C256.7,327,256.4,327.2,256.2,327.2z"/>
	<polyline class="st11" points="250.7,329.4 250.7,323.9 260.3,323.9 260.3,326.1 	"/>
	<path d="M250.7,329.9c-0.3,0-0.5-0.2-0.5-0.5v-5.5c0-0.3,0.2-0.5,0.5-0.5h9.6c0.3,0,0.5,0.2,0.5,0.5v2.2c0,0.3-0.2,0.5-0.5,0.5
		s-0.5-0.2-0.5-0.5v-1.7h-8.6v5C251.2,329.7,251,329.9,250.7,329.9z"/>
	<polyline class="st11" points="276.6,321.2 276.6,315.8 286.2,315.8 286.2,317.9 	"/>
	<path d="M276.6,321.7c-0.3,0-0.5-0.2-0.5-0.5v-5.5c0-0.3,0.2-0.5,0.5-0.5h9.6c0.3,0,0.5,0.2,0.5,0.5v2.2c0,0.3-0.2,0.5-0.5,0.5
		s-0.5-0.2-0.5-0.5v-1.7h-8.6v5C277.1,321.5,276.9,321.7,276.6,321.7z"/>
	<polyline class="st11" points="272.5,323.9 272.5,318.5 282.1,318.5 282.1,320.7 	"/>
	<path d="M272.5,324.4c-0.3,0-0.5-0.2-0.5-0.5v-5.5c0-0.3,0.2-0.5,0.5-0.5h9.6c0.3,0,0.5,0.2,0.5,0.5v2.2c0,0.3-0.2,0.5-0.5,0.5
		s-0.5-0.2-0.5-0.5V319H273v5C273,324.2,272.8,324.4,272.5,324.4z"/>
	<polyline class="st11" points="267.1,326.7 267.1,321.2 276.6,321.2 276.6,323.4 	"/>
	<path d="M267.1,327.2c-0.3,0-0.5-0.2-0.5-0.5v-5.5c0-0.3,0.2-0.5,0.5-0.5h9.6c0.3,0,0.5,0.2,0.5,0.5v2.2c0,0.3-0.2,0.5-0.5,0.5
		s-0.5-0.2-0.5-0.5v-1.7h-8.6v5C267.6,327,267.4,327.2,267.1,327.2z"/>
	<polyline class="st11" points="261.6,329.4 261.6,323.9 271.2,323.9 271.2,326.1 	"/>
	<path d="M261.6,329.9c-0.3,0-0.5-0.2-0.5-0.5v-5.5c0-0.3,0.2-0.5,0.5-0.5h9.6c0.3,0,0.5,0.2,0.5,0.5v2.2c0,0.3-0.2,0.5-0.5,0.5
		s-0.5-0.2-0.5-0.5v-1.7h-8.6v5C262.1,329.7,261.9,329.9,261.6,329.9z"/>
	<polyline class="st11" points="287.6,321.2 287.6,315.8 297.1,315.8 297.1,317.9 	"/>
	<path d="M287.6,321.7c-0.3,0-0.5-0.2-0.5-0.5v-5.5c0-0.3,0.2-0.5,0.5-0.5h9.6c0.3,0,0.5,0.2,0.5,0.5v2.2c0,0.3-0.2,0.5-0.5,0.5
		s-0.5-0.2-0.5-0.5v-1.7h-8.6v5C288.1,321.5,287.8,321.7,287.6,321.7z"/>
	<polyline class="st11" points="283.5,323.9 283.5,318.5 293,318.5 293,320.7 	"/>
	<path d="M283.5,324.4c-0.3,0-0.5-0.2-0.5-0.5v-5.5c0-0.3,0.2-0.5,0.5-0.5h9.6c0.3,0,0.5,0.2,0.5,0.5v2.2c0,0.3-0.2,0.5-0.5,0.5
		s-0.5-0.2-0.5-0.5V319H284v5C284,324.2,283.7,324.4,283.5,324.4z"/>
	<polyline class="st11" points="278,326.7 278,321.2 287.6,321.2 287.6,323.4 	"/>
	<path d="M278,327.2c-0.3,0-0.5-0.2-0.5-0.5v-5.5c0-0.3,0.2-0.5,0.5-0.5h9.6c0.3,0,0.5,0.2,0.5,0.5v2.2c0,0.3-0.2,0.5-0.5,0.5
		s-0.5-0.2-0.5-0.5v-1.7h-8.6v5C278.5,327,278.3,327.2,278,327.2z"/>
	<polyline class="st11" points="272.5,329.4 272.5,323.9 282.1,323.9 282.1,326.1 	"/>
	<path d="M272.5,329.9c-0.3,0-0.5-0.2-0.5-0.5v-5.5c0-0.3,0.2-0.5,0.5-0.5h9.6c0.3,0,0.5,0.2,0.5,0.5v2.2c0,0.3-0.2,0.5-0.5,0.5
		s-0.5-0.2-0.5-0.5v-1.7H273v5C273,329.7,272.8,329.9,272.5,329.9z"/>
	<polyline class="st11" points="298.5,321.2 298.5,315.8 308,315.8 308,317.9 	"/>
	<path d="M298.5,321.7c-0.3,0-0.5-0.2-0.5-0.5v-5.5c0-0.3,0.2-0.5,0.5-0.5h9.6c0.3,0,0.5,0.2,0.5,0.5v2.2c0,0.3-0.2,0.5-0.5,0.5
		s-0.5-0.2-0.5-0.5v-1.7H299v5C299,321.5,298.8,321.7,298.5,321.7z"/>
	<polyline class="st11" points="294.4,323.9 294.4,318.5 303.9,318.5 303.9,320.7 	"/>
	<path d="M294.4,324.4c-0.3,0-0.5-0.2-0.5-0.5v-5.5c0-0.3,0.2-0.5,0.5-0.5h9.6c0.3,0,0.5,0.2,0.5,0.5v2.2c0,0.3-0.2,0.5-0.5,0.5
		s-0.5-0.2-0.5-0.5V319h-8.6v5C294.9,324.2,294.7,324.4,294.4,324.4z"/>
	<polyline class="st11" points="288.9,326.7 288.9,321.2 298.5,321.2 298.5,323.4 	"/>
	<path d="M288.9,327.2c-0.3,0-0.5-0.2-0.5-0.5v-5.5c0-0.3,0.2-0.5,0.5-0.5h9.6c0.3,0,0.5,0.2,0.5,0.5v2.2c0,0.3-0.2,0.5-0.5,0.5
		s-0.5-0.2-0.5-0.5v-1.7h-8.6v5C289.4,327,289.2,327.2,288.9,327.2z"/>
	<polyline class="st11" points="283.5,329.4 283.5,323.9 293,323.9 293,326.1 	"/>
	<path d="M283.5,329.9c-0.3,0-0.5-0.2-0.5-0.5v-5.5c0-0.3,0.2-0.5,0.5-0.5h9.6c0.3,0,0.5,0.2,0.5,0.5v2.2c0,0.3-0.2,0.5-0.5,0.5
		s-0.5-0.2-0.5-0.5v-1.7H284v5C284,329.7,283.7,329.9,283.5,329.9z"/>
	<polyline class="st11" points="309.4,321.2 309.4,315.8 318.9,315.8 318.9,317.9 	"/>
	<path d="M309.4,321.7c-0.3,0-0.5-0.2-0.5-0.5v-5.5c0-0.3,0.2-0.5,0.5-0.5h9.6c0.3,0,0.5,0.2,0.5,0.5v2.2c0,0.3-0.2,0.5-0.5,0.5
		s-0.5-0.2-0.5-0.5v-1.7h-8.6v5C309.9,321.5,309.7,321.7,309.4,321.7z"/>
	<polyline class="st11" points="305.3,323.9 305.3,318.5 314.9,318.5 314.9,320.7 	"/>
	<path d="M305.3,324.4c-0.3,0-0.5-0.2-0.5-0.5v-5.5c0-0.3,0.2-0.5,0.5-0.5h9.6c0.3,0,0.5,0.2,0.5,0.5v2.2c0,0.3-0.2,0.5-0.5,0.5
		s-0.5-0.2-0.5-0.5V319h-8.6v5C305.8,324.2,305.6,324.4,305.3,324.4z"/>
	<polyline class="st11" points="299.8,326.7 299.8,321.2 309.4,321.2 309.4,323.4 	"/>
	<path d="M299.8,327.2c-0.3,0-0.5-0.2-0.5-0.5v-5.5c0-0.3,0.2-0.5,0.5-0.5h9.6c0.3,0,0.5,0.2,0.5,0.5v2.2c0,0.3-0.2,0.5-0.5,0.5
		s-0.5-0.2-0.5-0.5v-1.7h-8.6v5C300.3,327,300.1,327.2,299.8,327.2z"/>
	<polyline class="st11" points="294.4,329.4 294.4,323.9 303.9,323.9 303.9,326.1 	"/>
	<path d="M294.4,329.9c-0.3,0-0.5-0.2-0.5-0.5v-5.5c0-0.3,0.2-0.5,0.5-0.5h9.6c0.3,0,0.5,0.2,0.5,0.5v2.2c0,0.3-0.2,0.5-0.5,0.5
		s-0.5-0.2-0.5-0.5v-1.7h-8.6v5C294.9,329.7,294.7,329.9,294.4,329.9z"/>
	<polyline class="st11" points="318.9,321.2 318.9,315.8 328.5,315.8 328.5,317.9 	"/>
	<path d="M318.9,321.7c-0.3,0-0.5-0.2-0.5-0.5v-5.5c0-0.3,0.2-0.5,0.5-0.5h9.6c0.3,0,0.5,0.2,0.5,0.5v2.2c0,0.3-0.2,0.5-0.5,0.5
		s-0.5-0.2-0.5-0.5v-1.7h-8.6v5C319.4,321.5,319.2,321.7,318.9,321.7z"/>
	<polyline class="st11" points="314.9,323.9 314.9,318.5 324.4,318.5 324.4,320.7 	"/>
	<path d="M314.9,324.4c-0.3,0-0.5-0.2-0.5-0.5v-5.5c0-0.3,0.2-0.5,0.5-0.5h9.6c0.3,0,0.5,0.2,0.5,0.5v2.2c0,0.3-0.2,0.5-0.5,0.5
		s-0.5-0.2-0.5-0.5V319h-8.6v5C315.4,324.2,315.1,324.4,314.9,324.4z"/>
	<polyline class="st11" points="309.4,326.7 309.4,321.2 318.9,321.2 318.9,323.4 	"/>
	<path d="M309.4,327.2c-0.3,0-0.5-0.2-0.5-0.5v-5.5c0-0.3,0.2-0.5,0.5-0.5h9.6c0.3,0,0.5,0.2,0.5,0.5v2.2c0,0.3-0.2,0.5-0.5,0.5
		s-0.5-0.2-0.5-0.5v-1.7h-8.6v5C309.9,327,309.7,327.2,309.4,327.2z"/>
	<polyline class="st11" points="303.9,329.4 303.9,323.9 313.5,323.9 313.5,326.1 	"/>
	<polyline class="st11" points="329.9,321.2 329.9,315.8 339.5,315.8 339.5,317.9 	"/>
	<path d="M329.9,321.7c-0.3,0-0.5-0.2-0.5-0.5v-5.5c0-0.3,0.2-0.5,0.5-0.5h9.6c0.3,0,0.5,0.2,0.5,0.5v2.2c0,0.3-0.2,0.5-0.5,0.5
		s-0.5-0.2-0.5-0.5v-1.7h-8.6v5C330.4,321.5,330.2,321.7,329.9,321.7z"/>
	<polyline class="st11" points="327.9,321.9 327.9,316.5 337.4,316.5 337.4,318.7 	"/>
	<path d="M327.9,322.4c-0.3,0-0.5-0.2-0.5-0.5v-5.5c0-0.3,0.2-0.5,0.5-0.5h9.6c0.3,0,0.5,0.2,0.5,0.5v2.2c0,0.3-0.2,0.5-0.5,0.5
		s-0.5-0.2-0.5-0.5V317h-8.6v5C328.4,322.2,328.1,322.4,327.9,322.4z"/>
	<path d="M320.4,327.2c-0.3,0-0.5-0.2-0.5-0.5v-5.5c0-0.3,0.2-0.5,0.5-0.5h9.6c0.3,0,0.5,0.2,0.5,0.5v2.2c0,0.3-0.2,0.5-0.5,0.5
		s-0.5-0.2-0.5-0.5v-1.7h-8.6v5C320.9,327,320.7,327.2,320.4,327.2z"/>
	<polyline class="st11" points="314.9,329.4 314.9,323.9 324.5,323.9 324.5,326.1 	"/>
	<polyline class="st11" points="320.9,327.4 320.9,321.9 330.5,321.9 330.5,324.1 	"/>
	<path d="M314.9,329.9c-0.3,0-0.5-0.2-0.5-0.5v-5.5c0-0.3,0.2-0.5,0.5-0.5h9.6c0.3,0,0.5,0.2,0.5,0.5v2.2c0,0.3-0.2,0.5-0.5,0.5
		s-0.5-0.2-0.5-0.5v-1.7h-8.6v5C315.4,329.7,315.2,329.9,314.9,329.9z"/>
	<path d="M303.9,329.9c-0.3,0-0.5-0.2-0.5-0.5v-5.5c0-0.3,0.2-0.5,0.5-0.5h9.6c0.3,0,0.5,0.2,0.5,0.5v2.2c0,0.3-0.2,0.5-0.5,0.5
		s-0.5-0.2-0.5-0.5v-1.7h-8.6v5C304.4,329.7,304.2,329.9,303.9,329.9z"/>
	<polyline class="st11" points="337.6,324.2 337.6,318.8 328.1,318.8 328.1,320.9 	"/>
	<path d="M337.6,324.7c-0.3,0-0.5-0.2-0.5-0.5v-5h-8.6v1.7c0,0.3-0.2,0.5-0.5,0.5s-0.5-0.2-0.5-0.5v-2.2c0-0.3,0.2-0.5,0.5-0.5h9.6
		c0.3,0,0.5,0.2,0.5,0.5v5.5C338.1,324.5,337.9,324.7,337.6,324.7z"/>
	<polyline class="st11" points="350.6,330.2 350.6,324.8 341.1,324.8 341.1,326.9 	"/>
	<polyline class="st11" points="346.6,327.2 346.6,321.8 337.1,321.8 337.1,323.9 	"/>
	<polyline class="st11" points="343.6,324.2 343.6,318.8 334.1,318.8 334.1,320.9 	"/>
	<path d="M343.6,324.7c-0.3,0-0.5-0.2-0.5-0.5v-5h-8.6v1.7c0,0.3-0.2,0.5-0.5,0.5s-0.5-0.2-0.5-0.5v-2.2c0-0.3,0.2-0.5,0.5-0.5h9.6
		c0.3,0,0.5,0.2,0.5,0.5v5.5C344.1,324.5,343.9,324.7,343.6,324.7z"/>
	<path d="M346.6,327.7c-0.3,0-0.5-0.2-0.5-0.5v-5h-8.6v1.7c0,0.3-0.2,0.5-0.5,0.5s-0.5-0.2-0.5-0.5v-2.2c0-0.3,0.2-0.5,0.5-0.5h9.6
		c0.3,0,0.5,0.2,0.5,0.5v5.5C347.1,327.5,346.9,327.7,346.6,327.7z"/>
	<path d="M350.6,330.7c-0.3,0-0.5-0.2-0.5-0.5v-5h-8.6v1.7c0,0.3-0.2,0.5-0.5,0.5s-0.5-0.2-0.5-0.5v-2.2c0-0.3,0.2-0.5,0.5-0.5h9.6
		c0.3,0,0.5,0.2,0.5,0.5v5.5C351.1,330.5,350.9,330.7,350.6,330.7z"/>
	<polyline class="st11" points="337.6,327.2 337.6,321.8 328.1,321.8 328.1,323.9 	"/>
	<path d="M337.6,327.7c-0.3,0-0.5-0.2-0.5-0.5v-5h-8.6v1.7c0,0.3-0.2,0.5-0.5,0.5s-0.5-0.2-0.5-0.5v-2.2c0-0.3,0.2-0.5,0.5-0.5h9.6
		c0.3,0,0.5,0.2,0.5,0.5v5.5C338.1,327.5,337.9,327.7,337.6,327.7z"/>
	<polyline class="st11" points="337.6,330.2 337.6,324.8 328.1,324.8 328.1,326.9 	"/>
	<path d="M337.6,330.7c-0.3,0-0.5-0.2-0.5-0.5v-5h-8.6v1.7c0,0.3-0.2,0.5-0.5,0.5s-0.5-0.2-0.5-0.5v-2.2c0-0.3,0.2-0.5,0.5-0.5h9.6
		c0.3,0,0.5,0.2,0.5,0.5v5.5C338.1,330.5,337.9,330.7,337.6,330.7z"/>
</g>
<g id="Calque_36_-_copie">
	<rect x="480.9" y="339.6" class="st26" width="25.5" height="3.5"/>
	<path d="M506.4,343.6h-25.5c-0.3,0-0.5-0.2-0.5-0.5v-3.5c0-0.3,0.2-0.5,0.5-0.5h25.5c0.3,0,0.5,0.2,0.5,0.5v3.5
		C506.9,343.4,506.6,343.6,506.4,343.6z M481.4,342.6h24.5v-2.5h-24.5V342.6z"/>
</g>
<g id="Calque_35_-_copie">
	<path class="st11" d="M480.4,343.1h26c0,0,1.5-8.5-10.7-11.5s-17.3-2.5-17.3-2.5S476.4,336.1,480.4,343.1z"/>
	<path d="M506.4,343.6h-26c-0.2,0-0.3-0.1-0.4-0.3c-4.1-7.1-2.1-14.1-2-14.4c0.1-0.2,0.2-0.3,0.4-0.4c0.2,0,5.4-0.5,17.5,2.5
		c12.5,3.1,11.1,12,11,12.1C506.8,343.4,506.6,343.6,506.4,343.6z M480.6,342.6h25.3c0.1-1.7-0.2-8-10.3-10.5
		c-10.2-2.5-15.5-2.6-16.8-2.5C478.4,331,477.5,336.8,480.6,342.6z"/>
	<path class="st11" d="M481.4,340.1h25c0,0-2.5-14.2-12.3-17.4s-14.7,3.8-14.7,3.8S474.4,333.1,481.4,340.1z"/>
	<path d="M506.4,340.6h-25c-0.1,0-0.3-0.1-0.4-0.1c-7.2-7.2-2.1-14.2-2-14.3c0-0.1,5.3-7.3,15.3-4c9.9,3.3,12.5,17.2,12.6,17.8
		c0,0.1,0,0.3-0.1,0.4C506.6,340.5,506.5,340.6,506.4,340.6z M481.6,339.6h24.2c-0.6-2.7-3.6-13.7-11.8-16.5
		c-9.3-3.1-14.1,3.6-14.2,3.6C479.6,327.1,475.2,333.1,481.6,339.6z"/>
	<path class="st11" d="M487.4,322.1c0,0,4,3,4,7"/>
	<path d="M491.4,329.6c-0.3,0-0.5-0.2-0.5-0.5c0-3.7-3.8-6.6-3.8-6.6c-0.2-0.2-0.3-0.5-0.1-0.7c0.2-0.2,0.5-0.3,0.7-0.1
		c0.2,0.1,4.2,3.2,4.2,7.4C491.9,329.4,491.6,329.6,491.4,329.6z"/>
</g>
<g>
	<polygon class="st18" points="689.9,137.6 665.9,128.6 566.9,128.6 590.9,137.6 	"/>
	<polygon class="st18" points="590.9,137.6 590.9,340.6 566.9,331.6 566.9,128.6 	"/>
	<path d="M689.9,341.6h-99c-0.6,0-1-0.4-1-1v-203c0-0.6,0.4-1,1-1h99c0.6,0,1,0.4,1,1v203C690.9,341.2,690.4,341.6,689.9,341.6z
		 M591.9,339.6h97v-201h-97V339.6z"/>
	<path d="M665.9,332.6h-99c-0.6,0-1-0.4-1-1v-203c0-0.6,0.4-1,1-1h99c0.6,0,1,0.4,1,1v203C666.9,332.2,666.4,332.6,665.9,332.6z
		 M567.9,330.6h97v-201h-97V330.6z"/>
	<path d="M590.9,138.6c-0.1,0-0.2,0-0.4-0.1l-24-9c-0.5-0.2-0.8-0.8-0.6-1.3c0.2-0.5,0.8-0.8,1.3-0.6l24,9c0.5,0.2,0.8,0.8,0.6,1.3
		C591.6,138.4,591.3,138.6,590.9,138.6z"/>
	<path d="M689.9,138.6c-0.1,0-0.2,0-0.4-0.1l-24-9c-0.5-0.2-0.8-0.8-0.6-1.3c0.2-0.5,0.8-0.8,1.3-0.6l24,9c0.5,0.2,0.8,0.8,0.6,1.3
		C690.6,138.4,690.3,138.6,689.9,138.6z"/>
	<polygon class="st27" points="566.9,128.6 566.9,331.6 590.9,340.6 590.9,137.6 	"/>
	<rect x="590.9" y="137.6" width="99" height="203"/>
	<path class="st28" d="M590.9,139.6c0,0-16.5,3.5-20.5,90.5s-3.5,101.5-3.5,101.5l1-201L590.9,139.6z"/>
	<path class="st29" d="M673.4,168.6h-67c-5.2,0-9.5-4.3-9.5-9.5v-2c0-5.2,4.3-9.5,9.5-9.5h67c5.2,0,9.5,4.3,9.5,9.5v2
		C682.9,164.3,678.6,168.6,673.4,168.6z M606.4,149.6c-4.1,0-7.5,3.4-7.5,7.5v2c0,4.1,3.4,7.5,7.5,7.5h67c4.1,0,7.5-3.4,7.5-7.5v-2
		c0-4.1-3.4-7.5-7.5-7.5H606.4z"/>
	<path class="st29" d="M673.4,196.6h-67c-5.2,0-9.5-4.3-9.5-9.5v-2c0-5.2,4.3-9.5,9.5-9.5h67c5.2,0,9.5,4.3,9.5,9.5v2
		C682.9,192.3,678.6,196.6,673.4,196.6z M606.4,177.6c-4.1,0-7.5,3.4-7.5,7.5v2c0,4.1,3.4,7.5,7.5,7.5h67c4.1,0,7.5-3.4,7.5-7.5v-2
		c0-4.1-3.4-7.5-7.5-7.5H606.4z"/>
	<path class="st29" d="M680.9,271.6h-81c-0.6,0-1-0.4-1-1v-62c0-0.6,0.4-1,1-1h81c0.6,0,1,0.4,1,1v62
		C681.9,271.2,681.4,271.6,680.9,271.6z M600.9,269.6h79v-60h-79V269.6z"/>
	<path class="st30" d="M640.7,317.8c-0.4,0-0.7-0.2-0.9-0.5l-10.7-18.5c-0.2-0.3-0.2-0.7,0-1s0.5-0.5,0.9-0.5h21.4
		c0.4,0,0.7,0.2,0.9,0.5s0.2,0.7,0,1l-10.7,18.5C641.4,317.6,641.1,317.8,640.7,317.8z M631.8,299.3l8.9,15.5l8.9-15.5H631.8z"/>
	<polygon class="st31" points="689.9,137.6 665.9,128.6 566.9,128.6 592.9,137.6 	"/>
</g>
<g id="Calque_113_-_copie">
	<path d="M590.9,341.6c-0.1,0-0.2,0-0.4-0.1l-24-9c-0.5-0.2-0.8-0.8-0.6-1.3c0.2-0.5,0.8-0.8,1.3-0.6l24,9c0.5,0.2,0.8,0.8,0.6,1.3
		C591.6,341.4,591.3,341.6,590.9,341.6z"/>
</g>
<g id="Calque_112_-_copie">
	<path d="M689.9,341.6c-0.1,0-0.2,0-0.4-0.1l-24-9c-0.5-0.2-0.8-0.8-0.6-1.3c0.2-0.5,0.8-0.8,1.3-0.6l24,9c0.5,0.2,0.8,0.8,0.6,1.3
		C690.6,341.4,690.3,341.6,689.9,341.6z"/>
</g>
<g>
	<path class="st32" d="M65.9,279.6v46c0,0-5,15-21,15h-6h7h-6c-16,0-21-15-21-15v-46"/>
	<path d="M45.9,341.6h-7c-0.1,0-0.2,0-0.2,0c-15.6-0.8-20.7-15.5-20.7-15.7c0-0.1-0.1-0.2-0.1-0.3v-46c0-0.6,0.4-1,1-1s1,0.4,1,1
		v45.8c0.6,1.6,5.6,14.2,20,14.2h5c14.4,0,19.4-12.6,20-14.2v-45.8c0-0.6,0.4-1,1-1s1,0.4,1,1v46c0,0.1,0,0.2-0.1,0.3
		c-0.1,0.2-5.1,14.9-20.7,15.7C46,341.6,45.9,341.6,45.9,341.6z"/>
	<ellipse class="st33" cx="42.4" cy="280.6" rx="23.5" ry="4"/>
	<path d="M42.4,285.6c-2.5,0-24.5-0.1-24.5-5s22-5,24.5-5s24.5,0.1,24.5,5S44.9,285.6,42.4,285.6z M19.9,280.6c1,1.1,8.4,3,22.4,3
		s21.5-1.9,22.4-3c-1-1.1-8.4-3-22.4-3S20.9,279.5,19.9,280.6z M64.9,280.7L64.9,280.7L64.9,280.7z"/>
	<path class="st34" d="M64.9,282.6c0,0-6,40-15,44s-30-1-30-1s4,15.4,25,14c15-1,20-14,20-14V282.6z"/>
</g>
<g id="Calque_27_-_copie">
	<path class="st35" d="M24.9,275.6c0,0-8.4-25,12.8-59s-1.6,9,9.8,37.5s8.4,28.5,8.4,28.5S26.9,290.6,24.9,275.6z"/>
</g>
</svg>
