<svg xmlns="http://www.w3.org/2000/svg" width="50.856" height="59" viewBox="0 0 50.856 59">
  <g id="Group_74" data-name="Group 74" transform="translate(-95.601 -97.074)">
    <path id="Path_61" data-name="Path 61" d="M125.262,133.255l2.374-.792L116.37,98.67l-11.59,25.5L100,116.2l-2.146,1.287,7.23,12.05,4.86-10.692H120.46Zm-14.178-16.908,4.929-10.843,3.614,10.843Z" transform="translate(10.464 10.731)" fill="#fff"/>
    <g id="Group_73" data-name="Group 73" transform="translate(95.601 97.074)">
      <path id="Path_62" data-name="Path 62" d="M110.351,152.251a28.223,28.223,0,0,1-10.8-10.554,30.949,30.949,0,0,1,0-30.247,28.242,28.242,0,0,1,10.8-10.554,31.12,31.12,0,0,1,15.414-3.823A32.29,32.29,0,0,1,137.4,99.11a24,24,0,0,1,9.059,6.024l-2.66,2.743q-6.98-6.9-17.866-6.9a26.916,26.916,0,0,0-13.3,3.325,24.32,24.32,0,0,0-9.39,9.182,26.847,26.847,0,0,0,0,26.176,24.31,24.31,0,0,0,9.39,9.182,26.9,26.9,0,0,0,13.3,3.324q10.8,0,17.866-6.98l2.66,2.741a24.308,24.308,0,0,1-9.1,6.066,31.777,31.777,0,0,1-11.593,2.077A31.1,31.1,0,0,1,110.351,152.251Z" transform="translate(-95.601 -97.074)" fill="#fff"/>
    </g>
  </g>
</svg>
