<!-- Generator: Adobe Illustrator 22.0.0, SVG Export Plug-In  -->
<svg version="1.1"
	 xmlns="http://www.w3.org/2000/svg" xmlns:xlink="http://www.w3.org/1999/xlink" xmlns:a="http://ns.adobe.com/AdobeSVGViewerExtensions/3.0/"
	 x="0px" y="0px" width="673px" height="365.5px" viewBox="0 0 673 365.5"
	 style="overflow:scroll;enable-background:new 0 0 673 365.5;" xml:space="preserve">
<style type="text/css">
	.st0{fill:#FFFFFF;}
	.st1{fill:#FFDA00;}
	.st2{opacity:0.41;fill:#D3AF00;}
	.st3{fill:#A50027;}
	.st4{fill:#18007F;}
	.st5{fill:#FFAF97;}
	.st6{fill:#B20426;}
	.st7{fill:#F99E8A;}
	.st8{fill:#100260;}
	.st9{fill:#6B6B6B;}
	.st10{fill:url(#SVGID_1_);}
	.st11{fill:#262626;}
	.st12{fill:#191919;}
	.st13{opacity:0.4;fill:#282828;}
	.st14{fill:#1C1B1B;}
	.st15{fill:#DBDBDB;}
	.st16{fill:#111111;}
	.st17{fill:#F7F7F7;}
	.st18{opacity:0.57;fill:#F9F9F4;}
	.st19{fill:#2D2D2D;}
	.st20{fill:#141414;}
	.st21{fill:#212121;}
	.st22{fill:#353535;}
	.st23{fill:#0F0F0F;}
	.st24{fill:#0A0A0A;}
	.st25{fill:#141413;}
	.st26{fill:#EDEDED;}
	.st27{fill:#0593E2;}
	.st28{fill:#232323;}
	.st29{fill:#F4F4F4;}
	.st30{fill:#777777;}
	.st31{fill:#E5E5E3;}
	.st32{opacity:0.28;fill:#E5E5E3;}
	.st33{fill:url(#SVGID_2_);}
</style>
<defs>
</defs>
<path class="st0" d="M435,337.1l2-4.7l4-5l4-2l1.9,0.8c2,0.8,3.4,2.4,4,4.5l0.3,1.2c0.5,1.6,0,3.3-1.2,4.5l-2.1,2.1l-4,1h-7.5
	C435.3,339.4,434.5,338.2,435,337.1z"/>
<g>
	<path class="st1" d="M46.7,186.5c0,0-3.3-14.3,3.1-23.8c6.4-9.5,23.4-26.3,23.4-40.8c-0.1-14.5,7.5-62.1,7.5-62.1
		s24.7-61.1,59.5-59.2c38.4,2,50.9,43.9,50.9,43.9s8.9,68,23.6,95.1c-19.1,2.5-20.3,5.4-20.3,5.4l-13.4-1l-10.3,1.8l-12.3,3.7
		l-1.4,12.9c0,0-19.9-33.4-45.8-31.5C85.2,132.8,46.7,186.5,46.7,186.5z"/>
	<path class="st2" d="M174.5,19.4l15.6,22.7l5.6,24.1l7,43.8l12.1,29.6l-27.6,5.4l-16.4,0.8l-9.9,5.5l-6.6-3.6l-6.2-12.5l-3.8-6.8
		c0,0-0.5-17.4,9.6-22.1c0,0,6.8,4.9,12.3,1.1c5.5-3.8,9.3-14.3,9.3-14.3l5.7-16.2l6.1-3.8c0,0-5.9-6.9-5.6-17
		S182.9,29.3,174.5,19.4z"/>
	<path class="st3" d="M38.4,324.2l3.1-15.7l-3.1-26.4l-2.5-35.4c0,0,1.3-56.1,25.1-82s45.6-33.9,45.6-33.9s14-3.5,23.7,2.4
		c9.6,5.9,7,1.8,12.3,8.8c5.3,7,32.1,47.9,32.1,47.9s-4.1-8.3-12.2,13.9c-5.8,24.1-2.9,33-2.9,33s-13.6-13.2-18.3-23.2
		c-4.7-10.1-9.1-10.4-9.1-10.4s1.9,36.7-15.1,37.3s-7.4,0-7.4,0s-6,3.1-3.2,30.5c0,0-47,36.2-60,49.5
		C40,325.7,38.4,324.2,38.4,324.2z"/>
	<path class="st3" d="M156.7,148.5c0,0,15.5,7.7,24.4,35.2c0,0-4.6,0.4-6.3,6.3l-17.8-27.7c0,0,1.4-6-2.8-14.7
		C150,138.8,156.7,148.5,156.7,148.5z"/>
	<path class="st4" d="M53.2,316.4L63.5,305l16.9-15.1L94.2,279l12.4-8.1c0,0,4.4,2.4,7.7,0.6c3.3-1.8,22-11.5,22-11.5l22-7.6
		l26.5-7.8l28.9-7.9l32-17.2l15-2.5l5.1,1.1L280,223l9.6,4.9l9.9,13.9l10,13.2l12.6,10l15.8,12.3l22.9,14.7l17.9,8.8l18.6,6.5
		l4.8,1.2l-4.8,6.7l-4.3,1.2l-7.7,11.7l-2.7,6.9l-4.1,1.3l-47.7-8.9l-29.9-12.9c0,0-25.1-4-40.2-50.5c-11.9,7.5-38.9,28.4-60.8,52.3
		s-62.6,51.1-85.7,48.5C91.2,362.4,61.9,363.1,53.2,316.4z"/>
	<path class="st5" d="M144.4,127.1l2.7-13.1l4.8-7.7l8.8,2.6l4.9-1.3l5.1-6.5l5.9-11.8l4.5-12.3l6.1-3.6l-3.6-7.9l-1.1-7.1L181,42.1
		l-1.2-11.7l-8-9.9c0,0-5.4-1.6-10.3,0c-4.9,1.6-9.8,5.1-9.8,5.1l-5.6,4.8l-6.4,12l-4.5,10.2l-6,14.5l-2.7,11l-0.3,8l2.6,10.9
		l3.7,9.2l11.6,21.9L144.4,127.1z"/>
	<path class="st5" d="M159.6,219.6l2.4,8.3l7.6,8.8l5.2,4.8l4.1,2.4l2.2,1.8l1.4,3.5l24.2-8.9l18.1-9.2l21-11.5l15-2.5l5.1,1.1
		c0,0,3-1.8,2.4-4.6c-0.6-2.9-2.4-9-6.9-9.7c-4.4-0.7-12,0.1-12,0.1l-17.7,5.2l-11.6,2.3h-15.1l-7.2-2.3l-6.7-8l-11.2-13l-2.2-3.2
		l-2.9,5l-2.9-1.8l-6.3,9.2l-5.3,14.1L159.6,219.6z"/>
	<polygon class="st5" points="384.3,330.5 390.7,318.7 395.6,314.6 402.1,318 405.5,318.7 406.6,322.6 397.3,330.5 386.2,333.8 	"/>
	<path class="st6" d="M386.2,333.8v8.5l48.7-2.3c0,0,0.4-9.7,8.6-14.3c0,0-12.6,1.2-25.3-2.9s-12.7-4.1-12.7-4.1
		S409.6,326.8,386.2,333.8z"/>
	<path class="st7" d="M168.9,190.9c0,0,17.4,23.7,25.5,27.3s34.8-4.5,34.8-4.5l20.1-9.8l-11,1.9l-10.7,4.9l-16.4,0.7l-14.7-2.3
		c0,0-15.6-22.1-17.7-24.2l-5.3,3.2L168.9,190.9z"/>
	<path class="st8" d="M111.1,272.2c0,0,27-13.1,40.5-17.5c13.6-4.4,29.3-8.9,29.3-8.9l1.4,3.5c0,0-41.7,14-52.1,19.9
		S111.1,272.2,111.1,272.2z"/>
	<path class="st8" d="M309.5,255c0,0,32.8,28.8,54.4,38.5c21.6,9.7,37.9,15,37.9,15l-4.5,6.7l-39.5-16.6L332,278.9L309.5,255z"/>
	<path class="st9" d="M398.7,315.9v-4.3l4.6-4.5l3.4,0.2l6,3.1l11.1,2l6.7-0.4l6.9-2l5.2-2l3.8-0.9l3.6,1.4c0,0,7.2,4.8-1.4,19.1
		l-4.1-1.6l-7.5,0.8c0,0-12.7-2.1-13.6-2.6c-0.9-0.5-19.2-5.4-19.2-5.4L398.7,315.9z"/>
	<linearGradient id="SVGID_1_" gradientUnits="userSpaceOnUse" x1="146.629" y1="58.6131" x2="206.4689" y2="31.5435">
		<stop  offset="0" style="stop-color:#FFFFFF"/>
		<stop  offset="0.4262" style="stop-color:#A1A0A0"/>
		<stop  offset="1" style="stop-color:#000000"/>
	</linearGradient>
	<path class="st10" d="M160.4,43.7l-8.2,5.5c-0.2,0.2-1,1-1.1,1.2l-4.4,7.2c-0.6,1.1,1.1,2.2,2.3,2.3l10.1,0.8c0.2,0,0.3,0,0.5,0
		l3.2-0.7c0.6-0.1,1-0.6,1.2-1.1l0.8-2.4c0-0.1,0.1-0.3,0.1-0.4l0.4-4.6c0-0.2,0-0.5-0.1-0.7l-2.2-6.3
		C162.6,43.5,161.4,43,160.4,43.7z"/>
	<path class="st3" d="M156.9,47.8"/>
	<path class="st11" d="M162.2,42.4c0,0,6.1,7.8,1.5,16l-1.5,1.3c0,0-3.4-10.4-7.7-11.3C150.3,47.6,162.2,42.4,162.2,42.4z"/>
	<g>
		<path class="st12" d="M153.7,47.2c0.7,0.2,1.3,0.5,1.9,0.8c0.6,0.4,1.2,0.8,1.7,1.2c0.5,0.4,1,0.9,1.5,1.4c0.4,0.5,0.9,1,1.3,1.6
			l1.3,1.7c0.4,0.6,0.7,1.2,0.9,1.9c0.4,1.3,0.5,2.7,0.2,4.2l-0.3,0.1c-0.6-0.5-1.1-1-1.5-1.5c-0.4-0.5-0.8-1-1.1-1.6
			c-0.7-1-0.9-2.3-1.5-3.5c-0.5-1.1-1.1-2.2-1.9-3.3c-0.7-1-1.6-2-2.6-2.8L153.7,47.2z"/>
	</g>
	<polygon class="st13" points="397.3,315.2 401.8,308.5 406.6,307.3 414.8,311.3 430.4,312.1 442.5,308 447.4,307.3 450,308.5 
		452.7,314.3 450,325.7 448.6,327.6 442.3,325.9 438.7,326.5 427.9,325.2 412.5,321.6 	"/>
	<path class="st12" d="M146.5,99.4c0.8,0.9,1.6,1.7,2.5,2.5c0.9,0.8,1.8,1.6,2.7,2.3c1.9,1.4,3.9,2.7,6.1,3.5
		c1.1,0.4,2.2,0.6,3.3,0.6c1.1,0,2.2-0.2,3.2-0.7c1-0.5,1.8-1.3,2.5-2.1c0.4-0.4,0.7-0.9,1-1.4c0.3-0.5,0.7-1,1-1.5
		c2.5-4,4.4-8.3,6.4-12.6c2-4.3,3.8-8.6,5.8-13l0.2,0.1c-0.4,2.4-1,4.7-1.7,7c-0.3,1.2-0.7,2.3-1.1,3.4c-0.2,0.6-0.4,1.1-0.6,1.7
		c-0.2,0.6-0.4,1.1-0.6,1.7c-0.9,2.2-1.9,4.4-3.1,6.5c-0.6,1-1.2,2.1-1.8,3.1c-0.3,0.5-0.6,1-1,1.5l-1,1.5c-0.3,0.5-0.7,1-1.1,1.5
		c-0.4,0.5-0.7,1-1.1,1.4c-0.8,0.9-1.8,1.8-3,2.3c-1.2,0.6-2.5,0.8-3.8,0.7c-1.3-0.1-2.5-0.4-3.6-0.9c-2.3-1-4.3-2.4-6.1-3.9
		c-1.8-1.6-3.5-3.3-5-5.2L146.5,99.4z"/>
	<path class="st12" d="M176.1,79.4l10.8-6.3l-0.1,0.6c-0.8-1.1-1.4-2.2-2-3.3c-0.3-0.6-0.5-1.2-0.8-1.8c-0.2-0.6-0.5-1.2-0.7-1.8
		c-0.9-2.4-1.5-4.9-2-7.4c-0.3-1.3-0.4-2.5-0.6-3.8c-0.1-0.6-0.1-1.3-0.2-1.9c-0.1-0.6-0.1-1.3-0.2-1.9l-0.1-1.9
		c0-0.6-0.1-1.3-0.1-1.9l0-3.8c-0.1-5-0.7-9.9-2.3-14.5c-0.8-2.3-1.9-4.5-3.5-6.4c-0.8-0.9-1.6-1.8-2.6-2.5c-0.5-0.3-1-0.7-1.6-0.9
		c-0.6-0.2-1.2-0.3-1.8-0.2l-0.1-0.2c0.6-0.3,1.3-0.3,2-0.1c0.7,0.1,1.3,0.4,1.9,0.7c0.3,0.1,0.6,0.3,0.9,0.5
		c0.3,0.2,0.6,0.4,0.8,0.6c0.3,0.2,0.5,0.4,0.8,0.6c0.3,0.2,0.5,0.4,0.7,0.7c1.9,1.9,3.2,4.2,4.3,6.6c1,2.4,1.7,5,2.1,7.5
		c0.4,2.6,0.4,5.2,0.3,7.7c-0.1,1.3-0.1,2.5-0.1,3.8c0,0.6,0,1.3,0,1.9l0,1.9c0,0.6,0.1,1.2,0.1,1.9c0,0.6,0.1,1.3,0.1,1.9
		c0.1,1.2,0.3,2.5,0.5,3.7c0.4,2.5,0.9,4.9,1.7,7.3l0.6,1.8c0.2,0.6,0.4,1.2,0.7,1.7c0.5,1.1,1.1,2.3,1.7,3.3l0.3,0.4l-0.4,0.2
		l-11,5.8L176.1,79.4z"/>
	<path class="st12" d="M146.4,58.4c0.6-2.2,1.6-4.3,2.7-6.3c1.2-2,2.6-3.8,4.3-5.5c1.7-1.6,3.6-3,5.7-4.1c2.1-1.1,4.5-1.7,6.8-1.9
		l-0.1,0c0.1,0,0.2-0.1,0.4-0.1c0.1,0,0.3-0.1,0.4-0.2c0.3-0.1,0.6-0.2,0.8-0.4c0.6-0.3,1.1-0.6,1.6-0.9c0.5-0.3,1.1-0.7,1.6-1.1
		c0.3-0.2,0.5-0.4,0.8-0.6c0.3-0.2,0.5-0.4,0.8-0.6l0.2,0.1c-0.3,0.6-0.7,1.2-1.1,1.7c-0.2,0.3-0.4,0.5-0.7,0.8
		c-0.2,0.3-0.5,0.5-0.7,0.7c-0.5,0.5-1,0.9-1.6,1.3c-0.3,0.2-0.6,0.4-0.9,0.6c-0.2,0.1-0.3,0.2-0.5,0.2c-0.2,0.1-0.3,0.1-0.6,0.2
		l-0.1,0c-1.1,0.2-2.1,0.4-3.2,0.7c-1,0.3-2.1,0.6-3.1,1l-0.8,0.3l-0.7,0.4c-0.2,0.1-0.5,0.2-0.7,0.4c-0.2,0.1-0.5,0.3-0.7,0.4
		c-0.9,0.6-1.8,1.2-2.7,1.9c-1.7,1.4-3.2,3.1-4.5,4.9c-1.3,1.8-2.4,3.8-3.3,5.9L146.4,58.4z"/>
	<path class="st12" d="M168.4,37c0.2,0.6,0.2,1.3,0.1,2c0,0.2-0.1,0.3-0.2,0.5c-0.1,0.2-0.1,0.3-0.2,0.5c-0.2,0.3-0.4,0.6-0.6,0.9
		c-0.2,0.3-0.4,0.5-0.7,0.8c-0.2,0.3-0.5,0.4-0.9,0.5c-0.3,0.1-0.7,0.2-1,0.2c-0.4,0-0.7-0.1-1.1-0.2l-0.1-0.2
		c0.2-0.4,0.4-0.7,0.6-0.9c0.2-0.2,0.4-0.5,0.6-0.6c0.4-0.4,1-0.4,1.4-0.8c0.2-0.1,0.4-0.3,0.6-0.5c0.1-0.1,0.2-0.2,0.3-0.3
		c0.1-0.1,0.2-0.2,0.3-0.3c0.3-0.4,0.6-1,0.7-1.5L168.4,37z"/>
	<path class="st12" d="M166.1,58.5c-0.6,0.6-1.3,1.1-2,1.5c-0.4,0.2-0.7,0.4-1.1,0.6c-0.4,0.2-0.8,0.3-1.1,0.5
		c-0.8,0.3-1.5,0.7-2.4,0.7c-0.8,0-1.7-0.1-2.5-0.6l0-0.2c0.4-0.3,0.7-0.5,1.1-0.7c0.4-0.2,0.7-0.3,1.1-0.5c0.4-0.1,0.7-0.2,1.1-0.2
		c0.4,0,0.8,0,1.2-0.1c0.4,0,0.8-0.1,1.1-0.2c0.4-0.1,0.8-0.1,1.1-0.2c0.8-0.2,1.5-0.4,2.2-0.7L166.1,58.5z"/>
	<path class="st12" d="M163.7,58.4c0.4-0.6,0.6-1.2,0.8-1.9c0.2-0.7,0.3-1.3,0.3-2c0.1-0.7,0-1.3-0.1-2c-0.1-0.7-0.2-1.3-0.3-2
		c-0.2-0.7-0.4-1.3-0.6-1.9c-0.2-0.6-0.5-1.3-0.7-1.9c-0.4-1.3-0.7-2.7-1-4.1l0.2-0.1c0.6,0.5,1.1,1,1.5,1.6
		c0.4,0.6,0.8,1.2,1.1,1.9c0.3,0.7,0.5,1.4,0.7,2.1c0.1,0.7,0.2,1.5,0.3,2.2c0.2,1.5,0.2,3-0.2,4.4c-0.2,0.7-0.4,1.4-0.8,2.1
		c-0.3,0.7-0.8,1.3-1.3,1.8L163.7,58.4z"/>
	<path class="st12" d="M168.4,83.5c0.4,0.6,0.9,1.1,1.5,1.6c0.3,0.2,0.5,0.5,0.8,0.6c0.3,0.2,0.6,0.4,0.8,0.5
		c0.3,0.1,0.6,0.2,0.9,0.2c0.3,0,0.5,0.1,0.8,0.1c0.6,0.2,1.2,0.3,2.1,0.5l0.1,0.2c-0.2,0.4-0.6,0.7-1,0.9c-0.4,0.2-0.8,0.4-1.3,0.4
		c-0.5,0-0.9-0.1-1.4-0.3c-0.4-0.2-0.8-0.5-1.1-0.7c-0.3-0.3-0.6-0.6-0.9-0.9c-0.3-0.3-0.5-0.7-0.7-1c-0.4-0.7-0.7-1.4-0.9-2.2
		L168.4,83.5z"/>
	<path class="st12" d="M162.3,30.5c-1.8,0.5-3.6,1.2-5.3,2.2c-0.8,0.5-1.6,1-2.4,1.5c-0.8,0.5-1.5,1.1-2.2,1.7
		c-1.4,1.2-2.4,2.8-3.6,4.2c-0.6,0.7-1.2,1.4-1.7,2.2c-0.6,0.7-1.1,1.5-1.8,2.3l-0.2-0.1c0.1-1,0.3-2,0.7-2.9
		c0.3-0.9,0.8-1.8,1.3-2.7c0.6-0.8,1.2-1.6,1.9-2.3c0.7-0.7,1.5-1.3,2.3-1.9c0.8-0.6,1.6-1.1,2.5-1.6c0.9-0.5,1.8-0.9,2.7-1.3
		c0.9-0.4,1.8-0.7,2.8-0.9c0.9-0.3,1.9-0.4,2.9-0.5L162.3,30.5z"/>
	<path class="st12" d="M152,106.4c-1.1,1.5-2.1,3.1-2.9,4.8c-0.4,0.8-0.8,1.7-1.1,2.5l-0.5,1.3l-0.4,1.3c-0.1,0.4-0.2,0.9-0.3,1.3
		c-0.1,0.4-0.2,0.9-0.3,1.3c-0.1,0.5-0.2,0.9-0.3,1.3c-0.1,0.2-0.1,0.4-0.1,0.7l-0.1,0.7c-0.2,0.9-0.4,1.8-0.6,2.7
		c-0.1,0.5-0.2,0.9-0.3,1.4c-0.1,0.5-0.2,0.9-0.4,1.4h-0.2c-0.5-1.9-0.6-3.9-0.4-5.8c0.1-0.5,0.1-1,0.2-1.4c0.1-0.5,0.2-0.9,0.4-1.4
		c0.1-0.5,0.3-0.9,0.5-1.4c0.2-0.5,0.3-0.9,0.5-1.3c0.7-1.8,1.6-3.5,2.7-5.1c1.1-1.6,2.2-3.1,3.6-4.4L152,106.4z"/>
	<path class="st12" d="M174.4,19.4c-0.8-1.2-1.6-2.4-2.5-3.5c-0.9-1.1-1.9-2.2-2.9-3.2c-2-2.1-4.3-3.9-6.7-5.5
		c-4.8-3.2-10.3-5.1-16-5.4c-1.4-0.1-2.8-0.1-4.3,0c-1.4,0.1-2.9,0.2-4.3,0.3c-0.7,0.1-1.4,0.2-2.1,0.3c-0.7,0.1-1.4,0.2-2.1,0.3
		c-1.4,0.2-2.8,0.5-4.2,0.9c-1.4,0.3-2.8,0.7-4.1,1.1c-1.4,0.4-2.7,0.9-4,1.5c-1.3,0.5-2.6,1.1-3.9,1.8c-1.3,0.7-2.5,1.4-3.7,2.2
		l-0.1-0.2c1-1.1,2.2-2,3.4-2.8c1.2-0.8,2.5-1.6,3.8-2.3c2.6-1.4,5.4-2.5,8.2-3.3c2.9-0.8,5.8-1.3,8.7-1.5c0.7-0.1,1.5-0.1,2.2-0.1
		c0.7,0,1.5,0,2.2,0c1.5,0,2.9,0,4.4,0.2c3,0.3,5.9,1,8.7,2c2.8,1,5.4,2.5,7.8,4.2c2.4,1.7,4.6,3.7,6.5,5.9c2,2.2,3.7,4.5,5.1,7.1
		L174.4,19.4z"/>
	<path class="st12" d="M141.8,1c-0.9-0.2-1.9-0.3-2.9-0.3c-0.5,0-1,0-1.4,0c-0.5,0-1,0.1-1.4,0.1c-0.5,0-1,0.1-1.4,0.2
		c-0.5,0.1-1,0.1-1.4,0.2c-0.5,0.1-1,0.2-1.4,0.3l-1.4,0.4c-0.5,0.1-0.9,0.3-1.4,0.4l-1.4,0.4c-0.9,0.4-1.8,0.7-2.7,1.1
		c-0.9,0.4-1.8,0.8-2.6,1.2l-2.5,1.4l-2.5,1.5c-0.4,0.2-0.8,0.5-1.2,0.8l-1.2,0.8l-1.2,0.8l-1.1,0.9c-0.4,0.3-0.7,0.6-1.1,0.9
		c-0.4,0.3-0.7,0.6-1.1,1c-2.8,2.7-5.3,5.6-7.6,8.7c-4.6,6.2-8.6,12.8-12.3,19.6c-3.7,6.8-7.1,13.7-10.2,20.8l0-0.1
		c-1.8,9.6-3.4,19.4-4.6,29.1c-0.6,4.9-1.1,9.8-1.5,14.6l-0.2,3.7c-0.1,1.2-0.1,2.4-0.1,3.7c-0.1,1.2,0,2.4,0,3.6l0,0.9
		c0,0.3,0,0.6,0,0.9l0.1,1.8l0.1,1.9l0.1,1c0,0.3,0,0.7,0,1c0,1.3-0.2,2.6-0.5,3.9c-0.6,2.5-1.7,4.8-2.9,7c-1.2,2.2-2.7,4.2-4.2,6.2
		c-1.5,2-3.1,3.9-4.7,5.8c-3.2,3.8-6.4,7.5-9.2,11.5c-1.4,2-2.7,4.1-3.8,6.3c-1,2.2-1.8,4.5-2.2,7l-0.2,0c0.2-2.5,0.9-4.9,1.8-7.2
		c1-2.3,2.2-4.5,3.5-6.6c2.7-4.2,5.8-8,8.8-11.9c3-3.9,6.1-7.7,8.4-12c1.1-2.1,2.1-4.3,2.6-6.6c0.2-1.1,0.4-2.3,0.4-3.4
		c0-0.3,0-0.6,0-0.9l-0.1-0.9l-0.2-1.8c-0.5-5-0.2-10,0.1-14.9c0.4-4.9,1-9.8,1.7-14.7c1.4-9.8,3.1-19.5,5-29.2l0-0.1l0-0.1
		c3.2-7.1,6.7-14,10.5-20.8c1.9-3.4,3.9-6.7,6-10c2.1-3.3,4.3-6.5,6.7-9.6c2.4-3.1,4.9-6,7.8-8.7c0.4-0.3,0.7-0.6,1.1-1
		c0.4-0.3,0.7-0.6,1.1-0.9l1.2-0.9l1.2-0.8l1.2-0.8c0.4-0.3,0.8-0.6,1.2-0.8l2.5-1.5l2.6-1.4c0.9-0.4,1.8-0.8,2.7-1.2
		c0.9-0.4,1.8-0.7,2.7-1l1.4-0.4c0.5-0.1,0.9-0.3,1.4-0.4l1.4-0.3c0.5-0.1,1-0.2,1.4-0.3c0.5-0.1,1-0.2,1.4-0.2c0.5,0,1-0.1,1.5-0.2
		c0.5,0,1-0.1,1.5-0.1c0.5,0,1,0,1.5,0c1,0,1.9,0.1,2.9,0.4L141.8,1z"/>
	<path class="st12" d="M163.9,19.5c-1.6,0.2-3.2,0.8-4.8,1.5c-0.4,0.2-0.8,0.4-1.1,0.6c-0.4,0.2-0.7,0.4-1.1,0.6l-1.1,0.7l-0.5,0.3
		c-0.2,0.1-0.3,0.2-0.5,0.4c-1.4,1-2.7,2-3.9,3.2c-0.6,0.6-1.2,1.2-1.8,1.8l-1.6,1.9c-0.3,0.3-0.5,0.6-0.8,1l-0.7,1l-0.7,1
		c-0.3,0.3-0.5,0.7-0.7,1.1l-1.3,2.1c-0.4,0.7-0.8,1.5-1.2,2.2l-0.6,1.1c-0.2,0.4-0.4,0.7-0.6,1.1l-1,2.3c-0.7,1.5-1.3,3.1-2,4.6
		l-4,9.3c-1.3,3.1-2.6,6.2-3.7,9.3c-0.6,1.6-1.1,3.2-1.5,4.8c-0.4,1.6-0.8,3.2-1.1,4.9c-0.6,3.3-0.7,6.6-0.3,9.9
		c0.2,1.6,0.4,3.3,0.8,4.9c0.2,0.8,0.4,1.6,0.6,2.4c0.2,0.8,0.5,1.6,0.7,2.4c1,3.2,2.3,6.2,3.7,9.3c1.4,3,2.9,6,4.5,9
		c1.5,3,3.1,5.9,4.8,8.9c3.2,5.9,6.5,11.8,9.5,17.9c0.7,1.5,1.4,3.1,2.1,4.6c0.6,1.6,1.3,3.1,1.8,4.8c0.5,1.6,1,3.3,1.3,4.9
		c0.3,1.7,0.4,3.4,0.1,5.1l-0.2,0c0-0.4,0-0.8,0-1.2c0-0.4-0.1-0.8-0.1-1.2l-0.2-1.2l-0.3-1.2c-0.4-1.6-0.9-3.2-1.6-4.7
		c-1.2-3.1-2.7-6.1-4.3-9.1c-1.6-3-3.2-5.9-4.9-8.8l-5-8.8c-1.6-2.9-3.3-5.9-4.9-8.9c-1.6-3-3-6-4.4-9.1c-1.4-3.1-2.6-6.3-3.6-9.5
		c-0.3-0.8-0.5-1.6-0.7-2.5c-0.2-0.8-0.4-1.7-0.6-2.5c-0.4-1.7-0.6-3.4-0.7-5.1c-0.3-3.4-0.1-6.9,0.5-10.3c0.3-1.7,0.7-3.3,1.2-5
		c0.5-1.6,1-3.2,1.6-4.8c1.2-3.2,2.5-6.3,3.9-9.4l4.1-9.2c0.7-1.5,1.3-3.1,2.1-4.6l1.1-2.3c0.2-0.4,0.4-0.8,0.6-1.1l0.6-1.1
		c0.4-0.7,0.8-1.5,1.3-2.2L144,34c0.2-0.3,0.5-0.7,0.7-1.1l0.8-1l0.8-1c0.3-0.3,0.5-0.7,0.8-1l1.7-1.9c0.6-0.6,1.2-1.2,1.8-1.8
		c1.3-1.1,2.6-2.2,4-3.1c0.2-0.1,0.3-0.2,0.5-0.4l0.5-0.3l1.1-0.6c0.4-0.2,0.8-0.4,1.1-0.6c0.4-0.2,0.8-0.4,1.2-0.5
		c1.6-0.7,3.2-1.2,4.9-1.4L163.9,19.5z"/>
	<path class="st12" d="M176.6,20.4l8.7,13.5l4.4,6.8c0.4,0.6,0.7,1.1,1.1,1.8c0.2,0.3,0.3,0.6,0.4,1c0.1,0.3,0.2,0.6,0.3,1
		c0.2,0.6,0.4,1.3,0.6,1.9c0.2,0.7,0.4,1.3,0.5,2c1.3,5.2,2.3,10.5,3.3,15.8c1,5.3,1.8,10.6,2.7,15.9l2.6,15.9l1.3,7.9
		c0.2,1.3,0.4,2.6,0.7,3.9l0.2,1c0.1,0.3,0.1,0.6,0.2,0.9c0.2,0.6,0.3,1.3,0.5,1.9c0.7,2.6,1.6,5.1,2.4,7.7c0.8,2.5,1.7,5.1,2.6,7.6
		c0.9,2.5,1.8,5.1,2.7,7.6c0.9,2.5,1.9,5,3,7.5l-0.2,0.1c-0.7-1.1-1.3-2.3-1.9-3.6c-0.6-1.2-1.2-2.4-1.7-3.7
		c-1.1-2.5-2.2-4.9-3.2-7.4c-2-5-3.9-10-5.6-15.2c-0.2-0.6-0.4-1.3-0.6-2c-0.1-0.3-0.2-0.7-0.2-1l-0.2-1c-0.3-1.3-0.5-2.7-0.7-4
		c-0.4-2.7-0.8-5.3-1.2-8c-0.7-5.3-1.5-10.7-2.2-16c-0.8-5.3-1.6-10.6-2.4-15.9c-0.9-5.3-1.8-10.6-2.9-15.8
		c-0.1-0.7-0.3-1.3-0.5-1.9c-0.2-0.6-0.3-1.3-0.5-1.9c-0.1-0.3-0.2-0.6-0.3-0.9c-0.1-0.3-0.2-0.6-0.4-0.9c-0.3-0.5-0.6-1.1-1-1.7
		l-4.2-6.9l-8.4-13.8L176.6,20.4z"/>
	<path class="st12" d="M193.4,94c0,4.2,0.4,8.5,0.9,12.7c0.5,4.2,1.3,8.3,2.4,12.4c1.1,4.1,2.6,8,4.1,11.8c0.4,1,0.8,1.9,1.3,2.9
		c0.4,1,0.9,1.9,1.4,2.8c1,1.8,2.1,3.6,3.2,5.4l-0.2,0.1c-1.6-1.4-3-3.1-4.3-4.8c-1.3-1.8-2.3-3.6-3.3-5.6c-0.9-2-1.7-4-2.3-6
		c-0.6-2.1-1.1-4.2-1.6-6.3c-0.9-4.2-1.5-8.4-1.8-12.7c-0.1-2.1-0.2-4.3-0.3-6.4c0-2.1,0-4.3,0.2-6.4L193.4,94z"/>
	<path class="st12" d="M191.2,115c0.4,2.3,0.8,4.6,1.3,6.9c0.1,0.6,0.2,1.1,0.4,1.7c0.1,0.6,0.3,1.1,0.4,1.7
		c0.3,1.1,0.6,2.3,0.8,3.4c0.3,1.1,0.6,2.2,1,3.3c0.3,1.1,0.7,2.2,1,3.3c0.3,1.1,0.6,2.2,0.9,3.3c0.3,1.1,0.6,2.2,0.8,3.4l-0.2,0.1
		c-0.7-0.9-1.4-1.9-2-3c-0.6-1-1-2.1-1.5-3.2c-0.4-1.1-0.8-2.2-1-3.4c-0.3-1.2-0.4-2.3-0.7-3.5c-0.2-1.2-0.4-2.3-0.6-3.5
		c-0.1-0.6-0.2-1.2-0.2-1.7c-0.1-0.6-0.2-1.2-0.2-1.7c-0.2-2.3-0.4-4.7-0.5-7L191.2,115z"/>
	<path class="st12" d="M180.3,99.9c-0.2,3.9-0.1,7.9,0.2,11.8c0.3,3.9,0.8,7.8,1.7,11.7c0.8,3.8,2.2,7.5,3.6,11.1
		c0.4,0.9,0.7,1.8,1.1,2.7c0.2,0.4,0.4,0.9,0.6,1.3c0.2,0.4,0.4,0.9,0.7,1.3c0.9,1.7,1.9,3.4,3.1,5L191,145
		c-1.5-1.3-2.9-2.8-4.1-4.4c-1.2-1.6-2.2-3.4-3.1-5.2c-0.9-1.8-1.5-3.8-2-5.7c-0.5-2-0.9-3.9-1.2-5.9c-0.7-4-1-7.9-1.1-11.9
		c0-2,0-4,0.1-6c0.1-2,0.2-4,0.5-5.9L180.3,99.9z"/>
	<path class="st12" d="M184.9,116.7c0.6,2.5,1.3,4.9,2.1,7.3c0.4,1.2,0.8,2.4,1.2,3.6c0.4,1.2,0.8,2.4,1.3,3.6c0.9,2.4,2,4.6,3,6.9
		c1,2.3,2,4.5,3.3,6.8l-0.1,0.1c-1.1-0.7-2-1.7-2.8-2.7c-0.8-1-1.5-2.1-2.1-3.3c-0.6-1.1-1.1-2.3-1.5-3.6c-0.4-1.2-0.8-2.5-1.1-3.7
		c-0.4-1.2-0.7-2.5-1-3.7c-0.3-1.2-0.6-2.5-0.9-3.7c-0.5-2.5-1-5-1.3-7.5L184.9,116.7z"/>
	<path class="st12" d="M177.8,111.6c-0.3,2.8-0.4,5.7-0.4,8.5c0,1.4,0,2.8,0,4.2c0,1.4,0.1,2.8,0.2,4.2c0.1,1.4,0.3,2.8,0.6,4.2
		c0.2,1.4,0.5,2.7,0.7,4.1c0.5,2.7,1.2,5.4,2.2,8.1l-0.2,0.1c-1-1.1-1.8-2.3-2.4-3.6c-0.7-1.3-1.1-2.7-1.5-4.1
		c-0.8-2.8-0.9-5.7-1-8.6c0-1.4,0-2.9,0-4.3c0.1-1.4,0.2-2.9,0.3-4.3c0.1-1.4,0.3-2.8,0.5-4.3c0.2-1.4,0.4-2.8,0.7-4.2L177.8,111.6z
		"/>
	<path class="st12" d="M171.9,130.8c0.2,1.3,0.5,2.5,0.9,3.8c0.1,0.3,0.2,0.6,0.3,0.9c0.1,0.3,0.2,0.6,0.3,0.9
		c0.2,0.6,0.5,1.2,0.7,1.8c0.3,0.6,0.6,1.1,0.9,1.6c0.2,0.3,0.3,0.5,0.5,0.8c0.2,0.3,0.3,0.5,0.4,0.8c0.6,1.1,1.2,2.1,1.8,3.4
		l-0.1,0.2c-0.7-0.2-1.3-0.6-1.8-1c-0.6-0.4-1-0.9-1.5-1.5c-0.4-0.6-0.8-1.2-1-1.8c-0.3-0.6-0.4-1.3-0.6-1.9c-0.2-0.7-0.4-1.3-0.5-2
		c-0.1-0.3-0.1-0.7-0.2-1c-0.1-0.3-0.1-0.7-0.1-1c-0.1-0.7-0.1-1.3-0.2-2c0-0.7,0-1.3,0-2L171.9,130.8z"/>
	<path class="st12" d="M165.6,131.6c0.4,1.4,0.8,2.8,1.3,4.2c0.2,0.7,0.5,1.4,0.8,2l0.4,1l0.4,1c0.1,0.3,0.3,0.6,0.5,1
		c0.2,0.3,0.3,0.6,0.5,0.9c0.2,0.3,0.3,0.6,0.5,0.9c0.2,0.3,0.3,0.6,0.5,0.9l1.9,3.9l-0.1,0.1c-0.4-0.2-0.7-0.4-1-0.6
		c-0.3-0.2-0.6-0.5-0.9-0.7c-0.3-0.3-0.6-0.5-0.8-0.8c-0.2-0.3-0.5-0.6-0.7-0.9c-0.9-1.3-1.3-2.8-1.7-4.2l-0.3-1.1l-0.3-1.1
		c-0.2-0.7-0.3-1.5-0.5-2.2c-0.3-1.5-0.5-2.9-0.6-4.4L165.6,131.6z"/>
	<path class="st12" d="M174.6,190c-4.3-6.8-8.7-13.6-13.1-20.4c-4.4-6.7-9-13.4-13.7-20c-0.6-0.8-1.2-1.6-1.8-2.4
		c-0.6-0.8-1.2-1.6-1.8-2.4l-1.8-2.4c-0.6-0.8-1.3-1.5-2-2.2c-2.8-2.8-6.3-5-10-6.4c-3.7-1.5-7.7-2.3-11.7-2.6c-2-0.2-4-0.3-6-0.2
		c-2,0-4,0.2-6,0.5l0.1,0c-2.3,0.9-4.7,2-6.9,3.2c-2.3,1.2-4.5,2.4-6.7,3.7c-4.4,2.6-8.6,5.4-12.7,8.5c-2,1.5-4,3.2-5.9,4.8
		c-1.9,1.7-3.8,3.4-5.6,5.2c-3.6,3.6-6.9,7.5-9.9,11.5l0,0l0,0c-1.7,1.9-3.2,4.1-4.5,6.2c-1.4,2.2-2.7,4.4-3.9,6.8
		c-1.2,2.3-2.3,4.7-3.3,7.1c-1,2.4-1.9,4.8-2.8,7.3c-0.9,2.4-1.6,4.9-2.3,7.4c-0.7,2.5-1.3,5-1.9,7.6c-1.1,5.1-1.9,10.2-2.5,15.4
		c-0.6,5.2-0.9,10.4-1.1,15.6c-0.1,5.2-0.1,10.4,0.1,15.6c0.2,5.2,0.6,10.4,1.2,15.6c0.6,5.2,1.4,10.3,2.2,15.5
		c0.8,5.2,1.7,10.3,2.1,15.6c0.2,2.6,0.2,5.3,0,8c-0.2,2.7-0.7,5.3-1.5,7.9c-0.2,0.6-0.4,1.3-0.7,1.9c-0.2,0.6-0.4,1.2-0.6,1.8
		c-0.1,0.3-0.1,0.6-0.2,0.8c0,0.3,0,0.5,0,0.6c0,0,0,0-0.1-0.1c-0.1-0.1-0.2-0.1-0.2-0.1c0,0,0.3,0,0.5-0.1c0.5-0.2,1-0.5,1.5-0.9
		c0.5-0.3,1-0.7,1.5-1.1c1-0.8,2-1.6,3-2.5c3.9-3.4,7.7-7,11.6-10.5c7.7-7.1,15.4-14.2,23.5-20.8c4-3.3,8.2-6.6,12.4-9.6
		c4.3-3.1,8.6-5.9,13.2-8.5l-0.3,0.5c-0.4-5.3-0.7-10.7-0.5-16c0.1-2.7,0.3-5.4,0.9-8c0.3-1.3,0.6-2.6,1.2-3.9
		c0.3-0.6,0.6-1.2,1-1.8c0.2-0.3,0.4-0.5,0.7-0.7c0.3-0.2,0.6-0.4,0.9-0.5l0,0.2c-0.3,0.1-0.6,0.2-0.8,0.4c-0.2,0.2-0.5,0.5-0.6,0.7
		c-0.4,0.5-0.7,1.1-0.9,1.7c-0.5,1.2-0.8,2.5-1,3.8c-0.5,2.6-0.6,5.3-0.6,7.9c-0.1,5.3,0.4,10.6,0.9,15.9l0,0.3l-0.3,0.2
		c-4.5,2.6-8.8,5.5-13,8.6c-4.2,3.1-8.2,6.4-12.2,9.8c-8,6.7-15.6,13.9-23.2,21c-3.8,3.6-7.6,7.2-11.5,10.7c-1,0.9-2,1.7-3.1,2.5
		c-0.5,0.4-1.1,0.8-1.6,1.2c-0.6,0.4-1.2,0.8-1.9,1.1c-0.4,0.1-0.8,0.3-1.4,0.3c-0.3,0-0.8-0.1-1.1-0.4c-0.3-0.3-0.5-0.7-0.5-1
		c-0.1-0.6-0.1-1,0-1.3c0.1-0.4,0.1-0.7,0.2-1.1c0.2-0.7,0.4-1.3,0.6-2c0.2-0.6,0.4-1.2,0.6-1.8c0.7-2.4,1.2-4.9,1.4-7.5
		c0.2-2.5,0.2-5.1,0-7.7c-0.4-5.1-1.2-10.3-2-15.5c-0.8-5.2-1.5-10.4-2.1-15.6c-0.6-5.2-0.9-10.5-1.1-15.7c-0.2-5.2-0.2-10.5,0-15.7
		c0.2-5.2,0.6-10.5,1.2-15.7c0.6-5.2,1.5-10.4,2.6-15.5c0.6-2.6,1.2-5.1,1.9-7.6c0.7-2.5,1.5-5,2.4-7.5c0.9-2.5,1.8-4.9,2.9-7.3
		c1-2.4,2.2-4.8,3.4-7.1c1.2-2.3,2.5-4.6,3.9-6.8c1.4-2.2,2.9-4.4,4.7-6.4l0,0.1c3.1-4.1,6.5-8,10.1-11.6c1.8-1.8,3.7-3.5,5.7-5.2
		c2-1.7,3.9-3.3,6-4.8c4.1-3.1,8.4-6,12.8-8.5c2.2-1.3,4.5-2.5,6.8-3.7c2.3-1.1,4.6-2.2,7-3.2l0,0l0,0c2-0.3,4.1-0.4,6.1-0.4
		c2,0,4.1,0.1,6.1,0.3c4.1,0.4,8.1,1.3,11.9,2.8c3.8,1.5,7.3,3.7,10.2,6.7c0.7,0.7,1.4,1.5,2,2.3l1.8,2.4c0.6,0.8,1.2,1.6,1.8,2.4
		c0.6,0.8,1.2,1.6,1.8,2.5c4.7,6.6,9.2,13.3,13.6,20.1c4.4,6.8,8.7,13.6,13,20.5L174.6,190z"/>
	<path class="st12" d="M171.9,188.2c-0.7,0.8-1.3,1.6-1.9,2.5c-0.6,0.8-1.2,1.7-1.7,2.6c-1.1,1.8-2.1,3.6-2.9,5.5
		c-1.8,3.8-3.1,7.7-4.1,11.7c-0.5,2-0.8,4-1.1,6.1c-0.1,0.5-0.1,1-0.2,1.5l-0.2,1.5l-0.2,1.5l-0.1,0.8l-0.1,0.8l-0.1,1.5l-0.1,1.5
		c-0.1,1-0.1,2.1-0.2,3.1c0,0.5,0,1-0.1,1.6l-0.1,1.6c0,1,0,2.1-0.1,3.1l-0.2,0c-0.2-1-0.4-2.1-0.6-3.1c-0.1-1-0.3-2.1-0.4-3.1
		c-0.1-1.1-0.2-2.1-0.2-3.2c0-0.5,0-1.1,0-1.6l0-1.6c0.1-4.3,1.1-8.4,2.2-12.5c1.2-4.1,2.7-8,4.7-11.8c1-1.9,2.1-3.7,3.3-5.4
		c1.2-1.7,2.5-3.4,4-4.9L171.9,188.2z"/>
	<path class="st12" d="M159.5,236.9c-1.3-1-2.5-2.2-3.7-3.3c-1.2-1.2-2.3-2.4-3.4-3.6c-2.2-2.5-4.3-5.1-6.3-7.7
		c-2-2.7-4-5.3-5.6-8.2c-0.8-1.4-1.6-2.9-2.3-4.4c-0.7-1.5-1.3-3.1-1.9-4.6l0.2-0.1c1.1,1.3,2,2.7,2.9,4c0.5,0.7,0.9,1.4,1.4,2
		c0.2,0.3,0.4,0.7,0.7,1c0.2,0.3,0.5,0.7,0.7,1c0.9,1.4,1.8,2.8,2.6,4.2c0.8,1.4,1.7,2.8,2.6,4.2c1.8,2.7,3.7,5.4,5.8,8
		c2,2.6,4.2,5.1,6.5,7.4L159.5,236.9z"/>
	<path class="st12" d="M151.6,223.5c-2.5-3.6-5.1-7-7.9-10.3c-2.8-3.3-5.8-6.4-9-9.2l-1.3-1l-0.6-0.5l-0.7-0.5l-1.3-0.9
		c-0.4-0.3-0.9-0.5-1.4-0.8c-0.9-0.5-1.9-1-2.8-1.6c-0.9-0.6-1.9-1.1-2.8-1.7c-0.9-0.6-1.8-1.3-2.7-1.9c-0.9-0.7-1.7-1.4-2.5-2.1
		c-0.8-0.7-1.6-1.5-2.4-2.3c-0.7-0.8-1.5-1.7-2-2.6l0.2-0.1c1.6,1.5,3.3,2.7,5.1,3.9c0.9,0.6,1.8,1.2,2.7,1.8
		c0.9,0.6,1.8,1.1,2.7,1.7c0.5,0.3,0.9,0.6,1.4,0.8l1.4,0.8c0.9,0.5,1.8,1.1,2.8,1.7c0.5,0.3,0.9,0.6,1.4,0.9l1.3,1l0.7,0.5l0.6,0.5
		l1.2,1.1c3.2,3,6.1,6.3,8.8,9.8c0.7,0.9,1.3,1.7,1.9,2.6c0.6,0.9,1.3,1.8,1.9,2.7c1.2,1.8,2.4,3.6,3.5,5.5L151.6,223.5z"/>
	<path class="st12" d="M132,202.7c0.5,4.2,0.6,8.4,0.4,12.6c-0.3,4.2-0.9,8.5-2.3,12.5c-0.7,2-1.6,4-2.8,5.8
		c-1.2,1.8-2.7,3.5-4.5,4.8c-0.9,0.6-1.9,1.2-2.9,1.6c-1,0.4-2.1,0.8-3.2,1c-2.2,0.5-4.4,0.5-6.6,0.3l0.1,0c-0.2,0-0.3,0-0.5,0
		c-0.1,0-0.3,0-0.4,0c-0.3,0-0.6-0.1-0.8-0.1c-0.6-0.1-1.1-0.2-1.7-0.4c-1.1-0.3-2.1-0.6-3.2-1.1c-0.5-0.2-1-0.4-1.5-0.7l-0.7-0.4
		l-0.4-0.2l-0.4-0.2c-0.5-0.3-1-0.6-1.4-0.9l-1.3-1c-0.2-0.2-0.4-0.3-0.6-0.5l-0.6-0.5l-0.6-0.5c-0.2-0.2-0.4-0.4-0.6-0.6l-1.1-1.2
		c-0.3-0.4-0.7-0.9-1-1.3l-0.5-0.6c-0.2-0.2-0.3-0.5-0.5-0.7l-0.9-1.4c-0.2-0.2-0.3-0.5-0.4-0.7l-0.4-0.7l-0.7-1.5l0.2-0.1l1,1.3
		l0.5,0.7c0.2,0.2,0.3,0.4,0.5,0.6l1,1.2c0.2,0.2,0.3,0.4,0.5,0.6l0.6,0.6l1.1,1.1l1.2,1c0.2,0.2,0.4,0.4,0.6,0.5l0.6,0.5l0.6,0.5
		c0.2,0.2,0.4,0.3,0.6,0.5c1.7,1.2,3.6,2.1,5.5,2.9c1,0.4,1.9,0.7,2.9,0.9c0.5,0.1,1,0.2,1.5,0.3c0.3,0,0.5,0.1,0.7,0.1
		c0.1,0,0.2,0,0.4,0l0.3,0l0.1,0c2,0.2,4,0.3,6,0c1-0.2,1.9-0.4,2.9-0.8c0.9-0.4,1.8-0.8,2.6-1.4c1.7-1.1,3.1-2.6,4.2-4.2
		c1.2-1.7,2.1-3.5,2.8-5.4c0.7-1.9,1.3-3.9,1.7-6c0.4-2,0.7-4.1,0.9-6.2c0.2-2.1,0.3-4.2,0.3-6.3c0-2.1,0-4.2-0.2-6.3L132,202.7z"/>
	<path class="st12" d="M176.4,188.1c0.1-0.6,0.2-1.2,0.4-1.8c0.2-0.6,0.4-1.2,0.8-1.7c0.3-0.5,0.8-1.1,1.5-1.3
		c0.3-0.1,0.7-0.2,1.1-0.1c0.4,0,0.7,0.2,1,0.3l-0.5,0.4c-1.2-3-2.6-5.9-4-8.8c-1.4-2.9-2.9-5.7-4.6-8.5c-0.8-1.4-1.7-2.7-2.6-4
		c-0.9-1.3-1.8-2.6-2.8-3.9c-1.9-2.5-3.9-5-6.4-6.8l-0.1-0.1c-0.4-0.4-0.9-0.8-1.4-1.2c-0.5-0.4-1-0.8-1.5-1.1
		c-1-0.7-2.1-1.3-3.3-1.8l0-0.2c0.6,0.1,1.3,0.2,1.9,0.4c0.6,0.2,1.2,0.4,1.8,0.7c0.6,0.3,1.2,0.6,1.7,0.9c0.6,0.3,1.1,0.7,1.7,1.1
		l-0.1-0.1c1.5,0.9,2.8,1.9,3.9,3.1c1.2,1.2,2.3,2.4,3.3,3.7c1.9,2.7,3.6,5.5,5.1,8.4c1.5,2.9,2.9,5.8,4.2,8.8c1.3,3,2.5,6,3.6,9
		l0.3,0.8l-0.8-0.4c-0.2-0.1-0.5-0.2-0.8-0.3c-0.3,0-0.5,0-0.8,0c-0.5,0.2-1,0.6-1.3,1.1c-0.3,0.5-0.6,1-0.8,1.6
		c-0.2,0.6-0.4,1.2-0.5,1.8L176.4,188.1z"/>
	<path class="st12" d="M161.9,226.4c1.4,2.2,3,4.3,4.6,6.4c1.6,2,3.3,4,5.2,5.8c0.9,0.9,1.9,1.7,3,2.5c0.5,0.4,1.1,0.7,1.6,1
		c0.3,0.1,0.6,0.3,0.9,0.4c0.3,0.2,0.6,0.3,0.9,0.5c1.2,0.7,2.3,1.4,3.2,2.5c0.5,0.5,0.9,1.1,1.2,1.7c0.2,0.3,0.3,0.7,0.3,1
		c0,0.2,0.1,0.4,0.1,0.6c0,0.2,0,0.4,0,0.6l-0.7-0.6c6.2-2.3,12.3-4.7,18.4-7.3c6.1-2.6,12.1-5.2,18-8.2c1.5-0.8,2.9-1.5,4.3-2.3
		c0.7-0.4,1.4-0.8,2.1-1.2l2.1-1.3c2.8-1.7,5.8-3.3,8.7-4.8c3-1.5,6-2.9,9.1-4.1c1.6-0.6,3.1-1.2,4.7-1.6c0.8-0.2,1.6-0.5,2.4-0.6
		c0.4-0.1,0.8-0.2,1.2-0.2c0.4,0,0.8-0.1,1.3,0l0,0.2c-0.4,0-0.8,0.1-1.2,0.2c-0.4,0.1-0.8,0.2-1.2,0.4c-0.8,0.3-1.5,0.6-2.3,0.9
		c-1.5,0.7-3,1.3-4.5,2.1c-3,1.4-5.9,3-8.7,4.6c-2.9,1.6-5.7,3.3-8.5,4.9c-0.7,0.4-1.4,0.8-2.2,1.3c-0.7,0.4-1.5,0.8-2.2,1.2
		c-1.5,0.8-3,1.5-4.5,2.3c-6,2.9-12.1,5.4-18.3,7.9c-6.2,2.4-12.4,4.8-18.6,6.9l-0.9,0.3l0.2-0.9c0-0.1,0-0.2,0-0.3
		c0-0.1,0-0.3,0-0.4c0-0.3-0.1-0.6-0.3-0.8c-0.2-0.5-0.6-1.1-1-1.5c-0.8-0.9-1.8-1.7-2.9-2.4c-0.3-0.2-0.6-0.3-0.8-0.5
		c-0.3-0.1-0.6-0.3-0.9-0.5c-0.6-0.3-1.2-0.7-1.7-1.1c-1.1-0.8-2.1-1.7-3-2.6c-1.9-1.9-3.5-3.9-5.1-6c-1.6-2.1-3.1-4.3-4.5-6.5
		L161.9,226.4z"/>
	<path class="st12" d="M268.1,213.6c-0.2-1.7-0.7-3.3-1.6-4.8c-0.8-1.5-2-2.8-3.4-3.6c-1.4-0.9-3-1.4-4.7-1.5c-1.7-0.1-3.3,0-5,0.4
		c-0.4,0.1-0.8,0.2-1.2,0.3c-0.4,0.1-0.8,0.2-1.2,0.3c-0.8,0.3-1.6,0.5-2.4,0.7c-0.8,0.3-1.6,0.5-2.4,0.9c-0.8,0.3-1.6,0.6-2.4,1
		c-3.1,1.4-6.1,3.1-9.1,4.7c-3,1.7-6.2,3.2-9.5,4.3c-3.3,1.1-6.8,1.7-10.3,2.1c-3.4,0.3-6.9,0.6-10.4,0.6c-1.7,0-3.5-0.1-5.2-0.3
		c-0.9-0.1-1.7-0.2-2.6-0.4c-0.9-0.2-1.7-0.4-2.5-0.9l0.1-0.2c0.4,0.1,0.8,0.2,1.2,0.3c0.4,0.1,0.8,0.1,1.3,0.1
		c0.8,0.1,1.7,0.1,2.5,0.1c1.7,0,3.4-0.1,5.1-0.2l2.5-0.2l2.5-0.3l2.5-0.3l2.5-0.3c3.4-0.5,6.7-1.1,9.9-2c0.8-0.2,1.6-0.5,2.4-0.8
		l1.2-0.4c0.4-0.2,0.8-0.3,1.2-0.5c1.6-0.6,3.1-1.4,4.6-2.1c3-1.6,6.1-3.2,9.3-4.5c0.8-0.3,1.6-0.6,2.4-0.9c0.8-0.3,1.7-0.5,2.5-0.8
		c0.8-0.3,1.7-0.5,2.5-0.7c0.4-0.1,0.8-0.2,1.3-0.3c0.4-0.1,0.9-0.2,1.3-0.3c1.7-0.3,3.5-0.4,5.3-0.2c1.8,0.2,3.5,0.8,5,1.8
		c1.5,1,2.6,2.4,3.4,4c0.8,1.6,1.2,3.3,1.4,5L268.1,213.6z"/>
	<path class="st12" d="M170.7,192.5c2.6,3.2,5.2,6.4,7.9,9.5c2.7,3.1,5.5,6.1,8.5,9c1.5,1.4,3,2.8,4.5,4.2c1.5,1.3,3.1,2.7,4.7,4
		c0.8,0.7,1.6,1.3,2.4,1.9l1.2,0.9c0.4,0.3,0.8,0.6,1.3,0.9c1.7,1.1,3.5,2.1,5.4,2.8l0,0.2c-2.1-0.1-4.2-0.8-6.1-1.7
		c-1.9-0.9-3.7-2.1-5.4-3.3c-3.4-2.5-6.3-5.6-9.1-8.6c-2.8-3.1-5.5-6.2-8.1-9.5c-2.5-3.3-5-6.6-7.3-10L170.7,192.5z"/>
	<path class="st12" d="M181.1,188.1c1.6,1.8,3.2,3.6,4.8,5.4l2.4,2.8l2.3,2.8l2.3,2.8c0.8,0.9,1.5,1.9,2.1,3c0.6,1,1.2,2.1,1.8,3.2
		c0.3,0.6,0.5,1.1,0.7,1.7c0.1,0.3,0.2,0.6,0.3,0.9c0.1,0.3,0.1,0.6,0.1,1l-0.2,0c-0.2-0.5-0.6-1-1-1.5c-0.4-0.5-0.7-0.9-1.1-1.4
		c-0.7-0.9-1.5-1.9-2.2-2.8c-0.7-0.9-1.4-1.9-2.1-2.9c-0.7-1-1.3-2-2-3l-4.2-5.9l-4.2-5.9L181.1,188.1z"/>
	<path class="st12" d="M251.6,204c-0.9,0-1.9,0.1-2.8,0.2c-0.9,0.1-1.9,0.3-2.8,0.6c-1.8,0.4-3.6,1-5.4,1.6
		c-0.9,0.3-1.8,0.6-2.7,0.9c-0.9,0.3-1.8,0.7-2.6,1c-0.9,0.4-1.8,0.7-2.6,1.1l-2.6,1.1l-0.1,0l-0.1,0c-2.7,0.5-5.4,0.9-8.1,1.2
		c-2.7,0.3-5.4,0.6-8.2,0.6c-2.7,0-5.5-0.1-8.2-0.6c-1.4-0.2-2.7-0.5-4-1c-1.3-0.4-2.6-0.9-3.8-1.7l0.1-0.2c2.6,0.8,5.2,1.1,7.9,1.3
		c1.3,0.1,2.7,0.1,4,0.1c1.3,0,2.7,0,4-0.1c2.7-0.1,5.4-0.1,8-0.3c2.7-0.2,5.4-0.5,8-0.8l-0.1,0l2.7-1c0.9-0.3,1.8-0.6,2.7-1
		c0.9-0.3,1.8-0.6,2.7-0.9c0.9-0.3,1.8-0.6,2.7-0.8c1.8-0.5,3.7-1,5.6-1.3c0.5-0.1,0.9-0.2,1.4-0.2l0.7-0.1l0.7-0.1
		c1-0.1,1.9-0.2,2.9,0L251.6,204z"/>
	<path class="st12" d="M53.3,320c0.3,1.4,0.6,2.8,1,4.2c0.2,0.7,0.4,1.4,0.7,2c0.2,0.7,0.5,1.3,0.7,2c1,2.7,2.2,5.3,3.6,7.8
		c2.8,5,6.2,9.6,10.3,13.6l1.6,1.5c0.5,0.5,1.1,0.9,1.6,1.4l0.8,0.7c0.3,0.2,0.6,0.4,0.9,0.6l1.7,1.2c0.6,0.4,1.2,0.8,1.8,1.1
		l0.9,0.6c0.2,0.1,0.3,0.2,0.5,0.3l0.5,0.3c1.3,0.7,2.5,1.4,3.8,1.9c5.2,2.4,10.7,3.9,16.4,4.6c5.6,0.8,11.4,0.8,17,0.4l4.3-0.4
		c0.7-0.1,1.4-0.2,2.1-0.3c0.7-0.1,1.4-0.2,2.1-0.4c1.4-0.2,2.8-0.6,4.2-0.9c1.4-0.4,2.8-0.7,4.1-1.1c1.4-0.4,2.7-0.9,4.1-1.3
		c1.3-0.5,2.7-1,4-1.6c1.3-0.5,2.6-1.1,3.9-1.7c1.3-0.6,2.6-1.2,3.8-1.9c2.5-1.3,5-2.7,7.4-4.2c2.4-1.5,4.8-3.1,7.2-4.7
		c9.4-6.5,18-14,26.4-21.8c4.2-3.9,8.3-7.9,12.4-11.9l12.3-12c4.1-4,8.3-8,12.5-11.8c4.2-3.9,8.5-7.7,13-11.3c4.5-3.6,9.1-7,14.1-10
		c2.5-1.5,5-2.8,7.6-4c2.6-1.2,5.3-2.2,8.1-2.9l0.1,0.2c-5.5,1.8-10.5,4.4-15.3,7.5c-2.4,1.5-4.7,3.2-7,4.9
		c-2.3,1.7-4.5,3.5-6.7,5.4c-8.7,7.4-16.9,15.4-25,23.5l-12.3,12.1c-4.1,4-8.3,7.9-12.5,11.8c-8.5,7.7-17.3,15.2-26.9,21.6
		c-2.4,1.6-4.8,3.2-7.3,4.7c-2.5,1.5-5,2.9-7.6,4.2c-1.3,0.7-2.6,1.3-3.9,1.9c-1.3,0.6-2.6,1.2-4,1.7c-1.3,0.6-2.7,1-4,1.5
		c-1.4,0.5-2.7,0.9-4.1,1.3c-1.4,0.4-2.8,0.8-4.2,1.1c-1.4,0.3-2.8,0.6-4.2,0.9c-0.7,0.1-1.4,0.3-2.1,0.3c-0.7,0.1-1.4,0.2-2.1,0.3
		l-4.3,0.4c-5.8,0.4-11.5,0.3-17.3-0.5c-5.7-0.8-11.3-2.4-16.5-4.9c-1.3-0.6-2.6-1.3-3.8-2l-0.5-0.3c-0.2-0.1-0.3-0.2-0.5-0.3
		l-0.9-0.6c-0.6-0.4-1.2-0.8-1.8-1.2l-1.7-1.3c-0.3-0.2-0.6-0.4-0.9-0.7l-0.8-0.7c-0.5-0.5-1.1-0.9-1.6-1.4l-1.6-1.5
		c-4.1-4-7.5-8.7-10.3-13.8c-1.3-2.5-2.5-5.2-3.5-7.9c-0.3-0.7-0.5-1.4-0.7-2c-0.2-0.7-0.4-1.4-0.6-2.1c-0.4-1.4-0.7-2.8-1-4.2
		L53.3,320z"/>
	<path class="st12" d="M260.8,266.1c0.6,3.1,1.6,6,2.6,9c1.1,2.9,2.4,5.8,3.9,8.5c3,5.5,6.7,10.6,11,15.1c2.2,2.2,4.5,4.3,6.9,6.2
		c1.2,1,2.5,1.9,3.8,2.7l2,1.3c0.7,0.4,1.3,0.8,2,1.2l1,0.6l1,0.5c0.7,0.4,1.4,0.7,2.1,1.1l4.2,2.1c2.8,1.4,5.6,2.8,8.4,4.1
		c5.6,2.7,11.3,5.2,17.2,7.2c5.9,2,12,3.4,18.1,4.6c6.1,1.1,12.3,2.1,18.5,2.9c3.1,0.4,6.2,0.8,9.3,1.3l9.3,1.2l-0.8,0.5
		c0.7-2.2,1.5-4.4,2.4-6.5c0.9-2.1,1.9-4.3,3-6.3c1.1-2,2.3-4.1,3.9-5.9c0.8-0.9,1.7-1.7,2.8-2.4c0.6-0.3,1.2-0.6,1.8-0.7
		c0.7-0.1,1.4-0.1,2.1,0L397,316c-6.6-2.2-13.2-4.7-19.7-7.3c-6.5-2.6-12.9-5.5-19.1-8.7l-2.3-1.2c-0.8-0.4-1.5-0.9-2.3-1.3
		l-1.1-0.7c-0.4-0.2-0.8-0.4-1.1-0.7l-2.2-1.4c-0.8-0.5-1.5-1-2.2-1.5c-0.7-0.5-1.5-1-2.1-1.6c-1.4-1.1-2.7-2.2-4-3.4
		c-5.3-4.5-10.5-9.3-15.4-14.3c-4.9-5-9.7-10.1-14.2-15.5c-4.5-5.4-8.8-10.9-12.7-16.7c-1-1.5-1.9-2.9-2.9-4.4
		c-0.9-1.4-1.9-2.8-3-4.1c-2.2-2.6-4.9-4.9-7.7-6.8c-2.9-1.9-5.9-3.6-9.1-4.9c-1.6-0.7-3.2-1.3-4.9-1.8c-1.7-0.5-3.3-1-5-1.3l0-0.2
		c3.5,0.6,6.8,1.6,10.1,2.8c3.3,1.2,6.4,2.8,9.4,4.7c3,1.9,5.7,4.2,8.1,6.8c1.2,1.3,2.3,2.7,3.2,4.2c1,1.4,1.9,2.9,2.9,4.3
		c8,11.3,17.3,21.8,27.1,31.6c0.6,0.6,1.2,1.2,1.9,1.8l1.9,1.8c1.3,1.2,2.5,2.4,3.8,3.6c2.6,2.3,5.1,4.7,7.8,6.9
		c1.3,1.1,2.7,2.2,4,3.3c0.7,0.5,1.4,1,2.1,1.5c0.7,0.5,1.4,1,2.1,1.5l2.2,1.4c0.4,0.2,0.7,0.5,1.1,0.7l1.1,0.7
		c0.7,0.4,1.5,0.9,2.2,1.3l2.3,1.2c6.1,3.2,12.5,6.1,18.9,8.8c6.4,2.7,12.9,5.2,19.5,7.4l-0.4,1.6c-0.9-0.2-1.8,0-2.7,0.5
		c-0.9,0.5-1.7,1.2-2.4,2c-1.5,1.6-2.7,3.6-3.8,5.5c-1.1,2-2.1,4-2.9,6.1c-0.9,2.1-1.7,4.2-2.4,6.4l-0.2,0.6l-0.6-0.1l-9.3-1.3
		c-3.1-0.4-6.2-0.9-9.3-1.3c-6.2-0.9-12.4-1.9-18.5-3.1c-6.2-1.2-12.3-2.7-18.2-4.8c-5.9-2.1-11.7-4.7-17.3-7.4
		c-2.8-1.4-5.6-2.8-8.4-4.2l-4.2-2.1c-0.7-0.4-1.4-0.7-2.1-1.1l-1-0.6l-1-0.6c-0.7-0.4-1.4-0.8-2-1.2l-2-1.3
		c-1.3-0.9-2.6-1.8-3.8-2.8c-2.5-2-4.8-4.1-6.9-6.4c-4.3-4.6-8-9.7-10.9-15.3c-1.5-2.8-2.7-5.6-3.8-8.6c-1.1-2.9-2-5.9-2.6-9
		L260.8,266.1z"/>
	<path class="st12" d="M182.4,249.4c-4.7,1.7-9.5,3.5-14.2,5.3c-4.7,1.8-9.4,3.6-14.1,5.4c-2.3,0.9-4.7,1.9-7,2.9
		c-2.3,1-4.6,1.9-7,2.8c-2.3,0.9-4.7,1.8-7,2.8c-2.3,0.9-4.6,1.9-6.9,3l-0.1-0.2c2-1.6,4.2-3,6.4-4.1c0.6-0.3,1.1-0.6,1.7-0.9
		c0.6-0.3,1.1-0.6,1.7-0.9c1.1-0.5,2.3-1.1,3.4-1.6c4.6-2.1,9.4-3.7,14.2-5.4c4.8-1.7,9.5-3.3,14.3-4.9c4.8-1.5,9.6-3.1,14.4-4.5
		L182.4,249.4z"/>
	<path class="st12" d="M179.9,246.8c-5.7,1.3-11.3,2.9-16.9,4.7c-1.4,0.4-2.8,0.9-4.2,1.4c-1.4,0.5-2.8,0.9-4.1,1.5l-4.1,1.5
		l-4.1,1.6l-1,0.4l-1,0.4l-2,0.9c-1.3,0.6-2.7,1.1-4,1.8c-1.3,0.6-2.7,1.2-4,1.8l-4,1.8c-2.7,1.1-5.3,2.4-8,3.6
		c-1.3,0.6-2.7,1.2-4,1.8c-1.3,0.6-2.7,1.2-4,1.8l-0.1-0.2c4.9-3.3,10-6.2,15.3-8.8c5.3-2.7,10.8-4.7,16.3-6.7l4.2-1.5l4.2-1.4
		c1.4-0.5,2.8-0.9,4.2-1.3c1.4-0.4,2.8-0.8,4.2-1.2c5.7-1.6,11.4-3,17.2-4L179.9,246.8z"/>
	<path class="st12" d="M305,249.2c3.4,3.4,7,6.6,10.6,9.7c3.6,3.1,7.3,6.2,11.1,9.1c3.8,3,7.6,5.8,11.5,8.6c3.9,2.8,7.9,5.4,12,8
		c4,2.5,8.2,4.9,12.4,7.2l3.2,1.7l3.2,1.6c1.1,0.6,2.1,1.1,3.2,1.6c1.1,0.5,2.1,1.1,3.2,1.5l3.2,1.5c1.1,0.5,2.2,0.9,3.3,1.4
		l1.6,0.7l1.7,0.7l1.7,0.7c0.6,0.2,1.1,0.5,1.7,0.7l3.4,1.2l0.8,0.3l0.9,0.3l1.7,0.6c2.3,0.8,4.6,1.4,6.9,2.2l0,0.2
		c-4.7-0.8-9.4-1.9-14-3.4c-4.6-1.5-9.1-3.2-13.5-5.1c-4.4-2-8.7-4.1-12.9-6.5c-1.1-0.6-2.1-1.2-3.1-1.8c-1-0.6-2.1-1.2-3.1-1.9
		l-3.1-1.9l-3-2c-4-2.6-8-5.4-11.8-8.2c-3.9-2.9-7.7-5.8-11.4-8.9c-3.7-3.1-7.3-6.2-10.9-9.5c-3.5-3.2-7-6.6-10.3-10.1L305,249.2z"
		/>
	<path class="st12" d="M439.3,329.4c-0.8,0.6-1.5,1.3-2.1,2.1c-0.5,0.8-1,1.7-1.3,2.6c-0.3,0.9-0.5,1.9-0.7,2.9
		c-0.1,1-0.2,2-0.1,2.9l-0.2-0.2l9.2-0.1l-0.1,0c1.2-0.4,2.3-1,3.3-1.6c1-0.7,2-1.5,2.7-2.5c0.3-0.5,0.6-1,0.7-1.6
		c0.1-0.6,0.1-1.2,0-1.7c-0.3-1.2-0.7-2.4-1.4-3.3c-0.3-0.5-0.8-0.9-1.3-1.2c-0.5-0.3-1-0.6-1.6-0.7c-1.1-0.3-2.4-0.4-3.6-0.3
		l-1.9,0.2c-0.3,0.1-0.7,0.1-1,0.1c-0.3,0-0.7,0-1,0c-1.3,0-2.6,0-3.9-0.1c-2.6-0.2-5.1-0.6-7.6-1.1c-2.5-0.5-5-1.1-7.5-1.7
		c-5-1.3-9.8-2.8-14.7-4.5l1-1.2c0.4,0.5,0.7,1.2,0.7,1.9c0.1,0.7-0.1,1.4-0.3,2c-0.5,1.2-1.3,2.1-2.2,3c-1.7,1.6-3.7,2.8-5.6,4
		c-2,1.1-4,2.1-6,3.1c-2.1,0.9-4.1,1.8-6.3,2.5l0.6-0.5c0,0.1-0.1,0.2-0.2,0.4c-0.1,0.1-0.1,0.3-0.2,0.5c-0.1,0.3-0.2,0.6-0.2,0.9
		c-0.1,0.6-0.2,1.3-0.2,2c0,0.7,0.1,1.3,0.2,2c0.1,0.7,0.3,1.3,0.5,1.9l-1-0.7c3.7-0.1,7.5-0.2,11.2-0.3c3.7-0.1,7.5-0.1,11.2-0.2
		c3.8,0,7.5-0.1,11.3-0.1l5.6,0c1.9,0,3.8,0,5.6,0l0,0.2c-1.9,0.1-3.7,0.3-5.6,0.4l-5.6,0.4c-3.7,0.2-7.5,0.4-11.2,0.6
		c-3.7,0.2-7.5,0.4-11.2,0.5c-3.7,0.2-7.5,0.3-11.2,0.5l-0.8,0l-0.2-0.7c-0.1-0.4-0.3-0.7-0.4-1.1c-0.1-0.4-0.2-0.8-0.3-1.1
		c-0.2-0.8-0.2-1.6-0.3-2.4c0-0.8,0.1-1.6,0.2-2.4c0.1-0.4,0.2-0.8,0.3-1.2c0.1-0.2,0.1-0.4,0.2-0.6c0-0.1,0.1-0.2,0.1-0.3
		c0-0.1,0.1-0.2,0.1-0.3l0.2-0.4l0.4-0.1c2.1-0.7,4.1-1.5,6.1-2.4c2-0.9,4-1.8,5.9-2.9c1.9-1.1,3.8-2.2,5.3-3.6
		c0.8-0.7,1.5-1.5,1.8-2.3c0.2-0.4,0.3-0.8,0.2-1.2c0-0.4-0.2-0.8-0.4-1.2l-1.4-2.1l2.3,0.9c4.7,1.8,9.6,3.3,14.5,4.7
		c2.4,0.7,4.9,1.3,7.4,1.8c2.5,0.5,5,1,7.5,1.2c1.3,0.1,2.5,0.2,3.8,0.2c0.3,0,0.6,0,0.9,0c0.3,0,0.6,0,0.9-0.1l1.9-0.2
		c1.3-0.1,2.7,0,4,0.4c0.7,0.2,1.3,0.5,1.8,0.9c0.5,0.4,1.1,0.9,1.5,1.4c0.8,1.1,1.3,2.4,1.5,3.7c0.1,0.7,0.1,1.4,0,2.1
		c-0.2,0.7-0.5,1.3-0.8,1.9c-0.8,1.1-1.8,2-2.9,2.7c-1.1,0.7-2.3,1.2-3.5,1.6l0,0l0,0l-9.2-0.1l-0.2,0l0-0.2c0-1,0-2,0.2-3
		c0.1-1,0.4-2,0.7-2.9c0.3-0.9,0.8-1.9,1.4-2.7c0.6-0.8,1.3-1.5,2.2-2.1L439.3,329.4z"/>
	<path class="st12" d="M449.9,325.7c0.9-2,1.6-4.1,2.1-6.2c0.5-2.1,0.7-4.4,0.2-6.5c-0.2-1-0.6-2.1-1.3-2.9
		c-0.6-0.8-1.5-1.5-2.4-1.9c-0.9-0.4-2-0.5-3-0.4c-1,0.1-2.1,0.5-3.1,0.8c-2,0.8-4.1,1.7-6.2,2.5c-1,0.4-2.1,0.7-3.2,1
		c-1.1,0.3-2.2,0.6-3.3,0.7c-2.2,0.4-4.5,0.5-6.8,0.3c-1.1-0.1-2.3-0.2-3.4-0.4c-0.6-0.1-1.1-0.1-1.7-0.2l-1.7-0.3
		c-2.2-0.4-4.4-1-6.5-1.9l-0.8-0.4c-0.3-0.1-0.5-0.3-0.8-0.4c-0.5-0.3-1-0.7-1.4-0.9c-0.1-0.1-0.2-0.1-0.3-0.2
		c-0.1,0-0.2-0.1-0.3-0.1c-0.1,0-0.2-0.1-0.2-0.1c-0.1,0-0.2,0-0.3,0c-0.1,0-0.2,0-0.3,0c-0.1,0-0.2,0-0.3,0c-0.2,0-0.5,0.1-0.7,0.1
		c-1.8,0.4-3.3,2-4.2,3.7c-0.5,0.9-0.8,1.8-0.8,2.7c0,0.4,0.1,0.8,0.2,0.9c0,0,0,0,0.1,0.1c0,0,0,0,0.1,0.1l0.3,0.2
		c0,0,0.1,0.1,0.1,0.1l0.2,0.1l0.3,0.2c0.9,0.5,1.9,0.9,2.9,1.3c1,0.4,2,0.8,3.1,1.2c2.1,0.8,4.1,1.5,6.2,2.2c2.1,0.7,4.2,1.4,6.3,2
		c2.1,0.6,4.2,1.2,6.4,1.7l0,0.2c-4.4-0.5-8.8-1.4-13.1-2.5c-2.2-0.5-4.3-1.2-6.4-1.9c-1.1-0.3-2.1-0.7-3.2-1.1
		c-1.1-0.4-2.1-0.8-3.2-1.3l-0.4-0.2l-0.2-0.1c-0.1,0-0.1-0.1-0.2-0.1l-0.4-0.3c-0.1,0-0.2-0.1-0.2-0.2c-0.1-0.1-0.2-0.2-0.2-0.2
		c-0.3-0.3-0.5-0.7-0.5-1.1c-0.1-0.4-0.1-0.7-0.1-1.1c0-1.4,0.5-2.6,1-3.6c0.6-1.1,1.3-2,2.3-2.9c0.9-0.8,2.1-1.5,3.4-1.8
		c0.3-0.1,0.6-0.1,0.9-0.1c0.1,0,0.3,0,0.5,0c0.2,0,0.3,0,0.5,0c0.2,0,0.4,0.1,0.6,0.1c0.2,0,0.4,0.1,0.5,0.2
		c0.3,0.2,0.6,0.3,0.9,0.5c0.5,0.4,0.9,0.7,1.3,1c0.4,0.3,0.9,0.5,1.3,0.8c1.9,0.9,4,1.5,6.1,2l1.6,0.3c0.5,0.1,1.1,0.2,1.6,0.3
		c1.1,0.2,2.2,0.4,3.2,0.4c2.1,0.2,4.3,0.1,6.5-0.2c1.1-0.1,2.1-0.4,3.2-0.6c1.1-0.3,2.1-0.6,3.1-0.9c2.1-0.7,4.1-1.6,6.2-2.3
		c1.1-0.4,2.2-0.7,3.3-0.8c1.2-0.1,2.4,0,3.5,0.5c1.1,0.5,2,1.3,2.6,2.3c0.7,1,1.1,2.1,1.3,3.2c0.4,2.3,0.1,4.5-0.4,6.7
		c-0.5,2.2-1.3,4.3-2.3,6.2L449.9,325.7z"/>
</g>
<g id="Calque_132_-_copie">
	<path d="M404.9,340.4c-4.4,0-8-3.6-8-8v-18h16v18C412.9,336.8,409.3,340.4,404.9,340.4z M398.9,316.4v16c0,3.3,2.7,6,6,6s6-2.7,6-6
		v-16H398.9z"/>
</g>
<g id="Calque_133_-_copie">
	<path class="st14" d="M404.9,339.4L404.9,339.4c-3.9,0-7-3.1-7-7v-17h14v17C411.9,336.3,408.7,339.4,404.9,339.4z"/>
</g>
<g>
	<path d="M530,171.4H278c-0.5,0-1-0.4-1-0.9c0-0.5,0.3-1,0.9-1.1l14.9-2c0,0,0.1,0,0.1,0h230.2c0.1,0,0.2,0,0.3,0l6.9,2
		c0.5,0.1,0.8,0.6,0.7,1.1C530.9,171,530.5,171.4,530,171.4z M292.9,169.4h230H292.9z"/>
	<rect x="278" y="171" class="st12" width="252.9" height="144.1"/>
	<path d="M529.9,172v142.1H279V172H529.9 M531.9,170H277v146.1h254.9V170L531.9,170z"/>
	<rect x="286.5" y="178.6" class="st0" width="237.3" height="128.9"/>
	<path d="M522.8,179.6v126.9H287.5V179.6H522.8 M524.8,177.6H285.5v130.9h239.3V177.6L524.8,177.6z"/>
	<rect x="527.4" y="165.8" transform="matrix(0.3095 -0.9509 0.9509 0.3095 203.5995 619.5319)" width="2" height="7.6"/>
	<rect x="285.1" y="167.4" width="239.7" height="2"/>
	<ellipse class="st14" cx="405" cy="339.9" rx="28" ry="4.5"/>
	<path d="M405,345.4c-1.2,0-29-0.1-29-5.5s27.8-5.5,29-5.5s29,0.1,29,5.5S406.2,345.4,405,345.4z M378,339.9c1,1.3,10.5,3.5,27,3.5
		s26-2.2,27-3.5c-1-1.3-10.5-3.5-27-3.5S379,338.6,378,339.9z"/>
	<path d="M405.5,355.4c-10.6,0-20.5-0.5-28-1.3c-12.5-1.4-12.5-3.2-12.5-4.2s0-2.8,12.5-4.2c7.5-0.9,17.5-1.3,28-1.3
		s20.5,0.5,28,1.3c12.5,1.4,12.5,3.2,12.5,4.2s0,2.8-12.5,4.2C426,354.9,416.1,355.4,405.5,355.4z M367.2,349.9
		c2.2,1.5,16.3,3.5,38.3,3.5s36.1-2,38.3-3.5c-2.2-1.5-16.3-3.5-38.3-3.5S369.4,348.4,367.2,349.9z"/>
	<path d="M444.1,350.8c-3.9-9.2-11.1-10.5-11.1-10.5l0.3-2c0.3,0.1,8.3,1.4,12.7,11.7L444.1,350.8z"/>
	<path class="st14" d="M445,351.4c0,0-4-11-12-11c-6,2-26,5-26,5l-3,10l15-1L445,351.4z"/>
	<path d="M402.6,356.5l3.6-12l0.6-0.1c0.2,0,20-3,25.8-5l0.2-0.1h0.2c8.6,0,12.8,11.2,12.9,11.7l0.4,1.2l-27.3,3.1L402.6,356.5z
		 M407.8,346.3l-2.4,8l13.6-0.9l24.6-2.8c-1.2-2.7-4.8-9-10.4-9.2C427.5,343.2,411.2,345.8,407.8,346.3z"/>
	<path class="st15" d="M289.9,193.4c-1.1,0-1.9-0.9-1.9-1.9v-6.2c0-1.1,0.9-1.9,1.9-1.9h223.2c1.1,0,1.9,0.9,1.9,1.9v6.2
		c0,1.1-0.9,1.9-1.9,1.9H289.9z"/>
	<path class="st16" d="M513.1,184.4c0.5,0,0.9,0.4,0.9,0.9v6.2c0,0.5-0.4,0.9-0.9,0.9H289.9c-0.5,0-0.9-0.4-0.9-0.9v-6.2
		c0-0.5,0.4-0.9,0.9-0.9H513.1 M513.1,182.4H289.9c-1.6,0-2.9,1.3-2.9,2.9v6.2c0,1.6,1.3,2.9,2.9,2.9h223.2c1.6,0,2.9-1.3,2.9-2.9
		v-6.2C516,183.7,514.7,182.4,513.1,182.4L513.1,182.4z"/>
	<rect x="288" y="193.4" class="st15" width="227" height="105"/>
	<path class="st16" d="M514,194.4v103H289v-103H514 M516,192.4H287v107h229V192.4L516,192.4z"/>
	<rect x="288" y="193.4" class="st17" width="194" height="105"/>
	<path class="st16" d="M481,194.4v103H289v-103H481 M483,192.4H287v107h196V192.4L483,192.4z"/>
	<circle class="st15" cx="500" cy="188.4" r="2.5"/>
	<path class="st16" d="M500,186.4c1.1,0,2,0.9,2,2s-0.9,2-2,2s-2-0.9-2-2S498.9,186.4,500,186.4 M500,185.4c-1.7,0-3,1.3-3,3
		s1.3,3,3,3s3-1.3,3-3S501.7,185.4,500,185.4L500,185.4z"/>
	<circle class="st15" cx="508" cy="188.4" r="2.5"/>
	<path class="st16" d="M508,186.4c1.1,0,2,0.9,2,2s-0.9,2-2,2s-2-0.9-2-2S506.9,186.4,508,186.4 M508,185.4c-1.7,0-3,1.3-3,3
		s1.3,3,3,3s3-1.3,3-3S509.7,185.4,508,185.4L508,185.4z"/>
	<polygon class="st18" points="401,306.4 523,222.4 523,306.4 	"/>
</g>
<g>
	<path d="M316.2,217.6l-7.6,18.8h-3.2l-7.6-18.8h2.8c0.3,0,0.6,0.1,0.7,0.2c0.2,0.1,0.3,0.3,0.4,0.6l4.4,11.5
		c0.1,0.4,0.3,0.8,0.4,1.2s0.3,0.9,0.4,1.4c0.1-0.5,0.2-1,0.3-1.4c0.1-0.4,0.3-0.9,0.4-1.2l4.4-11.5c0.1-0.2,0.2-0.4,0.4-0.5
		s0.5-0.2,0.7-0.2H316.2z"/>
	<path d="M321.5,222.8c1,0,1.9,0.2,2.7,0.5c0.8,0.3,1.5,0.8,2.1,1.4c0.6,0.6,1,1.3,1.3,2.2c0.3,0.8,0.5,1.8,0.5,2.8
		c0,1.1-0.2,2-0.5,2.9c-0.3,0.8-0.8,1.6-1.3,2.2c-0.6,0.6-1.3,1.1-2.1,1.4c-0.8,0.3-1.7,0.5-2.7,0.5c-1,0-1.9-0.2-2.7-0.5
		c-0.8-0.3-1.5-0.8-2.1-1.4c-0.6-0.6-1-1.3-1.3-2.2c-0.3-0.8-0.5-1.8-0.5-2.9c0-1,0.2-2,0.5-2.8c0.3-0.8,0.8-1.6,1.3-2.2
		c0.6-0.6,1.3-1,2.1-1.4C319.6,223,320.5,222.8,321.5,222.8z M321.5,234.1c1.1,0,1.9-0.4,2.5-1.1c0.5-0.7,0.8-1.8,0.8-3.3
		s-0.3-2.5-0.8-3.3c-0.5-0.8-1.4-1.1-2.5-1.1c-1.1,0-2,0.4-2.5,1.1c-0.5,0.8-0.8,1.9-0.8,3.3s0.3,2.5,0.8,3.3
		S320.4,234.1,321.5,234.1z"/>
	<path d="M342,223v13.3h-2c-0.4,0-0.7-0.2-0.8-0.6l-0.2-1.1c-0.5,0.6-1.1,1-1.8,1.3s-1.4,0.5-2.3,0.5c-0.7,0-1.4-0.1-1.9-0.4
		s-1-0.6-1.4-1s-0.7-1-0.9-1.6s-0.3-1.3-0.3-2V223h3.2v8.5c0,0.8,0.2,1.4,0.6,1.9c0.4,0.4,0.9,0.7,1.7,0.7c0.6,0,1.1-0.1,1.6-0.4
		s0.9-0.6,1.4-1V223H342z"/>
	<path d="M348.4,217.1v19.3h-3.2v-19.3H348.4z"/>
	<path d="M354.1,230.1c0.1,0.7,0.2,1.3,0.4,1.8c0.2,0.5,0.4,0.9,0.8,1.2c0.3,0.3,0.7,0.6,1.1,0.7c0.4,0.2,0.9,0.2,1.4,0.2
		s1-0.1,1.3-0.2c0.4-0.1,0.7-0.3,1-0.4s0.5-0.3,0.7-0.4c0.2-0.1,0.4-0.2,0.6-0.2c0.3,0,0.5,0.1,0.6,0.3l0.9,1.2
		c-0.4,0.4-0.8,0.8-1.2,1s-0.9,0.5-1.4,0.7s-1,0.3-1.5,0.4c-0.5,0.1-1,0.1-1.4,0.1c-0.9,0-1.8-0.2-2.6-0.5s-1.5-0.8-2.1-1.4
		s-1.1-1.3-1.4-2.2c-0.3-0.9-0.5-1.9-0.5-3.1c0-0.9,0.1-1.8,0.4-2.6c0.3-0.8,0.7-1.5,1.3-2.1c0.6-0.6,1.2-1.1,2-1.4s1.7-0.5,2.7-0.5
		c0.8,0,1.6,0.1,2.3,0.4c0.7,0.3,1.3,0.7,1.8,1.2c0.5,0.5,0.9,1.1,1.2,1.9s0.4,1.6,0.4,2.6c0,0.5-0.1,0.8-0.2,1s-0.3,0.3-0.6,0.3
		H354.1z M360.2,228.2c0-0.4-0.1-0.8-0.2-1.2c-0.1-0.4-0.3-0.7-0.5-1c-0.2-0.3-0.5-0.5-0.9-0.7c-0.4-0.2-0.8-0.2-1.3-0.2
		c-0.9,0-1.7,0.3-2.2,0.8c-0.5,0.5-0.9,1.3-1,2.2H360.2z"/>
	<path d="M375.1,224.4c0,0.2,0,0.4-0.1,0.7c-0.1,0.2-0.2,0.4-0.3,0.5l-6.3,8.3h6.6v2.5h-10.3V235c0-0.1,0-0.3,0.1-0.5
		c0.1-0.2,0.2-0.4,0.3-0.6l6.4-8.4H365V223h10.1V224.4z"/>
	<path d="M377.3,227.2h6.7v2.7h-6.7V227.2z"/>
	<path d="M399.1,223l-5.3,13.3h-2.9l-5.3-13.3h2.7c0.2,0,0.4,0.1,0.6,0.2c0.2,0.1,0.3,0.3,0.3,0.4l2.6,7.1c0.1,0.4,0.3,0.8,0.4,1.2
		c0.1,0.4,0.2,0.8,0.3,1.2c0.1-0.4,0.2-0.8,0.3-1.2c0.1-0.4,0.2-0.8,0.4-1.2l2.6-7.1c0.1-0.2,0.2-0.3,0.3-0.4
		c0.2-0.1,0.3-0.2,0.6-0.2H399.1z"/>
	<path d="M406.3,222.8c1,0,1.9,0.2,2.7,0.5c0.8,0.3,1.5,0.8,2.1,1.4c0.6,0.6,1,1.3,1.3,2.2c0.3,0.8,0.5,1.8,0.5,2.8
		c0,1.1-0.2,2-0.5,2.9c-0.3,0.8-0.8,1.6-1.3,2.2c-0.6,0.6-1.3,1.1-2.1,1.4c-0.8,0.3-1.7,0.5-2.7,0.5c-1,0-1.9-0.2-2.7-0.5
		c-0.8-0.3-1.5-0.8-2.1-1.4c-0.6-0.6-1-1.3-1.3-2.2c-0.3-0.8-0.5-1.8-0.5-2.9c0-1,0.2-2,0.5-2.8c0.3-0.8,0.8-1.6,1.3-2.2
		c0.6-0.6,1.3-1,2.1-1.4C404.4,223,405.3,222.8,406.3,222.8z M406.3,234.1c1.1,0,1.9-0.4,2.5-1.1c0.5-0.7,0.8-1.8,0.8-3.3
		s-0.3-2.5-0.8-3.3c-0.5-0.8-1.4-1.1-2.5-1.1c-1.1,0-2,0.4-2.5,1.1c-0.5,0.8-0.8,1.9-0.8,3.3s0.3,2.5,0.8,3.3
		S405.2,234.1,406.3,234.1z"/>
	<path d="M426.8,223v13.3h-2c-0.4,0-0.7-0.2-0.8-0.6l-0.2-1.1c-0.5,0.6-1.1,1-1.8,1.3s-1.4,0.5-2.3,0.5c-0.7,0-1.4-0.1-1.9-0.4
		s-1-0.6-1.4-1s-0.7-1-0.9-1.6s-0.3-1.3-0.3-2V223h3.2v8.5c0,0.8,0.2,1.4,0.6,1.9c0.4,0.4,0.9,0.7,1.7,0.7c0.6,0,1.1-0.1,1.6-0.4
		s0.9-0.6,1.4-1V223H426.8z"/>
	<path d="M438.1,225.6c-0.1,0.1-0.2,0.2-0.3,0.3c-0.1,0.1-0.2,0.1-0.4,0.1c-0.2,0-0.3,0-0.5-0.1c-0.2-0.1-0.4-0.2-0.6-0.3
		c-0.2-0.1-0.5-0.2-0.8-0.3c-0.3-0.1-0.7-0.1-1.1-0.1c-0.6,0-1.1,0.1-1.5,0.4c-0.4,0.3-0.5,0.6-0.5,1.1c0,0.3,0.1,0.5,0.3,0.7
		c0.2,0.2,0.4,0.4,0.7,0.5c0.3,0.1,0.7,0.3,1,0.4c0.4,0.1,0.8,0.2,1.2,0.4c0.4,0.1,0.8,0.3,1.2,0.5c0.4,0.2,0.7,0.4,1,0.7
		c0.3,0.3,0.6,0.6,0.7,1s0.3,0.8,0.3,1.4c0,0.6-0.1,1.2-0.3,1.8c-0.2,0.5-0.6,1-1,1.4s-1,0.7-1.7,0.9s-1.4,0.3-2.3,0.3
		c-0.5,0-0.9,0-1.3-0.1s-0.9-0.2-1.3-0.3c-0.4-0.1-0.8-0.3-1.1-0.5c-0.3-0.2-0.6-0.4-0.9-0.7l0.7-1.2c0.1-0.1,0.2-0.3,0.3-0.3
		c0.1-0.1,0.3-0.1,0.5-0.1s0.4,0.1,0.6,0.2c0.2,0.1,0.4,0.2,0.6,0.4c0.2,0.1,0.5,0.3,0.8,0.4s0.7,0.2,1.2,0.2c0.4,0,0.7,0,1-0.1
		c0.3-0.1,0.5-0.2,0.7-0.4c0.2-0.1,0.3-0.3,0.4-0.5c0.1-0.2,0.1-0.4,0.1-0.6c0-0.3-0.1-0.6-0.3-0.8c-0.2-0.2-0.4-0.4-0.7-0.5
		s-0.7-0.3-1.1-0.4c-0.4-0.1-0.8-0.2-1.2-0.4c-0.4-0.1-0.8-0.3-1.2-0.5c-0.4-0.2-0.7-0.4-1.1-0.7s-0.6-0.6-0.7-1.1
		c-0.2-0.4-0.3-0.9-0.3-1.5c0-0.5,0.1-1.1,0.3-1.6c0.2-0.5,0.5-0.9,1-1.3c0.4-0.4,0.9-0.7,1.6-0.9c0.6-0.2,1.4-0.3,2.2-0.3
		c0.9,0,1.8,0.2,2.5,0.5s1.4,0.7,1.9,1.2L438.1,225.6z"/>
	<path d="M299.6,267.6v-13.3h2c0.4,0,0.7,0.2,0.8,0.6l0.2,1c0.2-0.3,0.5-0.5,0.7-0.7c0.3-0.2,0.5-0.4,0.8-0.6
		c0.3-0.2,0.6-0.3,0.9-0.4c0.3-0.1,0.7-0.1,1.1-0.1c0.8,0,1.5,0.2,2.1,0.7c0.5,0.5,0.9,1.1,1.2,1.8c0.2-0.4,0.5-0.8,0.8-1.1
		s0.7-0.6,1-0.8s0.8-0.3,1.2-0.4c0.4-0.1,0.8-0.1,1.3-0.1c0.7,0,1.4,0.1,2,0.3c0.6,0.2,1.1,0.6,1.4,1c0.4,0.4,0.7,1,0.9,1.6
		c0.2,0.6,0.3,1.3,0.3,2.1v8.5h-3.2v-8.5c0-0.8-0.2-1.5-0.6-1.9c-0.4-0.4-0.9-0.6-1.6-0.6c-0.3,0-0.6,0.1-0.9,0.2
		c-0.3,0.1-0.5,0.3-0.7,0.5s-0.4,0.5-0.5,0.8c-0.1,0.3-0.2,0.7-0.2,1.1v8.5h-3.2v-8.5c0-0.9-0.2-1.5-0.5-2c-0.4-0.4-0.9-0.6-1.6-0.6
		c-0.5,0-0.9,0.1-1.3,0.3c-0.4,0.2-0.8,0.5-1.1,0.9v9.8H299.6z"/>
	<path d="M323.8,261.3c0.1,0.7,0.2,1.3,0.4,1.8c0.2,0.5,0.4,0.9,0.8,1.2c0.3,0.3,0.7,0.6,1.1,0.7c0.4,0.2,0.9,0.2,1.4,0.2
		s1-0.1,1.3-0.2c0.4-0.1,0.7-0.3,1-0.4s0.5-0.3,0.7-0.4c0.2-0.1,0.4-0.2,0.6-0.2c0.3,0,0.5,0.1,0.6,0.3l0.9,1.2
		c-0.4,0.4-0.8,0.8-1.2,1s-0.9,0.5-1.4,0.7s-1,0.3-1.5,0.4c-0.5,0.1-1,0.1-1.4,0.1c-0.9,0-1.8-0.2-2.6-0.5s-1.5-0.8-2.1-1.4
		s-1.1-1.3-1.4-2.2c-0.3-0.9-0.5-1.9-0.5-3.1c0-0.9,0.1-1.8,0.4-2.6c0.3-0.8,0.7-1.5,1.3-2.1c0.6-0.6,1.2-1.1,2-1.4s1.7-0.5,2.7-0.5
		c0.8,0,1.6,0.1,2.3,0.4c0.7,0.3,1.3,0.7,1.8,1.2c0.5,0.5,0.9,1.1,1.2,1.9s0.4,1.6,0.4,2.6c0,0.5-0.1,0.8-0.2,1s-0.3,0.3-0.6,0.3
		H323.8z M330,259.4c0-0.4-0.1-0.8-0.2-1.2c-0.1-0.4-0.3-0.7-0.5-1c-0.2-0.3-0.5-0.5-0.9-0.7c-0.4-0.2-0.8-0.2-1.3-0.2
		c-0.9,0-1.7,0.3-2.2,0.8c-0.5,0.5-0.9,1.3-1,2.2H330z"/>
	<path d="M351.1,257.1c-0.1,0.1-0.2,0.2-0.3,0.3c-0.1,0.1-0.2,0.1-0.4,0.1c-0.2,0-0.3,0-0.5-0.1c-0.2-0.1-0.3-0.2-0.6-0.3
		c-0.2-0.1-0.5-0.2-0.8-0.3c-0.3-0.1-0.7-0.1-1.1-0.1c-0.6,0-1.1,0.1-1.5,0.3c-0.4,0.2-0.8,0.5-1.1,0.9s-0.5,0.8-0.6,1.4
		c-0.1,0.5-0.2,1.2-0.2,1.8c0,0.7,0.1,1.3,0.2,1.9c0.2,0.6,0.4,1,0.7,1.4s0.6,0.7,1,0.9s0.9,0.3,1.4,0.3s0.9-0.1,1.2-0.2
		c0.3-0.1,0.6-0.3,0.8-0.4c0.2-0.2,0.4-0.3,0.6-0.4c0.2-0.1,0.3-0.2,0.5-0.2c0.3,0,0.5,0.1,0.6,0.3l0.9,1.2c-0.4,0.4-0.7,0.8-1.2,1
		s-0.8,0.5-1.3,0.7s-0.9,0.3-1.4,0.4c-0.5,0.1-0.9,0.1-1.4,0.1c-0.8,0-1.6-0.2-2.3-0.5s-1.4-0.8-1.9-1.3c-0.5-0.6-1-1.3-1.3-2.2
		c-0.3-0.9-0.5-1.8-0.5-2.9c0-1,0.1-1.9,0.4-2.7s0.7-1.6,1.2-2.2c0.5-0.6,1.2-1.1,2-1.4s1.7-0.5,2.8-0.5c1,0,1.9,0.2,2.6,0.5
		s1.4,0.8,2,1.4L351.1,257.1z"/>
	<path d="M359.8,254c1,0,1.9,0.2,2.7,0.5c0.8,0.3,1.5,0.8,2.1,1.4c0.6,0.6,1,1.3,1.3,2.2c0.3,0.8,0.5,1.8,0.5,2.8
		c0,1.1-0.2,2-0.5,2.9c-0.3,0.8-0.8,1.6-1.3,2.2c-0.6,0.6-1.3,1.1-2.1,1.4c-0.8,0.3-1.7,0.5-2.7,0.5c-1,0-1.9-0.2-2.7-0.5
		c-0.8-0.3-1.5-0.8-2.1-1.4c-0.6-0.6-1-1.3-1.3-2.2c-0.3-0.8-0.5-1.8-0.5-2.9c0-1,0.2-2,0.5-2.8c0.3-0.8,0.8-1.6,1.3-2.2
		c0.6-0.6,1.3-1,2.1-1.4C357.9,254.2,358.8,254,359.8,254z M359.8,265.3c1.1,0,1.9-0.4,2.5-1.1c0.5-0.7,0.8-1.8,0.8-3.3
		s-0.3-2.5-0.8-3.3c-0.5-0.8-1.4-1.1-2.5-1.1c-1.1,0-2,0.4-2.5,1.1c-0.5,0.8-0.8,1.9-0.8,3.3s0.3,2.5,0.8,3.3
		S358.6,265.3,359.8,265.3z"/>
	<path d="M371.8,255.9c0.3-0.3,0.6-0.5,0.9-0.7c0.3-0.2,0.6-0.4,0.9-0.6c0.3-0.2,0.7-0.3,1.1-0.4c0.4-0.1,0.8-0.1,1.2-0.1
		c0.7,0,1.4,0.1,1.9,0.4c0.6,0.2,1,0.6,1.4,1c0.4,0.4,0.7,1,0.9,1.6s0.3,1.3,0.3,2v8.5h-3.2v-8.5c0-0.8-0.2-1.4-0.6-1.9
		s-0.9-0.7-1.7-0.7c-0.6,0-1.1,0.1-1.6,0.4s-0.9,0.6-1.4,1v9.6h-3.2v-13.3h2c0.4,0,0.7,0.2,0.8,0.6L371.8,255.9z"/>
	<path d="M387.7,267.8c-1.2,0-2.1-0.3-2.7-1s-0.9-1.6-0.9-2.7v-7.4h-1.4c-0.2,0-0.3-0.1-0.4-0.2c-0.1-0.1-0.2-0.3-0.2-0.5v-1.3
		l2.1-0.4l0.7-3.6c0-0.2,0.1-0.3,0.2-0.4c0.1-0.1,0.3-0.1,0.5-0.1h1.7v4.2h3.6v2.3h-3.6v7.2c0,0.4,0.1,0.7,0.3,1s0.5,0.4,0.8,0.4
		c0.2,0,0.4,0,0.5-0.1c0.1,0,0.3-0.1,0.4-0.1c0.1-0.1,0.2-0.1,0.3-0.1c0.1,0,0.2-0.1,0.2-0.1c0.1,0,0.2,0,0.2,0.1
		c0.1,0,0.1,0.1,0.2,0.2l1,1.6c-0.5,0.4-1,0.7-1.6,0.9C389,267.7,388.4,267.8,387.7,267.8z"/>
	<path d="M392.6,256.1c1.5-1.4,3.4-2.1,5.5-2.1c0.8,0,1.5,0.1,2.1,0.4c0.6,0.3,1.1,0.6,1.6,1.1c0.4,0.5,0.7,1,1,1.6
		c0.2,0.6,0.3,1.3,0.3,2.1v8.4h-1.5c-0.3,0-0.5,0-0.7-0.1c-0.2-0.1-0.3-0.3-0.4-0.6l-0.3-1c-0.3,0.3-0.7,0.6-1,0.8
		c-0.3,0.2-0.7,0.4-1,0.6c-0.3,0.2-0.7,0.3-1.1,0.4c-0.4,0.1-0.8,0.1-1.3,0.1c-0.6,0-1.1-0.1-1.6-0.2s-0.9-0.4-1.2-0.7
		c-0.3-0.3-0.6-0.7-0.8-1.1c-0.2-0.5-0.3-1-0.3-1.6c0-0.3,0.1-0.7,0.2-1c0.1-0.3,0.3-0.7,0.6-1c0.3-0.3,0.6-0.6,1-0.9
		c0.4-0.3,0.9-0.5,1.5-0.7c0.6-0.2,1.3-0.4,2.1-0.5c0.8-0.1,1.7-0.2,2.7-0.2v-0.8c0-0.9-0.2-1.6-0.6-2c-0.4-0.4-0.9-0.6-1.7-0.6
		c-0.5,0-1,0.1-1.3,0.2c-0.3,0.1-0.6,0.3-0.9,0.4c-0.3,0.2-0.5,0.3-0.7,0.4c-0.2,0.1-0.4,0.2-0.7,0.2c-0.2,0-0.4-0.1-0.6-0.2
		c-0.2-0.1-0.3-0.3-0.4-0.4L392.6,256.1z M400,261.9c-0.9,0-1.7,0.1-2.3,0.2c-0.6,0.1-1.1,0.3-1.5,0.4c-0.4,0.2-0.7,0.4-0.8,0.6
		c-0.2,0.2-0.2,0.5-0.2,0.8c0,0.6,0.2,1,0.5,1.2c0.3,0.2,0.8,0.4,1.3,0.4c0.7,0,1.2-0.1,1.7-0.4s1-0.6,1.4-1.1V261.9z"/>
	<path d="M415.7,257.1c-0.1,0.1-0.2,0.2-0.3,0.3c-0.1,0.1-0.2,0.1-0.4,0.1c-0.2,0-0.3,0-0.5-0.1c-0.2-0.1-0.3-0.2-0.6-0.3
		c-0.2-0.1-0.5-0.2-0.8-0.3c-0.3-0.1-0.7-0.1-1.1-0.1c-0.6,0-1.1,0.1-1.5,0.3c-0.4,0.2-0.8,0.5-1.1,0.9s-0.5,0.8-0.6,1.4
		c-0.1,0.5-0.2,1.2-0.2,1.8c0,0.7,0.1,1.3,0.2,1.9c0.2,0.6,0.4,1,0.7,1.4s0.6,0.7,1,0.9s0.9,0.3,1.4,0.3s0.9-0.1,1.2-0.2
		c0.3-0.1,0.6-0.3,0.8-0.4c0.2-0.2,0.4-0.3,0.6-0.4c0.2-0.1,0.3-0.2,0.5-0.2c0.3,0,0.5,0.1,0.6,0.3l0.9,1.2c-0.4,0.4-0.7,0.8-1.2,1
		s-0.8,0.5-1.3,0.7s-0.9,0.3-1.4,0.4c-0.5,0.1-0.9,0.1-1.4,0.1c-0.8,0-1.6-0.2-2.3-0.5s-1.4-0.8-1.9-1.3c-0.5-0.6-1-1.3-1.3-2.2
		c-0.3-0.9-0.5-1.8-0.5-2.9c0-1,0.1-1.9,0.4-2.7s0.7-1.6,1.2-2.2c0.5-0.6,1.2-1.1,2-1.4s1.7-0.5,2.8-0.5c1,0,1.9,0.2,2.6,0.5
		s1.4,0.8,2,1.4L415.7,257.1z"/>
	<path d="M423.1,267.8c-1.2,0-2.1-0.3-2.7-1s-0.9-1.6-0.9-2.7v-7.4h-1.4c-0.2,0-0.3-0.1-0.4-0.2c-0.1-0.1-0.2-0.3-0.2-0.5v-1.3
		l2.1-0.4l0.7-3.6c0-0.2,0.1-0.3,0.2-0.4c0.1-0.1,0.3-0.1,0.5-0.1h1.7v4.2h3.6v2.3h-3.6v7.2c0,0.4,0.1,0.7,0.3,1s0.5,0.4,0.8,0.4
		c0.2,0,0.4,0,0.5-0.1c0.1,0,0.3-0.1,0.4-0.1c0.1-0.1,0.2-0.1,0.3-0.1c0.1,0,0.2-0.1,0.2-0.1c0.1,0,0.2,0,0.2,0.1
		c0.1,0,0.1,0.1,0.2,0.2l1,1.6c-0.5,0.4-1,0.7-1.6,0.9C424.4,267.7,423.8,267.8,423.1,267.8z"/>
	<path d="M430.7,261.3c0.1,0.7,0.2,1.3,0.4,1.8c0.2,0.5,0.4,0.9,0.8,1.2c0.3,0.3,0.7,0.6,1.1,0.7c0.4,0.2,0.9,0.2,1.4,0.2
		s1-0.1,1.3-0.2c0.4-0.1,0.7-0.3,1-0.4s0.5-0.3,0.7-0.4c0.2-0.1,0.4-0.2,0.6-0.2c0.3,0,0.5,0.1,0.6,0.3l0.9,1.2
		c-0.4,0.4-0.8,0.8-1.2,1s-0.9,0.5-1.4,0.7s-1,0.3-1.5,0.4c-0.5,0.1-1,0.1-1.4,0.1c-0.9,0-1.8-0.2-2.6-0.5s-1.5-0.8-2.1-1.4
		s-1.1-1.3-1.4-2.2c-0.3-0.9-0.5-1.9-0.5-3.1c0-0.9,0.1-1.8,0.4-2.6c0.3-0.8,0.7-1.5,1.3-2.1c0.6-0.6,1.2-1.1,2-1.4s1.7-0.5,2.7-0.5
		c0.8,0,1.6,0.1,2.3,0.4c0.7,0.3,1.3,0.7,1.8,1.2c0.5,0.5,0.9,1.1,1.2,1.9s0.4,1.6,0.4,2.6c0,0.5-0.1,0.8-0.2,1s-0.3,0.3-0.6,0.3
		H430.7z M436.8,259.4c0-0.4-0.1-0.8-0.2-1.2c-0.1-0.4-0.3-0.7-0.5-1c-0.2-0.3-0.5-0.5-0.9-0.7c-0.4-0.2-0.8-0.2-1.3-0.2
		c-0.9,0-1.7,0.3-2.2,0.8c-0.5,0.5-0.9,1.3-1,2.2H436.8z"/>
	<path d="M445.2,256.6c0.4-0.8,0.9-1.4,1.5-1.9c0.6-0.5,1.2-0.7,2-0.7c0.6,0,1.1,0.1,1.5,0.4l-0.2,2.4c0,0.2-0.1,0.3-0.2,0.3
		c-0.1,0.1-0.2,0.1-0.3,0.1c-0.1,0-0.3,0-0.6-0.1c-0.3,0-0.5-0.1-0.7-0.1c-0.4,0-0.7,0.1-0.9,0.2s-0.5,0.3-0.7,0.4
		c-0.2,0.2-0.4,0.4-0.6,0.7s-0.3,0.6-0.5,0.9v8.2h-3.2v-13.3h1.9c0.3,0,0.6,0.1,0.7,0.2c0.1,0.1,0.2,0.3,0.3,0.6L445.2,256.6z"/>
	<path d="M456.9,250.5c0.3-0.3,0.6-0.5,1-0.7s0.7-0.4,1.1-0.6s0.8-0.3,1.3-0.4s1-0.1,1.5-0.1c0.8,0,1.4,0.1,2.1,0.3s1.2,0.5,1.6,0.9
		c0.4,0.4,0.8,0.9,1,1.4c0.2,0.5,0.4,1.2,0.4,1.8c0,0.7-0.1,1.2-0.3,1.7c-0.2,0.5-0.4,0.9-0.7,1.3c-0.3,0.4-0.6,0.7-0.9,0.9
		c-0.3,0.3-0.7,0.5-1,0.7c-0.3,0.2-0.6,0.5-0.8,0.7c-0.2,0.2-0.4,0.5-0.4,0.7l-0.3,1.9h-2.2l-0.2-2.1c-0.1-0.4,0-0.8,0.2-1.1
		s0.4-0.6,0.7-0.8c0.3-0.3,0.6-0.5,0.9-0.7c0.3-0.2,0.7-0.5,1-0.8s0.6-0.6,0.8-0.9c0.2-0.4,0.3-0.8,0.3-1.3c0-0.3-0.1-0.6-0.2-0.8
		s-0.3-0.5-0.5-0.6c-0.2-0.2-0.5-0.3-0.7-0.4c-0.3-0.1-0.6-0.1-0.9-0.1c-0.5,0-0.9,0.1-1.3,0.2s-0.6,0.2-0.9,0.4
		c-0.2,0.1-0.4,0.3-0.6,0.4c-0.2,0.1-0.3,0.2-0.4,0.2c-0.3,0-0.5-0.1-0.7-0.4L456.9,250.5z M459.4,265.8c0-0.3,0-0.5,0.1-0.8
		c0.1-0.2,0.2-0.5,0.4-0.6c0.2-0.2,0.4-0.3,0.6-0.4s0.5-0.2,0.8-0.2s0.5,0.1,0.8,0.2c0.2,0.1,0.4,0.2,0.6,0.4
		c0.2,0.2,0.3,0.4,0.4,0.6c0.1,0.2,0.2,0.5,0.2,0.8c0,0.3-0.1,0.5-0.2,0.8c-0.1,0.2-0.2,0.4-0.4,0.6c-0.2,0.2-0.4,0.3-0.6,0.4
		c-0.2,0.1-0.5,0.1-0.8,0.1s-0.5-0.1-0.8-0.1c-0.2-0.1-0.5-0.2-0.6-0.4s-0.3-0.4-0.4-0.6C459.4,266.4,459.4,266.1,459.4,265.8z"/>
</g>
<g id="Calque_33_-_copie">
	<path class="st19" d="M197.4,361.7c-0.2,0-0.4-0.1-0.5-0.3c-0.1-0.2,0-0.4,0.2-0.6l21.8-16.4c0.1-0.1,0.2-0.1,0.3-0.1h187
		c0.1,0,0.1,0,0.2,0l34.1,13.6c0.2,0.1,0.3,0.3,0.3,0.6c0,0.2-0.2,0.4-0.5,0.4L197.4,361.7C197.4,361.7,197.4,361.7,197.4,361.7z
		 M219.4,345.3l-20.5,15.4l238.9-2.7l-31.7-12.7H219.4z"/>
	<path class="st19" d="M197.4,352.2c-0.2,0-0.4-0.1-0.5-0.3c-0.1-0.2,0-0.4,0.2-0.6l21.8-16.4c0.1-0.1,0.2-0.1,0.3-0.1h187
		c0.1,0,0.1,0,0.2,0l34.1,13.6c0.2,0.1,0.3,0.3,0.3,0.6c0,0.2-0.2,0.4-0.5,0.4L197.4,352.2C197.4,352.2,197.4,352.2,197.4,352.2z
		 M219.4,335.8l-20.5,15.4l238.9-2.7l-31.7-12.7H219.4z"/>
	<polygon class="st20" points="196.7,351 196.7,361.9 440.3,357.8 440.3,348.2 	"/>
	<polyline class="st21" points="311.8,343 311.8,337.6 302.2,337.6 302.2,339.7 	"/>
	<polygon class="st22" points="196,351.7 220.6,335.3 407.9,335.3 440.3,348.9 	"/>
	<g id="Calque_34_-_copie">
		<polygon class="st21" points="441,359.2 441,348.2 196,351.7 196.7,361.9 		"/>
		<path d="M196.7,362.4c-0.3,0-0.5-0.2-0.5-0.5l-0.7-10.2c0-0.1,0-0.3,0.1-0.4c0.1-0.1,0.2-0.2,0.4-0.2l245-3.4
			c0.1,0,0.3,0.1,0.4,0.1s0.1,0.2,0.1,0.4v10.9c0,0.3-0.2,0.5-0.5,0.5L196.7,362.4C196.7,362.4,196.7,362.4,196.7,362.4z
			 M196.5,352.2l0.6,9.2l243.4-2.7v-9.9L196.5,352.2z M441,359.2L441,359.2L441,359.2z"/>
		<path d="M196.7,351.5c-0.2,0-0.4-0.1-0.5-0.3c-0.1-0.2,0-0.4,0.2-0.6l23.2-16.4c0.1-0.1,0.2-0.1,0.3-0.1c0,0,0,0,0,0l186.3,0.7
			c0.1,0,0.1,0,0.2,0l34.8,13c0.2,0.1,0.4,0.3,0.3,0.6s-0.2,0.4-0.5,0.4L196.7,351.5C196.7,351.5,196.7,351.5,196.7,351.5z
			 M220,335.1l-21.8,15.4l240-2.7l-32.2-12L220,335.1z"/>
	</g>
	<polyline class="st21" points="404.8,338 404.8,332.6 395.3,332.6 395.3,334.7 	"/>
	<path d="M404.8,338.5c-0.3,0-0.5-0.2-0.5-0.5v-5h-8.6v1.7c0,0.3-0.2,0.5-0.5,0.5s-0.5-0.2-0.5-0.5v-2.2c0-0.3,0.2-0.5,0.5-0.5h9.6
		c0.3,0,0.5,0.2,0.5,0.5v5.5C405.3,338.3,405.1,338.5,404.8,338.5z"/>
	<polyline class="st21" points="408.9,340.7 408.9,335.3 399.4,335.3 399.4,337.5 	"/>
	<path d="M408.9,341.2c-0.3,0-0.5-0.2-0.5-0.5v-5h-8.6v1.7c0,0.3-0.2,0.5-0.5,0.5s-0.5-0.2-0.5-0.5v-2.2c0-0.3,0.2-0.5,0.5-0.5h9.6
		c0.3,0,0.5,0.2,0.5,0.5v5.5C409.4,341,409.2,341.2,408.9,341.2z"/>
	<polyline class="st21" points="414.4,343.5 414.4,338 404.8,338 404.8,340.2 	"/>
	<path d="M414.4,344c-0.3,0-0.5-0.2-0.5-0.5v-5h-8.6v1.7c0,0.3-0.2,0.5-0.5,0.5s-0.5-0.2-0.5-0.5V338c0-0.3,0.2-0.5,0.5-0.5h9.6
		c0.3,0,0.5,0.2,0.5,0.5v5.5C414.9,343.7,414.7,344,414.4,344z"/>
	<polyline class="st21" points="419.8,346.2 419.8,340.7 410.3,340.7 410.3,342.9 	"/>
	<path d="M419.8,346.7c-0.3,0-0.5-0.2-0.5-0.5v-5h-8.6v1.7c0,0.3-0.2,0.5-0.5,0.5s-0.5-0.2-0.5-0.5v-2.2c0-0.3,0.2-0.5,0.5-0.5h9.6
		c0.3,0,0.5,0.2,0.5,0.5v5.5C420.3,346.5,420.1,346.7,419.8,346.7z"/>
	<polyline class="st21" points="393.9,338 393.9,332.6 384.4,332.6 384.4,334.7 	"/>
	<path d="M393.9,338.5c-0.3,0-0.5-0.2-0.5-0.5v-5h-8.6v1.7c0,0.3-0.2,0.5-0.5,0.5s-0.5-0.2-0.5-0.5v-2.2c0-0.3,0.2-0.5,0.5-0.5h9.6
		c0.3,0,0.5,0.2,0.5,0.5v5.5C394.4,338.3,394.2,338.5,393.9,338.5z"/>
	<polyline class="st21" points="398,340.7 398,335.3 388.5,335.3 388.5,337.5 	"/>
	<path d="M398,341.2c-0.3,0-0.5-0.2-0.5-0.5v-5H389v1.7c0,0.3-0.2,0.5-0.5,0.5s-0.5-0.2-0.5-0.5v-2.2c0-0.3,0.2-0.5,0.5-0.5h9.6
		c0.3,0,0.5,0.2,0.5,0.5v5.5C398.5,341,398.3,341.2,398,341.2z"/>
	<polyline class="st21" points="403.5,343.5 403.5,338 393.9,338 393.9,340.2 	"/>
	<path d="M403.5,344c-0.3,0-0.5-0.2-0.5-0.5v-5h-8.6v1.7c0,0.3-0.2,0.5-0.5,0.5s-0.5-0.2-0.5-0.5V338c0-0.3,0.2-0.5,0.5-0.5h9.6
		c0.3,0,0.5,0.2,0.5,0.5v5.5C404,343.7,403.7,344,403.5,344z"/>
	<polyline class="st21" points="408.9,346.2 408.9,340.7 399.4,340.7 399.4,342.9 	"/>
	<path d="M408.9,346.7c-0.3,0-0.5-0.2-0.5-0.5v-5h-8.6v1.7c0,0.3-0.2,0.5-0.5,0.5s-0.5-0.2-0.5-0.5v-2.2c0-0.3,0.2-0.5,0.5-0.5h9.6
		c0.3,0,0.5,0.2,0.5,0.5v5.5C409.4,346.5,409.2,346.7,408.9,346.7z"/>
	<polyline class="st21" points="383,338 383,332.6 373.4,332.6 373.4,334.7 	"/>
	<path d="M383,338.5c-0.3,0-0.5-0.2-0.5-0.5v-5h-8.6v1.7c0,0.3-0.2,0.5-0.5,0.5c-0.3,0-0.5-0.2-0.5-0.5v-2.2c0-0.3,0.2-0.5,0.5-0.5
		h9.6c0.3,0,0.5,0.2,0.5,0.5v5.5C383.5,338.3,383.3,338.5,383,338.5z"/>
	<polyline class="st21" points="387.1,340.7 387.1,335.3 377.5,335.3 377.5,337.5 	"/>
	<path d="M387.1,341.2c-0.3,0-0.5-0.2-0.5-0.5v-5H378v1.7c0,0.3-0.2,0.5-0.5,0.5s-0.5-0.2-0.5-0.5v-2.2c0-0.3,0.2-0.5,0.5-0.5h9.6
		c0.3,0,0.5,0.2,0.5,0.5v5.5C387.6,341,387.4,341.2,387.1,341.2z"/>
	<polyline class="st21" points="392.5,343.5 392.5,338 383,338 383,340.2 	"/>
	<path d="M392.5,344c-0.3,0-0.5-0.2-0.5-0.5v-5h-8.6v1.7c0,0.3-0.2,0.5-0.5,0.5s-0.5-0.2-0.5-0.5V338c0-0.3,0.2-0.5,0.5-0.5h9.6
		c0.3,0,0.5,0.2,0.5,0.5v5.5C393,343.7,392.8,344,392.5,344z"/>
	<polyline class="st21" points="398,346.2 398,340.7 388.5,340.7 388.5,342.9 	"/>
	<path d="M398,346.7c-0.3,0-0.5-0.2-0.5-0.5v-5H389v1.7c0,0.3-0.2,0.5-0.5,0.5s-0.5-0.2-0.5-0.5v-2.2c0-0.3,0.2-0.5,0.5-0.5h9.6
		c0.3,0,0.5,0.2,0.5,0.5v5.5C398.5,346.5,398.3,346.7,398,346.7z"/>
	<polyline class="st21" points="372.1,338 372.1,332.6 362.5,332.6 362.5,334.7 	"/>
	<path d="M372.1,338.5c-0.3,0-0.5-0.2-0.5-0.5v-5H363v1.7c0,0.3-0.2,0.5-0.5,0.5s-0.5-0.2-0.5-0.5v-2.2c0-0.3,0.2-0.5,0.5-0.5h9.6
		c0.3,0,0.5,0.2,0.5,0.5v5.5C372.6,338.3,372.3,338.5,372.1,338.5z"/>
	<polyline class="st21" points="376.2,340.7 376.2,335.3 366.6,335.3 366.6,337.5 	"/>
	<path d="M376.2,341.2c-0.3,0-0.5-0.2-0.5-0.5v-5h-8.6v1.7c0,0.3-0.2,0.5-0.5,0.5s-0.5-0.2-0.5-0.5v-2.2c0-0.3,0.2-0.5,0.5-0.5h9.6
		c0.3,0,0.5,0.2,0.5,0.5v5.5C376.7,341,376.4,341.2,376.2,341.2z"/>
	<polyline class="st21" points="381.6,343.5 381.6,338 372.1,338 372.1,340.2 	"/>
	<path d="M381.6,344c-0.3,0-0.5-0.2-0.5-0.5v-5h-8.6v1.7c0,0.3-0.2,0.5-0.5,0.5s-0.5-0.2-0.5-0.5V338c0-0.3,0.2-0.5,0.5-0.5h9.6
		c0.3,0,0.5,0.2,0.5,0.5v5.5C382.1,343.7,381.9,344,381.6,344z"/>
	<polyline class="st21" points="387.1,346.2 387.1,340.7 377.5,340.7 377.5,342.9 	"/>
	<path d="M387.1,346.7c-0.3,0-0.5-0.2-0.5-0.5v-5H378v1.7c0,0.3-0.2,0.5-0.5,0.5s-0.5-0.2-0.5-0.5v-2.2c0-0.3,0.2-0.5,0.5-0.5h9.6
		c0.3,0,0.5,0.2,0.5,0.5v5.5C387.6,346.5,387.4,346.7,387.1,346.7z"/>
	<polyline class="st21" points="361.2,338 361.2,332.6 351.6,332.6 351.6,334.7 	"/>
	<path d="M361.2,338.5c-0.3,0-0.5-0.2-0.5-0.5v-5h-8.6v1.7c0,0.3-0.2,0.5-0.5,0.5s-0.5-0.2-0.5-0.5v-2.2c0-0.3,0.2-0.5,0.5-0.5h9.6
		c0.3,0,0.5,0.2,0.5,0.5v5.5C361.7,338.3,361.4,338.5,361.2,338.5z"/>
	<polyline class="st21" points="365.2,340.7 365.2,335.3 355.7,335.3 355.7,337.5 	"/>
	<path d="M365.2,341.2c-0.3,0-0.5-0.2-0.5-0.5v-5h-8.6v1.7c0,0.3-0.2,0.5-0.5,0.5s-0.5-0.2-0.5-0.5v-2.2c0-0.3,0.2-0.5,0.5-0.5h9.6
		c0.3,0,0.5,0.2,0.5,0.5v5.5C365.7,341,365.5,341.2,365.2,341.2z"/>
	<polyline class="st21" points="370.7,343.5 370.7,338 361.2,338 361.2,340.2 	"/>
	<path d="M370.7,344c-0.3,0-0.5-0.2-0.5-0.5v-5h-8.6v1.7c0,0.3-0.2,0.5-0.5,0.5s-0.5-0.2-0.5-0.5V338c0-0.3,0.2-0.5,0.5-0.5h9.6
		c0.3,0,0.5,0.2,0.5,0.5v5.5C371.2,343.7,371,344,370.7,344z"/>
	<polyline class="st21" points="376.2,346.2 376.2,340.7 366.6,340.7 366.6,342.9 	"/>
	<path d="M376.2,346.7c-0.3,0-0.5-0.2-0.5-0.5v-5h-8.6v1.7c0,0.3-0.2,0.5-0.5,0.5s-0.5-0.2-0.5-0.5v-2.2c0-0.3,0.2-0.5,0.5-0.5h9.6
		c0.3,0,0.5,0.2,0.5,0.5v5.5C376.7,346.5,376.4,346.7,376.2,346.7z"/>
	<polyline class="st21" points="350.2,338 350.2,332.6 340.7,332.6 340.7,334.7 	"/>
	<path d="M350.2,338.5c-0.3,0-0.5-0.2-0.5-0.5v-5h-8.6v1.7c0,0.3-0.2,0.5-0.5,0.5s-0.5-0.2-0.5-0.5v-2.2c0-0.3,0.2-0.5,0.5-0.5h9.6
		c0.3,0,0.5,0.2,0.5,0.5v5.5C350.7,338.3,350.5,338.5,350.2,338.5z"/>
	<polyline class="st21" points="354.3,340.7 354.3,335.3 344.8,335.3 344.8,337.5 	"/>
	<path d="M354.3,341.2c-0.3,0-0.5-0.2-0.5-0.5v-5h-8.6v1.7c0,0.3-0.2,0.5-0.5,0.5s-0.5-0.2-0.5-0.5v-2.2c0-0.3,0.2-0.5,0.5-0.5h9.6
		c0.3,0,0.5,0.2,0.5,0.5v5.5C354.8,341,354.6,341.2,354.3,341.2z"/>
	<polyline class="st21" points="359.8,343.5 359.8,338 350.2,338 350.2,340.2 	"/>
	<path d="M359.8,344c-0.3,0-0.5-0.2-0.5-0.5v-5h-8.6v1.7c0,0.3-0.2,0.5-0.5,0.5s-0.5-0.2-0.5-0.5V338c0-0.3,0.2-0.5,0.5-0.5h9.6
		c0.3,0,0.5,0.2,0.5,0.5v5.5C360.3,343.7,360.1,344,359.8,344z"/>
	<polyline class="st21" points="365.2,346.2 365.2,340.7 355.7,340.7 355.7,342.9 	"/>
	<path d="M365.2,346.7c-0.3,0-0.5-0.2-0.5-0.5v-5h-8.6v1.7c0,0.3-0.2,0.5-0.5,0.5s-0.5-0.2-0.5-0.5v-2.2c0-0.3,0.2-0.5,0.5-0.5h9.6
		c0.3,0,0.5,0.2,0.5,0.5v5.5C365.7,346.5,365.5,346.7,365.2,346.7z"/>
	<polyline class="st21" points="339.3,338 339.3,332.6 329.8,332.6 329.8,334.7 	"/>
	<path d="M339.3,338.5c-0.3,0-0.5-0.2-0.5-0.5v-5h-8.6v1.7c0,0.3-0.2,0.5-0.5,0.5s-0.5-0.2-0.5-0.5v-2.2c0-0.3,0.2-0.5,0.5-0.5h9.6
		c0.3,0,0.5,0.2,0.5,0.5v5.5C339.8,338.3,339.6,338.5,339.3,338.5z"/>
	<polyline class="st21" points="343.4,340.7 343.4,335.3 333.9,335.3 333.9,337.5 	"/>
	<path d="M343.4,341.2c-0.3,0-0.5-0.2-0.5-0.5v-5h-8.6v1.7c0,0.3-0.2,0.5-0.5,0.5s-0.5-0.2-0.5-0.5v-2.2c0-0.3,0.2-0.5,0.5-0.5h9.6
		c0.3,0,0.5,0.2,0.5,0.5v5.5C343.9,341,343.7,341.2,343.4,341.2z"/>
	<polyline class="st21" points="348.9,343.5 348.9,338 339.3,338 339.3,340.2 	"/>
	<path d="M348.9,344c-0.3,0-0.5-0.2-0.5-0.5v-5h-8.6v1.7c0,0.3-0.2,0.5-0.5,0.5s-0.5-0.2-0.5-0.5V338c0-0.3,0.2-0.5,0.5-0.5h9.6
		c0.3,0,0.5,0.2,0.5,0.5v5.5C349.4,343.7,349.1,344,348.9,344z"/>
	<polyline class="st21" points="354.3,346.2 354.3,340.7 344.8,340.7 344.8,342.9 	"/>
	<path d="M354.3,346.7c-0.3,0-0.5-0.2-0.5-0.5v-5h-8.6v1.7c0,0.3-0.2,0.5-0.5,0.5s-0.5-0.2-0.5-0.5v-2.2c0-0.3,0.2-0.5,0.5-0.5h9.6
		c0.3,0,0.5,0.2,0.5,0.5v5.5C354.8,346.5,354.6,346.7,354.3,346.7z"/>
	<polyline class="st21" points="329.8,338 329.8,332.6 320.2,332.6 320.2,334.7 	"/>
	<path d="M329.8,338.5c-0.3,0-0.5-0.2-0.5-0.5v-5h-8.6v1.7c0,0.3-0.2,0.5-0.5,0.5s-0.5-0.2-0.5-0.5v-2.2c0-0.3,0.2-0.5,0.5-0.5h9.6
		c0.3,0,0.5,0.2,0.5,0.5v5.5C330.3,338.3,330,338.5,329.8,338.5z"/>
	<polyline class="st21" points="319.8,338 319.8,332.6 310.2,332.6 310.2,334.7 	"/>
	<path d="M319.8,338.5c-0.3,0-0.5-0.2-0.5-0.5v-5h-8.6v1.7c0,0.3-0.2,0.5-0.5,0.5s-0.5-0.2-0.5-0.5v-2.2c0-0.3,0.2-0.5,0.5-0.5h9.6
		c0.3,0,0.5,0.2,0.5,0.5v5.5C320.3,338.3,320,338.5,319.8,338.5z"/>
	<polyline class="st21" points="333.9,340.7 333.9,335.3 324.3,335.3 324.3,337.5 	"/>
	<path d="M333.9,341.2c-0.3,0-0.5-0.2-0.5-0.5v-5h-8.6v1.7c0,0.3-0.2,0.5-0.5,0.5s-0.5-0.2-0.5-0.5v-2.2c0-0.3,0.2-0.5,0.5-0.5h9.6
		c0.3,0,0.5,0.2,0.5,0.5v5.5C334.4,341,334.1,341.2,333.9,341.2z"/>
	<polyline class="st21" points="339.3,343.5 339.3,338 329.8,338 329.8,340.2 	"/>
	<path d="M339.3,344c-0.3,0-0.5-0.2-0.5-0.5v-5h-8.6v1.7c0,0.3-0.2,0.5-0.5,0.5s-0.5-0.2-0.5-0.5V338c0-0.3,0.2-0.5,0.5-0.5h9.6
		c0.3,0,0.5,0.2,0.5,0.5v5.5C339.8,343.7,339.6,344,339.3,344z"/>
	<polyline class="st21" points="344.8,346.2 344.8,340.7 335.2,340.7 335.2,342.9 	"/>
	<path d="M344.8,346.7c-0.3,0-0.5-0.2-0.5-0.5v-5h-8.6v1.7c0,0.3-0.2,0.5-0.5,0.5s-0.5-0.2-0.5-0.5v-2.2c0-0.3,0.2-0.5,0.5-0.5h9.6
		c0.3,0,0.5,0.2,0.5,0.5v5.5C345.3,346.5,345.1,346.7,344.8,346.7z"/>
	<polyline class="st21" points="226,338 226,332.6 235.6,332.6 235.6,334.7 	"/>
	<path d="M226,338.5c-0.3,0-0.5-0.2-0.5-0.5v-5.5c0-0.3,0.2-0.5,0.5-0.5h9.6c0.3,0,0.5,0.2,0.5,0.5v2.2c0,0.3-0.2,0.5-0.5,0.5
		s-0.5-0.2-0.5-0.5v-1.7h-8.6v5C226.5,338.3,226.3,338.5,226,338.5z"/>
	<polyline class="st21" points="221.9,340.7 221.9,335.3 231.5,335.3 231.5,337.5 	"/>
	<path d="M221.9,341.2c-0.3,0-0.5-0.2-0.5-0.5v-5.5c0-0.3,0.2-0.5,0.5-0.5h9.6c0.3,0,0.5,0.2,0.5,0.5v2.2c0,0.3-0.2,0.5-0.5,0.5
		s-0.5-0.2-0.5-0.5v-1.7h-8.6v5C222.4,341,222.2,341.2,221.9,341.2z"/>
	<polyline class="st21" points="216.5,343.5 216.5,338 226,338 226,340.2 	"/>
	<path d="M216.5,344c-0.3,0-0.5-0.2-0.5-0.5V338c0-0.3,0.2-0.5,0.5-0.5h9.6c0.3,0,0.5,0.2,0.5,0.5v2.2c0,0.3-0.2,0.5-0.5,0.5
		s-0.5-0.2-0.5-0.5v-1.7H217v5C217,343.7,216.8,344,216.5,344z"/>
	<polyline class="st21" points="211,346.2 211,340.7 220.6,340.7 220.6,342.9 	"/>
	<path d="M211,346.7c-0.3,0-0.5-0.2-0.5-0.5v-5.5c0-0.3,0.2-0.5,0.5-0.5h9.6c0.3,0,0.5,0.2,0.5,0.5v2.2c0,0.3-0.2,0.5-0.5,0.5
		s-0.5-0.2-0.5-0.5v-1.7h-8.6v5C211.5,346.5,211.3,346.7,211,346.7z"/>
	<polyline class="st21" points="236.9,338 236.9,332.6 246.5,332.6 246.5,334.7 	"/>
	<path d="M236.9,338.5c-0.3,0-0.5-0.2-0.5-0.5v-5.5c0-0.3,0.2-0.5,0.5-0.5h9.6c0.3,0,0.5,0.2,0.5,0.5v2.2c0,0.3-0.2,0.5-0.5,0.5
		s-0.5-0.2-0.5-0.5v-1.7h-8.6v5C237.4,338.3,237.2,338.5,236.9,338.5z"/>
	<polyline class="st21" points="232.9,340.7 232.9,335.3 242.4,335.3 242.4,337.5 	"/>
	<path d="M232.9,341.2c-0.3,0-0.5-0.2-0.5-0.5v-5.5c0-0.3,0.2-0.5,0.5-0.5h9.6c0.3,0,0.5,0.2,0.5,0.5v2.2c0,0.3-0.2,0.5-0.5,0.5
		s-0.5-0.2-0.5-0.5v-1.7h-8.6v5C233.4,341,233.1,341.2,232.9,341.2z"/>
	<polyline class="st21" points="227.4,343.5 227.4,338 236.9,338 236.9,340.2 	"/>
	<path d="M227.4,344c-0.3,0-0.5-0.2-0.5-0.5V338c0-0.3,0.2-0.5,0.5-0.5h9.6c0.3,0,0.5,0.2,0.5,0.5v2.2c0,0.3-0.2,0.5-0.5,0.5
		s-0.5-0.2-0.5-0.5v-1.7h-8.6v5C227.9,343.7,227.7,344,227.4,344z"/>
	<polyline class="st21" points="221.9,346.2 221.9,340.7 231.5,340.7 231.5,342.9 	"/>
	<path d="M221.9,346.7c-0.3,0-0.5-0.2-0.5-0.5v-5.5c0-0.3,0.2-0.5,0.5-0.5h9.6c0.3,0,0.5,0.2,0.5,0.5v2.2c0,0.3-0.2,0.5-0.5,0.5
		s-0.5-0.2-0.5-0.5v-1.7h-8.6v5C222.4,346.5,222.2,346.7,221.9,346.7z"/>
	<polyline class="st21" points="247.9,338 247.9,332.6 257.4,332.6 257.4,334.7 	"/>
	<path d="M247.9,338.5c-0.3,0-0.5-0.2-0.5-0.5v-5.5c0-0.3,0.2-0.5,0.5-0.5h9.6c0.3,0,0.5,0.2,0.5,0.5v2.2c0,0.3-0.2,0.5-0.5,0.5
		s-0.5-0.2-0.5-0.5v-1.7h-8.6v5C248.4,338.3,248.1,338.5,247.9,338.5z"/>
	<polyline class="st21" points="243.8,340.7 243.8,335.3 253.3,335.3 253.3,337.5 	"/>
	<path d="M243.8,341.2c-0.3,0-0.5-0.2-0.5-0.5v-5.5c0-0.3,0.2-0.5,0.5-0.5h9.6c0.3,0,0.5,0.2,0.5,0.5v2.2c0,0.3-0.2,0.5-0.5,0.5
		s-0.5-0.2-0.5-0.5v-1.7h-8.6v5C244.3,341,244,341.2,243.8,341.2z"/>
	<polyline class="st21" points="238.3,343.5 238.3,338 247.9,338 247.9,340.2 	"/>
	<path d="M238.3,344c-0.3,0-0.5-0.2-0.5-0.5V338c0-0.3,0.2-0.5,0.5-0.5h9.6c0.3,0,0.5,0.2,0.5,0.5v2.2c0,0.3-0.2,0.5-0.5,0.5
		s-0.5-0.2-0.5-0.5v-1.7h-8.6v5C238.8,343.7,238.6,344,238.3,344z"/>
	<polyline class="st21" points="232.9,346.2 232.9,340.7 242.4,340.7 242.4,342.9 	"/>
	<path d="M232.9,346.7c-0.3,0-0.5-0.2-0.5-0.5v-5.5c0-0.3,0.2-0.5,0.5-0.5h9.6c0.3,0,0.5,0.2,0.5,0.5v2.2c0,0.3-0.2,0.5-0.5,0.5
		s-0.5-0.2-0.5-0.5v-1.7h-8.6v5C233.4,346.5,233.1,346.7,232.9,346.7z"/>
	<polyline class="st21" points="258.8,338 258.8,332.6 268.3,332.6 268.3,334.7 	"/>
	<path d="M258.8,338.5c-0.3,0-0.5-0.2-0.5-0.5v-5.5c0-0.3,0.2-0.5,0.5-0.5h9.6c0.3,0,0.5,0.2,0.5,0.5v2.2c0,0.3-0.2,0.5-0.5,0.5
		s-0.5-0.2-0.5-0.5v-1.7h-8.6v5C259.3,338.3,259.1,338.5,258.8,338.5z"/>
	<polyline class="st21" points="254.7,340.7 254.7,335.3 264.2,335.3 264.2,337.5 	"/>
	<path d="M254.7,341.2c-0.3,0-0.5-0.2-0.5-0.5v-5.5c0-0.3,0.2-0.5,0.5-0.5h9.6c0.3,0,0.5,0.2,0.5,0.5v2.2c0,0.3-0.2,0.5-0.5,0.5
		s-0.5-0.2-0.5-0.5v-1.7h-8.6v5C255.2,341,255,341.2,254.7,341.2z"/>
	<polyline class="st21" points="249.2,343.5 249.2,338 258.8,338 258.8,340.2 	"/>
	<path d="M249.2,344c-0.3,0-0.5-0.2-0.5-0.5V338c0-0.3,0.2-0.5,0.5-0.5h9.6c0.3,0,0.5,0.2,0.5,0.5v2.2c0,0.3-0.2,0.5-0.5,0.5
		s-0.5-0.2-0.5-0.5v-1.7h-8.6v5C249.7,343.7,249.5,344,249.2,344z"/>
	<polyline class="st21" points="243.8,346.2 243.8,340.7 253.3,340.7 253.3,342.9 	"/>
	<path d="M243.8,346.7c-0.3,0-0.5-0.2-0.5-0.5v-5.5c0-0.3,0.2-0.5,0.5-0.5h9.6c0.3,0,0.5,0.2,0.5,0.5v2.2c0,0.3-0.2,0.5-0.5,0.5
		s-0.5-0.2-0.5-0.5v-1.7h-8.6v5C244.3,346.5,244,346.7,243.8,346.7z"/>
	<polyline class="st21" points="269.7,338 269.7,332.6 279.3,332.6 279.3,334.7 	"/>
	<path d="M269.7,338.5c-0.3,0-0.5-0.2-0.5-0.5v-5.5c0-0.3,0.2-0.5,0.5-0.5h9.6c0.3,0,0.5,0.2,0.5,0.5v2.2c0,0.3-0.2,0.5-0.5,0.5
		s-0.5-0.2-0.5-0.5v-1.7h-8.6v5C270.2,338.3,270,338.5,269.7,338.5z"/>
	<polyline class="st21" points="265.6,340.7 265.6,335.3 275.2,335.3 275.2,337.5 	"/>
	<path d="M265.6,341.2c-0.3,0-0.5-0.2-0.5-0.5v-5.5c0-0.3,0.2-0.5,0.5-0.5h9.6c0.3,0,0.5,0.2,0.5,0.5v2.2c0,0.3-0.2,0.5-0.5,0.5
		s-0.5-0.2-0.5-0.5v-1.7h-8.6v5C266.1,341,265.9,341.2,265.6,341.2z"/>
	<polyline class="st21" points="260.2,343.5 260.2,338 269.7,338 269.7,340.2 	"/>
	<path d="M260.2,344c-0.3,0-0.5-0.2-0.5-0.5V338c0-0.3,0.2-0.5,0.5-0.5h9.6c0.3,0,0.5,0.2,0.5,0.5v2.2c0,0.3-0.2,0.5-0.5,0.5
		s-0.5-0.2-0.5-0.5v-1.7h-8.6v5C260.7,343.7,260.4,344,260.2,344z"/>
	<polyline class="st21" points="254.7,346.2 254.7,340.7 264.2,340.7 264.2,342.9 	"/>
	<path d="M254.7,346.7c-0.3,0-0.5-0.2-0.5-0.5v-5.5c0-0.3,0.2-0.5,0.5-0.5h9.6c0.3,0,0.5,0.2,0.5,0.5v2.2c0,0.3-0.2,0.5-0.5,0.5
		s-0.5-0.2-0.5-0.5v-1.7h-8.6v5C255.2,346.5,255,346.7,254.7,346.7z"/>
	<polyline class="st21" points="280.6,338 280.6,332.6 290.2,332.6 290.2,334.7 	"/>
	<path d="M280.6,338.5c-0.3,0-0.5-0.2-0.5-0.5v-5.5c0-0.3,0.2-0.5,0.5-0.5h9.6c0.3,0,0.5,0.2,0.5,0.5v2.2c0,0.3-0.2,0.5-0.5,0.5
		s-0.5-0.2-0.5-0.5v-1.7h-8.6v5C281.1,338.3,280.9,338.5,280.6,338.5z"/>
	<polyline class="st21" points="276.5,340.7 276.5,335.3 286.1,335.3 286.1,337.5 	"/>
	<path d="M276.5,341.2c-0.3,0-0.5-0.2-0.5-0.5v-5.5c0-0.3,0.2-0.5,0.5-0.5h9.6c0.3,0,0.5,0.2,0.5,0.5v2.2c0,0.3-0.2,0.5-0.5,0.5
		s-0.5-0.2-0.5-0.5v-1.7H277v5C277,341,276.8,341.2,276.5,341.2z"/>
	<polyline class="st21" points="271.1,343.5 271.1,338 280.6,338 280.6,340.2 	"/>
	<path d="M271.1,344c-0.3,0-0.5-0.2-0.5-0.5V338c0-0.3,0.2-0.5,0.5-0.5h9.6c0.3,0,0.5,0.2,0.5,0.5v2.2c0,0.3-0.2,0.5-0.5,0.5
		s-0.5-0.2-0.5-0.5v-1.7h-8.6v5C271.6,343.7,271.3,344,271.1,344z"/>
	<polyline class="st21" points="265.6,346.2 265.6,340.7 275.2,340.7 275.2,342.9 	"/>
	<path d="M265.6,346.7c-0.3,0-0.5-0.2-0.5-0.5v-5.5c0-0.3,0.2-0.5,0.5-0.5h9.6c0.3,0,0.5,0.2,0.5,0.5v2.2c0,0.3-0.2,0.5-0.5,0.5
		s-0.5-0.2-0.5-0.5v-1.7h-8.6v5C266.1,346.5,265.9,346.7,265.6,346.7z"/>
	<polyline class="st21" points="291.5,338 291.5,332.6 301.1,332.6 301.1,334.7 	"/>
	<path d="M291.5,338.5c-0.3,0-0.5-0.2-0.5-0.5v-5.5c0-0.3,0.2-0.5,0.5-0.5h9.6c0.3,0,0.5,0.2,0.5,0.5v2.2c0,0.3-0.2,0.5-0.5,0.5
		s-0.5-0.2-0.5-0.5v-1.7H292v5C292,338.3,291.8,338.5,291.5,338.5z"/>
	<polyline class="st21" points="287.4,340.7 287.4,335.3 297,335.3 297,337.5 	"/>
	<path d="M287.4,341.2c-0.3,0-0.5-0.2-0.5-0.5v-5.5c0-0.3,0.2-0.5,0.5-0.5h9.6c0.3,0,0.5,0.2,0.5,0.5v2.2c0,0.3-0.2,0.5-0.5,0.5
		s-0.5-0.2-0.5-0.5v-1.7h-8.6v5C287.9,341,287.7,341.2,287.4,341.2z"/>
	<polyline class="st21" points="282,343.5 282,338 291.5,338 291.5,340.2 	"/>
	<path d="M282,344c-0.3,0-0.5-0.2-0.5-0.5V338c0-0.3,0.2-0.5,0.5-0.5h9.6c0.3,0,0.5,0.2,0.5,0.5v2.2c0,0.3-0.2,0.5-0.5,0.5
		s-0.5-0.2-0.5-0.5v-1.7h-8.6v5C282.5,343.7,282.3,344,282,344z"/>
	<polyline class="st21" points="276.5,346.2 276.5,340.7 286.1,340.7 286.1,342.9 	"/>
	<path d="M276.5,346.7c-0.3,0-0.5-0.2-0.5-0.5v-5.5c0-0.3,0.2-0.5,0.5-0.5h9.6c0.3,0,0.5,0.2,0.5,0.5v2.2c0,0.3-0.2,0.5-0.5,0.5
		s-0.5-0.2-0.5-0.5v-1.7H277v5C277,346.5,276.8,346.7,276.5,346.7z"/>
	<polyline class="st21" points="301.1,338 301.1,332.6 310.7,332.6 310.7,334.7 	"/>
	<path d="M301.1,338.5c-0.3,0-0.5-0.2-0.5-0.5v-5.5c0-0.3,0.2-0.5,0.5-0.5h9.6c0.3,0,0.5,0.2,0.5,0.5v2.2c0,0.3-0.2,0.5-0.5,0.5
		s-0.5-0.2-0.5-0.5v-1.7h-8.6v5C301.6,338.3,301.4,338.5,301.1,338.5z"/>
	<polyline class="st21" points="297,340.7 297,335.3 306.6,335.3 306.6,337.5 	"/>
	<path d="M297,341.2c-0.3,0-0.5-0.2-0.5-0.5v-5.5c0-0.3,0.2-0.5,0.5-0.5h9.6c0.3,0,0.5,0.2,0.5,0.5v2.2c0,0.3-0.2,0.5-0.5,0.5
		s-0.5-0.2-0.5-0.5v-1.7h-8.6v5C297.5,341,297.3,341.2,297,341.2z"/>
	<polyline class="st21" points="291.5,343.5 291.5,338 301.1,338 301.1,340.2 	"/>
	<path d="M291.5,344c-0.3,0-0.5-0.2-0.5-0.5V338c0-0.3,0.2-0.5,0.5-0.5h9.6c0.3,0,0.5,0.2,0.5,0.5v2.2c0,0.3-0.2,0.5-0.5,0.5
		s-0.5-0.2-0.5-0.5v-1.7H292v5C292,343.7,291.8,344,291.5,344z"/>
	<polyline class="st21" points="286.1,346.2 286.1,340.7 295.6,340.7 295.6,342.9 	"/>
	<polyline class="st21" points="312.1,338 312.1,332.6 321.7,332.6 321.7,334.7 	"/>
	<path d="M312.1,338.5c-0.3,0-0.5-0.2-0.5-0.5v-5.5c0-0.3,0.2-0.5,0.5-0.5h9.6c0.3,0,0.5,0.2,0.5,0.5v2.2c0,0.3-0.2,0.5-0.5,0.5
		s-0.5-0.2-0.5-0.5v-1.7h-8.6v5C312.6,338.3,312.4,338.5,312.1,338.5z"/>
	<polyline class="st21" points="310,338.7 310,333.3 319.6,333.3 319.6,335.5 	"/>
	<path d="M310,339.2c-0.3,0-0.5-0.2-0.5-0.5v-5.5c0-0.3,0.2-0.5,0.5-0.5h9.6c0.3,0,0.5,0.2,0.5,0.5v2.2c0,0.3-0.2,0.5-0.5,0.5
		s-0.5-0.2-0.5-0.5v-1.7h-8.6v5C310.5,339,310.3,339.2,310,339.2z"/>
	<path d="M302.5,344c-0.3,0-0.5-0.2-0.5-0.5V338c0-0.3,0.2-0.5,0.5-0.5h9.6c0.3,0,0.5,0.2,0.5,0.5v2.2c0,0.3-0.2,0.5-0.5,0.5
		s-0.5-0.2-0.5-0.5v-1.7H303v5C303,343.7,302.8,344,302.5,344z"/>
	<polyline class="st21" points="297.1,346.2 297.1,340.7 306.6,340.7 306.6,342.9 	"/>
	<polyline class="st21" points="303.1,344.2 303.1,338.7 312.6,338.7 312.6,340.9 	"/>
	<path d="M297.1,346.7c-0.3,0-0.5-0.2-0.5-0.5v-5.5c0-0.3,0.2-0.5,0.5-0.5h9.6c0.3,0,0.5,0.2,0.5,0.5v2.2c0,0.3-0.2,0.5-0.5,0.5
		s-0.5-0.2-0.5-0.5v-1.7h-8.6v5C297.6,346.5,297.4,346.7,297.1,346.7z"/>
	<path d="M286.1,346.7c-0.3,0-0.5-0.2-0.5-0.5v-5.5c0-0.3,0.2-0.5,0.5-0.5h9.6c0.3,0,0.5,0.2,0.5,0.5v2.2c0,0.3-0.2,0.5-0.5,0.5
		s-0.5-0.2-0.5-0.5v-1.7h-8.6v5C286.6,346.5,286.4,346.7,286.1,346.7z"/>
	<polyline class="st21" points="319.8,341 319.8,335.6 310.2,335.6 310.2,337.7 	"/>
	<path d="M319.8,341.5c-0.3,0-0.5-0.2-0.5-0.5v-5h-8.6v1.7c0,0.3-0.2,0.5-0.5,0.5s-0.5-0.2-0.5-0.5v-2.2c0-0.3,0.2-0.5,0.5-0.5h9.6
		c0.3,0,0.5,0.2,0.5,0.5v5.5C320.3,341.3,320,341.5,319.8,341.5z"/>
	<polyline class="st21" points="332.8,347 332.8,341.6 323.2,341.6 323.2,343.7 	"/>
	<polyline class="st21" points="328.8,344 328.8,338.6 319.2,338.6 319.2,340.7 	"/>
	<polyline class="st21" points="325.8,341 325.8,335.6 316.2,335.6 316.2,337.7 	"/>
	<path d="M325.8,341.5c-0.3,0-0.5-0.2-0.5-0.5v-5h-8.6v1.7c0,0.3-0.2,0.5-0.5,0.5s-0.5-0.2-0.5-0.5v-2.2c0-0.3,0.2-0.5,0.5-0.5h9.6
		c0.3,0,0.5,0.2,0.5,0.5v5.5C326.3,341.3,326,341.5,325.8,341.5z"/>
	<path d="M328.8,344.5c-0.3,0-0.5-0.2-0.5-0.5v-5h-8.6v1.7c0,0.3-0.2,0.5-0.5,0.5s-0.5-0.2-0.5-0.5v-2.2c0-0.3,0.2-0.5,0.5-0.5h9.6
		c0.3,0,0.5,0.2,0.5,0.5v5.5C329.3,344.3,329,344.5,328.8,344.5z"/>
	<path d="M332.8,347.5c-0.3,0-0.5-0.2-0.5-0.5v-5h-8.6v1.7c0,0.3-0.2,0.5-0.5,0.5s-0.5-0.2-0.5-0.5v-2.2c0-0.3,0.2-0.5,0.5-0.5h9.6
		c0.3,0,0.5,0.2,0.5,0.5v5.5C333.3,347.3,333,347.5,332.8,347.5z"/>
	<polyline class="st21" points="319.8,344 319.8,338.6 310.2,338.6 310.2,340.7 	"/>
	<path d="M319.8,344.5c-0.3,0-0.5-0.2-0.5-0.5v-5h-8.6v1.7c0,0.3-0.2,0.5-0.5,0.5s-0.5-0.2-0.5-0.5v-2.2c0-0.3,0.2-0.5,0.5-0.5h9.6
		c0.3,0,0.5,0.2,0.5,0.5v5.5C320.3,344.3,320,344.5,319.8,344.5z"/>
	<polyline class="st21" points="319.8,347 319.8,341.6 310.2,341.6 310.2,343.7 	"/>
	<path d="M319.8,347.5c-0.3,0-0.5-0.2-0.5-0.5v-5h-8.6v1.7c0,0.3-0.2,0.5-0.5,0.5s-0.5-0.2-0.5-0.5v-2.2c0-0.3,0.2-0.5,0.5-0.5h9.6
		c0.3,0,0.5,0.2,0.5,0.5v5.5C320.3,347.3,320,347.5,319.8,347.5z"/>
</g>
<g id="Calque_36_-_copie">
	<rect x="463" y="356.4" class="st23" width="25.5" height="3.5"/>
	<path d="M488.5,360.4H463c-0.3,0-0.5-0.2-0.5-0.5v-3.5c0-0.3,0.2-0.5,0.5-0.5h25.5c0.3,0,0.5,0.2,0.5,0.5v3.5
		C489,360.2,488.8,360.4,488.5,360.4z M463.5,359.4H488v-2.5h-24.5V359.4z"/>
</g>
<g id="Calque_35_-_copie">
	<path class="st21" d="M462.5,359.9h26c0,0,1.5-8.5-10.7-11.5s-17.3-2.5-17.3-2.5S458.5,352.9,462.5,359.9z"/>
	<path d="M488.5,360.4h-26c-0.2,0-0.3-0.1-0.4-0.3c-4.1-7.1-2.1-14.1-2-14.4c0.1-0.2,0.2-0.3,0.4-0.4c0.2,0,5.4-0.5,17.5,2.5
		c12.5,3.1,11.1,12,11,12.1C489,360.2,488.7,360.4,488.5,360.4z M462.8,359.4h25.3c0.1-1.7-0.2-8-10.3-10.5
		c-10.2-2.5-15.5-2.6-16.8-2.5C460.6,347.8,459.6,353.6,462.8,359.4z"/>
	<path class="st21" d="M463.5,356.9h25c0,0-2.5-14.2-12.3-17.4c-9.8-3.3-14.7,3.8-14.7,3.8S456.5,349.9,463.5,356.9z"/>
	<path d="M488.5,357.4h-25c-0.1,0-0.3-0.1-0.4-0.1c-7.2-7.2-2.1-14.2-2-14.3c0-0.1,5.3-7.3,15.3-4c9.9,3.3,12.5,17.2,12.6,17.8
		c0,0.1,0,0.3-0.1,0.4C488.8,357.3,488.6,357.4,488.5,357.4z M463.7,356.4h24.2c-0.6-2.7-3.6-13.7-11.8-16.5
		c-9.3-3.1-14.1,3.6-14.2,3.6C461.7,343.8,457.3,349.9,463.7,356.4z"/>
	<path class="st21" d="M469.5,338.9c0,0,4,3,4,7"/>
	<path d="M473.5,346.4c-0.3,0-0.5-0.2-0.5-0.5c0-3.7-3.8-6.6-3.8-6.6c-0.2-0.2-0.3-0.5-0.1-0.7c0.2-0.2,0.5-0.3,0.7-0.1
		c0.2,0.1,4.2,3.2,4.2,7.4C474,346.2,473.8,346.4,473.5,346.4z"/>
</g>
<g>
	<polygon class="st12" points="672,154.4 648,145.4 549,145.4 573,154.4 	"/>
	<polygon class="st12" points="573,154.4 573,357.4 549,348.4 549,145.4 	"/>
	<path d="M672,358.4h-99c-0.6,0-1-0.4-1-1v-203c0-0.6,0.4-1,1-1h99c0.6,0,1,0.4,1,1v203C673,358,672.6,358.4,672,358.4z M574,356.4
		h97v-201h-97V356.4z"/>
	<path d="M648,349.4h-99c-0.6,0-1-0.4-1-1v-203c0-0.6,0.4-1,1-1h99c0.6,0,1,0.4,1,1v203C649,349,648.6,349.4,648,349.4z M550,347.4
		h97v-201h-97V347.4z"/>
	<path d="M573,155.4c-0.1,0-0.2,0-0.4-0.1l-24-9c-0.5-0.2-0.8-0.8-0.6-1.3c0.2-0.5,0.8-0.8,1.3-0.6l24,9c0.5,0.2,0.8,0.8,0.6,1.3
		C573.8,155.2,573.4,155.4,573,155.4z"/>
	<path d="M672,155.4c-0.1,0-0.2,0-0.4-0.1l-24-9c-0.5-0.2-0.8-0.8-0.6-1.3c0.2-0.5,0.8-0.8,1.3-0.6l24,9c0.5,0.2,0.8,0.8,0.6,1.3
		C672.8,155.2,672.4,155.4,672,155.4z"/>
	<polygon class="st24" points="549,145.4 549,348.4 573,357.4 573,154.4 	"/>
	<rect x="573" y="154.4" width="99" height="203"/>
	<path class="st25" d="M573,156.4c0,0-16.5,3.5-20.5,90.5S549,348.4,549,348.4l1-201L573,156.4z"/>
	<path class="st26" d="M655.5,185.4h-67c-5.2,0-9.5-4.3-9.5-9.5v-2c0-5.2,4.3-9.5,9.5-9.5h67c5.2,0,9.5,4.3,9.5,9.5v2
		C665,181.1,660.7,185.4,655.5,185.4z M588.5,166.4c-4.1,0-7.5,3.4-7.5,7.5v2c0,4.1,3.4,7.5,7.5,7.5h67c4.1,0,7.5-3.4,7.5-7.5v-2
		c0-4.1-3.4-7.5-7.5-7.5H588.5z"/>
	<path class="st26" d="M655.5,213.4h-67c-5.2,0-9.5-4.3-9.5-9.5v-2c0-5.2,4.3-9.5,9.5-9.5h67c5.2,0,9.5,4.3,9.5,9.5v2
		C665,209.1,660.7,213.4,655.5,213.4z M588.5,194.4c-4.1,0-7.5,3.4-7.5,7.5v2c0,4.1,3.4,7.5,7.5,7.5h67c4.1,0,7.5-3.4,7.5-7.5v-2
		c0-4.1-3.4-7.5-7.5-7.5H588.5z"/>
	<path class="st26" d="M663,288.4h-81c-0.6,0-1-0.4-1-1v-62c0-0.6,0.4-1,1-1h81c0.6,0,1,0.4,1,1v62C664,288,663.6,288.4,663,288.4z
		 M583,286.4h79v-60h-79V286.4z"/>
	<path class="st27" d="M622.9,334.6c-0.4,0-0.7-0.2-0.9-0.5l-10.7-18.5c-0.2-0.3-0.2-0.7,0-1s0.5-0.5,0.9-0.5h21.4
		c0.4,0,0.7,0.2,0.9,0.5s0.2,0.7,0,1l-10.7,18.5C623.6,334.4,623.2,334.6,622.9,334.6z M613.9,316.1l8.9,15.5l8.9-15.5H613.9z"/>
	<polygon class="st28" points="672,154.4 648,145.4 549,145.4 575,154.4 	"/>
</g>
<g id="Calque_113_-_copie">
	<path d="M573,358.4c-0.1,0-0.2,0-0.4-0.1l-24-9c-0.5-0.2-0.8-0.8-0.6-1.3c0.2-0.5,0.8-0.8,1.3-0.6l24,9c0.5,0.2,0.8,0.8,0.6,1.3
		C573.8,358.2,573.4,358.4,573,358.4z"/>
</g>
<g id="Calque_112_-_copie">
	<path d="M672,358.4c-0.1,0-0.2,0-0.4-0.1l-24-9c-0.5-0.2-0.8-0.8-0.6-1.3c0.2-0.5,0.8-0.8,1.3-0.6l24,9c0.5,0.2,0.8,0.8,0.6,1.3
		C672.8,358.2,672.4,358.4,672,358.4z"/>
</g>
<g>
	<path class="st29" d="M48,296.4v46c0,0-5,15-21,15h-6h7h-6c-16,0-21-15-21-15v-46"/>
	<path d="M28,358.4h-7c-0.1,0-0.2,0-0.2,0c-15.6-0.8-20.7-15.5-20.7-15.7c0-0.1-0.1-0.2-0.1-0.3v-46c0-0.6,0.4-1,1-1s1,0.4,1,1v45.8
		c0.6,1.6,5.6,14.2,20,14.2h5c14.4,0,19.4-12.6,20-14.2v-45.8c0-0.6,0.4-1,1-1s1,0.4,1,1v46c0,0.1,0,0.2-0.1,0.3
		c-0.1,0.2-5.1,14.9-20.7,15.7C28.2,358.4,28.1,358.4,28,358.4z"/>
	<ellipse class="st30" cx="24.5" cy="297.4" rx="23.5" ry="4"/>
	<path d="M24.5,302.4c-2.5,0-24.5-0.1-24.5-5s22-5,24.5-5s24.5,0.1,24.5,5S27,302.4,24.5,302.4z M2.1,297.4c1,1.1,8.4,3,22.4,3
		s21.5-1.9,22.4-3c-1-1.1-8.4-3-22.4-3S3,296.3,2.1,297.4z M47,297.5L47,297.5L47,297.5z"/>
	<path class="st31" d="M47,299.4c0,0-6,40-15,44s-30-1-30-1s4,15.4,25,14c15-1,20-14,20-14V299.4z"/>
</g>
<g id="Calque_27_-_copie">
	<path class="st32" d="M7,292.4c0,0-8.4-25,12.8-59s-1.6,9,9.8,37.5s8.4,28.5,8.4,28.5S9,307.4,7,292.4z"/>
</g>
</svg>
