<!-- Generator: Adobe Illustrator 22.0.0, SVG Export Plug-In  -->
<svg version="1.1"
	 xmlns="http://www.w3.org/2000/svg" xmlns:xlink="http://www.w3.org/1999/xlink" xmlns:a="http://ns.adobe.com/AdobeSVGViewerExtensions/3.0/"
	 x="0px" y="0px" width="768.7px" height="656.6px" viewBox="0 0 768.7 656.6"
	 style="overflow:scroll;enable-background:new 0 0 768.7 656.6;" xml:space="preserve">
<style type="text/css">
	.st0{fill:#FE0853;}
	.st1{fill:#08FDD8;}
</style>
<defs>
</defs>
<path class="st0" d="M591.7,428.6h150.1v-70H630l35.6-65H582l-35.5,65H386.5l-35.9-65h-83.6l35.8,65h-98.1v70h136.6l40.6,73.7
	c-23.8,9.8-49.6,14.9-77.9,14.9c-56.3,0-104.3-22.5-140.1-58.3c-36.8-36.8-59.3-84.9-59.3-141.2c0-54.2,22.5-103.3,59.3-140.1
	c36.8-36.8,85.9-59.3,140.1-59.3c31.7,0,62.4,7.2,91,22.5c28.6,15.3,52.2,34.8,70.6,60.3l84.9-61.4c-29.7-39.9-65.5-70.6-108.4-93.1
	C401,26.3,353.9,14,303.8,14C218.9,14,145.3,46.7,89,103C32.7,159.3,0,232.9,0,317.8s32.7,158.6,89,214.8
	c56.3,56.3,129.9,89,214.8,89c46.1,0,89-8.8,128.7-27.1l34.5,62.1l34.3-63.1L558.6,489c0.3-0.5,0.7-0.9,1-1.4l-0.3,0.2L591.7,428.6z
	 M508.3,428.6L467,504.4l-41.9-75.8H508.3z"/>
<path class="st1" d="M618.7,414.6h150.1v-70H657l35.6-65H609l-35.5,65H413.5l-35.9-65h-83.6l35.8,65h-98.1v70h136.6l40.6,73.7
	c-23.8,9.8-49.6,14.9-77.9,14.9c-56.3,0-104.3-22.5-140.1-58.3c-36.8-36.8-59.3-84.9-59.3-141.2c0-54.2,22.5-103.3,59.3-140.1
	c36.8-36.8,85.9-59.3,140.1-59.3c31.7,0,62.4,7.2,91,22.5c28.6,15.3,52.2,34.8,70.6,60.3l84.9-61.4c-29.7-39.9-65.5-70.6-108.4-93.1
	C428,12.3,380.9,0,330.8,0C245.9,0,172.3,32.7,116,89c-56.3,56.3-89,129.9-89,214.8s32.7,158.6,89,214.8
	c56.3,56.3,129.9,89,214.8,89c46.1,0,89-8.8,128.7-27.1l34.5,62.1l34.3-63.1L585.6,475c0.3-0.5,0.7-0.9,1-1.4l-0.3,0.2L618.7,414.6z
	 M535.3,414.6L494,490.4l-41.9-75.8H535.3z"/>
</svg>
