<svg xmlns="http://www.w3.org/2000/svg" xmlns:xlink="http://www.w3.org/1999/xlink" width="465" height="605.025" viewBox="0 0 465 605.025">
  <defs>
    <clipPath id="clip-path">
      <path id="Path_60" data-name="Path 60" d="M3229-2095s171,117,288,115,113-275,113-275l36-290-129-33-134-7-202,40,28,281Z" transform="translate(-2042 2783)" fill="none" stroke="#707070" stroke-width="1"/>
    </clipPath>
    <clipPath id="clip-path-2">
      <path id="Path_56" data-name="Path 56" d="M3196-2059s43,94,184,109c64,2,129-23,166-56s155-321,155-321l-72-283-384-19-127,346Z" transform="translate(-2042 2783)" fill="none" stroke="#707070" stroke-width="1"/>
    </clipPath>
  </defs>
  <g id="Mask_Group_2" data-name="Mask Group 2" transform="translate(-1159 -198)" clip-path="url(#clip-path)">
    <g id="Mask_Group_1" data-name="Mask Group 1" clip-path="url(#clip-path-2)">
      <g id="me3" transform="translate(1146.1 193.105)">
        <g id="Calque_2" transform="translate(131.187 511.685)">
          <path id="Path_1" data-name="Path 1" d="M348.135,804.7l16.857,32.514c11.49,28.41,16.1,55.116,17.235,81.064,0,0-70.583,20.834-115.977,17.993s-70.962-13.258-70.962-13.258L191.5,909.754l67.995-99.12Z" transform="translate(-191.5 -804.7)" fill="#8f1800"/>
        </g>
        <g id="Calque_3" transform="translate(94.317 71.832)">
          <path id="Path_2" data-name="Path 2" d="M199.39,311.417l-29.357,2.588-26.516-27.589L133.1,247.084l16.1-34.724,30.3,5.871,19.887,26.706L249.2,131.359,303.5,110.715,383.425,108l26.769,26.137,23.359,76.834L414.3,236.351l-3.914,42.742,3.914,34.913-3.914,17.3L370.735,382.19l-27.274,27.4L322,409.021,308.233,395.7,283.3,385.662l-5.051,34.6-72.856-9.975L179.5,367.48,210.439,331.3Z" transform="translate(-133.1 -108)" fill="#f89885"/>
        </g>
        <g id="Calque_4" transform="translate(28.026 12.008)">
          <path id="Path_3" data-name="Path 3" d="M28.1,803.949,74.5,684.058s10.417-31.567,48.3-45.141,61.555,7.26,61.555,7.26,26.137,22.286,9.281,63.7S178.8,786.335,178.8,786.335h-7.008L131.324,860.2S58.4,829.14,28.1,803.949Z" transform="translate(-28.1 -242.213)" fill="#f89885"/>
          <path id="Path_4" data-name="Path 4" d="M208.384,638.807S179.721,587.669,189.507,531.8c0,0,23.359-72.73,17.046-92.68s-13.889-38.638-56.5-31.693-53.1,5.682-77.718-16.415S53.9,309.755,53.9,309.755s25.127-63.26,24.685-89.208-.884-74.182-.884-74.182S75.361,111.894,113.62,76.6s79.99-33.4,79.99-33.4,23.233,10.543,53.285-17.93S323.287,27.8,323.287,27.8l22.728,34.345s18.056-12.311,30.367,0,20.266,43.562,20.266,43.562,6.818,47.792,27.842,59.409C417.609,181.025,404.1,198.7,404.1,198.7H385.6l7.955-31.062-8.649-12.564L362.43,91.249l-8.4-15.468S274.232,81.4,234.4,99.2l-37,54.737-16.73,35.923-7.892,44.32-3.535-17.93-8.46,2.841-15.847-24.5-12.879-7.513L108.38,198.7v33.208l11.3,20.9,16.352,17.741,24.685,8.334,9.154-2.4,16.1,25.38-16.1,44.32L189.76,371.31l57.073,14.079,20.518,11.3,21.339,29.736,12.627,41.984-1.01,37.88L288.69,534.7l-21.339,25.7-29.8,27.653-17.8,29.357Z" transform="translate(-37.355 -13.243)" fill="#c7a91e"/>
        </g>
        <g id="Calque_6" transform="translate(195.646 144.784)" opacity="0.67">
          <path id="Path_5" data-name="Path 5" d="M390.005,267.4l21.276-12.437a235.83,235.83,0,0,1-33.9-16.1c-16.857-9.533-23.865-12.69-32.388-14.647a29.755,29.755,0,0,0-18.119,1.831l-18.5,10.228L293.6,250.414l5.114,8.144,17.235-12.816,13.195-3.977,26.895,8.776Z" transform="translate(-293.6 -223.552)" opacity="0.43"/>
          <path id="Path_6" data-name="Path 6" d="M544.457,274.282s10.164,1.073,12.185-8.207L545.467,263.3l-5.808-6.692-1.578-2.9-11.869,2.9-9.786,6.187L508.66,272.2l-2.9,5.114L500.2,285.9l.821,8.649s2.967,1.452,7.576-5.24,15.341-21.529,15.341-21.529l10.165-2.02Z" transform="translate(-369.766 -234.666)" opacity="0.43"/>
          <path id="Path_7" data-name="Path 7" d="M310.364,313.341s17.172,16.352,24.117,18.056a68.3,68.3,0,0,0,12.564,1.894l4.924-17.551-2.462-17.551,8.523,2.715,13.132,4.293,4.167-.821,5.745-4.924-18.5-8.586-13.069-6.882s-6.629-3.6-27.147,3.725S299,295.032,299,295.032Z" transform="translate(-295.591 -245.505)" opacity="0.43"/>
          <path id="Path_8" data-name="Path 8" d="M505.3,322.05a13.878,13.878,0,0,0,10.1,10.606c8.9,2.525,12.879,0,12.879,0l4.546-10.606,3.157-10.606v-6.187l6.313-2.4,6.818,7.26,2.336,1.263,9.786-3.977,3.536-5.808-9.849-.947-6-1.894-2.652-2.778-3.03-4.735-7.26-2.841-5.682,1.894-8.9,8.144-6.818,8.649-4.1,10.543Z" transform="translate(-371.646 -247.459)" opacity="0.43"/>
        </g>
        <g id="Calque_8" transform="translate(110.416 44.969)">
          <path id="Path_9" data-name="Path 9" d="M361.512,97.932s5.43-40.658-33.9-31S258.6,124.89,258.6,124.89s-52.085,81.064-65.154,77.654-14.016-10.417-14.016-10.417L158.6,213.846s19.13-12,30.3,6.882S208.1,243.14,208.1,243.14l3.788,10.354s2.841-37.186,10.859-53.159,52.654-79.99,52.654-79.99S352.736,99.195,361.512,97.932Z" transform="translate(-158.6 -65.449)" opacity="0.09"/>
          <path id="Path_10" data-name="Path 10" d="M221.577,431.083s-13.7,22.412-2.462,45.519,11.3,27.653,11.3,27.653l10.1-50.065-10.1-27.589Z" transform="translate(-179.277 -198.592)" opacity="0.09"/>
          <path id="Path_11" data-name="Path 11" d="M585.508,254.3l24.117,18.182-12.059,18.435L578.5,298.872Z" transform="translate(-313.402 -135.072)" opacity="0.09"/>
        </g>
        <g id="Calque_7" transform="translate(293.63 294.763)">
          <path id="Path_12" data-name="Path 12" d="M475,480.8s5.935-10.606,4.482-15.973c-1.515-5.366-5.935-3.346-5.935-3.346l-12.122,1.957s-4.609,9.533-7.765,11.49-4.861,7.387-4.861,7.387,7.513-3.472,11.112-3.346a46.353,46.353,0,0,1,9.281,1.894H475Z" transform="translate(-448.8 -461.11)" opacity="0.05"/>
          <path id="Path_13" data-name="Path 13" d="M467.055,502.289l-6.755,9.281v5.3l8.523-7.26,5.808-9.912Z" transform="translate(-453.04 -475.336)" opacity="0.05"/>
        </g>
        <g id="Contours" transform="translate(27.9 9.895)">
          <g id="Group_72" data-name="Group 72">
            <g id="Group_30" data-name="Group 30" transform="translate(171.092 171.143)">
              <path id="Path_14" data-name="Path 14" d="M298.963,294.123a8.718,8.718,0,0,0,1.263-.189c.442-.126.884-.189,1.326-.316l2.652-.758c1.768-.568,3.472-1.136,5.177-1.768,3.472-1.2,6.882-2.525,10.291-3.851l5.114-2.02c1.7-.694,3.409-1.326,5.177-2.02a36.178,36.178,0,0,1,10.985-2.21,28.669,28.669,0,0,1,5.682.379,32.093,32.093,0,0,1,5.493,1.515,52.905,52.905,0,0,1,9.912,5.24c3.157,1.957,6.187,3.851,9.344,5.493a46.39,46.39,0,0,0,4.8,2.147,35.432,35.432,0,0,0,5.051,1.452l3.094.694-2.336,1.957c-.884.694-1.7,1.452-2.588,2.147a31.767,31.767,0,0,1-2.715,2.21,10.339,10.339,0,0,1-1.641,1.01,6.022,6.022,0,0,1-2.083.568,8.812,8.812,0,0,1-3.788-.821c-2.21-.884-4.167-1.957-6.187-2.967-2.02-1.073-4.041-2.083-6.061-3.157l.126-.316c2.21.631,4.356,1.389,6.5,2.147s4.293,1.578,6.377,2.273a6.8,6.8,0,0,0,2.841.379,4.012,4.012,0,0,0,1.136-.379,11.492,11.492,0,0,0,1.2-.884c1.578-1.389,3.22-3.03,4.924-4.609l.694,2.652a34.858,34.858,0,0,1-10.8-3.662,95.255,95.255,0,0,1-9.407-6,57.05,57.05,0,0,0-9.281-5.366,28.568,28.568,0,0,0-4.988-1.578,28.9,28.9,0,0,0-5.24-.505,38.031,38.031,0,0,0-10.543,1.768c-.884.316-1.7.568-2.589.884l-2.589.947-5.177,1.831c-3.472,1.2-6.945,2.336-10.48,3.409-1.768.505-3.535,1.073-5.3,1.515-.884.253-1.768.442-2.652.631a9.8,9.8,0,0,1-1.326.253,5.416,5.416,0,0,1-1.452.126Z" transform="translate(-298.9 -280.975)"/>
            </g>
            <g id="Group_31" data-name="Group 31" transform="translate(182.33 202.599)">
              <path id="Path_15" data-name="Path 15" d="M317.016,330.8a68.362,68.362,0,0,0,11.49,10.291,48.277,48.277,0,0,0,13.574,6.882,32.365,32.365,0,0,0,7.324,1.263,23.627,23.627,0,0,0,3.662,0,36,36,0,0,0,3.662-.379l.947-.126c.316-.063.631-.126.884-.189.631-.126,1.2-.253,1.831-.379,1.2-.316,2.4-.631,3.6-1.073,2.4-.821,4.672-1.957,7.071-3.03l.189.253a28.156,28.156,0,0,1-6.377,4.8,32.708,32.708,0,0,1-3.662,1.768c-.631.253-1.326.442-1.957.631-.316.126-.631.189-1.01.316l-1.01.189-1.01.189-.505.126-.505.063-2.02.189h-2.083a19.974,19.974,0,0,1-2.02-.189,37.018,37.018,0,0,1-7.892-1.957,48.831,48.831,0,0,1-13.7-8.018,66.345,66.345,0,0,1-5.745-5.366,50.787,50.787,0,0,1-5.051-6Z" transform="translate(-316.7 -330.8)"/>
            </g>
            <g id="Group_32" data-name="Group 32" transform="translate(239.214 194.708)">
              <path id="Path_16" data-name="Path 16" d="M407.053,318.3c.758,1.389,1.452,2.778,2.147,4.23.316.694.631,1.452.947,2.147.316.758.568,1.452.821,2.21l.884,2.21a9.628,9.628,0,0,1,.505,2.336,16.042,16.042,0,0,1-.063,2.462c-.063.442-.189.821-.253,1.263a6.846,6.846,0,0,1-.505,1.2h-.316a20.792,20.792,0,0,1-1.894-4.293,8.581,8.581,0,0,1-.442-2.21c-.063-.758-.126-1.515-.253-2.273s-.253-1.515-.442-2.273c-.126-.758-.253-1.515-.442-2.273l-.947-4.546Z" transform="translate(-406.8 -318.3)"/>
            </g>
            <g id="Group_33" data-name="Group 33" transform="translate(219.074 187.51)">
              <path id="Path_17" data-name="Path 17" d="M377.615,306.9a34.64,34.64,0,0,1,1.515,4.293c.442,1.452.821,2.967,1.136,4.483s.505,3.03.694,4.546a37.588,37.588,0,0,1,.253,4.609c0,3.094,0,6.313-1.073,9.281a20.554,20.554,0,0,1-2.02,4.293,16.757,16.757,0,0,1-2.967,3.662l-.253-.189c.379-1.515.821-2.967,1.2-4.356.379-1.452.694-2.841,1.01-4.23l.884-4.23a31.38,31.38,0,0,0,.694-4.356c.126-1.452.189-2.967.189-4.419s-.063-2.967-.189-4.482a54.308,54.308,0,0,0-1.389-8.9Z" transform="translate(-374.9 -306.9)"/>
            </g>
            <g id="Group_34" data-name="Group 34" transform="translate(177.343 153.078)">
              <path id="Path_18" data-name="Path 18" d="M308.8,267.853a35.561,35.561,0,0,1,19.193-14.268,38.064,38.064,0,0,1,6.061-1.136,40.571,40.571,0,0,1,6.187.063,42.641,42.641,0,0,1,11.869,3.03l1.452.568,1.389.631,2.778,1.2,5.493,2.462c3.662,1.641,7.324,3.346,10.985,5.051a193.21,193.21,0,0,1,21.4,11.364l-1.326-.063c1.768-.758,3.535-1.515,5.24-2.336,1.768-.821,3.472-1.641,5.177-2.525s3.409-1.831,5.051-2.841a22.23,22.23,0,0,0,4.546-3.472l.253.189a16.6,16.6,0,0,1-4.1,4.293,51.444,51.444,0,0,1-4.8,3.472c-1.641,1.073-3.346,2.083-5.051,3.03s-3.409,1.894-5.24,2.778l-.631.316-.694-.379c-1.7-.947-3.472-1.894-5.24-2.778l-5.3-2.778-10.67-5.556c-3.535-1.831-7.134-3.662-10.733-5.43l-5.43-2.652-2.715-1.326-1.326-.631-1.326-.568a41.7,41.7,0,0,0-11.238-3.283,36.564,36.564,0,0,0-5.871-.253,35.746,35.746,0,0,0-5.808.821,34.913,34.913,0,0,0-19.256,13.132Z" transform="translate(-308.8 -252.361)"/>
            </g>
            <g id="Group_35" data-name="Group 35" transform="translate(167.052 134.056)">
              <path id="Path_19" data-name="Path 19" d="M408.287,251.884c-5.114-1.7-10.1-3.6-15.152-5.619-4.988-2.02-9.975-4.1-14.836-6.376-1.2-.568-2.462-1.136-3.662-1.768s-2.4-1.2-3.6-1.894l-1.768-.947-1.768-1.01-3.472-2.02c-1.136-.631-2.336-1.263-3.472-1.894-1.2-.568-2.336-1.2-3.6-1.7a52,52,0,0,0-7.45-2.588l-1.894-.442c-.631-.126-1.263-.253-1.894-.316l-.947-.189-.947-.126c-.631-.063-1.263-.126-1.957-.189a45.726,45.726,0,0,0-7.765.379,47.922,47.922,0,0,0-14.647,5.24,99.13,99.13,0,0,0-13.321,8.523c-2.147,1.578-4.23,3.22-6.25,4.988-2.02,1.7-4.041,3.472-5.935,5.3l.253-.568c-.063,1.957-.189,3.914-.316,5.871l-.253-.442c1.515,1.263,3.094,2.589,4.609,3.914l-.189.253c-1.7-1.073-3.409-2.147-5.051-3.22l-.189-.126V254.6c-.126-1.957-.189-3.914-.316-5.871v-.316l.253-.253a99.32,99.32,0,0,1,11.68-11.364,76.361,76.361,0,0,1,13.574-9.154,47.406,47.406,0,0,1,15.72-5.114,45.966,45.966,0,0,1,8.334-.189,44.118,44.118,0,0,1,8.144,1.515,47.114,47.114,0,0,1,7.7,2.9c1.263.568,2.462,1.2,3.662,1.831s2.4,1.326,3.535,2.02l3.409,2.147,1.7,1.073,1.7,1.01c1.136.694,2.336,1.326,3.472,1.957s2.336,1.263,3.535,1.894c9.533,4.861,19.445,9.091,29.42,13.006Z" transform="translate(-292.5 -222.231)"/>
            </g>
            <g id="Group_36" data-name="Group 36" transform="translate(295.771 183.533)">
              <path id="Path_20" data-name="Path 20" d="M499.867,300.6c-.126,1.01-.253,2.02-.316,3.03a12.164,12.164,0,0,0-.063,1.515,11.668,11.668,0,0,0-.063,1.452,4.924,4.924,0,0,0,.189,1.389,4.348,4.348,0,0,1,.063,1.263,7.029,7.029,0,0,0-.126,1.073,2.036,2.036,0,0,0,.253,1.389l-.126.316a2.006,2.006,0,0,1-2.083-.505,4.055,4.055,0,0,1-1.073-1.768,6.1,6.1,0,0,1,.379-3.409,14.212,14.212,0,0,1,.505-1.515,10.072,10.072,0,0,1,.631-1.452,23.685,23.685,0,0,1,1.515-2.778Z" transform="translate(-496.384 -300.6)"/>
            </g>
            <g id="Group_37" data-name="Group 37" transform="translate(303.168 152.85)">
              <path id="Path_21" data-name="Path 21" d="M508.1,277.822a39.166,39.166,0,0,1,2.273-4.988,43.513,43.513,0,0,1,2.9-4.609,42.7,42.7,0,0,1,7.513-7.955,44.9,44.9,0,0,1,4.546-3.157,40.684,40.684,0,0,1,4.988-2.462,39.218,39.218,0,0,1,10.733-2.589l.505-.063.316.379c.379.568.631,1.01.884,1.452l.694,1.326a23,23,0,0,0,1.452,2.462,13.166,13.166,0,0,0,3.851,3.851,10.294,10.294,0,0,0,5.114,1.515,16.5,16.5,0,0,0,5.493-.758l1.641-.442-.063,1.641a10.4,10.4,0,0,1-1.389,4.735,16.8,16.8,0,0,1-2.9,3.788,13.285,13.285,0,0,1-4.1,2.589,10.365,10.365,0,0,1-4.988.568,7.565,7.565,0,0,1-2.525-.694,13.074,13.074,0,0,1-2.21-1.389,22.235,22.235,0,0,1-3.094-3.472,11.955,11.955,0,0,0-2.589-2.715,4.079,4.079,0,0,0-3.03-.505c-.568.126-1.2.316-1.768.505a10.976,10.976,0,0,0-1.7.884,24.149,24.149,0,0,0-3.22,2.462,59.945,59.945,0,0,0-5.871,6.124c-3.725,4.356-7.134,9.028-10.543,13.763l-.253-.189a100.213,100.213,0,0,1,9.028-14.963c.884-1.2,1.768-2.336,2.715-3.472a37.311,37.311,0,0,1,3.03-3.283,23.153,23.153,0,0,1,3.535-2.967,13.663,13.663,0,0,1,2.147-1.2,14.617,14.617,0,0,1,2.336-.821,7.719,7.719,0,0,1,2.715-.126,6.364,6.364,0,0,1,2.652.947,15.063,15.063,0,0,1,3.472,3.472c1.768,2.336,3.283,4.23,5.619,4.546a8.218,8.218,0,0,0,6.818-2.147,11.528,11.528,0,0,0,2.462-3.03,8.786,8.786,0,0,0,1.2-3.472l1.578,1.2a19.2,19.2,0,0,1-6.313.631,13.3,13.3,0,0,1-6.124-2.02,14.422,14.422,0,0,1-4.356-4.609,22.87,22.87,0,0,1-1.515-2.715l-.631-1.326a6.084,6.084,0,0,0-.631-1.136l.821.316a41.4,41.4,0,0,0-10.354,2.147A47.407,47.407,0,0,0,526.093,258a41.814,41.814,0,0,0-4.482,2.9,38.82,38.82,0,0,0-7.576,7.513,41.384,41.384,0,0,0-5.493,9.218Z" transform="translate(-508.1 -252)"/>
            </g>
            <g id="Group_38" data-name="Group 38" transform="translate(303.105 174.923)">
              <path id="Path_22" data-name="Path 22" d="M565.83,301.318a58.42,58.42,0,0,1-9.975-.631,22.587,22.587,0,0,1-4.924-1.263,11.684,11.684,0,0,1-2.336-1.2,5.064,5.064,0,0,1-1.894-2.21l-.442-1.136a7.525,7.525,0,0,1-.505-1.01c-.189-.316-.442-.631-.631-.947-.253-.316-.505-.568-.758-.884a10.092,10.092,0,0,0-3.788-2.462,8.526,8.526,0,0,0-4.356-.379,11.129,11.129,0,0,0-4.1,1.7,39.7,39.7,0,0,0-3.662,3.094c-1.2,1.136-2.273,2.273-3.409,3.472-2.21,2.4-4.293,4.924-6.313,7.45a83.489,83.489,0,0,0-10.417,16.6l-.316-.063a38.762,38.762,0,0,1,3.094-9.6l1.136-2.273,1.2-2.21,1.326-2.147,1.389-2.083a59.33,59.33,0,0,1,6.566-7.765,48.576,48.576,0,0,1,3.788-3.409c.631-.568,1.326-1.073,1.957-1.578s1.452-1.01,2.147-1.515a13.447,13.447,0,0,1,5.114-1.831,10.665,10.665,0,0,1,5.43.758,12.1,12.1,0,0,1,4.356,3.157,6.9,6.9,0,0,1,.821,1.073,10.989,10.989,0,0,1,.694,1.136c.189.379.379.821.568,1.2l.189.631.126.316.063.253a3.7,3.7,0,0,0,1.263,1.578,12.2,12.2,0,0,0,2.02,1.2,23.021,23.021,0,0,0,4.609,1.452,41.108,41.108,0,0,0,4.861.821c1.641.189,3.283.379,4.924.442Z" transform="translate(-508 -286.963)"/>
            </g>
            <g id="Group_39" data-name="Group 39" transform="translate(332.083 189.112)">
              <path id="Path_23" data-name="Path 23" d="M582.878,313.139c-1.136.884-2.336,1.768-3.535,2.589s-2.462,1.578-3.725,2.336a24.548,24.548,0,0,1-4.1,1.894,7.437,7.437,0,0,1-2.462.442,3.161,3.161,0,0,1-1.578-.442,8.02,8.02,0,0,1-1.073-.884c-1.136-1.2-1.957-2.336-2.9-3.346a21.765,21.765,0,0,0-2.652-2.715,4.1,4.1,0,0,0-2.9-1.01,11.426,11.426,0,0,0-3.851,1.263l-.189-.253a9.731,9.731,0,0,1,1.452-1.831,5.893,5.893,0,0,1,2.083-1.326,5.587,5.587,0,0,1,2.715-.379,6.1,6.1,0,0,1,2.588.947c3.03,1.894,4.041,4.988,5.619,7.008a5.173,5.173,0,0,0,.505.568c0,.063.253.126.442.189a5.833,5.833,0,0,0,1.768-.126,24.157,24.157,0,0,0,3.977-1.263c2.652-1.073,5.177-2.4,7.765-3.725Z" transform="translate(-553.9 -309.437)"/>
            </g>
            <g id="Group_40" data-name="Group 40" transform="translate(321.919 196.412)">
              <path id="Path_24" data-name="Path 24" d="M548.154,321a30.876,30.876,0,0,1-.316,6.818,35.9,35.9,0,0,1-1.7,6.692c-.821,2.147-1.452,4.482-2.9,6.313a15.964,15.964,0,0,1-5.177,4.672l-.253-.189a29.7,29.7,0,0,1,1.326-3.157c.442-1.01,1.01-1.957,1.452-2.967.253-.505.505-.947.758-1.389s.568-.947.821-1.389c.316-.442.568-.884.884-1.389.253-.442.568-.947.821-1.452l.694-1.452.631-1.515a25.84,25.84,0,0,0,1.136-3.094,36.9,36.9,0,0,0,1.578-6.44Z" transform="translate(-537.8 -321)"/>
            </g>
            <g id="Group_41" data-name="Group 41" transform="translate(306.767 200.831)">
              <path id="Path_25" data-name="Path 25" d="M550.859,328.253c-.126,2.02-.379,4.041-.694,6.061-.189,1.01-.379,2.02-.631,3.03a14.2,14.2,0,0,1-.505,1.515,4.007,4.007,0,0,1-.947,1.515,3.023,3.023,0,0,1-.694.505l-.631.442-1.263.884a22.323,22.323,0,0,1-2.589,1.641l-2.652,1.515-2.778,1.326-.694.316a3.56,3.56,0,0,1-.758.253l-1.452.568c-.505.189-.947.379-1.452.568l-1.515.442a13.283,13.283,0,0,1-1.515.379c-.505.063-1.073.189-1.578.253a13.449,13.449,0,0,1-1.578.189h-1.578a13.29,13.29,0,0,1-1.578-.126c-.505-.063-1.073-.126-1.578-.189a24.729,24.729,0,0,1-3.094-.821,10.071,10.071,0,0,1-1.452-.631,5.942,5.942,0,0,1-1.389-.758,10.51,10.51,0,0,1-2.462-1.957l.189-.253a16.348,16.348,0,0,0,2.841.884l.694.189c.253.063.505.063.694.126a11.426,11.426,0,0,0,1.452.189l.694.063c.253,0,.442.063.694.063l1.452.063h1.452a9.774,9.774,0,0,0,1.389-.063,21.728,21.728,0,0,0,2.841-.316c.442-.063.947-.126,1.389-.189.505-.063.947-.189,1.389-.253l1.452-.253a8.928,8.928,0,0,0,1.389-.379l1.389-.379c.253-.063.442-.126.694-.189l.694-.253,2.778-1.073,2.652-1.263a26.716,26.716,0,0,0,2.652-1.389l1.326-.758.631-.379c.189-.126.505-.253.568-.316a2.575,2.575,0,0,0,.694-1.01c.189-.379.379-.884.568-1.326.379-.884.631-1.894.947-2.841.505-1.894.947-3.914,1.389-5.871Z" transform="translate(-513.8 -328)"/>
            </g>
            <g id="Group_42" data-name="Group 42" transform="translate(293.824 220.719)">
              <path id="Path_26" data-name="Path 26" d="M493.679,359.5c.821,2.588,1.641,5.114,2.589,7.639.253.631.442,1.263.694,1.894s.505,1.263.758,1.831c.505,1.263,1.01,2.462,1.578,3.662s1.2,2.4,1.831,3.535A36.915,36.915,0,0,1,502.9,381.6l.821,1.768.379.884c.126.316.316.568.442.884.505,1.263,1.136,2.4,1.641,3.725l-.253.189a13.374,13.374,0,0,1-3.22-2.715,16.552,16.552,0,0,1-1.389-1.578c-.442-.568-.821-1.136-1.2-1.7a17,17,0,0,1-1.831-3.725c-.505-1.263-.884-2.588-1.389-3.914-.442-1.326-.821-2.588-1.2-3.914-.189-.631-.379-1.326-.505-1.957-.189-.631-.316-1.326-.505-2.02A68.649,68.649,0,0,1,493.3,359.5Z" transform="translate(-493.3 -359.5)"/>
            </g>
            <g id="Group_43" data-name="Group 43" transform="translate(293.951 254.053)">
              <path id="Path_27" data-name="Path 27" d="M493.5,430.293a51.752,51.752,0,0,0,4.1-4.23c.631-.758,1.326-1.452,1.894-2.21.631-.758,1.2-1.515,1.768-2.273a19.127,19.127,0,0,0,1.515-2.4l.758-1.2c.253-.379.568-.758.821-1.136a56.38,56.38,0,0,1,3.725-4.546l.316.126a10.515,10.515,0,0,1-.253,3.157,16.669,16.669,0,0,1-1.073,2.967,13.963,13.963,0,0,1-1.768,2.525c-.694.758-1.452,1.452-2.147,2.21-.694.694-1.452,1.452-2.21,2.083a21.893,21.893,0,0,1-2.336,1.894,52.869,52.869,0,0,1-4.988,3.346Z" transform="translate(-493.5 -412.3)"/>
            </g>
            <g id="Group_44" data-name="Group 44" transform="translate(259.795 263.081)">
              <path id="Path_28" data-name="Path 28" d="M439.716,426.6a26.365,26.365,0,0,0,3.346,4.546,28.42,28.42,0,0,0,4.1,3.725c1.452,1.073,3.157,1.768,4.609,2.778l.568.379.568.379,1.136.758a8.043,8.043,0,0,0,1.2.821c.379.316.821.568,1.2.947l-.063.316a11.073,11.073,0,0,1-6.061-.884,9.81,9.81,0,0,1-2.588-1.578c-.379-.316-.758-.695-1.136-1.01a8.617,8.617,0,0,1-1.073-1.073c-.694-.694-1.389-1.452-2.02-2.21l-.884-1.2c-.253-.379-.568-.821-.821-1.263a21.494,21.494,0,0,1-2.4-5.366Z" transform="translate(-439.4 -426.6)"/>
            </g>
            <g id="Group_45" data-name="Group 45" transform="translate(268.255 262.008)">
              <path id="Path_29" data-name="Path 29" d="M452.8,430.329a15.624,15.624,0,0,1,2.652-2.336c.505-.316.947-.694,1.452-1.01a12.4,12.4,0,0,1,1.578-.821l1.641-.821a4.3,4.3,0,0,1,1.768-.442h.947a5.03,5.03,0,0,1,.947.189,4.331,4.331,0,0,1,1.831.821v.316a9.617,9.617,0,0,1-3.03,1.768,16.454,16.454,0,0,1-3.157.568c-.505.126-1.073.253-1.578.379s-1.073.316-1.578.442a27.093,27.093,0,0,0-3.157,1.2Z" transform="translate(-452.8 -424.9)"/>
            </g>
            <g id="Group_46" data-name="Group 46" transform="translate(251.462 283.623)">
              <path id="Path_30" data-name="Path 30" d="M426.2,475.339c3.157-2.21,6.377-4.23,9.723-6.124a104.529,104.529,0,0,1,10.291-5.177A72.774,72.774,0,0,1,457.2,460.25a43.833,43.833,0,0,1,5.871-1.01,22.261,22.261,0,0,1,6.124.253l.505.126.316.379a8.287,8.287,0,0,1,1.641,2.525,9.663,9.663,0,0,1,.821,2.841,15.1,15.1,0,0,1-.442,5.619,21.389,21.389,0,0,1-2.083,4.924,22.743,22.743,0,0,1-3.094,4.23l-.253-.189a48.661,48.661,0,0,0,1.831-4.735c.253-.821.505-1.578.694-2.4s.316-1.578.442-2.4a9.681,9.681,0,0,0,.126-2.336,8.476,8.476,0,0,0-.253-2.21,10.9,10.9,0,0,0-.694-2.02,6.407,6.407,0,0,0-1.2-1.7l.884.505a29.237,29.237,0,0,0-10.733.063,65.41,65.41,0,0,0-10.8,3.03c-3.536,1.326-7.008,2.841-10.48,4.419-3.409,1.641-6.818,3.409-10.1,5.3Z" transform="translate(-426.2 -459.136)"/>
            </g>
            <g id="Group_47" data-name="Group 47" transform="translate(264.025 301.726)">
              <path id="Path_31" data-name="Path 31" d="M468.007,490.772a3.62,3.62,0,0,0-1.2-.631,10.455,10.455,0,0,0-1.326-.379c-.442-.063-.884-.126-1.389-.189a10.19,10.19,0,0,0-1.389,0,11.344,11.344,0,0,0-1.389.126c-.253,0-.442.063-.694.063l-.695.126c-.884.126-1.831.379-2.715.568-1.768.505-3.409,1.389-5.24,1.768a19.637,19.637,0,0,1-2.778.505,15.305,15.305,0,0,1-2.967.189l-.126-.316a13.72,13.72,0,0,1,2.336-1.957,20.845,20.845,0,0,1,2.589-1.452,11.253,11.253,0,0,1,2.841-.821c1.01-.126,1.957-.253,2.967-.379a21.235,21.235,0,0,1,6,.063,9.813,9.813,0,0,1,1.452.316,13.228,13.228,0,0,1,1.452.505,6.178,6.178,0,0,1,2.462,1.7Z" transform="translate(-446.1 -487.811)"/>
            </g>
            <g id="Group_48" data-name="Group 48" transform="translate(260.048 309.043)">
              <path id="Path_32" data-name="Path 32" d="M439.8,499.4a24.963,24.963,0,0,0,6.44,1.389l.821.063.821.063c.568,0,1.073.063,1.641.063h1.641l1.641-.063c.568-.063,1.073-.126,1.578-.189.253-.063.505-.063.821-.126l.758-.189a100934.072,100934.072,0,0,0,3.157-.505l.821-.063.821-.126a14.363,14.363,0,0,1,1.641-.126,30.21,30.21,0,0,1,3.409-.126l.126.316a14.652,14.652,0,0,1-2.9,1.957,17.171,17.171,0,0,1-1.578.694l-.821.316-.821.253c-2.21.758-4.609.505-6.945.505l-1.7-.126-1.7-.189a16.156,16.156,0,0,1-1.7-.316l-.821-.189-.821-.253a23.288,23.288,0,0,1-6.313-2.715Z" transform="translate(-439.8 -499.4)"/>
            </g>
            <g id="Group_49" data-name="Group 49" transform="translate(259.669 313.778)">
              <path id="Path_33" data-name="Path 33" d="M439.642,514.476a11.206,11.206,0,0,0,2.02,3.725,5.9,5.9,0,0,0,3.283,2.147,6.478,6.478,0,0,0,3.788-.316,14.3,14.3,0,0,0,3.6-1.957,25.613,25.613,0,0,0,3.157-2.715c.505-.505,1.01-1.01,1.515-1.452a17.218,17.218,0,0,1,1.578-1.452c1.073-.947,2.147-1.894,3.283-2.841A37.441,37.441,0,0,1,465.4,506.9l.253.189a18.582,18.582,0,0,1-2.147,3.977,29.845,29.845,0,0,1-2.715,3.6,19.378,19.378,0,0,1-1.578,1.641,19.656,19.656,0,0,1-1.768,1.452l-1.894,1.326c-.694.379-1.263.821-1.957,1.2a16.728,16.728,0,0,1-4.356,1.831,8.005,8.005,0,0,1-4.861-.189,8.743,8.743,0,0,1-2.083-1.263,7.108,7.108,0,0,1-1.515-1.831,11.892,11.892,0,0,1-1.578-4.23Z" transform="translate(-439.2 -506.9)"/>
            </g>
            <g id="Group_50" data-name="Group 50" transform="translate(259.985 232.967)">
              <path id="Path_34" data-name="Path 34" d="M523.542,378.9a163.118,163.118,0,0,1,3.725,21.4c.379,3.6.631,7.2.694,10.859a63.078,63.078,0,0,1-.694,10.922c-.126.884-.379,1.831-.505,2.715-.253.884-.442,1.768-.758,2.652a18.339,18.339,0,0,1-1.01,2.588c-.442.821-.821,1.7-1.326,2.462-1.894,3.157-3.977,6.124-6.061,9.028-4.23,5.871-8.586,11.68-13.069,17.362-8.9,11.364-17.867,22.791-27.716,33.461-2.462,2.652-4.988,5.3-7.513,7.892a100.123,100.123,0,0,1-8.081,7.387c-.758.568-1.452,1.136-2.273,1.641-.442.253-.821.505-1.326.758a3.126,3.126,0,0,1-.821.253l-.694.126a32.885,32.885,0,0,1-5.556.379,40.159,40.159,0,0,1-5.493-.379,38.162,38.162,0,0,1-5.366-.947l.063-.316a61.019,61.019,0,0,0,10.733.126,36.126,36.126,0,0,0,5.24-.758l.631-.126a3.078,3.078,0,0,1,.442-.189,8.836,8.836,0,0,0,1.01-.631c.694-.505,1.326-1.073,2.02-1.641,2.589-2.4,5.051-4.988,7.513-7.639s4.861-5.3,7.2-8.018c2.4-2.715,4.735-5.43,7.071-8.144s4.735-5.429,7.071-8.207c4.735-5.43,9.344-10.985,13.953-16.541,4.546-5.619,9.028-11.238,13.384-16.983,2.147-2.9,4.293-5.808,6.187-8.776.505-.758.884-1.515,1.326-2.273.379-.821.694-1.578,1.01-2.4s.505-1.641.758-2.525c.189-.884.442-1.7.568-2.589a59.9,59.9,0,0,0,1.01-10.67,102.809,102.809,0,0,0-.379-10.8,163.332,163.332,0,0,0-3.094-21.4Z" transform="translate(-439.7 -378.9)"/>
            </g>
            <g id="Group_51" data-name="Group 51" transform="translate(133.465 263.081)">
              <path id="Path_35" data-name="Path 35" d="M239.679,426.6c2.841,6.124,6.061,12.059,9.47,17.867a151.921,151.921,0,0,0,11.364,16.667,90.953,90.953,0,0,0,13.763,14.521,14.776,14.776,0,0,0,1.957,1.515l1.01.758,1.01.694,1.01.694,1.073.694,2.147,1.326c1.389.884,2.9,1.7,4.356,2.525,1.452.884,2.9,1.641,4.419,2.462,5.935,3.157,12,6.124,18.119,8.965,3.03,1.452,6.124,2.841,9.217,4.23l9.218,4.167,9.218,4.23,4.609,2.147c.758.379,1.515.694,2.336,1.073l.568.316.316.126.316.189.631.379a3.471,3.471,0,0,1,.568.442c2.715,2.21,5.114,4.482,7.639,6.755,2.462,2.336,4.924,4.609,7.323,7.008l-.189.253c-2.715-2.02-5.366-4.1-8.081-6.187l-4.041-3.094c-1.326-1.01-2.652-2.083-4.041-2.967a2.214,2.214,0,0,0-.505-.316l-.505-.253-.253-.126-.316-.126-.568-.253-2.336-.947-4.672-1.894c-3.157-1.263-6.25-2.588-9.407-3.851-3.094-1.326-6.25-2.652-9.281-4.1-3.094-1.389-6.124-2.9-9.154-4.356-6.061-3.03-12.059-6.187-17.993-9.533-1.452-.821-2.967-1.7-4.419-2.588s-2.9-1.7-4.356-2.715l-2.147-1.389L278,481.211l-1.073-.758-1.073-.758-1.01-.821a24.468,24.468,0,0,1-1.957-1.641,94.381,94.381,0,0,1-13.7-15.152,157.7,157.7,0,0,1-10.922-17.172,195.3,195.3,0,0,1-8.965-18.246Z" transform="translate(-239.3 -426.6)"/>
            </g>
            <g id="Group_52" data-name="Group 52" transform="translate(69.931 177.444)">
              <path id="Path_36" data-name="Path 36" d="M195.129,331.831a82.442,82.442,0,0,0-5.051-15.026A58.513,58.513,0,0,0,182,303.295a38.08,38.08,0,0,0-5.556-5.493,26.221,26.221,0,0,0-6.755-3.725,24.637,24.637,0,0,0-15.089-.442,17.9,17.9,0,0,0-6.629,3.409,16.452,16.452,0,0,0-4.419,5.935c-2.083,4.609-2.462,9.912-2.21,15.089a80.155,80.155,0,0,0,2.588,15.4,111.535,111.535,0,0,0,4.988,14.9l-.063-.189c1.2,2.02,2.588,4.1,3.914,6.124q2.083,3.03,4.356,5.871a79.815,79.815,0,0,0,10.038,10.606,56.308,56.308,0,0,0,5.808,4.419,41.6,41.6,0,0,0,6.377,3.472l.821.379.884.316c.568.189,1.136.442,1.7.568s1.2.316,1.768.505l1.768.316a28.4,28.4,0,0,0,7.324.126l.063.316a25.033,25.033,0,0,1-7.513.568,27.432,27.432,0,0,1-7.45-1.515,34.236,34.236,0,0,1-3.535-1.389c-1.136-.568-2.273-1.136-3.346-1.768a52.937,52.937,0,0,1-6.313-4.293c-1.957-1.578-3.851-3.283-5.682-5.051-1.768-1.768-3.472-3.662-5.114-5.556s-3.157-3.914-4.672-6c-1.452-2.083-2.841-4.167-4.167-6.376l-.063-.063-.063-.063a101.972,101.972,0,0,1-4.8-15.468,85.355,85.355,0,0,1-2.273-16.036,44.063,44.063,0,0,1,.442-8.144,27.406,27.406,0,0,1,2.336-7.955,19.5,19.5,0,0,1,5.114-6.629,20.049,20.049,0,0,1,7.45-3.662c.694-.189,1.326-.316,2.02-.442l2.02-.253a11.547,11.547,0,0,1,2.083-.126c.694,0,1.389-.063,2.083,0a23.065,23.065,0,0,1,8.018,1.7,27.085,27.085,0,0,1,7.008,4.167,37.576,37.576,0,0,1,5.619,5.808,59.71,59.71,0,0,1,7.892,13.953,85.448,85.448,0,0,1,4.672,15.278Z" transform="translate(-138.667 -290.956)"/>
            </g>
            <g id="Group_53" data-name="Group 53" transform="translate(133.528 290.671)">
              <path id="Path_37" data-name="Path 37" d="M249.817,470.363c-.568,3.851-1.263,7.639-1.894,11.49l-1.01,5.745-1.073,5.745c-.379,1.894-.631,3.851-.947,5.745s-.758,3.788-1.263,5.682-1.073,3.725-1.7,5.556a49.91,49.91,0,0,1-2.21,5.493l-.316-.063c0-2.02.126-3.977.316-5.871.189-1.957.442-3.851.821-5.808.316-1.894.758-3.788,1.263-5.682s1.073-3.725,1.578-5.619l1.452-5.619,1.515-5.619c1.073-3.725,2.083-7.513,3.157-11.238Z" transform="translate(-239.4 -470.3)"/>
            </g>
            <g id="Group_54" data-name="Group 54" transform="translate(211.491 349.511)">
              <path id="Path_38" data-name="Path 38" d="M367.694,563.626c-.063,1.831-.253,3.6-.379,5.366l-.253,2.652-.316,2.652c-.126.884-.126,1.768-.189,2.715a13.084,13.084,0,0,1-.505,2.652,15.121,15.121,0,0,1-2.4,4.988l-.316-.063a16.638,16.638,0,0,1-.379-5.556,13.089,13.089,0,0,1,.505-2.652c.253-.884.568-1.7.821-2.588l.694-2.589.758-2.588c.505-1.7,1.01-3.409,1.641-5.114Z" transform="translate(-362.889 -563.5)"/>
            </g>
            <g id="Group_55" data-name="Group 55" transform="translate(131.886 89.716)">
              <path id="Path_39" data-name="Path 39" d="M237.053,267.345l4.041,17.867-.884.063A156.116,156.116,0,0,1,245.26,247.9a122.752,122.752,0,0,1,6-17.993l.884-2.21c.316-.758.694-1.452,1.01-2.147l2.02-4.293,2.336-4.167c.379-.694.758-1.389,1.2-2.083l1.2-2.02c6.5-10.8,13.384-21.276,20.834-31.441S295.83,161.47,304.1,152l.253.189q-10.512,15.626-21.15,31.125c-6.945,10.417-14.142,20.645-20.96,31.188l-1.263,1.957a21.277,21.277,0,0,0-1.2,2.02l-2.336,3.977-2.083,4.167c-.316.694-.694,1.389-1.01,2.083l-.947,2.147a123.453,123.453,0,0,0-6.25,17.551,165.168,165.168,0,0,0-4.041,18.246,153.949,153.949,0,0,0-1.957,18.624l-.126,3.788-.694-3.662L236.8,267.408Z" transform="translate(-236.8 -152)"/>
            </g>
            <g id="Group_56" data-name="Group 56" transform="translate(209.604 64.067)">
              <path id="Path_40" data-name="Path 40" d="M359.9,132.477c4.356-1.452,8.712-2.778,13.069-4.1,2.21-.631,4.356-1.326,6.566-1.957s4.356-1.263,6.566-1.894c8.776-2.4,17.677-4.672,26.579-6.692,8.9-1.957,17.8-4.1,26.958-5.177,2.273-.316,4.546-.505,6.818-.694s4.546-.442,6.882-.442c2.273-.063,4.609-.189,6.882-.126,2.273.126,4.609.189,6.882.379v.316c-9.091.947-18.056,2.273-27.021,3.725-2.21.379-4.482.694-6.692,1.073s-4.482.758-6.692,1.073c-2.273.316-4.482.758-6.755,1.136-2.21.379-4.483.758-6.692,1.2-8.965,1.7-17.8,3.662-26.706,5.745s-17.741,4.293-26.516,6.629Z" transform="translate(-359.9 -111.373)"/>
            </g>
            <g id="Group_57" data-name="Group 57" transform="translate(319.961 72.544)">
              <path id="Path_41" data-name="Path 41" d="M534.952,124.8c1.073,1.2,1.957,2.462,2.9,3.725.442.631.884,1.263,1.326,1.957l1.263,2.02c1.578,2.715,3.094,5.43,4.482,8.271,1.389,2.778,2.715,5.682,3.977,8.523l1.768,4.356c.631,1.452,1.136,2.9,1.641,4.419,1.136,2.9,2.083,5.935,3.094,8.9s1.831,6,2.778,8.965l2.525,9.028c.758,3.03,1.515,6.061,2.21,9.154l-.189-.505c1.452,2.4,2.967,4.8,4.482,7.2.758,1.2,1.578,2.4,2.336,3.535l2.4,3.535,4.861,7.071c1.641,2.336,3.283,4.735,4.861,7.134l-.253.189c-2.083-2.02-4.041-4.1-5.935-6.25-.947-1.073-1.894-2.147-2.841-3.283-.947-1.073-1.831-2.21-2.778-3.346-1.831-2.273-3.6-4.546-5.24-6.882-1.7-2.336-3.283-4.8-4.8-7.324L559.7,195l-.063-.253q-1.042-4.546-1.894-9.091l-2.083-9.091-1.2-4.482c-.442-1.515-.758-3.03-1.263-4.482-.884-2.967-1.768-5.935-2.778-8.9-1.957-5.871-4.1-11.743-6.629-17.425-1.263-2.841-2.652-5.619-4.1-8.334l-1.136-2.02c-.379-.694-.821-1.326-1.2-2.02a33.64,33.64,0,0,0-2.652-3.788Z" transform="translate(-534.7 -124.8)"/>
            </g>
            <g id="Group_58" data-name="Group 58" transform="translate(39.413)">
              <path id="Path_42" data-name="Path 42" d="M417.658,197.342c2.336-2.525,4.482-5.177,6.629-7.829,2.083-2.715,4.1-5.493,5.935-8.4a72.961,72.961,0,0,0,4.924-8.965,35.214,35.214,0,0,0,2.9-9.723l.189.316a34.431,34.431,0,0,1-7.45-6.061,48.741,48.741,0,0,1-5.808-7.639,96.4,96.4,0,0,1-8.334-17.236,142.379,142.379,0,0,1-5.366-18.372,92.639,92.639,0,0,1-1.641-9.47,40.144,40.144,0,0,1-.316-4.861,10.386,10.386,0,0,1,.126-1.326.9.9,0,0,1,.126-.379,1.147,1.147,0,0,1,.379-.505.717.717,0,0,1,.505-.189.736.736,0,0,1,.442.126,2.4,2.4,0,0,1,.379.316,8.228,8.228,0,0,1,.694,1.2c.189.379.316.758.505,1.136l-1.263.442a141.306,141.306,0,0,0-7.513-18.056,87.1,87.1,0,0,0-10.228-16.541A34.2,34.2,0,0,0,386.6,58.7a14.272,14.272,0,0,0-8.649-2.9c-.379.063-.758.063-1.136.126l-.568.063-.631.126-2.4.505c-1.578.316-3.22.631-4.8,1.01l-4.735,1.136c-.758.189-1.515.442-2.273.694a4.887,4.887,0,0,0-1.01.442c-.126.063-.253.189-.253.126h0l.063-.063c0-.063,0-.063.063-.126a.765.765,0,0,0-.063-.631c-.126-.189-.189-.253-.253-.253s-.063,0-.126-.063l-1.136,1.263c-1.01-2.4-2.147-4.861-3.409-7.2-1.263-2.4-2.589-4.672-3.977-6.945a99.365,99.365,0,0,0-9.47-12.879,72.7,72.7,0,0,0-11.68-10.8l-.821-.568-.821-.568-1.641-1.073c-1.136-.694-2.273-1.326-3.409-2.02-1.2-.568-2.336-1.2-3.6-1.7l-1.831-.758-.947-.379-.947-.316a44.664,44.664,0,0,0-15.531-2.4,63.334,63.334,0,0,0-15.657,2.525,94.2,94.2,0,0,0-15.026,5.3c-2.4,1.136-4.8,2.336-7.071,3.662-2.273,1.389-4.483,2.841-6.629,4.419-4.293,3.094-8.523,6.692-13.384,9.344a43.144,43.144,0,0,1-7.639,3.346,60.491,60.491,0,0,1-8.081,2.02,95.316,95.316,0,0,1-16.415,1.2h-4.041c-1.326,0-2.652-.063-3.977.063-2.652.063-5.3.253-7.955.505a110.449,110.449,0,0,0-15.72,2.652,106.106,106.106,0,0,0-15.152,4.924,96.344,96.344,0,0,0-14.142,7.26c-2.273,1.389-4.419,2.9-6.566,4.482-1.073.821-2.083,1.641-3.094,2.462a28.727,28.727,0,0,0-2.841,2.652l-.126.126-.126.063A143.043,143.043,0,0,0,123.96,79.85a147.235,147.235,0,0,0-11.869,11.617,100.785,100.785,0,0,0-10.165,13.069,65.546,65.546,0,0,0-7.387,14.71,40.049,40.049,0,0,0-2.273,16.1,34.6,34.6,0,0,0,1.515,8.018c.442,1.263.884,2.588,1.389,3.914l1.389,3.977c3.788,10.543,7.576,21.024,11.3,31.63l-.316.126c-4.1-10.417-8.144-20.834-12.248-31.251-1.01-2.652-2.083-5.177-3.03-7.892a34.29,34.29,0,0,1-1.768-8.4,42.754,42.754,0,0,1,2.02-16.92,68.514,68.514,0,0,1,7.324-15.341A101.706,101.706,0,0,1,110.134,89.7a152.8,152.8,0,0,1,11.932-12,154.549,154.549,0,0,1,13.195-10.67l-.253.189c1.01-1.073,2.02-1.957,3.03-2.9q1.515-1.326,3.22-2.652a71.961,71.961,0,0,1,6.755-4.735A106.46,106.46,0,0,1,162.6,49.357a108.344,108.344,0,0,1,31.819-7.829c2.715-.253,5.43-.379,8.207-.442,1.389-.063,2.715,0,4.1,0h4.041a94.607,94.607,0,0,0,15.847-1.073,45.67,45.67,0,0,0,14.836-4.924c4.609-2.462,8.712-5.935,13.195-9.091,2.21-1.578,4.482-3.094,6.882-4.482s4.861-2.588,7.324-3.788a97.962,97.962,0,0,1,15.531-5.3A63.952,63.952,0,0,1,300.609,9.9,47.639,47.639,0,0,1,316.9,12.55l1.01.316.947.379,1.894.821c1.263.568,2.462,1.2,3.725,1.831,1.2.694,2.4,1.389,3.535,2.083l1.7,1.136.884.568.821.631a74.894,74.894,0,0,1,12,11.238,104.143,104.143,0,0,1,9.6,13.258c1.452,2.336,2.778,4.672,4.041,7.134,1.263,2.4,2.4,4.861,3.472,7.45l.694,1.768-1.831-.505a.72.72,0,0,1-.379-.189.973.973,0,0,1-.442-.442.9.9,0,0,1-.063-.884c.063-.126.063-.189.126-.253l.063-.126.063-.063a3.848,3.848,0,0,1,.758-.568,5.276,5.276,0,0,1,1.263-.505c.821-.316,1.641-.505,2.4-.758,1.578-.442,3.22-.821,4.861-1.136,1.641-.379,3.22-.694,4.861-1.01l2.4-.442.631-.126.631-.126c.442-.063.884-.063,1.326-.126a13.159,13.159,0,0,1,5.177.884,19.529,19.529,0,0,1,4.546,2.4,36.081,36.081,0,0,1,7.2,7.008,91.071,91.071,0,0,1,10.291,16.92,171,171,0,0,1,7.45,18.309l-1.263.442a7.7,7.7,0,0,0-.442-1.073,2.953,2.953,0,0,0-.505-.884.062.062,0,0,0-.063-.063.277.277,0,0,0,.189.063c.126,0,.189-.063.253-.063.063-.063.063-.063.063,0s-.063.126-.063.189a5.562,5.562,0,0,0-.126,1.073,39.321,39.321,0,0,0,.253,4.672c.379,3.157.884,6.25,1.515,9.344a130.376,130.376,0,0,0,5.114,18.246,90.164,90.164,0,0,0,8.081,17.109,50.478,50.478,0,0,0,5.682,7.576,32.484,32.484,0,0,0,7.2,6l.189.126v.189a36.073,36.073,0,0,1-3.03,9.912,70.181,70.181,0,0,1-5.051,9.028c-1.894,2.9-3.914,5.682-6,8.4-2.147,2.715-4.356,5.3-6.692,7.829Z" transform="translate(-90.328 -9.895)"/>
            </g>
            <g id="Group_59" data-name="Group 59" transform="translate(14.109 178.419)">
              <path id="Path_43" data-name="Path 43" d="M76.734,292.816a234.319,234.319,0,0,1-.884,26.642c-.694,8.839-1.894,17.677-3.346,26.453A255.37,255.37,0,0,1,58.3,397.3l-2.336,6.25-.316.758-.253.821-.505,1.578-.505,1.578a14.74,14.74,0,0,0-.442,1.578c-.505,2.147-1.073,4.293-1.452,6.44-.442,2.147-.631,4.356-.947,6.566a84.526,84.526,0,0,0-.189,13.258,92.685,92.685,0,0,0,1.894,13.132,104.392,104.392,0,0,0,9.091,24.812A128.7,128.7,0,0,0,69.031,485.5c1.2,1.831,2.525,3.662,3.851,5.43s2.715,3.472,4.167,5.114l.063.063.063.063a23.222,23.222,0,0,0,3.6,3.914,37.442,37.442,0,0,0,4.356,3.283,47.144,47.144,0,0,0,9.786,4.861,73.475,73.475,0,0,0,21.529,4.1,122.736,122.736,0,0,0,22.034-1.073c1.831-.253,3.662-.505,5.429-.821,1.831-.316,3.6-.631,5.493-.947.947-.126,1.831-.316,2.778-.442l2.778-.316c1.831-.253,3.725-.253,5.619-.379h1.389l1.389.063,1.389.063a10.233,10.233,0,0,1,1.389.063l2.841.253a10.486,10.486,0,0,1,1.389.189l1.389.253a42.719,42.719,0,0,1,10.8,3.283,37.82,37.82,0,0,1,9.533,6.124,39.936,39.936,0,0,1,7.45,8.523,55.959,55.959,0,0,1,8.081,20.96,60.928,60.928,0,0,1,.947,11.238,43.052,43.052,0,0,1-.442,5.682c-.189.947-.379,1.894-.568,2.778-.189.947-.442,1.831-.694,2.715-2.083,7.2-4.356,14.205-6.44,21.276s-3.977,14.205-5.682,21.4-3.094,14.458-4.23,21.718a214.1,214.1,0,0,0-2.273,21.971,171.064,171.064,0,0,0,.126,22.034c.063,1.831.316,3.662.505,5.493s.379,3.662.694,5.493.505,3.662.884,5.429l1.136,5.366a134.214,134.214,0,0,0,6.692,20.9,126.405,126.405,0,0,0,10.48,19.256l-2.462.126c4.041-7.892,7.955-15.783,12.059-23.675a211.823,211.823,0,0,1,13.574-23.044,112.441,112.441,0,0,1,17.8-20.14l1.263-1.136,1.326-1.073,2.588-2.147c1.768-1.389,3.535-2.715,5.3-4.1a97.588,97.588,0,0,0,10.038-8.334A86.167,86.167,0,0,0,291.514,624.9a97.491,97.491,0,0,0,3.662-12.5,110.3,110.3,0,0,0,1.957-12.942c.189-2.147.379-4.356.379-6.566.126-2.21.063-4.356.063-6.566a158.217,158.217,0,0,0-2.715-26.137l-.316-1.641-.316-1.641-.694-3.22c-.442-2.147-1.01-4.293-1.515-6.44-.568-2.147-1.2-4.23-1.768-6.376-.631-2.083-1.326-4.167-2.02-6.25A84.5,84.5,0,0,0,276.3,511.511a57.585,57.585,0,0,0-8.839-9.533c-.379-.379-.821-.758-1.2-1.073L265,499.894l-1.263-1.01-.631-.505-.694-.442-2.715-1.831-2.778-1.641a80.941,80.941,0,0,0-11.869-5.493c-4.1-1.515-8.334-2.778-12.564-3.914-8.523-2.273-17.235-3.977-25.759-6.629a74.954,74.954,0,0,1-12.437-4.924,47.874,47.874,0,0,1-5.745-3.472l-1.326-1.01c-.442-.316-.884-.694-1.326-1.073l-2.525-2.21-1.263-1.073c-.442-.379-.821-.758-1.2-1.136l-2.4-2.336c-1.641-1.515-3.03-3.22-4.546-4.924a26.706,26.706,0,0,1-2.083-2.588l-2.02-2.652-1.894-2.778c-.316-.442-.631-.884-.947-1.389l-.884-1.452a65.682,65.682,0,0,1-5.808-12,48.288,48.288,0,0,1-3.03-12.942h.316a47.432,47.432,0,0,0,3.283,12.753,62.363,62.363,0,0,0,6,11.743l.884,1.389.947,1.326,1.894,2.715,2.083,2.588c.694.884,1.389,1.7,2.147,2.525,1.515,1.578,2.9,3.283,4.546,4.735l2.4,2.273a10.3,10.3,0,0,0,1.263,1.073l1.263,1.073,2.525,2.147c.442.379.884.694,1.326,1.01l1.326.947a45.072,45.072,0,0,0,5.619,3.283,77.663,77.663,0,0,0,12.248,4.672c8.46,2.462,17.172,4.1,25.759,6.313,4.293,1.136,8.586,2.336,12.816,3.851a85.294,85.294,0,0,1,12.248,5.493,64.661,64.661,0,0,1,20.329,17.551,88.156,88.156,0,0,1,12.5,23.738c.694,2.147,1.452,4.23,2.083,6.376s1.263,4.293,1.831,6.44c.505,2.147,1.136,4.293,1.641,6.5l.694,3.283.379,1.641.316,1.641a157.172,157.172,0,0,1,2.967,26.642c0,2.21.063,4.482-.063,6.692-.063,1.136-.063,2.273-.126,3.346l-.253,3.346a119.029,119.029,0,0,1-2.02,13.321,101.152,101.152,0,0,1-3.725,12.942,90,90,0,0,1-5.619,12.311,88.624,88.624,0,0,1-16.415,21.4,90.672,90.672,0,0,1-10.417,8.586c-1.768,1.326-3.535,2.588-5.24,3.977l-2.525,2.083-1.263,1.01-1.2,1.073A108.525,108.525,0,0,0,234.694,695.8a214.113,214.113,0,0,0-13.447,22.665c-4.1,7.829-8.081,15.72-12.185,23.549l-1.136,2.21L206.6,742.2a129.572,129.572,0,0,1-10.67-19.761,140.4,140.4,0,0,1-6.755-21.4l-1.136-5.493c-.316-1.831-.568-3.725-.884-5.556s-.505-3.725-.694-5.556-.379-3.725-.505-5.556a165.024,165.024,0,0,1-.063-22.349,219.277,219.277,0,0,1,2.4-22.223c1.136-7.324,2.652-14.647,4.356-21.907s3.662-14.394,5.808-21.529c2.083-7.134,4.419-14.205,6.5-21.213.253-.884.505-1.768.694-2.652.253-.884.379-1.768.568-2.652a51.236,51.236,0,0,0,.442-5.366,56.873,56.873,0,0,0-.884-10.859,53.817,53.817,0,0,0-7.7-20.266,39.762,39.762,0,0,0-7.071-8.144,37.352,37.352,0,0,0-9.091-5.871,42.818,42.818,0,0,0-10.354-3.22l-1.326-.253a9.576,9.576,0,0,0-1.326-.189l-2.715-.253a9.779,9.779,0,0,0-1.389-.063l-1.389-.063-1.389-.063h-1.389a53.379,53.379,0,0,0-5.493.316l-2.715.253c-.884.126-1.831.253-2.715.442L147,511.2l-2.778.505c-1.831.316-3.662.568-5.493.821a120.012,120.012,0,0,1-22.349,1.01,77.059,77.059,0,0,1-21.971-4.293,48.245,48.245,0,0,1-10.038-5.051,40.38,40.38,0,0,1-4.482-3.472,24.77,24.77,0,0,1-3.851-4.23l.063.126c-1.515-1.7-2.9-3.472-4.23-5.24s-2.652-3.6-3.851-5.493a111.42,111.42,0,0,1-6.755-11.617,104.316,104.316,0,0,1-9.028-25.19,94.292,94.292,0,0,1-1.831-13.258,86.012,86.012,0,0,1,.253-13.384c.316-2.21.505-4.419.947-6.629.379-2.21.947-4.356,1.452-6.566.126-.568.316-1.073.442-1.641l.505-1.578.505-1.578.253-.821.316-.758,2.4-6.25a252.4,252.4,0,0,0,14.394-51.138c1.515-8.712,2.778-17.551,3.535-26.39a249.382,249.382,0,0,0,1.01-26.579Z" transform="translate(-50.248 -292.5)"/>
            </g>
            <g id="Group_60" data-name="Group 60" transform="translate(164.297 465.677)">
              <path id="Path_44" data-name="Path 44" d="M289.376,857.416a42.28,42.28,0,0,1-1.01-14.9,56.275,56.275,0,0,1,3.472-14.647A74.727,74.727,0,0,1,295,820.988c.316-.568.631-1.073.947-1.641s.631-1.073.947-1.641l1.01-1.578,1.073-1.578c.694-1.073,1.452-2.02,2.21-3.03s1.578-1.957,2.4-2.967l2.462-2.841c.821-.947,1.641-1.831,2.336-2.778a58.275,58.275,0,0,0,7.513-12.437l.758-1.641.694-1.7c.442-1.136.884-2.273,1.263-3.409.758-2.273,1.452-4.609,2.083-6.945a85.222,85.222,0,0,0,2.336-14.458,88.789,88.789,0,0,0,0-14.773l.316-.063a59.516,59.516,0,0,1,1.894,14.9c.063,2.525-.126,5.051-.316,7.576a74.316,74.316,0,0,1-1.136,7.513,60.281,60.281,0,0,1-2.083,7.323,68.563,68.563,0,0,1-2.967,7.008,65.04,65.04,0,0,1-8.4,12.69c-.821,1.01-1.641,1.894-2.525,2.841l-2.525,2.715c-.821.884-1.641,1.831-2.4,2.778s-1.578,1.894-2.273,2.9l-1.073,1.515-1.01,1.515a13.443,13.443,0,0,0-1.01,1.578c-.316.505-.631,1.073-.947,1.578a63.686,63.686,0,0,0-3.283,6.566,54.825,54.825,0,0,0-3.977,14.142,48.347,48.347,0,0,0-.442,7.387,35.662,35.662,0,0,0,.821,7.323Z" transform="translate(-288.137 -747.5)"/>
            </g>
            <g id="Group_61" data-name="Group 61" transform="translate(177.216 451.472)">
              <path id="Path_45" data-name="Path 45" d="M347.68,725a94.647,94.647,0,0,1,.884,15.215,102.582,102.582,0,0,1-1.452,15.215c-.189,1.263-.505,2.525-.758,3.788-.316,1.263-.568,2.525-.947,3.725a62,62,0,0,1-2.4,7.323,67.545,67.545,0,0,1-7.071,13.763l-1.073,1.578c-.379.505-.758,1.01-1.136,1.578l-2.336,3.03-2.273,3.03-2.083,3.094-1.073,1.578-1.01,1.578-1.957,3.157c-1.2,2.146-2.525,4.293-3.662,6.566a107.828,107.828,0,0,0-10.417,28.158H308.6a44.125,44.125,0,0,1,.758-7.639,76.069,76.069,0,0,1,1.7-7.513c.316-1.263.758-2.462,1.136-3.662s.884-2.4,1.263-3.662l.316-.884.379-.884.758-1.768c.253-.568.505-1.2.758-1.768l.821-1.768c.568-1.136,1.073-2.336,1.768-3.472l1.894-3.346c.694-1.073,1.389-2.147,2.083-3.283l1.073-1.641,1.136-1.578,2.273-3.094,2.462-2.967,2.4-2.967c.379-.505.821-.947,1.136-1.452l1.136-1.515a67.707,67.707,0,0,0,7.26-13.069,72.585,72.585,0,0,0,2.525-7.071c.379-1.2.694-2.4,1.01-3.6s.631-2.462.884-3.662a108,108,0,0,0,2.083-14.963q.189-3.788.189-7.576T347.427,725Z" transform="translate(-308.6 -725)"/>
            </g>
            <g id="Group_62" data-name="Group 62" transform="translate(103.27 34.387)">
              <path id="Path_46" data-name="Path 46" d="M191.68,191.727a23.249,23.249,0,0,0,.379,4.167,20.5,20.5,0,0,0,1.073,3.977,7.659,7.659,0,0,0,2.336,3.283,5.3,5.3,0,0,0,3.725,1.073,10.532,10.532,0,0,0,3.851-1.2,25.119,25.119,0,0,0,3.535-2.147,57.223,57.223,0,0,0,6.25-5.493,150.04,150.04,0,0,0,10.922-12.69c1.7-2.21,3.346-4.482,5.051-6.692l4.988-6.755c13.447-17.93,27.147-35.734,41.858-52.717,7.387-8.46,14.963-16.794,23.044-24.685,4.041-3.914,8.271-7.7,12.69-11.238A108.6,108.6,0,0,1,325.4,70.889a63.161,63.161,0,0,1,7.765-3.788,37.706,37.706,0,0,1,8.4-2.4,24.472,24.472,0,0,1,8.839.126,21.3,21.3,0,0,1,2.147.568c.695.253,1.326.505,2.02.758a18.182,18.182,0,0,1,1.957.821c.631.316,1.326.568,1.957.821a43.823,43.823,0,0,1,7.45,4.293c.568.379,1.136.884,1.7,1.326s1.073,1.01,1.578,1.452a20.124,20.124,0,0,1,2.715,3.409,13.423,13.423,0,0,1,1.7,4.041,14.41,14.41,0,0,1,.442,4.356,15.768,15.768,0,0,1-2.841,8.018l-.253-.189a16.778,16.778,0,0,0,1.641-3.788,14.862,14.862,0,0,0,.568-4.041,13.189,13.189,0,0,0-2.462-7.513,20.273,20.273,0,0,0-2.652-3.03c-.505-.442-1.01-.884-1.578-1.326-.568-.379-1.073-.821-1.641-1.2a44.044,44.044,0,0,0-7.26-3.788l-1.894-.758a17.847,17.847,0,0,0-1.957-.694c-.631-.189-1.326-.442-1.957-.631a10.275,10.275,0,0,0-1.894-.442,20.767,20.767,0,0,0-7.892.126,36.339,36.339,0,0,0-7.7,2.4,66.524,66.524,0,0,0-7.324,3.725,111,111,0,0,0-13.511,9.533c-4.356,3.472-8.523,7.134-12.564,10.985-8.144,7.576-15.847,15.72-23.3,24.054-14.9,16.73-28.789,34.282-42.489,52.022L230,176.764c-1.7,2.21-3.409,4.482-5.177,6.629a151.5,151.5,0,0,1-11.238,12.627,59.175,59.175,0,0,1-6.44,5.493,21.37,21.37,0,0,1-3.662,2.147,10.229,10.229,0,0,1-4.167,1.136,5.753,5.753,0,0,1-4.1-1.326,8.415,8.415,0,0,1-2.4-3.535,23.089,23.089,0,0,1-1.073-4.1,23.44,23.44,0,0,1-.253-4.23Z" transform="translate(-191.474 -64.362)"/>
            </g>
            <g id="Group_63" data-name="Group 63" transform="translate(34.282 285.178)">
              <path id="Path_47" data-name="Path 47" d="M88.513,461.663a172.871,172.871,0,0,0-3.472,20.582c-.379,3.472-.694,6.945-.884,10.354-.189,3.472-.253,6.945-.189,10.354A74.952,74.952,0,0,0,87,523.219a36.371,36.371,0,0,0,4.293,9.091,25.724,25.724,0,0,0,6.882,6.945l.189.126.189.189c1.01,1.2,2.083,2.336,3.094,3.535,1.073,1.136,2.21,2.21,3.283,3.346a41.992,41.992,0,0,0,7.45,5.493l1.01.568,1.073.505,1.073.505.505.253.568.189c.758.253,1.452.568,2.21.758a14.68,14.68,0,0,0,2.273.505l1.136.189.568.063.568.063,1.2.063h1.2a16.812,16.812,0,0,0,4.672-.758l.126.253a13.538,13.538,0,0,1-4.672,1.515,21.862,21.862,0,0,1-4.988.253,26.871,26.871,0,0,1-9.6-2.652,24.212,24.212,0,0,1-2.21-1.136l-2.147-1.326a23.438,23.438,0,0,1-2.02-1.452l-1.957-1.515c-1.2-1.136-2.462-2.21-3.6-3.409s-2.21-2.462-3.283-3.662l.379.316a25.991,25.991,0,0,1-7.513-8.018,39.1,39.1,0,0,1-4.23-9.912A76.688,76.688,0,0,1,82.2,503.079a137.427,137.427,0,0,1,1.768-20.96A177.054,177.054,0,0,1,88.324,461.6Z" transform="translate(-82.2 -461.6)"/>
            </g>
            <g id="Group_64" data-name="Group 64" transform="translate(57.6 332.591)">
              <path id="Path_48" data-name="Path 48" d="M120.5,536.7a27.653,27.653,0,0,0,1.01,14.521,25.942,25.942,0,0,0,8.271,11.617l.694.568.758.505c.505.316.947.694,1.515,1.01l1.578.947c.505.316,1.073.568,1.578.821,1.073.568,2.147,1.01,3.283,1.578.505.253,1.136.442,1.641.694l1.641.694,3.409,1.326c1.136.379,2.336.821,3.472,1.263,1.2.379,2.336.821,3.535,1.2s2.4.758,3.6,1.2l-.063.316c-1.263,0-2.525-.063-3.788-.126-1.263-.126-2.525-.253-3.788-.442-.631-.063-1.263-.189-1.894-.316l-1.894-.379c-1.263-.316-2.462-.694-3.725-1.01a36.613,36.613,0,0,1-13.195-7.892,29.981,29.981,0,0,1-4.988-5.935,27.063,27.063,0,0,1-3.094-7.071,28.455,28.455,0,0,1,.189-15.089Z" transform="translate(-119.136 -536.7)"/>
            </g>
            <g id="Group_65" data-name="Group 65" transform="translate(70.773 139.024)">
              <path id="Path_49" data-name="Path 49" d="M140.568,230.1c.505,2.525,1.01,5.051,1.641,7.513s1.389,4.924,2.21,7.26a27.863,27.863,0,0,0,1.515,3.409l1.578,3.22a29.507,29.507,0,0,0,1.7,3.094,14.1,14.1,0,0,0,2.462,2.715l-.126.316a6.762,6.762,0,0,1-3.977-1.389,13.241,13.241,0,0,1-2.9-3.03,13.99,13.99,0,0,1-1.768-3.662c-.379-1.263-.758-2.589-1.073-3.851s-.568-2.589-.821-3.851c-.189-1.263-.379-2.588-.568-3.851-.253-2.588-.442-5.177-.442-7.765Z" transform="translate(-140 -230.1)"/>
            </g>
            <g id="Group_66" data-name="Group 66" transform="translate(131.823 35.372)">
              <path id="Path_50" data-name="Path 50" d="M236.953,115.72a24.411,24.411,0,0,0,6.629,2.02,29.525,29.525,0,0,0,19.95-3.6c8.144-4.356,14.079-11.806,19.887-19,2.9-3.662,5.682-7.45,8.523-11.175a61.407,61.407,0,0,1,9.849-10.417,32.862,32.862,0,0,1,6.124-3.977,34.39,34.39,0,0,1,6.818-2.588,38.848,38.848,0,0,1,7.134-1.01,44.941,44.941,0,0,1,7.134.253v.316c-2.336.189-4.672.442-6.945.821a46.38,46.38,0,0,0-6.629,1.7,34.694,34.694,0,0,0-11.553,6.882,94.817,94.817,0,0,0-9.47,9.975c-3.03,3.535-5.935,7.2-9.028,10.8a135.862,135.862,0,0,1-9.6,10.417,45.915,45.915,0,0,1-11.553,8.4,32.955,32.955,0,0,1-13.763,3.535,27.518,27.518,0,0,1-13.763-3.094Z" transform="translate(-236.7 -65.922)"/>
            </g>
            <g id="Group_67" data-name="Group 67" transform="translate(112.82 85.297)">
              <path id="Path_51" data-name="Path 51" d="M206.726,145a47.684,47.684,0,0,0,4.293,14.142,37.6,37.6,0,0,0,8.586,11.68,31.748,31.748,0,0,0,5.935,4.041l1.578.821c.568.253,1.073.442,1.641.694.505.253,1.073.442,1.641.694a17.505,17.505,0,0,0,1.641.631l1.7.568c.568.189,1.136.316,1.768.505a14.463,14.463,0,0,0,1.768.442c.568.126,1.2.253,1.768.379.316.063.568.126.884.189l.884.126,1.831.316c1.2.189,2.462.316,3.725.568v.316q-1.894.379-3.788.568l-1.894.063a9.493,9.493,0,0,1-1.894,0c-1.263-.063-2.588-.126-3.851-.316-1.263-.126-2.525-.505-3.788-.758a25.879,25.879,0,0,1-7.134-3.157,34.494,34.494,0,0,1-10.859-10.922,40.767,40.767,0,0,1-3.472-6.818,43.339,43.339,0,0,1-2.147-7.26A42.905,42.905,0,0,1,206.6,145Z" transform="translate(-206.6 -145)"/>
            </g>
            <g id="Group_68" data-name="Group 68" transform="translate(86.872 94.451)">
              <path id="Path_52" data-name="Path 52" d="M166.005,159.5a76.4,76.4,0,0,0,5.366,20.2,48.583,48.583,0,0,0,4.924,9.091,32.174,32.174,0,0,0,7.008,7.324,24.254,24.254,0,0,0,9.028,4.041,32.53,32.53,0,0,0,9.912.505c.821-.063,1.7-.189,2.525-.253.821-.126,1.7-.253,2.525-.442,1.7-.316,3.346-.758,4.988-1.2,3.346-.947,6.629-2.147,9.912-3.346l.126.253a51.83,51.83,0,0,1-9.344,5.177,41.932,41.932,0,0,1-10.417,2.967,27.268,27.268,0,0,1-11.048-.631,27.567,27.567,0,0,1-9.849-5.051,33.887,33.887,0,0,1-7.2-8.144,50.733,50.733,0,0,1-4.735-9.659,72.267,72.267,0,0,1-2.841-10.228,73.287,73.287,0,0,1-1.389-10.48Z" transform="translate(-165.5 -159.5)"/>
            </g>
            <g id="Group_69" data-name="Group 69" transform="translate(0 403.049)">
              <path id="Path_53" data-name="Path 53" d="M110.479,648.553c-6.629,3.788-12.311,9.028-17.488,14.584a110.27,110.27,0,0,0-13.447,18.435,171.49,171.49,0,0,0-9.912,20.582c-1.515,3.535-2.9,7.071-4.356,10.606-1.389,3.535-2.841,7.134-4.167,10.67-2.715,7.134-5.429,14.331-8.018,21.529l-3.977,10.8-4.041,10.733-4.1,10.733c-1.389,3.536-2.778,7.134-4.167,10.67-2.778,7.134-5.619,14.205-8.586,21.339L27.9,809.1q3.22-11.08,6.818-21.971c2.4-7.26,4.861-14.521,7.45-21.781,2.525-7.2,5.24-14.394,8.081-21.529l4.293-10.67c1.389-3.535,2.9-7.134,4.293-10.67,1.452-3.535,2.967-7.071,4.419-10.606,1.515-3.535,3.03-7.071,4.609-10.543a185.488,185.488,0,0,1,10.48-20.582,109.808,109.808,0,0,1,14.079-18.246A77,77,0,0,1,110.479,648.3Z" transform="translate(-27.9 -648.3)"/>
            </g>
            <g id="Group_70" data-name="Group 70" transform="translate(103.16 546.173)">
              <path id="Path_54" data-name="Path 54" d="M232.021,875.126c-3.725,5.935-7.324,12-10.67,18.119-3.472,6.124-6.755,12.311-9.975,18.561-1.578,3.157-3.157,6.25-4.672,9.407s-3.094,6.313-4.735,9.407c-.821,1.515-1.641,3.094-2.462,4.609s-1.641,3.094-2.525,4.609c-1.7,3.094-3.409,6.124-5.366,9.154l-.316-.126a165.163,165.163,0,0,1,7.829-19.635c2.9-6.44,6.566-12.5,10.038-18.624s7.071-12.185,10.8-18.119c1.894-2.967,3.788-5.935,5.745-8.839s3.977-5.808,6.061-8.649Z" transform="translate(-191.3 -875)"/>
            </g>
            <g id="Group_71" data-name="Group 71" transform="translate(264.088 507.598)">
              <path id="Path_55" data-name="Path 55" d="M446.389,813.9a200.528,200.528,0,0,1,12.753,25.19c.884,2.21,1.831,4.356,2.652,6.566l2.525,6.629,2.273,6.692.568,1.7.505,1.7,1.01,3.409,1.01,3.409.947,3.409c.568,2.273,1.263,4.546,1.831,6.882a129.287,129.287,0,0,1,2.589,13.953l.442,3.535c.126,1.2.316,2.336.379,3.535.126,2.336.316,4.735.442,7.071l.126,1.768a16.532,16.532,0,0,1,.063,1.768v3.535c-.063,2.336-.063,4.735-.189,7.071H476c-.379-2.336-.631-4.672-.947-7.008l-.379-3.472c-.126-1.136-.316-2.336-.505-3.472-.379-2.336-.694-4.609-1.01-6.945-.126-1.136-.379-2.273-.568-3.472l-.631-3.472c-.379-2.273-.758-4.609-1.263-6.882-.442-2.273-.884-4.609-1.263-6.882-.442-2.273-1.01-4.546-1.452-6.818l-.758-3.409-.884-3.409-.884-3.409-.442-1.7-.505-1.7-2.02-6.692-2.273-6.629c-.758-2.21-1.641-4.419-2.462-6.566A212.126,212.126,0,0,0,446.2,814.153Z" transform="translate(-446.2 -813.9)"/>
            </g>
          </g>
        </g>
      </g>
    </g>
  </g>
</svg>
